<svg width="40px" height="40px" viewBox="0 0 40 40" version="1.1" xmlns="http://www.w3.org/2000/svg" xmlns:xlink="http://www.w3.org/1999/xlink">
    <defs>
        <linearGradient x1="-13.5217252%" y1="126.999747%" x2="123.932054%" y2="-27.3678612%" id="linearGradient-1">
            <stop stop-color="#E09B3D" offset="0%"></stop>
            <stop stop-color="#C74C4D" offset="30%"></stop>
            <stop stop-color="#C21975" offset="60%"></stop>
            <stop stop-color="#7024C4" offset="100%"></stop>
        </linearGradient>
        <linearGradient x1="-129.762805%" y1="256.541024%" x2="253.923185%" y2="-149.710021%" id="linearGradient-2">
            <stop stop-color="#E09B3D" offset="0%"></stop>
            <stop stop-color="#C74C4D" offset="30%"></stop>
            <stop stop-color="#C21975" offset="60%"></stop>
            <stop stop-color="#7024C4" offset="100%"></stop>
        </linearGradient>
        <linearGradient x1="23.5077226%" y1="93.1543789%" x2="81.3639419%" y2="10.6135653%" id="linearGradient-3">
            <stop stop-color="#E09B3D" offset="0%"></stop>
            <stop stop-color="#C74C4D" offset="30%"></stop>
            <stop stop-color="#C21975" offset="60%"></stop>
            <stop stop-color="#7024C4" offset="100%"></stop>
        </linearGradient>
    </defs>
    <g id="Artboard" stroke="none" stroke-width="1" fill="none" fill-rule="evenodd">
        <g id="instagram">
            <rect id="Rectangle" fill="#FFFFFF" x="7" y="7" width="26" height="26"></rect>
            <path d="M25.9107502,10.6666667 L14.0888079,10.6666667 C12.2018576,10.6666667 10.6666667,12.2018576 10.6666667,14.0888079 L10.6666667,25.9107502 C10.6666667,27.7977005 12.2018576,29.3333333 14.0888079,29.3333333 L25.9107502,29.3333333 C27.7977005,29.3333333 29.3333333,27.7981424 29.3333333,25.9107502 L29.3333333,14.0888079 C29.3333333,12.2018576 27.7981424,10.6666667 25.9107502,10.6666667 Z M19.999779,26.1449618 C16.6116648,26.1449618 13.8550382,23.3883352 13.8550382,19.999779 C13.8550382,16.6116648 16.6116648,13.8550382 19.999779,13.8550382 C23.3883352,13.8550382 26.1449618,16.6116648 26.1449618,19.999779 C26.1449618,23.3878933 23.3878933,26.1449618 19.999779,26.1449618 Z M26.342495,15.1255258 C25.5404307,15.1255258 24.8881734,14.4732685 24.8881734,13.671646 C24.8881734,12.8700236 25.5404307,12.2177663 26.342495,12.2177663 C27.1441175,12.2177663 27.7963748,12.8700236 27.7963748,13.671646 C27.7963748,14.4732685 27.1441175,15.1255258 26.342495,15.1255258 Z" id="Shape" fill="url(#linearGradient-1)" fill-rule="nonzero"></path>
            <path d="M20.0002214,16.4444444 C18.0403374,16.4444444 16.4444444,18.0394517 16.4444444,19.9993358 C16.4444444,21.9601054 18.0403374,23.5555556 20.0002214,23.5555556 C21.9609911,23.5555556 23.5555556,21.9601054 23.5555556,19.9993358 C23.5555556,18.0398946 21.9605483,16.4444444 20.0002214,16.4444444 Z" id="Shape" fill="url(#linearGradient-2)" fill-rule="nonzero"></path>
            <path d="M20,0 C8.95474498,0 0,8.95474498 0,20 C0,31.045255 8.95474498,40 20,40 C31.045255,40 40,31.045255 40,20 C40,8.95474498 31.045255,0 20,0 Z M32.0305711,26.0148399 C32.0305711,29.3620624 29.3081397,32.0844939 25.9609171,32.0844939 L14.0390829,32.0844939 C10.692306,32.0844939 7.96942891,29.3620624 7.96942891,26.0148399 L7.96942891,14.0930056 C7.96942891,10.7462287 10.692306,8.02335168 14.0390829,8.02335168 L25.9609171,8.02335168 C29.3081397,8.02335168 32.0305711,10.7462287 32.0305711,14.0930056 L32.0305711,26.0148399 Z" id="Shape" fill="url(#linearGradient-3)" fill-rule="nonzero"></path>
        </g>
    </g>
</svg>