<svg width="93px" height="93px" viewBox="0 0 93 93" version="1.1" xmlns="http://www.w3.org/2000/svg" xmlns:xlink="http://www.w3.org/1999/xlink">
    <g id="1" stroke="none" stroke-width="1" fill="none" fill-rule="evenodd">
        <rect id="Rectangle-59" fill="#FFFFFF" opacity="0" x="0" y="0" width="93" height="93"></rect>
        <g id="choice-copy" transform="translate(30.000000, 24.000000)" fill="#D62626" fill-rule="nonzero">
            <rect id="Rectangle-path" x="13" y="13" width="13" height="2"></rect>
            <rect id="Rectangle-path" x="13" y="23" width="13" height="2"></rect>
            <rect id="Rectangle-path" x="13" y="32" width="13" height="2"></rect>
            <path d="M24.5495796,2.91095931 L24.5495796,2 C24.5495796,0.8954305 23.6541491,-2.02906125e-16 22.5495796,0 L10.4503128,0 C9.34574334,2.02906125e-16 8.45031284,0.8954305 8.45031284,2 L8.45031284,2.91095931 L2,2.91095931 C0.8954305,2.91095931 -1.3527075e-16,3.80638981 0,4.91095931 L0,43 C1.3527075e-16,44.1045695 0.8954305,45 2,45 L31,45 C32.1045695,45 33,44.1045695 33,43 L33,4.91095931 C33,3.80638981 32.1045695,2.91095931 31,2.91095931 L24.5495796,2.91095931 Z M24.5495796,8.51932326 L24.5495796,8.12075882 L27.9312541,8.12075882 L27.9312541,39.7904143 L5.06874594,39.7904143 L5.06874594,8.12075882 L8.45042043,8.12075882 L8.45042043,8.51932326 C8.45042043,9.07160801 8.89813568,9.51932326 9.45042043,9.51932326 L23.5495796,9.51932326 C24.1018643,9.51932326 24.5495796,9.07160801 24.5495796,8.51932326 Z M10.0642205,1.60324544 L22.9356719,1.60324544 L22.9356719,7.91607782 L10.0642205,7.91607782 L10.0642205,1.60324544 Z M1.61390765,43.3967546 L1.61390765,4.51420475 L8.45031284,4.51420475 L8.45031284,6.51751338 L4.45473071,6.5174065 C3.90244596,6.51739468 3.45472113,6.96510035 3.45470931,7.5173851 C3.45470931,7.51739223 3.45470931,7.51739936 3.45470931,7.5174065 L3.45473071,40.3935528 C3.45473071,40.9458376 3.90244596,41.3935528 4.45473071,41.3935528 L28.5450541,41.3935528 C29.0973389,41.3935528 29.5450541,40.9458376 29.5450541,40.3935528 L29.5450541,7.51751338 C29.5450541,6.96522863 29.0973389,6.51751338 28.5450541,6.51751338 L24.549472,6.51751338 L24.549472,4.51420475 L31.3860924,4.51420475 L31.3860924,43.3967546 L1.61390765,43.3967546 Z" id="Shape"></path>
            <path d="M14,4 L20,4 C20.5522847,4 21,4.44771525 21,5 L21,5 C21,5.55228475 20.5522847,6 20,6 L14,6 C13.4477153,6 13,5.55228475 13,5 L13,5 C13,4.44771525 13.4477153,4 14,4 Z" id="Rectangle-path"></path>
            <path d="M6.5624833,14.214811 L8.58745956,16 L11.4375066,13.4875438 C11.7113527,13.2461351 11.7376483,12.8284386 11.4962396,12.5545926 C11.4779058,12.5337953 11.4582816,12.5141721 11.4374834,12.4958392 L11.4374834,12.4958392 C11.1160062,12.212468 10.6339326,12.2124737 10.3124621,12.4958525 L8.58745956,14.0164563 L7.68752653,13.2231212 C7.36606441,12.9397366 6.88399194,12.9397253 6.56251657,13.2230949 L6.56251657,13.2230949 C6.28865363,13.4644957 6.26233791,13.8821996 6.50373875,14.1560625 C6.52206904,14.1768577 6.5416893,14.1964793 6.5624833,14.214811 Z" id="Shape"></path>
            <path d="M8.58745956,24.0164563 L7.68752653,23.2231212 C7.36606441,22.9397366 6.88399194,22.9397253 6.56251657,23.2230949 L6.56251657,23.2230949 C6.28865363,23.4644957 6.26233791,23.8821996 6.50373875,24.1560625 C6.52206904,24.1768577 6.5416893,24.1964793 6.5624833,24.214811 L8.58745956,26 L11.4375066,23.4875438 C11.7113527,23.2461351 11.7376483,22.8284386 11.4962396,22.5545926 C11.4779058,22.5337953 11.4582816,22.5141721 11.4374834,22.4958392 L11.4374834,22.4958392 C11.1160062,22.212468 10.6339326,22.2124737 10.3124621,22.4958525 L8.58745956,24.0164563 Z" id="Shape"></path>
            <path d="M9.43754998,31.5207933 L8.49995089,32.4583292 L7.56243248,31.5208108 C7.2747966,31.2331749 6.8084467,31.2331749 6.52081083,31.5208108 L6.52081083,31.5208108 C6.23317211,31.8084495 6.23316426,32.2748016 6.52079329,32.56245 L7.45832924,33.5000491 L6.52081083,34.4375675 C6.23317495,34.7252034 6.23317495,35.1915533 6.52081083,35.4791892 L6.52081083,35.4791892 C6.8084467,35.7668251 7.2747966,35.7668251 7.56243248,35.4791892 L8.49995089,34.5416708 L9.43754998,35.4792067 C9.72519838,35.7668357 10.1915505,35.7668279 10.4791892,35.4791892 L10.4791892,35.4791892 C10.7668251,35.1915533 10.7668251,34.7252034 10.4791892,34.4375675 L9.54167076,33.5000491 L10.4792067,32.56245 C10.7668357,32.2748016 10.7668279,31.8084495 10.4791892,31.5208108 L10.4791892,31.5208108 C10.1915505,31.2331721 9.72519838,31.2331643 9.43754998,31.5207933 Z" id="Shape"></path>
        </g>
    </g>
</svg>