<svg width="93px" height="93px" viewBox="0 0 93 93" version="1.1" xmlns="http://www.w3.org/2000/svg" xmlns:xlink="http://www.w3.org/1999/xlink">
    <g id="3" stroke="none" stroke-width="1" fill="none" fill-rule="evenodd">
        <rect id="Rectangle-59" fill="#FFFFFF" opacity="0" x="0" y="0" width="93" height="93"></rect>
        <g id="fast-delivery-copy" transform="translate(24.000000, 24.000000)" fill="#D62626" fill-rule="nonzero">
            <path d="M37.5000293,24.774873 L37.5000293,10.3124707 C37.5000293,10.135459 37.4378906,9.97936523 37.3527246,9.838125 L37.3663477,9.83003906 L31.7413477,0.455009766 C31.5728613,0.173056641 31.2670898,0 30.9375,0 L6.5625293,0 C6.23293945,0 5.92716797,0.173056641 5.75868164,0.455009766 L0.133681641,9.83003906 L0.147304687,9.838125 C0.0621386719,9.97936523 0,10.135459 0,10.3124707 L0,36.5625 C0,37.0807031 0.419326172,37.5000293 0.937529297,37.5000293 L24.774873,37.5000293 C26.0034961,41.821875 29.9779102,45 34.6875293,45 C40.3729102,45 45,40.373877 45,34.6875293 C45,29.977207 41.8214355,26.0034082 37.5000293,24.774873 Z M30.4064648,1.8749707 L34.9066406,9.37494141 L24.205957,9.37494141 L22.7060156,1.8749707 L30.4064648,1.8749707 Z M16.7059863,1.8749707 L20.7955371,1.8749707 L22.3105957,9.37494141 L15.205957,9.37494141 L16.7059863,1.8749707 Z M22.5,11.25 L22.5,15.0000293 L14.9963379,15.0000293 L14.9841211,11.25 L22.5,11.25 Z M7.09347656,1.8749707 L14.796123,1.8749707 L13.3106836,9.37494141 L2.59338867,9.37494141 L7.09347656,1.8749707 Z M24.4225195,35.6249707 L1.8749707,35.6249707 L1.8749707,11.25 L13.1249707,11.25 L13.1249707,15.9374707 C13.1249707,16.4556738 13.5442969,16.875 14.0625,16.875 L23.4375293,16.875 C23.9557324,16.875 24.3750586,16.4556738 24.3750586,15.9374707 L24.3602051,11.25 L35.6249707,11.25 L35.6249707,24.4225195 C35.3157715,24.3944824 35.0039355,24.3750586 34.6874414,24.3750586 C29.0019727,24.3750586 24.3749707,29.0011816 24.3749707,34.6875293 C24.3749707,35.0039355 24.3944824,35.3157715 24.4225195,35.6249707 Z M34.6875293,43.1250293 C30.0347754,43.1250293 26.2500293,39.3401953 26.2500293,34.6875293 C26.2500293,30.0348633 30.0348633,26.2500293 34.6875293,26.2500293 C39.3401953,26.2500293 43.1250293,30.0348633 43.1250293,34.6875293 C43.1250293,39.3401953 39.3401953,43.1250293 34.6875293,43.1250293 Z" id="Shape"></path>
            <path d="M34.9999344,33.9871819 L34.9999344,28.9091142 C34.9999344,28.406617 34.5526608,28 33.9999203,28 C33.4471798,28 33,28.406617 33,28.9091142 L33,34.3636286 C33,34.6050761 33.1054669,34.8359555 33.2929637,35.0064091 L36.2929122,37.7336663 C36.48819,37.9111937 36.7441231,38 36.9999625,38 C37.2558019,38 37.5116412,37.9111937 37.7070128,37.7336663 C38.0976624,37.3785263 38.0976624,36.8032454 37.7070128,36.4481906 L34.9999344,33.9871819 Z" id="Shape"></path>
        </g>
    </g>
</svg>