<svg width="93px" height="93px" viewBox="0 0 93 93" version="1.1" xmlns="http://www.w3.org/2000/svg" xmlns:xlink="http://www.w3.org/1999/xlink">
    <g id="2" stroke="none" stroke-width="1" fill="none" fill-rule="evenodd">
        <rect id="Rectangle-59" fill="#FFFFFF" opacity="0" x="0" y="0" width="93" height="93"></rect>
        <g id="user-4-copy" transform="translate(24.000000, 24.000000)" fill="#D62626" fill-rule="nonzero">
            <path d="M45,22.5 C45,10.0939091 34.9060909,0 22.5,0 C10.0939091,0 0,10.0939091 0,22.5 C0,29.0528182 2.81781818,34.9592727 7.30309091,39.0747273 L7.28181818,39.0935455 L8.01163636,39.7088182 C8.05909091,39.7489091 8.11063636,39.7816364 8.15809091,39.8209091 C8.54590909,40.1424545 8.94763636,40.4476364 9.35672727,40.743 C9.48927273,40.8387273 9.62181818,40.9344545 9.75681818,41.0277273 C10.1937273,41.3288182 10.6420909,41.6143636 11.1002727,41.8851818 C11.2000909,41.9440909 11.3007273,42.0013636 11.4013636,42.0586364 C11.9029091,42.3441818 12.4150909,42.6133636 12.9395455,42.8604545 C12.978,42.8784545 13.0172727,42.8948182 13.0557273,42.9128182 C14.7649091,43.7072727 16.5894545,44.2906364 18.4974545,44.6350909 C18.5473636,44.6440909 18.5972727,44.6530909 18.648,44.6620909 C19.2403636,44.7643636 19.8392727,44.8461818 20.4455455,44.901 C20.5191818,44.9075455 20.5928182,44.9116364 20.6672727,44.9181818 C21.2710909,44.9680909 21.8814545,45 22.5,45 C23.1128182,45 23.7174545,44.9680909 24.318,44.9198182 C24.3940909,44.9132727 24.4701818,44.9091818 24.5462727,44.9026364 C25.1476364,44.8478182 25.7416364,44.7684545 26.3282727,44.6678182 C26.379,44.6588182 26.4305455,44.6498182 26.4812727,44.64 C28.3606364,44.3029091 30.159,43.7326364 31.8460909,42.9586364 C31.9082727,42.93 31.9712727,42.903 32.0334545,42.8735455 C32.5382727,42.6362727 33.0316364,42.3801818 33.5151818,42.1077273 C33.6354545,42.0398182 33.7549091,41.9710909 33.8743636,41.9007273 C34.3145455,41.6413636 34.7473636,41.3705455 35.1679091,41.0825455 C35.3192727,40.9794545 35.4673636,40.8706364 35.6170909,40.7626364 C35.9762727,40.5040909 36.3289091,40.2373636 36.6717273,39.9583636 C36.7478182,39.897 36.8296364,39.8438182 36.9040909,39.7808182 L37.6527273,39.1557273 L37.6306364,39.1369091 C42.1551818,35.0198182 45,29.0863636 45,22.5 Z M1.63636364,22.5 C1.63636364,10.9955455 10.9955455,1.63636364 22.5,1.63636364 C34.0044545,1.63636364 43.3636364,10.9955455 43.3636364,22.5 C43.3636364,28.6993636 40.6431818,34.2728182 36.3362727,38.097 C36.0957273,37.9309091 35.8535455,37.782 35.6056364,37.6576364 L28.6780909,34.1942727 C28.0562727,33.8833636 27.6700909,33.2582727 27.6700909,32.5636364 L27.6700909,30.1442727 C27.8304545,29.9462727 27.9998182,29.7220909 28.1749091,29.4758182 C29.0716364,28.2092727 29.7908182,26.8003636 30.3152727,25.2842727 C31.3519091,24.7917273 32.0211818,23.7591818 32.0211818,22.5932727 L32.0211818,19.6928182 C32.0211818,18.9834545 31.761,18.2953636 31.2954545,17.7545455 L31.2954545,13.9360909 C31.338,13.5114545 31.4885455,11.115 29.7548182,9.13827273 C28.2469091,7.41681818 25.8062727,6.54545455 22.5,6.54545455 C19.1937273,6.54545455 16.7530909,7.41681818 15.2451818,9.13745455 C13.5114545,11.1141818 13.662,13.5106364 13.7045455,13.9352727 L13.7045455,17.7537273 C13.2398182,18.2945455 12.9788182,18.9826364 12.9788182,19.692 L12.9788182,22.5924545 C12.9788182,23.4932727 13.383,24.3335455 14.0751818,24.9005455 C14.7379091,27.4966364 16.1018182,29.4619091 16.6058182,30.1279091 L16.6058182,32.4957273 C16.6058182,33.1633636 16.2417273,33.777 15.6550909,34.0977273 L9.18572727,37.6265455 C8.97954545,37.7386364 8.775,37.8695455 8.57045455,38.016 C4.31672727,34.1934545 1.63636364,28.6543636 1.63636364,22.5 Z M34.7391818,39.3807273 C34.4528182,39.5885455 34.1615455,39.7898182 33.8661818,39.9820909 C33.7303636,40.0704545 33.5953636,40.1588182 33.4570909,40.2447273 C33.0709091,40.4836364 32.6781818,40.7110909 32.2772727,40.9238182 C32.1889091,40.9704545 32.0997273,41.0146364 32.0105455,41.0604545 C31.0892727,41.5325455 30.1360909,41.9383636 29.1567273,42.2680909 C29.1223636,42.2795455 29.088,42.2918182 29.0528182,42.3032727 C28.5398182,42.4734545 28.0202727,42.6248182 27.495,42.7549091 C27.4933636,42.7549091 27.4917273,42.7557273 27.4900909,42.7557273 C26.9599091,42.8866364 26.4231818,42.9954545 25.8831818,43.0846364 C25.8684545,43.0870909 25.8537273,43.0903636 25.839,43.0928182 C25.3309091,43.1754545 24.8187273,43.2351818 24.3049091,43.2801818 C24.2140909,43.2883636 24.1232727,43.2940909 24.0316364,43.3006364 C23.5235455,43.3390909 23.013,43.3636364 22.5,43.3636364 C21.9812727,43.3636364 21.4641818,43.3382727 20.9495455,43.2998182 C20.8603636,43.2932727 20.7711818,43.2875455 20.6828182,43.2793636 C20.1640909,43.2335455 19.6478182,43.1721818 19.1364545,43.0887273 C19.1135455,43.0846364 19.0906364,43.0805455 19.0677273,43.0764545 C17.9860909,42.8956364 16.9216364,42.6297273 15.885,42.282 C15.8530909,42.2713636 15.8203636,42.2599091 15.7884545,42.2492727 C15.2738182,42.0741818 14.7649091,41.8802727 14.265,41.6659091 C14.2617273,41.6642727 14.2576364,41.6626364 14.2543636,41.661 C13.7814545,41.4572727 13.3175455,41.2314545 12.8593636,40.9933636 C12.7996364,40.9622727 12.7390909,40.9328182 12.6801818,40.9009091 C12.2620909,40.6775455 11.853,40.4361818 11.4496364,40.1841818 C11.3301818,40.1089091 11.2115455,40.0328182 11.0937273,39.9559091 C10.7222727,39.7129091 10.3557273,39.4600909 9.999,39.1925455 C9.96218182,39.1647273 9.927,39.1352727 9.89018182,39.1074545 C9.91636364,39.0927273 9.94254545,39.078 9.96872727,39.0632727 L16.4380909,35.5344545 C17.5508182,34.9273636 18.2421818,33.7630909 18.2421818,32.4957273 L18.2413636,29.5486364 L18.0531818,29.3211818 C18.0351818,29.3007273 16.2662727,27.1489091 15.5978182,24.2353636 L15.5233636,23.9113636 L15.2443636,23.7305455 C14.8508182,23.4760909 14.6151818,23.0506364 14.6151818,22.5916364 L14.6151818,19.6911818 C14.6151818,19.3107273 14.7763636,18.9564545 15.0709091,18.6905455 L15.3409091,18.4467273 L15.3409091,13.8894545 L15.3335455,13.7822727 C15.3310909,13.7626364 15.0897273,11.7949091 16.4757273,10.215 C17.6588182,8.86663636 19.6862727,8.18181818 22.5,8.18181818 C25.3030909,8.18181818 27.324,8.86090909 28.5103636,10.1994545 C29.8947273,11.763 29.6680909,13.7675455 29.6664545,13.7839091 L29.6590909,18.4483636 L29.9290909,18.6921818 C30.2228182,18.9572727 30.3848182,19.3123636 30.3848182,19.6928182 L30.3848182,22.5932727 C30.3848182,23.1766364 29.988,23.706 29.4185455,23.8819091 L29.0119091,24.0070909 L28.881,24.4120909 C28.3982727,25.9118182 27.711,27.297 26.8388182,28.5291818 C26.6244545,28.8319091 26.4158182,29.1002727 26.2366364,29.3056364 L26.0337273,29.5371818 L26.0337273,32.5636364 C26.0337273,33.8825455 26.7668182,35.0689091 27.9466364,35.658 L34.8741818,39.1213636 C34.9183636,39.1434545 34.9617273,39.1663636 35.0050909,39.1892727 C34.9175455,39.2555455 34.8275455,39.3169091 34.7391818,39.3807273 Z" id="Shape"></path>
        </g>
    </g>
</svg>