<?xml version="1.0" encoding="UTF-8"?>
<svg width="93px" height="93px" viewBox="0 0 93 93" version="1.1" xmlns="http://www.w3.org/2000/svg" xmlns:xlink="http://www.w3.org/1999/xlink">
    <g id="полный-цикл-работ—-от-эскиза-и-чертежей-до-монтажа-готового-изделия" stroke="none" stroke-width="1" fill="none" fill-rule="evenodd">
        <rect id="Rectangle-59" fill="#FFFFFF" opacity="0" x="0" y="0" width="93" height="93"></rect>
        <g id="design" transform="translate(24.000000, 23.851121)" fill="#D62626" fill-rule="nonzero">
            <path d="M43.4678599,31.9860298 L41.3139101,29.83208 C41.313507,29.8316769 40.1916599,28.7098298 37.9483689,26.4665387 C37.9479658,26.4661357 35.8809674,24.3991373 31.7473738,20.2655437 L41.1813234,10.8315941 C41.7830163,10.2299013 42.1143533,9.42997631 42.1143533,8.57908968 C42.1143533,7.72820306 41.7830163,6.92827807 41.1813234,6.32658522 L37.8978391,3.04318725 C37.2961462,2.44149441 36.4962213,2.11015737 35.6453346,2.11015737 C34.794448,2.11015737 33.994523,2.44149441 33.3928302,3.04318725 L23.958967,12.4770505 L17.754776,6.27285956 L14.3882847,2.90636821 C14.3880544,2.90613787 13.6714243,2.18950781 12.2383945,0.756478031 C11.2313407,-0.25057579 9.59279443,-0.250403038 8.58591336,0.756478031 L0.756478031,8.58591336 C0.268628303,9.07376309 0,9.72235792 0,10.4122403 C0,11.1021227 0.268628303,11.7507175 0.756478031,12.2384809 L12.4769641,23.9590533 L7.92902646,28.506991 C7.85647091,28.5795465 7.79756271,28.6643674 7.75472038,28.7575668 L2.18875923,40.8904102 C2.03812007,41.2187241 2.10773886,41.6060326 2.36306531,41.861359 C2.52864745,42.0269411 2.74968276,42.1144397 2.97408673,42.1144397 C3.09579003,42.1144397 3.21852984,42.0886997 3.3340141,42.0357515 L15.4669439,36.4697903 C15.5601433,36.4270344 15.6450506,36.3679534 15.7175197,36.2954842 L20.2654574,31.7475466 L23.9789197,35.461009 C24.1476114,35.6297006 24.3686467,35.7140033 24.589682,35.7140033 C24.8107173,35.7140033 25.0317527,35.6297006 25.2004443,35.461009 C25.5377413,35.123712 25.5377413,34.5767813 25.2004443,34.239398 L21.4869819,30.5259356 L30.5257629,21.4870683 L32.7500225,23.7113279 L31.9242712,24.5370792 C31.5869742,24.8743762 31.5869742,25.4213069 31.9242712,25.7586902 C32.0929629,25.9273819 32.3139982,26.0116845 32.5350335,26.0116845 C32.7560688,26.0116845 32.9771041,25.9273819 33.1457958,25.7586902 L33.9715471,24.9329389 L36.1155637,27.0769555 L33.6480702,29.544449 C33.3107733,29.881746 33.3107733,30.4286766 33.6480702,30.7659736 C33.8167619,30.9346653 34.0377972,31.0189679 34.2588325,31.0189679 C34.4798679,31.0189679 34.7009032,30.9345789 34.8695948,30.7659736 L37.3370883,28.2984801 L39.4811049,30.4424968 L38.6553536,31.2682481 C38.3180567,31.605545 38.3180567,32.1524757 38.6553536,32.489859 C38.8240453,32.6585507 39.0450806,32.7428533 39.2661159,32.7428533 C39.4871512,32.7428533 39.7081866,32.6585507 39.8768782,32.489859 L40.7026295,31.6641077 L42.2462489,33.2077271 C42.4077714,33.3692496 42.496652,33.5839795 42.496652,33.8123568 C42.496652,34.040734 42.4077714,34.2555503 42.2461626,34.4170727 L34.4169,42.2464217 C34.0836627,42.5798317 33.5408781,42.5799181 33.207468,42.2464217 L25.2004443,34.239398 L23.9788334,35.461009 C24.67076,36.1529164 25.1897049,36.671847 25.5356683,37.0178007 C25.8816316,37.3637544 28.0317233,39.5138317 31.9859434,43.4680327 C32.4894271,43.9715164 33.1508056,44.2232151 33.812184,44.2232151 C34.4735624,44.2232151 35.1349409,43.97143 35.638511,43.4679463 L43.4679463,35.638511 C43.9557096,35.1507476 44.2244243,34.5020664 44.2244243,33.812184 C44.2244243,33.1223016 43.9557096,32.4738795 43.4678599,31.9860298 Z M34.6143548,4.26471184 C34.8897204,3.98934623 35.2558668,3.83767058 35.6453346,3.83767058 C36.0348025,3.83767058 36.4008625,3.98934623 36.6763145,4.26471184 L39.9597989,7.54819618 C40.5283234,8.1166344 40.5283234,9.04163134 39.9597989,9.61006956 L37.4380615,12.131807 L32.0927037,6.78644923 L34.6143548,4.26471184 Z M1.97791624,11.0168699 C1.81639375,10.8553475 1.7275132,10.6406176 1.7275132,10.4122403 C1.7275132,10.1838631 1.81639375,9.9690468 1.97800261,9.80752432 L9.80743794,1.97808899 C10.1406752,1.64476532 10.6834599,1.64459257 11.0168699,1.97808899 L12.5554796,3.51669862 L11.7296419,4.34244993 C11.3923449,4.67974689 11.3923449,5.22667756 11.7296419,5.56397452 C11.8983335,5.73266618 12.1193689,5.81696883 12.3404042,5.81696883 C12.5614395,5.81696883 12.7824748,5.73257981 12.9511665,5.56397452 L13.7770042,4.73822321 L15.92223,6.88353548 L13.4547366,9.35102896 C13.1174396,9.68832591 13.1174396,10.2352566 13.4547366,10.5725535 C13.6234282,10.7412452 13.8444635,10.8255478 14.0654989,10.8255478 C14.2865342,10.8255478 14.5075695,10.7411588 14.6762611,10.5725535 L17.1436683,8.10506006 L19.2876849,10.2490767 L18.4619336,11.074828 C18.1246366,11.412125 18.1246366,11.9590556 18.4619336,12.296439 C18.6306252,12.4651306 18.8516606,12.5494333 19.0726959,12.5494333 C19.2937312,12.5494333 19.5147665,12.4651306 19.6834582,12.296439 L20.5092095,11.4706877 L22.7370969,13.6985751 L13.6984887,22.7375287 L1.97791624,11.0168699 Z M4.72949927,39.4948387 L5.91241393,36.9164388 L7.30798547,38.3120104 L4.72949927,39.4948387 Z M8.98280952,37.5436989 L6.68072543,35.2416148 L8.80712142,30.6066105 L13.6178138,35.4173893 L8.98280952,37.5436989 Z M15.1066711,34.463111 L9.76139972,29.1177533 L30.8710928,8.00797382 L33.7422197,10.8791008 L26.6233106,17.9980963 C26.2860136,18.3353932 26.2860136,18.8823239 26.6233106,19.2196209 C26.7920022,19.3883125 27.0130375,19.4726152 27.2340729,19.4726152 C27.4551082,19.4726152 27.6761435,19.3882262 27.8448352,19.2196209 L34.9637443,12.1007117 L36.2163641,13.3534179 L15.1066711,34.463111 Z" id="Shape"></path>
            <path d="M27.8449215,36.883357 C27.6842628,36.7226982 27.4614136,36.63114 27.2342456,36.63114 C27.0062139,36.63114 26.7842284,36.7226982 26.6235697,36.883357 C26.4629973,37.0448795 26.370489,37.2668649 26.370489,37.4948966 C26.370489,37.7220646 26.462911,37.9449138 26.6235697,38.1055726 C26.7842284,38.2662313 27.0070776,38.3586532 27.2342456,38.3586532 C27.4614136,38.3586532 27.6842628,38.2662313 27.8449215,38.1055726 C28.0054939,37.9449138 28.0980022,37.7220646 28.0980022,37.4948966 C28.0980022,37.2668649 28.0055803,37.0448795 27.8449215,36.883357 Z" id="Shape"></path>
            <path d="M25.5352364,20.3078678 C25.3744913,20.1472091 25.1516421,20.0547871 24.9245605,20.0547871 C24.6965287,20.0547871 24.4745433,20.1472091 24.3139709,20.3078678 C24.1524484,20.4685265 24.0608039,20.6913757 24.0608039,20.9185437 C24.0608039,21.1457117 24.1524484,21.3685609 24.3139709,21.5292196 C24.4745433,21.6898784 24.6966151,21.7823003 24.9245605,21.7823003 C25.1517284,21.7823003 25.3745776,21.6898784 25.5352364,21.5292196 C25.6958951,21.3685609 25.7883171,21.1457117 25.7883171,20.9185437 C25.7883171,20.6913757 25.6959815,20.4685265 25.5352364,20.3078678 Z" id="Shape"></path>
        </g>
    </g>
</svg>