<?xml version="1.0" encoding="UTF-8"?>
<svg width="93px" height="93px" viewBox="0 0 93 93" version="1.1" xmlns="http://www.w3.org/2000/svg" xmlns:xlink="http://www.w3.org/1999/xlink">
    <g id="бесплатный-замер-в-удобное-для-Вас-время" stroke="none" stroke-width="1" fill="none" fill-rule="evenodd">
        <rect id="Rectangle-59" fill="#FFFFFF" opacity="0" x="0" y="0" width="93" height="93"></rect>
        <g id="cube" transform="translate(24.000000, 24.187782)" fill="#D62626" fill-rule="nonzero">
            <path d="M43.9356704,35.3585874 L9.45229563,35.3585874 L9.45229563,0.875212558 C9.45229563,0.391832662 9.06046297,0 8.57708307,0 L0.875212558,0 C0.391832662,0 0,0.391832662 0,0.875212558 L0,43.9356704 C0,44.4190503 0.391832662,44.810883 0.875212558,44.810883 L27.2191106,44.810883 C27.7024905,44.810883 28.0943231,44.4190503 28.0943231,43.9356704 C28.0943231,43.4522905 27.7024905,43.0604579 27.2191106,43.0604579 L9.45229563,43.0604579 L9.45229563,37.1090125 L13.1865651,37.1090125 L13.1865651,39.8221714 C13.1865651,40.3055513 13.5783977,40.697384 14.0617776,40.697384 C14.5451575,40.697384 14.9369902,40.3055513 14.9369902,39.8221714 L14.9369902,37.1090125 L17.3584408,37.1090125 L17.3584408,38.3528646 C17.3584408,38.8362445 17.7502734,39.2280771 18.2336533,39.2280771 C18.7170332,39.2280771 19.1088659,38.8362445 19.1088659,38.3528646 L19.1088659,37.1090125 L21.5302289,37.1090125 L21.5302289,39.8221714 C21.5302289,40.3055513 21.9220616,40.697384 22.4054415,40.697384 C22.8888214,40.697384 23.280654,40.3055513 23.280654,39.8221714 L23.280654,37.1090125 L25.7021046,37.1090125 L25.7021046,38.3528646 C25.7021046,38.8362445 26.0939373,39.2280771 26.5773172,39.2280771 C27.0606971,39.2280771 27.4525298,38.8362445 27.4525298,38.3528646 L27.4525298,37.1090125 L29.8739803,37.1090125 L29.8739803,39.8221714 C29.8739803,40.3055513 30.265813,40.697384 30.7491929,40.697384 C31.2325728,40.697384 31.6244055,40.3055513 31.6244055,39.8221714 L31.6244055,37.1090125 L34.0457685,37.1090125 L34.0457685,38.3528646 C34.0457685,38.8362445 34.4376012,39.2280771 34.9209811,39.2280771 C35.404361,39.2280771 35.7961936,38.8362445 35.7961936,38.3528646 L35.7961936,37.1090125 L38.2176442,37.1090125 L38.2176442,39.8221714 C38.2176442,40.3055513 38.6094769,40.697384 39.0928568,40.697384 C39.5762367,40.697384 39.9680693,40.3055513 39.9680693,39.8221714 L39.9680693,37.1090125 L43.0604579,37.1090125 L43.0604579,43.0604579 L27.2191106,43.0604579 L27.2191106,44.810883 L43.9356704,44.810883 C44.4190503,44.810883 44.810883,44.4190503 44.810883,43.9356704 L44.810883,36.2337999 C44.810883,35.75042 44.4190503,35.3585874 43.9356704,35.3585874 Z M7.70187051,4.84281365 L4.98871158,4.84281365 C4.50533169,4.84281365 4.11349902,5.23464631 4.11349902,5.71802621 C4.11349902,6.2014061 4.50533169,6.59323876 4.98871158,6.59323876 L7.70187051,6.59323876 L7.70187051,9.01468935 L6.45801842,9.01468935 C5.97463853,9.01468935 5.58280587,9.40652201 5.58280587,9.88990191 C5.58280587,10.3732818 5.97463853,10.7651145 6.45801842,10.7651145 L7.70187051,10.7651145 L7.70187051,13.1865651 L4.98871158,13.1865651 C4.50533169,13.1865651 4.11349902,13.5783977 4.11349902,14.0617776 C4.11349902,14.5451575 4.50533169,14.9369902 4.98871158,14.9369902 L7.70187051,14.9369902 L7.70187051,17.3584408 L6.45801842,17.3584408 C5.97463853,17.3584408 5.58280587,17.7502734 5.58280587,18.2336533 C5.58280587,18.7170332 5.97463853,19.1088659 6.45801842,19.1088659 L7.70187051,19.1088659 L7.70187051,21.5302289 L4.98871158,21.5302289 C4.50533169,21.5302289 4.11349902,21.9220616 4.11349902,22.4054415 C4.11349902,22.8888214 4.50533169,23.280654 4.98871158,23.280654 L7.70187051,23.280654 L7.70187051,25.7021046 L6.45801842,25.7021046 C5.97463853,25.7021046 5.58280587,26.0939373 5.58280587,26.5773172 C5.58280587,27.0606971 5.97463853,27.4525298 6.45801842,27.4525298 L7.70187051,27.4525298 L7.70187051,29.8739803 L4.98871158,29.8739803 C4.50533169,29.8739803 4.11349902,30.265813 4.11349902,30.7491929 C4.11349902,31.2325728 4.50533169,31.6244055 4.98871158,31.6244055 L7.70187051,31.6244055 L7.70187051,34.0457685 L6.45801842,34.0457685 C5.97463853,34.0457685 5.58280587,34.4376012 5.58280587,34.9209811 C5.58280587,35.404361 5.97463853,35.7961936 6.45801842,35.7961936 L7.70187051,35.7961936 L7.70187051,38.2176442 L4.98871158,38.2176442 C4.50533169,38.2176442 4.11349902,38.6094769 4.11349902,39.0928568 C4.11349902,39.5762367 4.50533169,39.9680693 4.98871158,39.9680693 L7.70187051,39.9680693 L7.70187051,43.0604579 L1.75042512,43.0604579 L1.75042512,1.75042512 L7.70187051,1.75042512 L7.70187051,4.84281365 Z" id="Shape"></path>
            <path d="M28.7069719,8.96103882 C28.223592,8.96103882 27.8317594,9.35287148 27.8317594,9.83625138 L27.8317594,11.2083221 C27.8317594,11.691702 28.223592,12.0835347 28.7069719,12.0835347 C29.1903518,12.0835347 29.5821845,11.691702 29.5821845,11.2083221 L29.5821845,9.83625138 C29.5821845,9.35287148 29.1903518,8.96103882 28.7069719,8.96103882 Z" id="Shape"></path>
            <path d="M39.6471289,10.0187332 L29.1445782,3.95508555 C28.8737874,3.79877259 28.5401564,3.79877259 28.2693656,3.95508555 L17.7668149,10.0187332 C17.4960242,10.1750462 17.3292087,10.4639538 17.3292087,10.7766673 L17.3292087,22.9039626 C17.3292087,23.216676 17.4960242,23.5055837 17.7668149,23.6618966 L28.2693656,29.7255443 C28.404761,29.8037008 28.5558227,29.8428228 28.7069719,29.8428228 C28.8581211,29.8428228 29.0091828,29.8037008 29.1445782,29.7255443 L39.6471289,23.6618966 C39.9179197,23.5055837 40.0847352,23.216676 40.0847352,22.9039626 L40.0847352,10.7766673 C40.0847352,10.4639538 39.9179197,10.1750462 39.6471289,10.0187332 Z M27.8317594,6.22888778 L27.8317594,6.51674519 C27.8317594,7.00012508 28.223592,7.39195775 28.7069719,7.39195775 C29.1903518,7.39195775 29.5821845,7.00012508 29.5821845,6.51674519 L29.5821845,6.22888778 L37.4596226,10.7769298 L29.5821845,15.3301356 L29.5821845,14.5279158 C29.5821845,14.0445359 29.1903518,13.6527033 28.7069719,13.6527033 C28.223592,13.6527033 27.8317594,14.0445359 27.8317594,14.5279158 L27.8317594,15.3301356 L19.9543212,10.7770174 L27.8317594,6.22888778 Z M38.3343101,21.3880944 L38.109818,21.2584754 C37.6912914,21.0169168 37.1560114,21.1601891 36.9142777,21.5788032 C36.672544,21.9974174 36.8159913,22.5326974 37.2346055,22.7743436 L37.4590975,22.9039626 L28.7069719,27.9570898 L19.9548463,22.9040501 L20.1793383,22.7744311 C20.5979525,22.5327849 20.7413999,21.9975049 20.4996661,21.5788908 C20.25802,21.1602766 19.7226524,21.0168292 19.3041258,21.258563 L19.0796338,21.3880944 L19.0796338,12.2932356 L26.9516456,16.8432031 L26.2420233,17.2528901 C25.8234091,17.4945363 25.6799618,18.0298163 25.9216955,18.4484305 C26.0837848,18.7291987 26.3779438,18.8861243 26.6804172,18.8861243 C26.8288533,18.8861243 26.9793898,18.8483151 27.1172358,18.7687583 L27.8317594,18.3561831 L27.8317594,21.3551864 C27.8317594,21.8385663 28.223592,22.230399 28.7069719,22.230399 C29.1903518,22.230399 29.5821845,21.8385663 29.5821845,21.3551864 L29.5821845,18.3562706 L30.296708,18.7688458 C30.434554,18.8484026 30.585003,18.8862118 30.7335266,18.8862118 C31.036,18.8862118 31.330159,18.7292862 31.4922484,18.448518 C31.7339821,18.0299038 31.5905347,17.4946238 31.1719206,17.2529776 L30.4622982,16.8432906 L38.3343101,12.2932356 L38.3343101,21.3880944 Z" id="Shape"></path>
            <path d="M29.3257472,24.0482155 C29.1629577,23.8854259 28.9371528,23.7917782 28.7069719,23.7917782 C28.476791,23.7917782 28.2509862,23.8854259 28.0881966,24.0482155 C27.9254071,24.211005 27.8317594,24.4368098 27.8317594,24.6669907 C27.8317594,24.8971716 27.9254071,25.1229765 28.0881966,25.285766 C28.2509862,25.4485556 28.476791,25.5422033 28.7069719,25.5422033 C28.9371528,25.5422033 29.1629577,25.4485556 29.3257472,25.285766 C29.4885367,25.1229765 29.5821845,24.8971716 29.5821845,24.6669907 C29.5821845,24.4368098 29.4885367,24.211005 29.3257472,24.0482155 Z" id="Shape"></path>
            <path d="M35.2350073,19.5987223 L34.0467312,18.9127307 C33.6281171,18.6710845 33.0929246,18.8144444 32.8511909,19.2330585 C32.6094572,19.6516727 32.7529045,20.1869527 33.1715187,20.4285989 L34.3597948,21.1145905 C34.4976408,21.1941473 34.6480898,21.2319565 34.7966134,21.2319565 C35.0990868,21.2319565 35.3932458,21.0750309 35.5553351,20.7942627 C35.7970688,20.3756485 35.6536215,19.8403685 35.2350073,19.5987223 Z" id="Shape"></path>
            <path d="M24.5627529,19.232971 C24.3210192,18.8143568 23.7857392,18.6709095 23.3672126,18.9126432 L22.1789365,19.5986348 C21.7603223,19.840281 21.616875,20.375561 21.8586087,20.7941752 C22.0206981,21.0749434 22.314857,21.231869 22.6173305,21.231869 C22.7657665,21.231869 22.9163031,21.1940598 23.054149,21.114503 L24.2424251,20.4285114 C24.6610393,20.1868652 24.8044866,19.6515852 24.5627529,19.232971 Z" id="Shape"></path>
        </g>
    </g>
</svg>