<?xml version="1.0" encoding="UTF-8"?>
<svg width="93px" height="93px" viewBox="0 0 93 93" version="1.1" xmlns="http://www.w3.org/2000/svg" xmlns:xlink="http://www.w3.org/1999/xlink">
    <g id="индивидуальные-системы-скидок-(накопительные-и-от-объема-заказа)" stroke="none" stroke-width="1" fill="none" fill-rule="evenodd">
        <rect id="Rectangle-59" fill="#FFFFFF" opacity="0" x="0" y="0" width="93" height="93"></rect>
        <g id="coupon-(1)" transform="translate(18.000000, 30.000000)" fill="#DA3838" fill-rule="nonzero">
            <path d="M56.3238808,0.0187582561 L43.6859321,0.0187582561 C43.1826424,0.0187582561 42.7745082,0.426778748 42.7745082,0.930182129 L42.7745082,1.90231454 C42.7745082,2.47188341 42.3111224,2.93526918 41.7415536,2.93526918 C41.1719847,2.93526918 40.7085989,2.47188341 40.7085989,1.90231454 L40.7085989,0.930182129 C40.7085989,0.426892434 40.3005785,0.0187582561 39.7971751,0.0187582561 L1.88355628,0.0187582561 C0.844917329,0.0187582561 0,0.863675585 0,1.90231454 L0,31.0667416 C0,32.1053806 0.844917329,32.9502979 1.88355628,32.9502979 L39.7974024,32.9502979 C40.3006921,32.9502979 40.7088263,32.5422774 40.7088263,32.038874 L40.7088263,31.0667416 C40.7088263,30.4971728 41.1722121,30.033787 41.741781,30.033787 C42.3113498,30.033787 42.7747356,30.4971728 42.7747356,31.0667416 L42.7747356,32.038874 C42.7747356,32.5421637 43.1827561,32.9502979 43.6861595,32.9502979 L56.3241082,32.9502979 C57.3627471,32.9502979 58.2076645,32.1053806 58.2076645,31.0667416 L58.2076645,1.90231454 C58.2074371,0.863675585 57.3625198,0.0187582561 56.3238808,0.0187582561 Z M56.384703,31.0667416 C56.384703,31.1002791 56.357532,31.1274502 56.3239945,31.1274502 L44.597356,31.1274502 L44.597356,31.0667416 C44.597356,29.8107343 43.7819971,28.7423095 42.6530911,28.3610053 L42.6530911,27.1780983 C42.6530911,26.6748086 42.2450706,26.2666744 41.7416673,26.2666744 C41.2383776,26.2666744 40.8302434,26.6746949 40.8302434,27.1780983 L40.8302434,28.3610053 C39.7013374,28.7423095 38.8859786,29.8107343 38.8859786,31.0667416 L38.8859786,31.1274502 L1.88355628,31.1274502 C1.8500188,31.1274502 1.82284775,31.1002791 1.82284775,31.0667416 L1.82284775,1.90231454 C1.82284775,1.86877705 1.8500188,1.841606 1.88355628,1.841606 L38.8859786,1.841606 L38.8859786,1.90231454 C38.8859786,3.15832189 39.7013374,4.22674669 40.8302434,4.60805087 L40.8302434,5.79095787 C40.8302434,6.29424757 41.2382639,6.70238175 41.7416673,6.70238175 C42.244957,6.70238175 42.6530911,6.29436125 42.6530911,5.79095787 L42.6530911,4.60805087 C43.7819971,4.22674669 44.597356,3.15832189 44.597356,1.90231454 L44.597356,1.841606 L56.3238808,1.841606 C56.3574183,1.841606 56.3845893,1.86877705 56.3845893,1.90231454 L56.3845893,31.0667416 L56.384703,31.0667416 Z" id="Shape"></path>
            <path d="M41.7416673,8.76806364 C41.2383776,8.76806364 40.8302434,9.17608414 40.8302434,9.67948752 L40.8302434,11.6237523 C40.8302434,12.127042 41.2382639,12.5351762 41.7416673,12.5351762 C42.244957,12.5351762 42.6530911,12.1271557 42.6530911,11.6237523 L42.6530911,9.67948752 C42.6530911,9.17619782 42.244957,8.76806364 41.7416673,8.76806364 Z" id="Shape"></path>
            <path d="M41.7416673,14.6009718 C41.2383776,14.6009718 40.8302434,15.0089923 40.8302434,15.5123957 L40.8302434,17.4566605 C40.8302434,17.9599502 41.2382639,18.3680844 41.7416673,18.3680844 C42.244957,18.3680844 42.6530911,17.9600639 42.6530911,17.4566605 L42.6530911,15.5123957 C42.6530911,15.0089923 42.244957,14.6009718 41.7416673,14.6009718 Z" id="Shape"></path>
            <path d="M41.7416673,20.43388 C41.2383776,20.43388 40.8302434,20.8419004 40.8302434,21.3453038 L40.8302434,23.2895686 C40.8302434,23.7928583 41.2382639,24.2009925 41.7416673,24.2009925 C42.244957,24.2009925 42.6530911,23.792972 42.6530911,23.2895686 L42.6530911,21.3453038 C42.6530911,20.8419004 42.244957,20.43388 41.7416673,20.43388 Z" id="Shape"></path>
            <path d="M29.7480931,7.09073449 C29.3921409,6.73478237 28.8150688,6.73478237 28.4592303,7.09073449 L10.9606196,24.589459 C10.6046674,24.9454111 10.6046674,25.5224832 10.9606196,25.8783217 C11.1385388,26.0563546 11.3718233,26.1452573 11.6049941,26.1452573 C11.8381649,26.1452573 12.0714494,26.0563546 12.2493686,25.8783217 L29.7480931,8.37959721 C30.1040452,8.02375878 30.1040452,7.44657292 29.7480931,7.09073449 Z" id="Shape"></path>
            <path d="M14.521505,5.85166641 C11.8747719,5.85166641 9.72155149,8.00500052 9.72155149,10.6516199 C9.72155149,13.2982393 11.8748856,15.4515734 14.521505,15.4515734 C17.1681244,15.4515734 19.3214585,13.2982393 19.3214585,10.6516199 C19.3214585,8.00500052 17.1681244,5.85166641 14.521505,5.85166641 Z M14.521505,13.6288394 C12.8798734,13.6288394 11.5442855,12.2932516 11.5442855,10.6516199 C11.5442855,9.0099883 12.8798734,7.67440047 14.521505,7.67440047 C16.1631366,7.67440047 17.4987245,9.0099883 17.4987245,10.6516199 C17.4987245,12.2932516 16.1630229,13.6288394 14.521505,13.6288394 Z" id="Shape"></path>
            <path d="M26.1873213,17.5174827 C23.5405882,17.5174827 21.3873678,19.6708168 21.3873678,22.3174362 C21.3873678,24.9640556 23.5407019,27.1173898 26.1873213,27.1173898 C28.8339407,27.1173898 30.9872748,24.9640556 30.9872748,22.3174362 C30.9872748,19.6708168 28.8339407,17.5174827 26.1873213,17.5174827 Z M26.1873213,25.2946557 C24.5456897,25.2946557 23.2101019,23.9590679 23.2101019,22.3174362 C23.2101019,20.6758046 24.5456897,19.3402168 26.1873213,19.3402168 C27.8289529,19.3402168 29.1645408,20.6758046 29.1645408,22.3174362 C29.1645408,23.9590679 27.8288393,25.2946557 26.1873213,25.2946557 Z" id="Shape"></path>
        </g>
    </g>
</svg>