<?xml version="1.0" encoding="UTF-8"?>
<svg width="93px" height="93px" viewBox="0 0 93 93" version="1.1" xmlns="http://www.w3.org/2000/svg" xmlns:xlink="http://www.w3.org/1999/xlink">
    <g id="возможность-рассрочки-(предоплата---50-%)" stroke="none" stroke-width="1" fill="none" fill-rule="evenodd">
        <rect id="Rectangle-59" fill="#FFFFFF" opacity="0" x="0" y="0" width="93" height="93"></rect>
        <g id="Group-7" transform="translate(28.020459, 28.616133)" fill="#DA3838">
            <path d="M0,6.07937941 L1.31696649,6.07937941 L1.31696649,0 L4.71140125,0 C5.34206442,0 5.9170722,0.073053463 6.43644187,0.219162581 C6.95581153,0.365271698 7.40097885,0.587608325 7.77195718,0.88617913 C8.14293552,1.18474994 8.43353085,1.5627222 8.6437519,2.02010726 C8.85397296,2.47749233 8.95908191,3.02380518 8.95908191,3.65906221 C8.95908191,4.29431925 8.84779008,4.84698458 8.62520308,5.31707478 C8.40261608,5.78716499 8.09965499,6.1778422 7.71631071,6.48911815 C7.33296644,6.80039409 6.88161624,7.03225943 6.36224657,7.18472112 C5.84287691,7.33718281 5.28023488,7.41341251 4.6743036,7.41341251 L2.8008724,7.41341251 L2.8008724,9.33823169 L5.78723303,9.33823169 L5.78723303,10.5960343 L2.8008724,10.5960343 L2.8008724,13.2831581 L1.31696649,13.2831581 L1.31696649,10.5960343 L0,10.5960343 L0,9.33823169 L1.31696649,9.33823169 L1.31696649,7.41341251 L0,7.41341251 L0,6.07937941 Z M4.70718651,6.0292349 C5.56462927,6.0292349 6.23876799,5.8306081 6.7296229,5.43334855 C7.22047782,5.03608899 7.46590159,4.43390298 7.46590159,3.62677245 C7.46590159,2.81964192 7.22047782,2.23321994 6.7296229,1.86748892 C6.23876799,1.5017579 5.56462927,1.31889513 4.70718651,1.31889513 L2.78726993,1.31889513 L2.78726993,6.0292349 L4.70718651,6.0292349 Z" id="₽-copy"></path>
        </g>
        <g id="loan" transform="translate(23.355705, 24.000000)" fill="#DA3838" fill-rule="nonzero">
            <path d="M43.4814886,18.8822066 L43.87967,18.224231 C44.5321588,17.1456368 44.1405878,15.7704384 43.0035932,15.1485263 C42.4557049,14.8452981 41.8028273,14.7617632 41.1896124,14.9163213 C40.5763975,15.0708792 40.0541732,15.4510184 39.7384278,15.9720998 L36.6326905,21.0647866 L36.6326905,10.9927554 L25.0169919,0 L2.38908851,0 C1.06972374,0 0,1.01235508 0,2.26096309 L0,42.2046443 C0,43.869455 1.42629828,45.2192618 3.18545135,45.2192618 L33.4472391,45.2192618 C35.2063922,45.2192618 36.6326905,43.869455 36.6326905,42.2046443 L36.6326905,30.1016471 L42.6851258,20.1874858 L44.065151,20.9411402 L41.2778811,25.5105378 L42.6571286,26.2641922 L46.2407614,20.3854673 L43.4814886,18.8822066 Z M41.605292,16.3702706 C41.8090489,16.3176474 42.0268044,16.344879 42.2095635,16.4453417 C42.4549271,16.580764 42.6065783,16.8287928 42.6077449,17.0974293 C42.6065783,17.2299077 42.5692488,17.359442 42.4996448,17.4742565 L42.1014634,18.1259762 L40.724549,17.3723219 L41.1227304,16.7183942 C41.2265531,16.5458044 41.3999797,16.420318 41.602959,16.3702706 L41.605292,16.3702706 Z M31.3478431,35.7503748 L29.9720953,34.9967205 L30.7548484,33.7153609 L32.1294298,34.4690153 L31.3478431,35.7503748 Z M30.4138278,36.9809511 L29.3872663,37.461921 L29.3141627,36.3803828 L30.4138278,36.9809511 Z M32.9250148,33.160792 L31.5488782,32.4071376 L38.3327385,21.2899998 L39.7096529,22.0436542 L32.9250148,33.160792 Z M25.4836108,2.5730231 L33.913858,10.5511611 L26.2799736,10.5511611 C25.8401853,10.5511611 25.4836108,10.2137094 25.4836108,9.79750672 L25.4836108,2.5730231 Z M35.0399648,42.2046443 C35.0399648,43.0370497 34.3268157,43.711953 33.4472391,43.711953 L3.18545135,43.711953 C2.30587476,43.711953 1.59272567,43.0370497 1.59272567,42.2046443 L1.59272567,2.26096309 C1.59272567,1.84476039 1.94930022,1.50730873 2.38908851,1.50730873 L23.8908851,1.50730873 L23.8908851,9.79750672 C23.8908851,11.0461147 24.9606088,12.0584698 26.2799736,12.0584698 L35.0399648,12.0584698 L35.0399648,23.6753453 L27.6759417,35.7474309 L27.9508579,39.8170908 L31.8105735,38.008394 L35.0399648,32.7085258 L35.0399648,42.2046443 Z M40.5060157,20.7398468 L39.1291013,19.9861925 L39.9254642,18.6809131 L41.3023786,19.4345675 L40.5060157,20.7398468 Z" id="Shape"></path>
            <polygon id="Shape" points="18.3163452 39.9436812 31.0581506 39.9436812 31.0581506 41.45099 18.3163452 41.45099"></polygon>
            <polygon id="Shape" points="4.77817702 22.6096309 23.0945223 22.6096309 23.0945223 24.1169396 4.77817702 24.1169396"></polygon>
            <polygon id="Shape" points="4.77817702 27.1315571 23.0945223 27.1315571 23.0945223 28.6388658 4.77817702 28.6388658"></polygon>
            <polygon id="Shape" points="4.77817702 31.6534832 23.0945223 31.6534832 23.0945223 33.160792 4.77817702 33.160792"></polygon>
        </g>
    </g>
</svg>