<?xml version="1.0" encoding="UTF-8"?>
<svg width="93px" height="93px" viewBox="0 0 93 93" version="1.1" xmlns="http://www.w3.org/2000/svg" xmlns:xlink="http://www.w3.org/1999/xlink">
    <g id="бесплатные-услуги-дизайнера-с-возможностью-предварительного-проектирования-при-помощи-компьютерной-визуализации-" stroke="none" stroke-width="1" fill="none" fill-rule="evenodd">
        <rect id="Rectangle-59" fill="#FFFFFF" opacity="0" x="0" y="0" width="93" height="93"></rect>
        <g id="monitor" transform="translate(20.500000, 24.000000)" fill="#D62626" fill-rule="nonzero">
            <path d="M48.7425354,0.0808668775 L40.3923556,0.0808668775 C39.9782252,0.0808668775 39.6426627,0.416429434 39.6426627,0.830559809 C39.6426627,1.24469018 39.9782252,1.58025274 40.3923556,1.58025274 L48.7425354,1.58025274 C49.2592238,1.58025274 49.6796516,2.00068054 49.6796516,2.51756882 L49.6796516,30.5104032 L12.2449845,30.5104032 L12.2449845,1.58025274 L40.3923556,1.58025274 L40.3923556,0.0808668775 L2.43660199,0.0808668775 C1.09305229,0.0808668775 0,1.17391917 0,2.51756882 L0,34.7801543 C0,36.5758188 1.46080167,38.0366205 3.25646618,38.0366205 L13.4855764,38.0366205 C13.8997068,38.0366205 14.2352693,37.7010579 14.2352693,37.2869276 C14.2352693,36.8727972 13.8997068,36.5372346 13.4855764,36.5372346 L3.25646618,36.5372346 C2.28766299,36.5372346 1.49938586,35.7489575 1.49938586,34.7801543 L1.49938586,32.009789 L49.6796516,32.009789 L49.6796516,34.7801543 C49.6796516,35.7489575 48.8913745,36.5372346 47.9225713,36.5372346 L13.4855764,36.5372346 L13.4855764,38.0366205 L21.33826,38.0366205 C21.3054734,38.132981 21.2719872,38.228342 21.2368016,38.3213039 C20.6807293,39.7919015 19.8495698,40.8027875 18.7669132,41.3255734 C18.117979,41.6381453 17.7148441,42.2722856 17.7148441,42.9805955 C17.7148441,44.0807449 18.535408,44.9009089 19.5440949,44.9009089 L28.6973458,44.9009089 L28.6973458,43.4015231 L19.5439949,43.4015231 C19.3621694,43.4015231 19.21413,43.2538835 19.21413,43.0725578 C19.21413,42.8534475 19.2919981,42.7368953 19.4181465,42.6761202 C20.8590563,41.9804051 21.9428124,40.6937321 22.6392271,38.8517866 C22.7381866,38.5903937 22.8286496,38.3170056 22.9099163,38.0367204 L28.2703207,38.0367204 C28.3516874,38.3173055 28.4421503,38.5906935 28.5409099,38.8515867 C29.2376245,40.6942319 30.3214805,41.9810049 31.7620905,42.6761202 C31.8873392,42.7365954 31.9651073,42.8532476 31.9651073,42.9805955 C31.9651073,43.2538835 31.8175678,43.4015231 31.636242,43.4015231 L28.6973458,43.4015231 C28.2832154,43.4015231 27.9476528,43.7370856 27.9476528,44.151216 C27.9476528,44.5653464 28.2832154,44.9009089 28.6973458,44.9009089 L31.636242,44.9009089 C32.6443291,44.9009089 33.4644932,44.0807449 33.4644932,43.0725578 C33.4644932,42.2728853 33.0619581,41.6387451 32.4137236,41.3257733 C31.3307671,40.8031873 30.4996076,39.7924013 29.9433354,38.321104 C29.9082498,38.228342 29.8746636,38.132981 29.8419769,38.0366205 L47.9226712,38.0366205 C49.7183357,38.0366205 51.1791374,36.5758188 51.1791374,34.7801543 L51.1791374,2.51756882 C51.1790374,1.17391917 50.0859852,0.0808668775 48.7425354,0.0808668775 Z M10.7455987,30.5104032 L1.49938586,30.5104032 L1.49938586,2.51756882 C1.49938586,2.00068054 1.91981366,1.58025274 2.43660199,1.58025274 L10.7455987,1.58025274 L10.7455987,30.5104032 Z" id="Shape"></path>
            <path d="M46.2717474,5.30692632 L42.9584046,5.30692632 C42.203014,5.30692632 41.5884657,5.92147461 41.5884657,6.67696516 L41.5884657,27.0500205 C41.5884657,27.4641509 41.9240282,27.7997134 42.3381586,27.7997134 L46.8919934,27.7997134 C47.3061238,27.7997134 47.6416863,27.4641509 47.6416863,27.0500205 L47.6416863,6.67696516 C47.6416863,5.92147461 47.027138,5.30692632 46.2717474,5.30692632 Z M46.1424004,26.3003276 L43.0878515,26.3003276 L43.0878515,9.46272414 L46.1424004,9.46272414 L46.1424004,26.3003276 Z M46.1424004,7.96333828 L43.0878515,7.96333828 L43.0878515,6.80631218 L46.1424004,6.80631218 L46.1424004,7.96333828 Z" id="Shape"></path>
            <path d="M44.8566271,10.4872045 L44.3735249,10.4872045 C43.9593946,10.4872045 43.623832,10.8227671 43.623832,11.2368974 C43.623832,11.6510278 43.9593946,11.9865904 44.3735249,11.9865904 L44.8566271,11.9865904 C45.2707574,11.9865904 45.60632,11.6510278 45.60632,11.2368974 C45.60632,10.8227671 45.2707574,10.4872045 44.8566271,10.4872045 Z" id="Shape"></path>
            <path d="M44.8566271,13.074045 L44.3735249,13.074045 C43.9593946,13.074045 43.623832,13.4096075 43.623832,13.8237379 C43.623832,14.2378683 43.9593946,14.5734308 44.3735249,14.5734308 L44.8566271,14.5734308 C45.2707574,14.5734308 45.60632,14.2378683 45.60632,13.8237379 C45.60632,13.4096075 45.2707574,13.074045 44.8566271,13.074045 Z" id="Shape"></path>
            <path d="M44.8566271,15.6608854 L44.3735249,15.6608854 C43.9593946,15.6608854 43.623832,15.996448 43.623832,16.4105783 C43.623832,16.8247087 43.9593946,17.1602713 44.3735249,17.1602713 L44.8566271,17.1602713 C45.2707574,17.1602713 45.60632,16.8247087 45.60632,16.4105783 C45.60632,15.996448 45.2707574,15.6608854 44.8566271,15.6608854 Z" id="Shape"></path>
            <path d="M44.8566271,18.2476259 L44.3735249,18.2476259 C43.9593946,18.2476259 43.623832,18.5831885 43.623832,18.9973188 C43.623832,19.4114492 43.9593946,19.7470118 44.3735249,19.7470118 L44.8566271,19.7470118 C45.2707574,19.7470118 45.60632,19.4114492 45.60632,18.9973188 C45.60632,18.5831885 45.2707574,18.2476259 44.8566271,18.2476259 Z" id="Shape"></path>
            <path d="M44.8566271,20.8344664 L44.3735249,20.8344664 C43.9593946,20.8344664 43.623832,21.1700289 43.623832,21.5841593 C43.623832,21.9982897 43.9593946,22.3338522 44.3735249,22.3338522 L44.8566271,22.3338522 C45.2707574,22.3338522 45.60632,21.9982897 45.60632,21.5841593 C45.60632,21.1700289 45.2707574,20.8344664 44.8566271,20.8344664 Z" id="Shape"></path>
            <path d="M44.8566271,23.4213068 L44.3735249,23.4213068 C43.9593946,23.4213068 43.623832,23.7568694 43.623832,24.1709997 C43.623832,24.5851301 43.9593946,24.9206927 44.3735249,24.9206927 L44.8566271,24.9206927 C45.2707574,24.9206927 45.60632,24.5851301 45.60632,24.1709997 C45.60632,23.7568694 45.2707574,23.4213068 44.8566271,23.4213068 Z" id="Shape"></path>
            <path d="M5.14399306,6.34530101 L4.09592234,6.34530101 C3.68179197,6.34530101 3.34622941,6.68086357 3.34622941,7.09499394 C3.34622941,7.50912432 3.68179197,7.84468687 4.09592234,7.84468687 L5.14399306,7.84468687 C5.55812343,7.84468687 5.89368599,7.50912432 5.89368599,7.09499394 C5.89368599,6.68086357 5.55812343,6.34530101 5.14399306,6.34530101 Z" id="Shape"></path>
            <path d="M8.14916216,8.99451591 L4.09592234,8.99451591 C3.68179197,8.99451591 3.34622941,9.33007847 3.34622941,9.74420884 C3.34622941,10.1583392 3.68179197,10.4939018 4.09592234,10.4939018 L8.14916216,10.4939018 C8.56329254,10.4939018 8.89885509,10.1583392 8.89885509,9.74420884 C8.89885509,9.33007847 8.56329254,8.99451591 8.14916216,8.99451591 Z" id="Shape"></path>
            <path d="M8.1490622,10.8226671 L4.09592234,10.8226671 C3.68179197,10.8226671 3.34622941,11.1582297 3.34622941,11.57236 C3.34622941,11.9864904 3.68179197,12.322053 4.09592234,12.322053 L8.14916216,12.322053 C8.56329254,12.322053 8.89885509,11.9864904 8.89885509,11.57236 C8.89885509,11.1582297 8.56319258,10.8226671 8.1490622,10.8226671 Z" id="Shape"></path>
            <path d="M8.1490622,12.6508183 L4.09592234,12.6508183 C3.68179197,12.6508183 3.34622941,12.9863809 3.34622941,13.4005112 C3.34622941,13.8146416 3.68179197,14.1502042 4.09592234,14.1502042 L8.14916216,14.1502042 C8.56329254,14.1502042 8.89885509,13.8146416 8.89885509,13.4005112 C8.89885509,12.9863809 8.56319258,12.6508183 8.1490622,12.6508183 Z" id="Shape"></path>
            <path d="M5.14399306,17.4887367 L4.09592234,17.4887367 C3.68179197,17.4887367 3.34622941,17.8242993 3.34622941,18.2384297 C3.34622941,18.65256 3.68179197,18.9881226 4.09592234,18.9881226 L5.14399306,18.9881226 C5.55812343,18.9881226 5.89368599,18.65256 5.89368599,18.2384297 C5.89368599,17.8242993 5.55812343,17.4887367 5.14399306,17.4887367 Z" id="Shape"></path>
            <path d="M8.1490622,20.1381516 L4.09592234,20.1381516 C3.68179197,20.1381516 3.34622941,20.4737141 3.34622941,20.8878445 C3.34622941,21.3019749 3.68179197,21.6375374 4.09592234,21.6375374 L8.14916216,21.6375374 C8.56329254,21.6375374 8.89885509,21.3019749 8.89885509,20.8878445 C8.89885509,20.4737141 8.56319258,20.1381516 8.1490622,20.1381516 Z" id="Shape"></path>
            <path d="M8.1490622,21.9662028 L4.09592234,21.9662028 C3.68179197,21.9662028 3.34622941,22.3017654 3.34622941,22.7158957 C3.34622941,23.1300261 3.68179197,23.4655887 4.09592234,23.4655887 L8.14916216,23.4655887 C8.56329254,23.4655887 8.89885509,23.1300261 8.89885509,22.7158957 C8.89885509,22.3017654 8.56319258,21.9662028 8.1490622,21.9662028 Z" id="Shape"></path>
            <path d="M8.1490622,23.794254 L4.09592234,23.794254 C3.68179197,23.794254 3.34622941,24.1298166 3.34622941,24.543947 C3.34622941,24.9580774 3.68179197,25.2936399 4.09592234,25.2936399 L8.14916216,25.2936399 C8.56329254,25.2936399 8.89885509,24.9580774 8.89885509,24.543947 C8.89885509,24.1298166 8.56319258,23.794254 8.1490622,23.794254 Z" id="Shape"></path>
            <path d="M38.7666215,15.5523299 L35.0195562,13.2793609 C35.017657,13.2781614 35.0157578,13.2769619 35.0138586,13.2758623 L31.0718732,10.8847417 C31.0715733,10.8845418 31.0712734,10.8843419 31.0709736,10.8841419 L27.3415011,8.62186855 C27.102499,8.47682795 26.8028218,8.47682795 26.5639196,8.62186855 L22.834847,10.883942 C22.8340473,10.8843419 22.8333476,10.8848416 22.832548,10.8853414 L18.8921619,13.2755624 C18.8897629,13.2769619 18.8873639,13.2785612 18.8849649,13.2799606 L15.1387993,15.5523299 C14.914791,15.6881742 14.7779471,15.9312747 14.7779471,16.1932674 C14.7779471,16.45526 14.914791,16.6983605 15.1387993,16.8342048 L26.5639196,23.7645662 C26.6833707,23.8371365 26.8180155,23.8733217 26.9527603,23.8733217 C27.0875052,23.8733217 27.22205,23.8371365 27.3416011,23.7645662 L38.7666215,16.8342048 C38.9906297,16.6983605 39.1274737,16.45526 39.1274737,16.1932674 C39.1274737,15.9312747 38.9906297,15.6881742 38.7666215,15.5523299 Z M33.1920048,13.9243967 L30.8972447,15.3164265 L28.3981683,13.8005474 L30.6930284,12.4085176 L33.1920048,13.9243967 Z M29.4516368,16.1931674 L26.9526604,17.7090465 L24.453684,16.1931674 L26.9526604,14.6772883 L29.4516368,16.1931674 Z M26.9527603,10.1396469 L29.2476204,11.5316767 L26.9527603,12.9237065 L24.6579003,11.5316767 L26.9527603,10.1396469 Z M23.2123924,12.4085176 L25.5072524,13.8005474 L23.008276,15.3163265 L20.7135159,13.9242967 L23.2123924,12.4085176 Z M16.9731479,16.1931674 L19.268008,14.8011376 L21.562868,16.1931674 L19.268008,17.5851972 L16.9731479,16.1931674 Z M20.7134159,18.4619381 L23.008276,17.0699083 L25.5072524,18.5857874 L23.2123924,19.9778172 L20.7134159,18.4619381 Z M26.9527603,22.2466879 L24.6579003,20.8546581 L26.9527603,19.4626283 L29.2476204,20.8546581 L26.9527603,22.2466879 Z M30.6930284,19.9778172 L28.3981683,18.5857874 L30.8971448,17.0699083 L33.1920048,18.4619381 L30.6930284,19.9778172 Z M34.6374128,17.5851972 L32.3425527,16.1931674 L34.6373128,14.8011376 L36.9321729,16.1931674 L34.6374128,17.5851972 Z" id="Shape"></path>
            <path d="M33.0128782,22.1813147 L32.3367551,22.1813147 C31.9226247,22.1813147 31.5870622,22.5168773 31.5870622,22.9310076 C31.5870622,23.345138 31.9226247,23.6807006 32.3367551,23.6807006 L33.0128782,23.6807006 C33.4270085,23.6807006 33.7625711,23.345138 33.7625711,22.9310076 C33.7625711,22.5168773 33.4270085,22.1813147 33.0128782,22.1813147 Z" id="Shape"></path>
            <path d="M36.585015,24.1052267 L32.3367551,24.1052267 C31.9226247,24.1052267 31.5870622,24.4407892 31.5870622,24.8549196 C31.5870622,25.26905 31.9226247,25.6046125 32.3367551,25.6046125 L36.585015,25.6046125 C36.9991454,25.6046125 37.334708,25.26905 37.334708,24.8549196 C37.334708,24.4407892 36.9991454,24.1052267 36.585015,24.1052267 Z" id="Shape"></path>
        </g>
    </g>
</svg>