<?xml version="1.0" encoding="UTF-8"?>
<svg width="40px" height="40px" viewBox="0 0 40 40" version="1.1" xmlns="http://www.w3.org/2000/svg" xmlns:xlink="http://www.w3.org/1999/xlink">
    <!-- Generator: Sketch 50.2 (55047) - http://www.bohemiancoding.com/sketch -->
    <title>odnoklasniki</title>
    <desc>Created with Sketch.</desc>
    <defs>
        <circle id="path-1" cx="20" cy="20" r="20"></circle>
    </defs>
    <g id="odnoklasniki" stroke="none" stroke-width="1" fill="none" fill-rule="evenodd">
        <rect id="Rectangle-56" fill="#D8D8D8" opacity="0" x="0" y="0" width="40" height="40"></rect>
        <g id="odnoklassniki-copy-2">
            <mask id="mask-2" fill="white">
                <use xlink:href="#path-1"></use>
            </mask>
            <use id="Mask" fill="#FFFFFF" xlink:href="#path-1"></use>
            <path d="M20,7 C16.1395,7 13,9.91525 13,13.5 C13,17.08475 16.1395,20 20,20 C23.8605,20 27,17.08475 27,13.5 C27,9.91525 23.8605,7 20,7 Z M20,16.75 C18.06975,16.75 16.5,15.292375 16.5,13.5 C16.5,11.707625 18.06975,10.25 20,10.25 C21.93025,10.25 23.5,11.707625 23.5,13.5 C23.5,15.292375 21.93025,16.75 20,16.75 Z" id="Shape" fill="#D62626" fill-rule="nonzero" mask="url(#mask-2)"></path>
            <path d="M29.4775576,19.4884883 C28.7788832,18.8371706 27.6495682,18.8371706 26.9508938,19.4884883 C23.1197997,23.0599084 16.8835505,23.0599084 13.0506695,19.4884883 C12.3519952,18.8371706 11.2226801,18.8371706 10.5240058,19.4884883 C9.82533141,20.1398061 9.82533141,21.1925754 10.5240058,21.8455589 C12.746898,23.9177821 15.564825,25.0988161 18.4703096,25.4069844 L13.3758836,30.1561068 C12.6772093,30.8074246 12.6772093,31.8601939 13.3758836,32.5115117 C14.074558,33.1628294 15.203873,33.1628294 15.9025474,32.5115117 L19.9998882,28.6918912 L24.0972291,32.5115117 C24.4456728,32.8363377 24.9031168,32.9995836 25.3605609,32.9995836 C25.818005,32.9995836 26.2754491,32.8363377 26.6238928,32.5115117 C27.3225671,31.8601939 27.3225671,30.8074246 26.6238928,30.1561068 L21.5294668,25.4069844 C24.4349514,25.0988161 27.2528784,23.9177821 29.4757707,21.8455589 C30.174445,21.1942412 30.174445,20.1398061 29.4775576,19.4884883 Z" id="Shape" fill="#D62626" fill-rule="nonzero" mask="url(#mask-2)"></path>
        </g>
    </g>
</svg>