<svg width="14px" height="18px" viewBox="0 0 14 18" version="1.1" xmlns="http://www.w3.org/2000/svg" xmlns:xlink="http://www.w3.org/1999/xlink">
    <g id="Магазин" stroke="none" stroke-width="1" fill="none" fill-rule="evenodd">
        <g id="Artboard" transform="translate(-1002.000000, -1093.000000)" fill="#D62626" fill-rule="nonzero" stroke="#D62626" stroke-width="0.900000036">
            <g id="file" transform="translate(1002.300527, 1093.431995)">
                <path d="M8.72211546,0.0833487516 L1.16215505,0.0833487516 C0.609870299,0.0833487516 0.162155049,0.531064002 0.162155049,1.08334875 L0.162155049,15.1974139 C0.162155049,15.7496986 0.609870299,16.1974139 1.16215505,16.1974139 L12.162155,16.1974139 C12.7144398,16.1974139 13.162155,15.7496986 13.162155,15.1974139 L13.162155,4.42354366 C13.162155,4.15322095 13.0527144,3.89441373 12.8587736,3.70610192 L9.41873397,0.365907011 C9.23211465,0.184704179 8.9822332,0.0833487516 8.72211546,0.0833487516 Z M9.28981462,1.00023906 L12.2178572,3.84329728 L9.28981462,3.84329728 L9.28981462,1.00023906 Z M0.715346538,15.6602784 L0.715346538,0.620484256 L8.73662313,0.620484256 L8.73662313,4.38043278 L12.6089636,4.38043278 L12.6089636,15.6602784 L0.715346538,15.6602784 Z" id="Shape"></path>
            </g>
        </g>
    </g>
</svg>