<svg xmlns="http://www.w3.org/2000/svg" width="25" height="26"><g fill="#434343" fill-rule="nonzero"><path d="M10.5 26c-.525 0-.875-.3350785-.875-.8376963 0-.5026178.35-.8376964.875-.8376964 8.4875 0 8.6625-7.9581152 8.75-12.1465968v-.5026178H.875c-.525 0-.875-.3350786-.875-.8376964S.35 10 .875 10h19.25c.2625 0 .4375.0837696.6125.2513089.175.1675393.2625.4188482.2625.5863874v1.3403142C20.9125 16.2827225 20.7375 26 10.5 26z"/><path d="M10.5 26C.2625 26 .0875 16.2827225 0 12.1780105v-1.3403142c0-.2513089.0875-.4188481.2625-.5863874C.4375 10.0837696.7 10 .875 10h19.25c.525 0 .875.3350785.875.8376963 0 .5026178-.35.8376964-.875.8376964H1.75v.5026178c.0875 4.2722513.175 12.1465968 8.75 12.1465968.525 0 .875.3350786.875.8376964S11.025 26 10.5 26zM5.10391396 8c-.30519776 0-.61039551-.26195999-.68669495-.61123997l-.22889832-.87319996c-.30519776-.87319997-.22889832-1.92103992.15259888-2.70691989.15259888-.34927998.22889832-.96051995.07629944-1.39711993L4.11202125 1.1890403c-.15259888-.43659998.07629944-.96051996.45779664-1.13515995.38149719-.17464.83929383.08732.91559327.61123997l.3814972 1.22247995c.22889832.87319996.15259888 1.92103991-.15259888 2.70691988-.22889832.34927998-.22889832.96051996-.07629944 1.39711994l.22889832.87319996c.15259888.43659998-.07629944.87319996-.45779664 1.04783995-.15259888 0-.22889832.08732-.30519776.08732zM10.0892939 8c-.31017722 0-.62035442-.26195999-.69789872-.61123997l-.23263291-.87319996c-.2326329-.87319997-.2326329-1.92103992.1550886-2.79423988.15508861-.34927999.23263291-.96051996.07754431-1.39711994L9.08121797 1.1017203c-.1550886-.43659998.0775443-.96051995.54281011-1.04783995.38772152-.17464.85298732.08732.93053162.61123997l.3101772 1.22247995c.2326329.87319996.1550886 1.92103991-.1550886 2.70691988-.1550886.43659998-.2326329.96051996-.0775443 1.39711994l.2326329.87319996c.0775443.43659998-.1550886.87319996-.5428101 1.04783995-.0775443 0-.1550886.08732-.2326329.08732zM15.0892939 8c-.3101772 0-.6203544-.26195999-.6978987-.61123997l-.2326329-.87319996c-.2326329-.87319997-.2326329-1.92103992.1550886-2.79423988.1550886-.34927999.2326329-.96051996.0775443-1.39711994L14.081218 1.1017203c-.1550886-.43659998.0775443-.96051995.5428101-1.04783995.3877215-.17464.8529873.08732.9305316.61123997l.3101772 1.22247995c.2326329.87319996.1550886 1.92103991-.1550886 2.70691988-.1550886.43659998-.2326329.96051996-.0775443 1.39711994l.2326329.87319996c.1550886.43659998-.0775443.96051996-.4652658 1.13515995-.1550886-.08732-.2326329 0-.3101772 0z"/><path d="M18.8758105 20.9137783c-.3437381 0-.7734108-.2586652-.8593453-.603552-.0859345-.4311086.1718691-.9484389.6015417-1.0346606 2.2342979-.603552 4.8982685-2.8453167 4.7263994-4.6559727 0-.3448869-.171869-.5173303-.3437381-.603552-.6015417-.4311086-2.0624288-.2586652-2.6639706-.1724435-.4296726.0862218-.9452798-.1724434-1.0312144-.603552-.0859345-.4311085.1718691-.9484388.6015418-1.0346606.2578036-.0862217 2.578036-.603552 4.0389231.4311086.6015417.4311086.9452799 1.0346606 1.0312144 1.8106561.3437381 3.01776-3.2655123 5.776855-5.9294829 6.5528504-.0859345-.0862217-.0859345-.0862217-.1718691-.0862217z"/></g></svg>