<svg xmlns="http://www.w3.org/2000/svg" width="29" height="24"><g fill="#434343" fill-rule="nonzero"><path d="M27.4384615 12.9c-.2974359 0-.5948718-.15-.8179487-.375l-.8923077-.9c-.5948718-.6-1.6358974-.6-2.2307692 0l-.074359.075c-1.1897436 1.2-3.1974359 1.2-4.3871795 0l-.0743589-.075c-.5948718-.6-1.6358975-.6-2.2307693 0s-1.4871795.975-2.3794871.9c-.4461539 0-.7435898-.375-.6692308-.825 0-.45.3717949-.75.8179487-.675.4461538 0 .8923077-.15 1.1897436-.45.5948718-.6 1.3384615-.9 2.1564102-.9.8179488 0 1.6358975.3 2.1564103.9l.074359.075c.5948718.6 1.6358974.6 2.2307692 0l.074359-.075c1.1897436-1.2 3.1974359-1.2 4.3871795 0l.4461538.45V2.4c-.074359-.525-.4461538-.9-.9666667-.9H14.2769231c-.4461539 0-.7435898-.3-.7435898-.75s.2974359-.75.7435898-.75h11.9717948c1.3384616 0 2.3794872 1.05 2.3794872 2.4v9.3c0 .525-.2974359.9-.7435897 1.125-.148718.075-.2974359.075-.4461539.075z"/><path d="M1.18974359 12.9c-.14871795 0-.2974359 0-.44615385-.075C.2974359 12.6 0 12.225 0 11.7V2.4C0 1.05 1.04102564 0 2.37948718 0H14.3512821c.4461538 0 .7435897.3.7435897.75s-.2974359.75-.7435897.75H2.37948718c-.52051282 0-.89230769.375-.89230769.9v8.55l.44615384-.45c1.18974359-1.2 3.1974359-1.2 4.38717949 0l.07435897.075c.5948718.6 1.63589744.6 2.23076924 0L8.7 10.5c1.18974359-1.2 3.1974359-1.2 4.3871795 0 .2974359.3.7435897.525 1.1897436.45.4461538 0 .7435897.3.8179487.675 0 .45-.2974359.75-.6692308.825-.8923077.075-1.7102564-.3-2.3794872-.9-.5948717-.6-1.6358974-.6-2.23076918 0l-.14871795.15c-1.18974359 1.2-3.1974359 1.2-4.38717949 0l-.07435897-.075c-.5948718-.6-1.63589744-.6-2.23076924 0l-.89230769.9c-.2974359.225-.59487179.375-.89230769.375zM15.8384615 23.7c-.4461538 0-.7435897-.3-.7435897-.75V11.4c0-.45.2974359-.75.7435897-.75.4461539 0 .7435898.3.7435898.75v11.55c0 .375-.3717949.75-.7435898.75z"/><path d="M12.8641026 23.7c-.4461539 0-.7435898-.3-.7435898-.75V11.4c0-.45.2974359-.75.7435898-.75.4461538 0 .7435897.3.7435897.75v11.55c0 .375-.3717949.75-.7435897.75z"/><path d="M14.3512821 23.7H7.28717949c-.44615385 0-.74358975-.3-.74358975-.75s.2974359-.75.74358975-.75h7.06410261c.4461538 0 .7435897.3.7435897.75s-.3717949.75-.7435897.75z"/><path d="M21.3410256 23.7h-7.0641025c-.4461539 0-.7435898-.3-.7435898-.75s.2974359-.75.7435898-.75h7.0641025c.4461539 0 .7435898.3.7435898.75s-.2974359.75-.7435898.75z"/></g></svg>