<svg xmlns="http://www.w3.org/2000/svg" width="46" height="51" fill="none"><path fill="#000" d="M43.266 34.6882c-.7634-1.7859-2.7962-2.5789-4.5508-1.9935l-7.303 2.4341c-.021-.3012-.0801-.6014-.178-.8953-.3056-.9167-.95-1.6597-1.8146-2.0918l-10.0003-5.0002c-1.3525-.6764-2.8989-.8203-4.3529-.4048l-2.9837.8526c-.2669-1.7335-1.7683-3.0647-3.57534-3.0647H3.60362c-.66608 0-1.20591.5398-1.20591 1.2059V42.613c0 .6658.53983 1.2059 1.20591 1.2059h7.31558c.6661 0 1.2059-.5401 1.2059-1.2059v-.6466l6.2347 3.1172c2.7908 1.3943 6.1172 1.5579 9.1254.2672l13.8805-5.9137c1.8366-.7863 2.6879-2.9118 1.9003-4.7489zM9.71328 41.4071H4.80954V26.9364h3.69814c.66482 0 1.2056.5408 1.2056 1.2059v13.2648zm30.70532-4.1877l-13.8815 5.914c-2.3186.9946-4.9019.8906-7.0992-.2073l-7.3128-3.656v-9.1848l3.6039-1.0294c.8724-.2497 1.8001-.1633 2.6119.2427l10.0003 5.0002c.5948.2974.8369 1.0231.5395 1.6183-.3033.6064-1.0331.8318-1.6182.5392l-5.9665-2.9831c-1.5221-.7612-3.3947-.3458-4.4521.9876-.4139.5217-.3266 1.2804.1953 1.694.5216.4139 1.2804.3266 1.6943-.1954.3523-.4443.9763-.5828 1.4838-.3291l5.9665 2.9831c1.312.656 2.9215.461 4.0373-.5452l9.2573-3.0857c.602-.201 1.3164.0606 1.5702.6547.2663.6206-.0292 1.3247-.63 1.5822zM29.0056 13.6716c0 .6658-.5399 1.2059-1.2059 1.2059-.6661 0-1.2059-.5401-1.2059-1.2059 0-.6661.5398-1.2059 1.2059-1.2059.666 0 1.2059.5398 1.2059 1.2059zM33.8288 18.495c0 .6661-.5399 1.2059-1.2056 1.2059-.6661 0-1.206-.5398-1.206-1.2059 0-.6658.5399-1.2059 1.206-1.2059.6657 0 1.2056.5401 1.2056 1.2059zM33.4779 12.8188c-.4707-.4708-1.2345-.4708-1.7052 0l-4.8237 4.8236c-.4711.4711-.4711 1.2345 0 1.7053.4707.471 1.2345.471 1.7052 0l4.8237-4.8234c.4711-.471.4711-1.2345 0-1.7055z"/><path fill="#000" d="M17.4015 19.4368l12.0588 9.647c.2201.1762.4868.2645.7534.2645.2653 0 .5307-.0873.7502-.2619l12.1393-9.6471c.4016-.3193.5574-.8573.3884-1.3415-.1689-.4843-.6259-.8087-1.1387-.8087h-3.6978V6.27537c0-.66608-.5402-1.20591-1.2059-1.20591H22.9785c-.6661 0-1.2059.53983-1.2059 1.20591V17.2891h-3.6178c-.5122 0-.9685.3235-1.1377.8068-.1696.4833-.0154 1.0209.3844 1.3409zm5.577.2641c.6658 0 1.2059-.5398 1.2059-1.2059V7.48129h12.0589V18.495c0 .6661.5398 1.2059 1.2059 1.2059h1.4483l-8.6813 6.8989-8.6236-6.8989h1.3859z"/></svg>