<svg xmlns="http://www.w3.org/2000/svg" width="46" height="51" fill="none"><path fill="#000" d="M44.4459 20.6315c-.0001-.0647-.0145-.1624-.0396-.2187-.0661-.2396-.213-.4586-.4329-.6114l-6.1554-4.2789v-4.5869c0-.608-.4931-1.10118-1.1012-1.10118h-7.0814l-6.0253-4.18897c-.3766-.26211-.8766-.26321-1.2543-.00218l-6.0642 4.19115H9.2411c-.60822 0-1.1012.49318-1.1012 1.10118v4.5329l-6.18528 4.2749c-.30428.2103-.46889.5465-.4741.8902-.00033.0065-.00176.0126-.00176.0194l.03284 23.8713c.00042.292.11682.5719.32351.7782.20643.2058.4861.3214.77769.3214h.00151l40.76479-.0561c.608-.0008 1.1005-.4945 1.0997-1.1027l-.0329-23.8336zm-6.6279-2.4266l3.5187 2.4455-3.5187 2.4462v-4.8917zM22.98 7.8896l2.7975 1.94474h-5.6111L22.98 7.8896zm-12.6377 4.1472h25.2733v12.5911l-8.4855 5.8992-3.4596-2.6837c-.0054-.0042-.01-.0068-.0152-.0105-.3867-.2901-.9336-.3008-1.3349.0105l-3.4848 2.7031-8.4933-5.8699V12.0368zm-2.2024 6.1089v5.0088l-3.62359-2.5043 3.62359-2.5045zm-4.45588 4.6077l13.32568 9.2093L3.7109 42.278l-.02688-19.5246zm2.15143 20.6637L22.9955 30.1069 40.0939 43.37l-34.25845.0471zM28.9537 31.9416l13.2928-9.2413.0268 19.5733-13.3196-10.332z"/><path fill="#000" d="M30.434 16.4416H15.5238c-.608 0-1.1012.4932-1.1012 1.1012 0 .6081.4932 1.1012 1.1012 1.1012H30.434c.6083 0 1.1012-.4931 1.1012-1.1012 0-.608-.4929-1.1012-1.1012-1.1012zM30.434 22.1678H15.5238c-.608 0-1.1012.4932-1.1012 1.1012 0 .6081.4932 1.1013 1.1012 1.1013H30.434c.6083 0 1.1012-.4932 1.1012-1.1013 0-.608-.4929-1.1012-1.1012-1.1012z"/></svg>