<svg xmlns="http://www.w3.org/2000/svg" width="46" height="51" fill="none"><path fill="#000" d="M40.0014 28.3028c0-1.8689-1.5205-3.3895-3.3895-3.3895h-5.034c.6237-1.6862 1.0105-3.6891 1.2366-5.2063.2284-1.5316-.2199-3.0819-1.2298-4.2536-1.0069-1.1683-2.4691-1.8383-4.0114-1.8383-.624 0-1.1298.5058-1.1298 1.1298 0 2.7294-1.5686 6.8498-3.3992 7.7676-2.0605 1.0329-6.114 2.1776-6.9214 2.4008H4.82612c-.62397 0-1.12983.5059-1.12983 1.1299v15.8176c-.00008.624.50579 1.1298 1.12975 1.1298h3.38949v1.1299c0 .6239.50586 1.1298 1.12983 1.1298h4.66994c1.38 0 2.5691-.8294 3.0974-2.0155l7.9269 1.9817c.0896.0224.1817.0338.274.0338h6.779c1.869 0 3.3895-1.5205 3.3895-3.3895 0-.4408-.0846-.8621-.2383-1.2488 1.4377-.3924 2.4979-1.71 2.4979-3.2705 0-.4408-.0845-.8622-.2383-1.2488 1.4378-.3924 2.498-1.71 2.498-3.2705 0-.8674-.3274-1.6596-.8651-2.2597.5377-.6001.8651-1.3923.8651-2.2597zM8.21546 40.731H5.9558V27.173h2.25966v13.558zm6.92964 1.1298c0 .623-.5069 1.1298-1.1299 1.1298h-3.5401V27.173h4.67v14.6878zm14.6878-10.1685h6.779c.623 0 1.1298.5069 1.1298 1.1299 0 .6229-.5068 1.1298-1.1298 1.1298h-6.779c-.6239 0-1.1298.5058-1.1298 1.1298 0 .624.5059 1.1298 1.1298 1.1298h4.5194c.6229 0 1.1298.5069 1.1298 1.1299 0 .623-.5069 1.1298-1.1298 1.1298h-4.5194c-.6239 0-1.1298.5059-1.1298 1.1298 0 .624.5059 1.1299 1.1298 1.1299h2.2597c.623 0 1.1298.5068 1.1298 1.1298 0 .623-.5068 1.1298-1.1298 1.1298h-6.6399l-8.0479-2.0119V26.9c1.5244-.4377 4.7577-1.4177 6.6522-2.3674 2.5948-1.3009 4.1837-5.4156 4.5596-8.4733.4806.1758.9144.4724 1.2566.8694.5803.6731.8378 1.5644.7064 2.4451-.5352 3.5894-1.2065 5.0628-1.7572 6.164-.1751.3503-.1564.7662.0494 1.0993.2059.3331.5695.5359.9611.5359h6.779c.623 0 1.1298.5068 1.1298 1.1298 0 .623-.5068 1.1299-1.1298 1.1299h-6.779c-.6239 0-1.1298.5058-1.1298 1.1298 0 .624.5059 1.1298 1.1298 1.1298zM28.7033 6.68542c-.624 0-1.1298.50587-1.1298 1.12983v2.41035c0 .6239.5058 1.1298 1.1298 1.1298.624 0 1.1298-.5059 1.1298-1.1298V7.81525c0-.62396-.5058-1.12983-1.1298-1.12983zM22.3119 12.4049l-1.5978-1.5978c-.4411-.4412-1.1565-.4412-1.5978 0-.4412.4413-.4412 1.1566 0 1.5978l1.5978 1.5978c.4412.4413 1.1567.4413 1.5978 0 .4413-.4412.4413-1.1565 0-1.5978z"/><path fill="#000" d="M18.5348 19.2642h-2.2597c-.624 0-1.1298.5059-1.1298 1.1298 0 .624.5058 1.1299 1.1298 1.1299h2.2597c.6239 0 1.1298-.5059 1.1298-1.1299 0-.6239-.5059-1.1298-1.1298-1.1298zM41.1314 19.2642h-2.2596c-.624 0-1.1299.5059-1.1299 1.1298 0 .624.5059 1.1299 1.1299 1.1299h2.2596c.624 0 1.1299-.5059 1.1299-1.1299 0-.6239-.5059-1.1298-1.1299-1.1298zM38.2902 10.8071c-.4412-.4412-1.1566-.4412-1.5978 0l-1.5978 1.5978c-.4412.4413-.4412 1.1566 0 1.5978.4412.4413 1.1566.4413 1.5978 0l1.5978-1.5978c.4412-.4412.4412-1.1565 0-1.5978z"/></svg>