<?xml version="1.0" encoding="UTF-8"?>
<svg width="368px" height="188px" viewBox="0 0 368 188" version="1.1" xmlns="http://www.w3.org/2000/svg" xmlns:xlink="http://www.w3.org/1999/xlink">
    <!-- Generator: sketchtool 50.2 (55047) - http://www.bohemiancoding.com/sketch -->
    <title>2AE24023-0C8A-44D7-BF56-39528A087232</title>
    <desc>Created with sketchtool.</desc>
    <defs>
        <path d="M0.0687040182,4.36656022 C0.0687040182,13.2205361 7.10485428,20.4044297 15.7959126,20.4044297 L80.3725369,20.4044297 C76.0313018,20.4044297 72.0979967,18.6099889 69.255368,15.7033276 C66.40501,12.8054239 64.6453284,8.79354816 64.6453284,4.36656022 L64.6453284,0.568370955 L0.0687040182,0.568370955 L0.0687040182,4.36656022" id="path-1"></path>
        <linearGradient x1="49.9994653%" y1="-0.264900662%" x2="49.9994653%" y2="100.471965%" id="linearGradient-3">
            <stop stop-color="#E1F2F2" offset="0%"></stop>
            <stop stop-color="#B5DEE0" offset="100%"></stop>
        </linearGradient>
        <path d="M24.1087106,12.2180363 C24.1087106,5.85060518 18.8028655,0.693323737 12.2528792,0.693323737 C8.97310762,0.693323737 6.01479706,1.98285522 3.86448322,4.0645154 C1.7219887,6.15546495 0.396179035,9.03854319 0.396179035,12.2180363 L0.396179035,26.472975 L24.1087106,26.472975 L24.1087106,12.2180363" id="path-4"></path>
        <linearGradient x1="49.998168%" y1="52.7074393%" x2="49.998168%" y2="0.0334130442%" id="linearGradient-6">
            <stop stop-color="#E1F2F2" offset="0%"></stop>
            <stop stop-color="#B5DEE0" offset="100%"></stop>
        </linearGradient>
        <path d="M36.0533579,17.738162 C36.0533579,8.12304397 28.1599888,0.321604158 18.4124322,0.321604158 C13.5425115,0.321604158 9.13635192,2.27238727 5.9414576,5.426647 C2.75513558,8.57244346 0.779221608,12.9310261 0.779221608,17.738162 L0.779221608,22.5063668 L36.0533579,22.5063668 L36.0533579,17.738162" id="path-7"></path>
        <linearGradient x1="50.0012151%" y1="103.364743%" x2="50.0012151%" y2="-9.01308511%" id="linearGradient-9">
            <stop stop-color="#E1F2F2" offset="0%"></stop>
            <stop stop-color="#B5DEE0" offset="100%"></stop>
        </linearGradient>
        <path d="M44.4063622,2.65468252 L44.4063622,0.550971844 L9.30556312,0.550971844 L9.30556312,4.23289001 C9.30556312,8.61349819 7.47754756,12.5738736 4.54060982,15.4000451 C3.4248635,16.479067 2.1547211,17.3882979 0.754920099,18.0971753 L59.9304197,18.0971753 C55.6423029,18.0971753 51.7602223,16.3661559 48.9529431,13.5722448 C46.145664,10.7783336 44.4063622,6.91473909 44.4063622,2.65468252" id="path-10"></path>
        <linearGradient x1="50%" y1="-0.290303851%" x2="50%" y2="110.106929%" id="linearGradient-12">
            <stop stop-color="#E1F2F2" offset="0%"></stop>
            <stop stop-color="#B5DEE0" offset="100%"></stop>
        </linearGradient>
        <path d="M43.2445316,21.675445 C43.2445316,15.8189284 40.8241384,10.5155508 36.9183083,6.67989131 C33.0116181,2.84507633 27.6100297,0.468690224 21.6450591,0.468690224 C9.71597806,0.468690224 0.0455866535,9.96325634 0.0455866535,21.675445 L0.0455866535,25.7948521 L43.2445316,25.7948521 L43.2445316,21.675445" id="path-13"></path>
        <linearGradient x1="50%" y1="99.0196732%" x2="50%" y2="-1.09536512%" id="linearGradient-15">
            <stop stop-color="#E1F2F2" offset="0%"></stop>
            <stop stop-color="#B5DEE0" offset="100%"></stop>
        </linearGradient>
        <path d="M0.235674397,17.8536789 C0.235674397,22.1541815 1.99807162,26.0514322 4.85282828,28.8665386 C7.69984381,31.6901525 11.6392188,33.4333236 15.9871534,33.4333236 C18.5563483,33.4333236 20.979322,32.827595 23.1244751,31.7471522 C24.5359411,31.0367824 25.816668,30.1256373 26.9417122,29.0443438 C29.9031244,26.2122225 31.7463734,22.2435095 31.7463734,17.8536789 L31.7463734,0.300312049 L0.235674397,0.300312049 L0.235674397,17.8536789" id="path-16"></path>
        <linearGradient x1="50.0013648%" y1="0.251630463%" x2="50.0013648%" y2="93.4676218%" id="linearGradient-18">
            <stop stop-color="#F3F3F3" offset="0%"></stop>
            <stop stop-color="#E1F2F2" offset="100%"></stop>
        </linearGradient>
        <path d="M0.0504788299,0.303624315 L0.0504788299,16.4516211 C0.0504788299,20.7677311 1.8250708,24.6821624 4.68930924,27.5128355 C7.55354767,30.3435087 11.5143952,32.0973047 15.8895172,32.0973047 C24.6380206,32.0973047 31.7285556,25.0898619 31.7285556,16.4516211 L31.7285556,0.303624315 L0.0504788299,0.303624315" id="path-19"></path>
        <linearGradient x1="50%" y1="0.265122822%" x2="50%" y2="98.4793312%" id="linearGradient-21">
            <stop stop-color="#F3F3F3" offset="0%"></stop>
            <stop stop-color="#E1F2F2" offset="100%"></stop>
        </linearGradient>
    </defs>
    <g id="Магазин" stroke="none" stroke-width="1" fill="none" fill-rule="evenodd">
        <g id="Заказ-сформирован-Copy-2" transform="translate(-376.000000, -401.000000)">
            <g id="Group-2" transform="translate(376.000000, 401.000000)">
                <g id="Group-7" transform="translate(181.000000, 166.000000)">
                    <mask id="mask-2" fill="white">
                        <use xlink:href="#path-1"></use>
                    </mask>
                    <g id="Clip-6"></g>
                    <path d="M0.0687040182,4.36656022 C0.0687040182,13.2205361 7.10485428,20.4044297 15.7959126,20.4044297 L80.3725369,20.4044297 C76.0313018,20.4044297 72.0979967,18.6099889 69.255368,15.7033276 C66.40501,12.8054239 64.6453284,8.79354816 64.6453284,4.36656022 L64.6453284,0.568370955 L0.0687040182,0.568370955 L0.0687040182,4.36656022" id="Fill-5" fill="url(#linearGradient-3)" mask="url(#mask-2)"></path>
                </g>
                <g id="Group-10" transform="translate(343.000000, 122.000000)">
                    <mask id="mask-5" fill="white">
                        <use xlink:href="#path-4"></use>
                    </mask>
                    <g id="Clip-9"></g>
                    <path d="M24.1087106,12.2180363 C24.1087106,5.85060518 18.8028655,0.693323737 12.2528792,0.693323737 C8.97310762,0.693323737 6.01479706,1.98285522 3.86448322,4.0645154 C1.7219887,6.15546495 0.396179035,9.03854319 0.396179035,12.2180363 L0.396179035,26.472975 L24.1087106,26.472975 L24.1087106,12.2180363" id="Fill-8" fill="url(#linearGradient-6)" mask="url(#mask-5)"></path>
                </g>
                <g id="Group-13" transform="translate(276.000000, 75.000000)">
                    <mask id="mask-8" fill="white">
                        <use xlink:href="#path-7"></use>
                    </mask>
                    <g id="Clip-12"></g>
                    <path d="M36.0533579,17.738162 C36.0533579,8.12304397 28.1599888,0.321604158 18.4124322,0.321604158 C13.5425115,0.321604158 9.13635192,2.27238727 5.9414576,5.426647 C2.75513558,8.57244346 0.779221608,12.9310261 0.779221608,17.738162 L0.779221608,22.5063668 L36.0533579,22.5063668 L36.0533579,17.738162" id="Fill-11" fill="url(#linearGradient-9)" mask="url(#mask-8)"></path>
                </g>
                <polygon id="Fill-14" fill="#E0F2F2" points="277 167 312 167 312 98 277 98"></polygon>
                <g id="Group-17" transform="translate(268.000000, 166.000000)">
                    <mask id="mask-11" fill="white">
                        <use xlink:href="#path-10"></use>
                    </mask>
                    <g id="Clip-16"></g>
                    <path d="M44.4063622,2.65468252 L44.4063622,0.550971844 L9.30556312,0.550971844 L9.30556312,4.23289001 C9.30556312,8.61349819 7.47754756,12.5738736 4.54060982,15.4000451 C3.4248635,16.479067 2.1547211,17.3882979 0.754920099,18.0971753 L59.9304197,18.0971753 C55.6423029,18.0971753 51.7602223,16.3661559 48.9529431,13.5722448 C46.145664,10.7783336 44.4063622,6.91473909 44.4063622,2.65468252" id="Fill-15" fill="url(#linearGradient-12)" mask="url(#mask-11)"></path>
                </g>
                <path d="M237.424325,61.2046434 L237.522867,61.106881 L237.621408,61.2046434 L237.424325,61.2046434 Z M223.760815,61.2046434 L223.829102,61.1368958 L223.898254,61.2046434 L223.760815,61.2046434 Z M215.939758,61.2046434 L216.210314,60.9362255 L216.480006,61.2046434 L215.939758,61.2046434 Z M210.469859,61.2046434 L210.498384,61.1772013 L210.526909,61.2046434 L210.469859,61.2046434 Z M205.434751,61.2046434 L205.452904,61.1866346 L205.471056,61.2046434 L205.434751,61.2046434 Z M202.586566,57 L202.586566,61.2046434 L181,61.2046434 L181,166 L245.997407,166 L245.997407,61.2072161 L246,61.2072161 L246,57 L202.586566,57 Z" id="Fill-18" fill="#E0F2F2"></path>
                <g id="Group-21" transform="translate(203.000000, 31.000000)">
                    <mask id="mask-14" fill="white">
                        <use xlink:href="#path-13"></use>
                    </mask>
                    <g id="Clip-20"></g>
                    <path d="M43.2445316,21.675445 C43.2445316,15.8189284 40.8241384,10.5155508 36.9183083,6.67989131 C33.0116181,2.84507633 27.6100297,0.468690224 21.6450591,0.468690224 C9.71597806,0.468690224 0.0455866535,9.96325634 0.0455866535,21.675445 L0.0455866535,25.7948521 L43.2445316,25.7948521 L43.2445316,21.675445" id="Fill-19" fill="url(#linearGradient-15)" mask="url(#mask-14)"></path>
                </g>
                <g id="Group-24" transform="translate(245.000000, 152.000000)">
                    <mask id="mask-17" fill="white">
                        <use xlink:href="#path-16"></use>
                    </mask>
                    <g id="Clip-23"></g>
                    <path d="M0.235674397,17.8536789 C0.235674397,22.1541815 1.99807162,26.0514322 4.85282828,28.8665386 C7.69984381,31.6901525 11.6392188,33.4333236 15.9871534,33.4333236 C18.5563483,33.4333236 20.979322,32.827595 23.1244751,31.7471522 C24.5359411,31.0367824 25.816668,30.1256373 26.9417122,29.0443438 C29.9031244,26.2122225 31.7463734,22.2435095 31.7463734,17.8536789 L31.7463734,0.300312049 L0.235674397,0.300312049 L0.235674397,17.8536789" id="Fill-22" fill="url(#linearGradient-18)" mask="url(#mask-17)"></path>
                </g>
                <path d="M343.274133,134.85596 C343.274133,131.585081 344.585313,128.619136 346.704166,126.468088 C348.830752,124.326596 351.756419,123 355,123 L312,123 L312,153 L343.274133,153 L343.274133,134.85596" id="Fill-25" fill="#F3F3F3"></path>
                <g id="Group-28" transform="translate(312.000000, 152.000000)">
                    <mask id="mask-20" fill="white">
                        <use xlink:href="#path-19"></use>
                    </mask>
                    <g id="Clip-27"></g>
                    <path d="M0.0504788299,0.303624315 L0.0504788299,16.4516211 C0.0504788299,20.7677311 1.8250708,24.6821624 4.68930924,27.5128355 C7.55354767,30.3435087 11.5143952,32.0973047 15.8895172,32.0973047 C24.6380206,32.0973047 31.7285556,25.0898619 31.7285556,16.4516211 L31.7285556,0.303624315 L0.0504788299,0.303624315" id="Fill-26" fill="url(#linearGradient-21)" mask="url(#mask-20)"></path>
                </g>
                <path d="M282.538642,80.1622598 C285.731072,76.9726473 290.133834,75 295,75 L246,75 L246,152 L277.380386,152 L277.380386,92.6117613 C277.380386,87.7507474 279.354777,83.3433141 282.538642,80.1622598" id="Fill-29" fill="#F3F3F3"></path>
                <polygon id="Fill-30" fill="#889BA0" points="261 126 271 126 271 124 261 124"></polygon>
                <polygon id="Fill-31" fill="#889BA0" points="264 133 271 133 271 131 264 131"></polygon>
                <polygon id="Fill-32" fill="#889BA0" points="261 140 271 140 271 138 261 138"></polygon>
                <polygon id="Fill-33" fill="#889BA0" points="261 147 271 147 271 145 261 145"></polygon>
                <polygon id="Fill-34" fill="#889BA0" points="264 169 271 169 271 167 264 167"></polygon>
                <polygon id="Fill-35" fill="#889BA0" points="264 154 271 154 271 152 264 152"></polygon>
                <polygon id="Fill-36" fill="#889BA0" points="261 161 271 161 271 159 261 159"></polygon>
                <polygon id="Fill-37" fill="#889BA0" points="261 98 271 98 271 96 261 96"></polygon>
                <polygon id="Fill-38" fill="#889BA0" points="264 120 271 120 271 118 264 118"></polygon>
                <polygon id="Fill-39" fill="#889BA0" points="264 105 271 105 271 103 264 103"></polygon>
                <polygon id="Fill-40" fill="#889BA0" points="261 113 271 113 271 111 261 111"></polygon>
                <polyline id="Fill-41" fill="#52676E" points="243 121 144.911285 121 90 136 188.088715 136 243 121"></polyline>
                <polyline id="Fill-42" fill="#334044" points="135.500342 126 128 128 207.50052 128 215 126 135.500342 126"></polyline>
                <polygon id="Fill-43" fill="#5D767E" points="90 151 188 151 188 136 90 136"></polygon>
                <polyline id="Fill-44" fill="#52676E" points="89.8255747 151 0 177 98.1744253 177 188 151 89.8255747 151"></polyline>
                <polygon id="Fill-45" fill="#5D767E" points="0 187 98 187 98 176 0 176"></polygon>
                <path d="M244,121 L244,149.21279 C244,153.395075 241.517376,157.177368 237.684418,158.83325 L216.705731,167.901462 C212.872772,169.558205 210.391007,173.339637 210.391007,177.521922 C210.391007,183.308477 205.709905,188 199.935143,188 L99,188 L99,176.630757 L188.959061,151.051034 L188.959061,136.206589 L244,121" id="Fill-46" fill="#415358"></path>
                <path d="M202.361702,52.4735717 C202.361702,40.6140238 212.049476,31 224,31 L159.648638,31 C153.663467,31 148.251308,33.4062851 144.337595,37.2893485 C140.424744,41.1732671 138,46.5433702 138,52.4735717 L138,127 L202.361702,127 L202.361702,52.4735717" id="Fill-47" fill="#F3F3F3"></path>
                <polygon id="Fill-48" fill="#E0F2F2" points="138 126.940821 202 126.940821 202 126 138 126"></polygon>
                <path d="M168.359706,15.7807936 L168.359706,14.8589994 C168.359706,14.3848189 167.974931,14 167.5,14 C167.025069,14 166.640294,14.3848189 166.640294,14.8589994 L166.640294,15.7807936 C166.640294,16.2549741 166.25552,16.640598 165.780589,16.640598 L164.859706,16.640598 C164.384775,16.640598 164,17.0254169 164,17.5004025 C164,17.9753882 164.384775,18.360207 164.859706,18.360207 L165.780589,18.360207 C166.25552,18.360207 166.640294,18.7450259 166.640294,19.2200115 L166.640294,20.1410006 C166.640294,20.6151811 167.025069,21 167.5,21 C167.974931,21 168.359706,20.6151811 168.359706,20.1410006 L168.359706,19.2200115 C168.359706,18.7450259 168.74448,18.360207 169.219411,18.360207 L170.140294,18.360207 C170.615225,18.360207 171,17.9753882 171,17.5004025 C171,17.0254169 170.615225,16.640598 170.140294,16.640598 L169.219411,16.640598 C168.74448,16.640598 168.359706,16.2549741 168.359706,15.7807936" id="Fill-49" fill="#FFFFFE"></path>
                <path d="M114.359859,72.7809187 L114.359859,71.8606068 C114.359859,71.3855246 113.97514,71 113.5,71 C113.025713,71 112.640141,71.3855246 112.640141,71.8606068 L112.640141,72.7809187 C112.640141,73.256001 112.255423,73.6406726 111.781136,73.6406726 L110.859006,73.6406726 C110.384718,73.6406726 110,74.0253442 110,74.5004265 C110,74.9746558 110.384718,75.3601803 110.859006,75.3601803 L111.781136,75.3601803 C112.255423,75.3601803 112.640141,75.744852 112.640141,76.2190813 L112.640141,77.1410991 C112.640141,77.6153284 113.025713,78 113.5,78 C113.97514,78 114.359859,77.6153284 114.359859,77.1410991 L114.359859,76.2190813 C114.359859,75.744852 114.744577,75.3601803 115.219717,75.3601803 L116.140141,75.3601803 C116.615282,75.3601803 117,74.9746558 117,74.5004265 C117,74.0253442 116.615282,73.6406726 116.140141,73.6406726 L115.219717,73.6406726 C114.744577,73.6406726 114.359859,73.256001 114.359859,72.7809187" id="Fill-50" fill="#5DC0CB"></path>
                <path d="M275.359706,57.7813937 L275.359706,56.8597056 C275.359706,56.3855796 274.974931,56 274.5,56 C274.025069,56 273.640294,56.3855796 273.640294,56.8597056 L273.640294,57.7813937 C273.640294,58.2563247 273.25552,58.6410994 272.780589,58.6410994 L271.859706,58.6410994 C271.384775,58.6410994 271,59.025874 271,59.5 C271,59.974931 271.384775,60.3597056 271.859706,60.3597056 L272.780589,60.3597056 C273.25552,60.3597056 273.640294,60.7444802 273.640294,61.2194112 L273.640294,62.1402944 C273.640294,62.6152254 274.025069,63 274.5,63 C274.974931,63 275.359706,62.6152254 275.359706,62.1402944 L275.359706,61.2194112 C275.359706,60.7444802 275.74448,60.3597056 276.219411,60.3597056 L277.140294,60.3597056 C277.615225,60.3597056 278,59.974931 278,59.5 C278,59.025874 277.615225,58.6410994 277.140294,58.6410994 L276.219411,58.6410994 C275.74448,58.6410994 275.359706,58.2563247 275.359706,57.7813937" id="Fill-51" fill="#FFFFFE"></path>
                <path d="M341.113253,103.272698 L341.113253,102.614049 C341.113253,102.275565 340.838484,102 340.499204,102 C340.16072,102 339.885951,102.275565 339.885951,102.614049 L339.885951,103.272698 C339.885951,103.611182 339.611182,103.886747 339.271902,103.886747 L338.614049,103.886747 C338.274769,103.886747 338,104.16072 338,104.5 C338,104.83928 338.274769,105.114049 338.614049,105.114049 L339.271902,105.114049 C339.611182,105.114049 339.885951,105.388818 339.885951,105.728098 L339.885951,106.385951 C339.885951,106.725231 340.16072,107 340.499204,107 C340.838484,107 341.113253,106.725231 341.113253,106.385951 L341.113253,105.728098 C341.113253,105.388818 341.388818,105.114049 341.727302,105.114049 L342.385951,105.114049 C342.724435,105.114049 343,104.83928 343,104.5 C343,104.16072 342.724435,103.886747 342.385951,103.886747 L341.727302,103.886747 C341.388818,103.886747 341.113253,103.611182 341.113253,103.272698" id="Fill-52" fill="#FFFFFE"></path>
                <path d="M199,1.50043872 C199,2.3287511 198.327874,3 197.499561,3 C196.671249,3 196,2.3287511 196,1.50043872 C196,0.671248903 196.671249,0 197.499561,0 C198.327874,0 199,0.671248903 199,1.50043872" id="Fill-53" fill="#FFFFFE"></path>
                <path d="M128,54 C128,54.5525526 127.551802,55 127,55 C126.447447,55 126,54.5525526 126,54 C126,53.4481982 126.447447,53 127,53 C127.551802,53 128,53.4481982 128,54" id="Fill-54" fill="#FFFFFE"></path>
                <path d="M259,42.00052 C259,42.5527821 258.551975,43 258,43 C257.448025,43 257,42.5527821 257,42.00052 C257,41.4472179 257.448025,41 258,41 C258.551975,41 259,41.4472179 259,42.00052" id="Fill-55" fill="#FFFFFE"></path>
                <path d="M331,85.0004044 C331,85.5527699 330.552589,86 330,86 C329.447411,86 329,85.5527699 329,85.0004044 C329,84.4480388 329.447411,84 330,84 C330.552589,84 331,84.4480388 331,85.0004044" id="Fill-56" fill="#FFFFFE"></path>
                <path d="M358,89.5 C358,90.3287381 357.328916,91 356.500398,91 C355.671879,91 355,90.3287381 355,89.5 C355,88.6712619 355.671879,88 356.500398,88 C357.328916,88 358,88.6712619 358,89.5" id="Fill-57" fill="#40B9C5"></path>
                <path d="M304,56.5 C304,57.3282799 303.32828,58 302.5,58 C301.67172,58 301,57.3282799 301,56.5 C301,55.6717201 301.67172,55 302.5,55 C303.32828,55 304,55.6717201 304,56.5" id="Fill-58" fill="#40B9C5"></path>
                <path d="M240,0.999611349 C240,1.55149631 239.5521,2 239,2 C238.447123,2 238,1.55149631 238,0.999611349 C238,0.447726389 238.447123,0 239,0 C239.5521,0 240,0.447726389 240,0.999611349" id="Fill-59" fill="#40B9C5"></path>
                <path d="M132,94 C132,95.1047527 131.104753,96 130,96 C128.895247,96 128,95.1047527 128,94 C128,92.8952473 128.895247,92 130,92 C131.104753,92 132,92.8952473 132,94" id="Fill-60" fill="#40B9C5"></path>
                <path d="M217.55595,19.499556 L217.111901,19.499556 C217.110124,20.3901616 216.389876,21.1102824 215.5,21.1120582 C214.610124,21.1102824 213.888988,20.3901616 213.888099,19.499556 C213.888988,18.6098384 214.610124,17.8897176 215.5,17.8879418 C216.389876,17.8897176 217.110124,18.6098384 217.111901,19.499556 L218,19.499556 C218,18.1196945 216.880995,17.0008879 215.5,17 C214.119005,17.0008879 213,18.1196945 213,19.499556 C213,20.8803055 214.119005,21.9991121 215.5,22 C216.880995,21.9991121 218,20.8803055 218,19.499556 L217.55595,19.499556" id="Fill-61" fill="#40B9C5"></path>
                <polyline id="Fill-62" fill="#72888F" points="90.20057 153 73 158 91.79943 158 109 153 90.20057 153"></polyline>
                <polygon id="Fill-63" fill="#5D767E" points="73 158.933314 92 158.933314 92 158 73 158"></polygon>
                <polyline id="Fill-64" fill="#415358" points="92 157.740042 109 153 109 154.161999 92 159 92 157.740042"></polyline>
                <polyline id="Fill-65" fill="#72888F" points="68.20057 159 51 164 69.79943 164 87 159 68.20057 159"></polyline>
                <polygon id="Fill-66" fill="#5D767E" points="51 164.933314 70 164.933314 70 164 51 164"></polygon>
                <polyline id="Fill-67" fill="#415358" points="69 163.74022 86 159 86 160.161835 69 165 69 163.74022"></polyline>
                <polyline id="Fill-68" fill="#72888F" points="45.20057 166 28 171 46.79943 171 64 166 45.20057 166"></polyline>
                <polygon id="Fill-69" fill="#5D767E" points="28 171.933314 47 171.933314 47 171 28 171"></polygon>
                <polyline id="Fill-70" fill="#415358" points="47 170.74022 64 166 64 167.161835 47 172 47 170.74022"></polyline>
                <polyline id="Fill-71" fill="#72888F" points="115.20057 153 98 158 116.79943 158 134 153 115.20057 153"></polyline>
                <polygon id="Fill-72" fill="#5D767E" points="98 158.933314 117 158.933314 117 158 98 158"></polygon>
                <polyline id="Fill-73" fill="#415358" points="117 157.740042 134 153 134 154.161999 117 159 117 157.740042"></polyline>
                <polyline id="Fill-74" fill="#72888F" points="93.20057 159 76 164 94.7985606 164 112 159 93.20057 159"></polyline>
                <polygon id="Fill-75" fill="#5D767E" points="76 164.933314 95 164.933314 95 164 76 164"></polygon>
                <polyline id="Fill-76" fill="#415358" points="95 163.74022 112 159 112 160.161835 95 165 95 163.74022"></polyline>
                <polyline id="Fill-77" fill="#72888F" points="70.2001546 166 53 171 71.798976 171 89 166 70.2001546 166"></polyline>
                <polygon id="Fill-78" fill="#5D767E" points="53 171.933314 72 171.933314 72 171 53 171"></polygon>
                <polyline id="Fill-79" fill="#415358" points="72 170.74022 89 166 89 167.161835 72 172 72 170.74022"></polyline>
                <polyline id="Fill-80" fill="#72888F" points="141.20057 153 124 158 142.79943 158 160 153 141.20057 153"></polyline>
                <polygon id="Fill-81" fill="#5D767E" points="124 158.933314 143 158.933314 143 158 124 158"></polygon>
                <polyline id="Fill-82" fill="#415358" points="143 157.740042 160 153 160 154.161999 143 159 143 157.740042"></polyline>
                <polyline id="Fill-83" fill="#72888F" points="119.20057 159 102 164 120.79943 164 138 159 119.20057 159"></polyline>
                <polygon id="Fill-84" fill="#5D767E" points="102 164.933314 121 164.933314 121 164 102 164"></polygon>
                <polyline id="Fill-85" fill="#415358" points="121 163.74022 138 159 138 160.161835 121 165 121 163.74022"></polyline>
                <polyline id="Fill-86" fill="#EB8F2D" points="96.20057 166 79 171 97.79943 171 115 166 96.20057 166"></polyline>
                <polygon id="Fill-87" fill="#E4742B" points="79 171.933314 98 171.933314 98 171 79 171"></polygon>
                <polyline id="Fill-88" fill="#DE652B" points="98 170.74022 115 166 115 167.161835 98 172 98 170.74022"></polyline>
                <polygon id="Fill-89" fill="#52676E" points="144 84 164 84 164 82 144 82"></polygon>
                <polygon id="Fill-90" fill="#52676E" points="144 91 158 91 158 89 144 89"></polygon>
                <polygon id="Fill-91" fill="#52676E" points="144 98 162 98 162 96 144 96"></polygon>
                <polygon id="Fill-92" fill="#52676E" points="144 105 168 105 168 103 144 103"></polygon>
                <polygon id="Fill-93" fill="#52676E" points="144 126 164 126 164 124 144 124"></polygon>
                <polygon id="Fill-94" fill="#52676E" points="144 112 181 112 181 110 144 110"></polygon>
                <polygon id="Fill-95" fill="#52676E" points="144 119 161 119 161 117 144 117"></polygon>
                <polygon id="Fill-96" fill="#52676E" points="188 84 195 84 195 82 188 82"></polygon>
                <polygon id="Fill-97" fill="#52676E" points="190 91 195 91 195 89 190 89"></polygon>
                <polygon id="Fill-98" fill="#52676E" points="188 98 195 98 195 96 188 96"></polygon>
                <polygon id="Fill-99" fill="#52676E" points="188 105 195 105 195 103 188 103"></polygon>
                <polygon id="Fill-100" fill="#52676E" points="190 126 195 126 195 124 190 124"></polygon>
                <polygon id="Fill-101" fill="#52676E" points="190 112 195 112 195 110 190 110"></polygon>
                <polygon id="Fill-102" fill="#52676E" points="188 119 195 119 195 117 188 117"></polygon>
                <polygon id="Fill-103" fill="#334044" points="157 65 184 65 184 62 157 62"></polygon>
                <polygon id="Fill-104" fill="#334044" points="162 54 179 54 179 51 162 51"></polygon>
                <polygon id="Fill-105" fill="#334044" points="151 60 189 60 189 57 151 57"></polygon>
                <path d="M153.863401,73 L153.766571,72.9596716 L153.039769,72.2331845 C152.986744,72.1801815 152.986744,72.0937635 153.039769,72.0401844 C153.093372,71.9866052 153.180403,71.9866052 153.233429,72.0401844 L153.960231,72.7666715 C154.013256,72.8196745 154.013256,72.9060925 153.960231,72.9596716 L153.863401,73" id="Fill-106" fill="#415358"></path>
                <path d="M153.136599,73 L153.039769,72.9596629 C152.986744,72.9060722 152.986744,72.8196356 153.039769,72.7666211 L153.766571,72.0399772 C153.820173,71.9863865 153.906628,71.9869628 153.960231,72.0399772 C154.013256,72.0935679 154.013256,72.1800046 153.960231,72.233019 L153.233429,72.9596629 L153.136599,73" id="Fill-107" fill="#415358"></path>
                <path d="M186.863381,73 L186.766537,72.9596716 L186.040208,72.2331845 C185.986597,72.1801815 185.986597,72.0937635 186.040208,72.0401844 C186.093241,71.9866052 186.179709,71.9866052 186.233319,72.0401844 L186.960225,72.7666715 C187.013258,72.8196745 187.013258,72.9060925 186.960225,72.9596716 L186.863381,73" id="Fill-108" fill="#415358"></path>
                <path d="M186.136475,73 L186.040208,72.9596716 C185.986597,72.9060925 185.986597,72.8196745 186.040208,72.7666715 L186.766537,72.0401844 C186.820147,71.9866052 186.906615,71.9866052 186.960225,72.0401844 C187.013258,72.0937635 187.013258,72.1801815 186.960225,72.2331845 L186.233319,72.9596716 L186.136475,73" id="Fill-109" fill="#415358"></path>
                <path d="M181.863584,73 L181.766782,72.9596716 L181.04019,72.2331845 C180.986603,72.1801815 180.986603,72.0937635 181.04019,72.0401844 C181.093777,71.9866052 181.180207,71.9866052 181.233218,72.0401844 L181.95981,72.7666715 C182.013397,72.8196745 182.013397,72.9060925 181.95981,72.9596716 L181.863584,73" id="Fill-110" fill="#415358"></path>
                <path d="M181.136416,73 L181.04019,72.9596716 C180.986603,72.9060925 180.986603,72.8196745 181.04019,72.7666715 L181.766782,72.0401844 C181.819793,71.9866052 181.906799,71.9866052 181.95981,72.0401844 C182.013397,72.0937635 182.013397,72.1801815 181.95981,72.2331845 L181.233218,72.9596716 L181.136416,73" id="Fill-111" fill="#415358"></path>
                <path d="M178.863028,73 L178.766239,72.9596716 L178.039752,72.2331845 C177.986749,72.1801815 177.986749,72.0937635 178.039752,72.0401844 C178.093331,71.9866052 178.179749,71.9866052 178.233329,72.0401844 L178.959816,72.7666715 C179.013395,72.8196745 179.013395,72.9060925 178.959816,72.9596716 L178.863028,73" id="Fill-112" fill="#415358"></path>
                <path d="M178.13654,73 L178.039752,72.9596629 C177.986749,72.9060722 177.986749,72.8196356 178.039752,72.7666211 L178.766239,72.0399772 C178.819819,71.9863865 178.906236,71.9869628 178.959816,72.0399772 C179.013395,72.0935679 179.013395,72.1800046 178.959816,72.233019 L178.233329,72.9596629 L178.13654,73" id="Fill-113" fill="#415358"></path>
                <path d="M176.863505,73 L176.766647,72.9596716 L176.040213,72.2331845 C175.986596,72.1801815 175.986596,72.0937635 176.040213,72.0401844 C176.093255,71.9866052 176.179735,71.9866052 176.233353,72.0401844 L176.959787,72.7666715 C177.013404,72.8196745 177.013404,72.9060925 176.959787,72.9596716 L176.863505,73" id="Fill-114" fill="#415358"></path>
                <path d="M176.136495,73 L176.040213,72.9596716 C175.986596,72.9060925 175.986596,72.8196745 176.040213,72.7666715 L176.766647,72.0401844 C176.820265,71.9866052 176.906745,71.9866052 176.959787,72.0401844 C177.013404,72.0937635 177.013404,72.1801815 176.959787,72.2331845 L176.233353,72.9596716 L176.136495,73" id="Fill-115" fill="#415358"></path>
                <path d="M173.863008,73 L173.766782,72.9596716 L173.04019,72.2331845 C172.986603,72.1801815 172.986603,72.0937635 173.04019,72.0401844 C173.093777,71.9866052 173.180207,71.9866052 173.233218,72.0401844 L173.95981,72.7666715 C174.013397,72.8196745 174.013397,72.9060925 173.95981,72.9596716 L173.863008,73" id="Fill-116" fill="#415358"></path>
                <path d="M173.136992,73 L173.04019,72.9596716 C172.986603,72.9060925 172.986603,72.8196745 173.04019,72.7666715 L173.766782,72.0401844 C173.819793,71.9866052 173.906223,71.9866052 173.95981,72.0401844 C174.013397,72.0937635 174.013397,72.1801815 173.95981,72.2331845 L173.233218,72.9596716 L173.136992,73" id="Fill-117" fill="#415358"></path>
                <path d="M171.863008,73 L171.766782,72.9596716 L171.04019,72.2331845 C170.986603,72.1801815 170.986603,72.0937635 171.04019,72.0401844 C171.093201,71.9866052 171.179631,71.9866052 171.233218,72.0401844 L171.95981,72.7666715 C172.013397,72.8196745 172.013397,72.9060925 171.95981,72.9596716 L171.863008,73" id="Fill-118" fill="#415358"></path>
                <path d="M171.136416,73 L171.04019,72.9596629 C170.986603,72.9060722 170.986603,72.8196356 171.04019,72.7666211 L171.766782,72.0399772 C171.819793,71.9863865 171.906799,71.9869628 171.95981,72.0399772 C172.013397,72.0935679 172.013397,72.1800046 171.95981,72.233019 L171.233218,72.9596629 L171.136416,73" id="Fill-119" fill="#415358"></path>
                <path d="M183.862949,73 L183.766681,72.9596716 L183.039775,72.2331845 C182.986742,72.1801815 182.986742,72.0937635 183.039775,72.0401844 C183.093385,71.9866052 183.179853,71.9866052 183.233463,72.0401844 L183.959792,72.7666715 C184.013403,72.8196745 184.013403,72.9060925 183.959792,72.9596716 L183.862949,73" id="Fill-120" fill="#415358"></path>
                <path d="M183.136619,73 L183.039775,72.9596716 C182.986742,72.9060925 182.986742,72.8196745 183.039775,72.7666715 L183.766681,72.0401844 C183.820291,71.9866052 183.906182,71.9866052 183.959792,72.0401844 C184.013403,72.0937635 184.013403,72.1801815 183.959792,72.2331845 L183.233463,72.9596716 L183.136619,73" id="Fill-121" fill="#415358"></path>
                <path d="M166.863584,73 L166.766782,72.9596716 L166.04019,72.2331845 C165.986603,72.1801815 165.986603,72.0937635 166.04019,72.0401844 C166.093777,71.9866052 166.180207,71.9866052 166.233794,72.0401844 L166.95981,72.7666715 C167.013397,72.8196745 167.013397,72.9060925 166.95981,72.9596716 L166.863584,73" id="Fill-122" fill="#415358"></path>
                <path d="M166.136992,73 L166.04019,72.9596629 C165.986603,72.9060722 165.986603,72.8196356 166.04019,72.7666211 L166.766782,72.0399772 C166.820369,71.9863865 166.906799,71.9869628 166.95981,72.0399772 C167.013397,72.0935679 167.013397,72.1800046 166.95981,72.233019 L166.233794,72.9596629 L166.136992,73" id="Fill-123" fill="#415358"></path>
                <path d="M163.863008,73 L163.766782,72.9596716 L163.04019,72.2331845 C162.986603,72.1801815 162.986603,72.0937635 163.04019,72.0401844 C163.093777,71.9866052 163.180207,71.9866052 163.233218,72.0401844 L163.95981,72.7666715 C164.013397,72.8196745 164.013397,72.9060925 163.95981,72.9596716 L163.863008,73" id="Fill-124" fill="#415358"></path>
                <path d="M163.136992,73 L163.04019,72.9596716 C162.986603,72.9060925 162.986603,72.8196745 163.04019,72.7666715 L163.766782,72.0401844 C163.819793,71.9866052 163.906223,71.9866052 163.95981,72.0401844 C164.013397,72.0937635 164.013397,72.1801815 163.95981,72.2331845 L163.233218,72.9596716 L163.136992,73" id="Fill-125" fill="#415358"></path>
                <path d="M158.86346,73 L158.766671,72.9596716 L158.040184,72.2331845 C157.986605,72.1801815 157.986605,72.0937635 158.040184,72.0401844 C158.093764,71.9866052 158.180181,71.9866052 158.233761,72.0401844 L158.960248,72.7666715 C159.013251,72.8196745 159.013251,72.9060925 158.960248,72.9596716 L158.86346,73" id="Fill-126" fill="#415358"></path>
                <path d="M158.136972,73 L158.040184,72.9596629 C157.986605,72.9060722 157.986605,72.8196356 158.040184,72.7666211 L158.766671,72.0399772 C158.820251,71.9863865 158.906669,71.9869628 158.960248,72.0399772 C159.013251,72.0935679 159.013251,72.1800046 158.960248,72.233019 L158.233761,72.9596629 L158.136972,73" id="Fill-127" fill="#415358"></path>
                <path d="M156.863008,73 L156.766782,72.9596716 L156.04019,72.2331845 C155.986603,72.1801815 155.986603,72.0937635 156.04019,72.0401844 C156.093201,71.9866052 156.180207,71.9866052 156.233218,72.0401844 L156.95981,72.7666715 C157.013397,72.8196745 157.013397,72.9060925 156.95981,72.9596716 L156.863008,73" id="Fill-128" fill="#415358"></path>
                <path d="M156.136992,73 L156.04019,72.9596716 C155.986603,72.9060925 155.986603,72.8196745 156.04019,72.7666715 L156.766782,72.0401844 C156.820369,71.9866052 156.906223,71.9866052 156.95981,72.0401844 C157.013397,72.0937635 157.013397,72.1801815 156.95981,72.2331845 L156.233218,72.9596716 L156.136992,73" id="Fill-129" fill="#415358"></path>
                <path d="M161.863505,73 L161.766647,72.9596716 L161.040213,72.2331845 C160.986596,72.1801815 160.986596,72.0937635 161.040213,72.0401844 C161.093255,71.9866052 161.179735,71.9866052 161.233353,72.0401844 L161.959787,72.7666715 C162.013404,72.8196745 162.013404,72.9060925 161.959787,72.9596716 L161.863505,73" id="Fill-130" fill="#415358"></path>
                <path d="M161.136495,73 L161.040213,72.9596716 C160.986596,72.9060925 160.986596,72.8196745 161.040213,72.7666715 L161.766647,72.0401844 C161.820265,71.9866052 161.906745,71.9866052 161.959787,72.0401844 C162.013404,72.0937635 162.013404,72.1801815 161.959787,72.2331845 L161.233353,72.9596716 L161.136495,73" id="Fill-131" fill="#415358"></path>
                <path d="M168.86346,73 L168.766671,72.9596716 L168.040184,72.2331845 C167.986605,72.1801815 167.986605,72.0937635 168.040184,72.0401844 C168.093764,71.9866052 168.180181,71.9866052 168.233761,72.0401844 L168.960248,72.7666715 C169.013251,72.8196745 169.013251,72.9060925 168.960248,72.9596716 L168.86346,73" id="Fill-132" fill="#415358"></path>
                <path d="M168.136972,73 L168.040184,72.9596716 C167.986605,72.9060925 167.986605,72.8196745 168.040184,72.7666715 L168.766671,72.0401844 C168.820251,71.9866052 168.906669,71.9866052 168.960248,72.0401844 C169.013251,72.0937635 169.013251,72.1801815 168.960248,72.2331845 L168.233761,72.9596716 L168.136972,73" id="Fill-133" fill="#415358"></path>
            </g>
        </g>
    </g>
</svg>