<svg width="44px" height="43px" viewBox="0 0 44 43" version="1.1" xmlns="http://www.w3.org/2000/svg" xmlns:xlink="http://www.w3.org/1999/xlink">
    <g id="Symbols" stroke="none" stroke-width="1" fill="none" fill-rule="evenodd">
        <g id="pin-map">
            <g>
                <rect id="Rectangle-17-Copy-3" fill="#D62626" transform="translate(22.000000, 21.213203) rotate(45.000000) translate(-22.000000, -21.213203) " x="7" y="6.21320344" width="30" height="30"></rect>
                <path d="M30.6228744,25.3654396 L30.6228744,20.0458042 L26.9937523,21.7363174 L30.6228744,25.3654396 L30.6228744,25.3654396 Z M20.9673324,18.9409125 L22.2164658,24.7567394 L23.4627145,18.9409125 L22.213581,17.691779 L20.9644475,18.9409125 L20.9673324,18.9409125 Z M23.9012094,19.3794074 L26.1802288,21.6584269 L22.6520759,25.1865798 L23.8983245,19.3794074 L23.9012094,19.3794074 Z M21.7750861,25.1865798 L18.249818,21.6584269 L20.5288375,19.3794074 L21.7750861,25.1865798 L21.7750861,25.1865798 Z M18.3132844,22.4661806 L21.5875719,25.7318136 L19.0200689,25.7318136 L18.319054,22.4661806 L18.3132844,22.4661806 Z M19.1325775,26.2510839 L19.6662719,28.7320418 L19.7326231,29.0464888 L16.0284952,29.0464888 L16.0948464,28.7320418 L16.6285409,26.2453142 L13.4811861,26.2453142 L13.0917334,26.0635696 L8,23.6922354 L8,23.5653027 L15.6073093,23.5653027 L22.213581,16.959031 L26.4629427,21.2141623 L30.7642313,12 L33.0115176,13.2952908 L31.1421447,14.3771039 L31.1421447,26.2510839 L27.7986212,26.2510839 L28.3352004,28.7320418 L28.4015516,29.0464888 L24.6945389,29.0464888 L24.7608901,28.7320418 L25.3090087,26.2510839 L19.1325775,26.2510839 L19.1325775,26.2510839 Z M16.7410494,25.7318136 L17.4420643,22.4661806 L14.1764313,25.7318136 L16.7410494,25.7318136 Z M19.0921898,28.5329882 L18.6017679,26.2510839 L17.1593505,26.2510839 L16.6689285,28.5329882 L19.0921898,28.5329882 Z M18.4892593,25.7318136 L17.8805592,22.896021 L17.271859,25.7318136 L18.4892593,25.7318136 Z M30.2536156,25.7318136 L27.6889974,25.7318136 L27.2295795,23.5916443 L26.9879826,22.4661806 L30.2536156,25.7318136 Z M25.4070931,25.7318136 L22.842475,25.7318136 L26.108108,22.4661806 L25.4070931,25.7318136 L25.4070931,25.7318136 Z M27.7582335,28.5329882 L27.2678116,26.2510839 L25.8253942,26.2510839 L25.3349723,28.5329882 L27.7582335,28.5329882 Z M27.1581878,25.7318136 L25.9379027,25.7318136 L26.5466029,22.896021 L27.155303,25.7318136 L27.1581878,25.7318136 Z M30.6199896,18.8082101 L30.6199896,16.1830104 L29.2352689,16.8292134 L30.6199896,18.8082101 L30.6199896,18.8082101 Z M30.6199896,15.6089283 L30.6199896,13.5376169 L29.3823955,16.191665 L30.6199896,15.614698 L30.6199896,15.6089283 Z M31.1392599,12.8077537 L31.1392599,13.7770582 L31.9729771,13.2952908 L31.1421447,12.8164082 L31.1392599,12.8077537 Z M13.4811861,25.6798866 L15.0764997,24.0845729 L10.0741962,24.0845729 L13.4811861,25.6798866 L13.4811861,25.6798866 Z M28.8919736,17.2475145 L30.5017114,19.5323036 L27.086067,21.1218476 L28.8919736,17.2475145 Z" id="Shape" fill="#FFFFFF"></path>
            </g>
        </g>
    </g>
</svg>