<svg width="40px" height="40px" viewBox="0 0 40 40" version="1.1" xmlns="http://www.w3.org/2000/svg" xmlns:xlink="http://www.w3.org/1999/xlink">
    <g transform="translate(2.000000, 6.000000)" fill="#D62626" fill-rule="evenodd">
    <path d="M9.41804245,7.38196649 C9.59274475,7.16279451 9.34498512,7.38196649 9.58639194,7.27714511 L10.8569542,7.24220465 C16.1774335,7.24220465 21.8123769,7.31526198 27.0756809,7.24220465 C29.0101119,7.2167934 31.055717,7.31843838 32.9774424,7.24220465 L32.9075615,7.82666327 L32.7487412,9.09722549 L32.5613333,10.7044867 L32.3993366,12.0703411 L32.2405163,13.4044314 L25.6526512,14.4081756 C24.0644484,14.7258161 22.346013,14.9259297 20.748281,15.1768657 C19.9287684,15.3039219 16.244138,15.9741435 15.7454423,15.9042626 C15.4055669,16.1202582 14.6178183,16.1393166 14.1572395,16.1869627 C13.7635491,16.3123222 13.3496603,16.3619026 12.9374998,16.3330773 C12.7975163,16.4179672 12.6374381,16.4640171 12.4737446,16.4664864 C12.3307156,16.497712 12.1849523,16.5147354 12.038577,16.5173088 L9.41804245,7.38196649 Z M14.2747665,23.8579821 L24.029508,23.8579821 C23.8484528,25.2873646 24.3471485,26.4467526 25.0840746,27.0343876 C28.4256532,29.6898627 32.2913388,25.0141937 29.4166918,22.2697793 C28.5590623,21.4534431 27.5997878,21.3581509 26.0846424,21.3645037 L13.5251348,21.3645037 C13.3281977,21.304152 12.8009144,19.2236064 12.7500919,18.9123186 L25.7955895,16.9016539 L27.0883865,16.6793055 C28.2223633,16.5776606 29.4770435,16.3076661 30.6237259,16.1361402 C31.3415935,16.0313188 33.6158999,15.5897984 34.1463596,15.6437973 L34.5052935,15.5008591 C34.5104669,15.2649126 34.5566857,15.031669 34.6418789,14.8115791 C34.5992045,14.3853906 34.6336357,13.9550003 34.7435239,13.5410168 C34.7657587,13.2805516 34.8642273,12.0099894 35.0008127,11.7812882 C34.9566531,11.4290421 34.9836566,11.0715152 35.0802229,10.7298979 L35.8076197,4.76460832 L8.69064558,4.76460832 C8.51911968,4.28497108 8.40476908,3.7767462 8.26183083,3.32887301 C8.09348133,2.81429532 7.80442843,2.48077273 7.62654972,2.05831079 C7.51330597,1.96005953 7.40716043,1.85391398 7.30890916,1.74067024 C7.26491525,1.69210291 7.22356238,1.64120707 7.18502935,1.58820277 C7.06432594,1.4325589 7.12785405,1.53738028 7.09291359,1.4325589 C6.68951008,1.22926895 6.39728077,0.771866548 5.22201072,0.460578804 C4.3933644,0.25115357 3.52385877,0.266504236 2.70312112,0.505048482 C1.64537807,0.816336226 -0.203289955,2.16948499 0.0190584333,3.4336944 C0.102909175,3.79116805 0.337306029,4.09488851 0.66185634,4.26660181 C0.98640665,4.43831511 1.36937263,4.46122939 1.71208259,4.32944076 C2.43312665,4.04038786 2.3473637,3.3765191 3.17322914,2.98899762 C3.87883637,2.67595855 4.69953747,2.77732491 5.30777367,3.25263928 C5.92081994,3.79262822 5.94305478,4.32626436 6.23210768,5.20612869 C6.67362806,6.62598197 7.07067875,8.10618696 7.47725866,9.55780429 C7.88383857,11.0094216 8.3031241,12.4483333 8.71923323,13.9094799 L11.2063588,22.6731828 C10.0374415,21.4915599 8.78911415,20.8276912 6.9880922,21.7933185 C5.56303921,22.6349275 4.99925836,24.4138477 5.67941312,25.9226457 C6.16887107,26.9908733 7.20315212,27.7060542 8.37539392,27.7868528 C9.54763572,27.8676514 10.6702595,27.3011384 11.3016509,26.3101671 C11.7585581,25.5881952 11.9200719,24.718068 11.7527005,23.8802169 L14.2747665,23.8579821 Z" ></path>
    </g>
</svg>