<svg xmlns="http://www.w3.org/2000/svg" width="208" height="61" viewBox="0 0 208 61">
    <defs>
        <linearGradient id="a" x1="26.159%" x2="106.205%" y1="75.19%" y2="23.607%">
            <stop offset="0%" stop-color="#27348B"/>
            <stop offset="21%" stop-color="#952269"/>
            <stop offset="51%" stop-color="#D82129"/>
            <stop offset="73%" stop-color="#E30613"/>
            <stop offset="100%" stop-color="#FC0"/>
        </linearGradient>
    </defs>
    <g fill="none" fill-rule="evenodd">
        <path fill="url(#a)" d="M78.42 46.33V27.89l-12.58 5.86 12.58 12.58zM44.95 24.06l4.33 20.16 4.32-20.16-4.33-4.33-4.33 4.33h.01zm10.17 1.52l7.9 7.9-12.23 12.23 4.32-20.13h.01zm-7.37 20.13L35.53 33.48l7.9-7.9 4.32 20.13zm-12-9.43L47.1 47.6h-8.9l-2.43-11.32h-.02zm2.84 13.12l1.85 8.6.23 1.09H27.83l.23-1.09 1.85-8.62H19l-1.35-.63L0 40.53v-.44h26.37l22.9-22.9L64 31.94 78.91 0l7.79 4.49-6.48 3.75V49.4H68.63l1.86 8.6.23 1.09H57.87L58.1 58l1.9-8.6H38.59zm-8.29-1.8l2.43-11.32L21.41 47.6h8.89zm8.15 9.71l-1.7-7.91h-5l-1.7 7.91h8.4zm-2.09-9.71l-2.11-9.83-2.11 9.83h4.22zm29.46-11.32L77.14 47.6h-8.89l-2.43-11.32zM60.34 47.6h-8.89l11.32-11.32-2.43 11.32zm8.15 9.71l-1.7-7.91h-5l-1.7 7.91h8.4zm-2.08-9.71h-4.23l2.11-9.83 2.11 9.83h.01zm12-24v-9.1l-4.8 2.24 4.8 6.86zm0-11.09V5.33l-4.29 9.2 4.29-2v-.02zm1.8-9.71v3.36l2.89-1.67-2.88-1.66-.01-.03zM19 47.42l5.53-5.53H7.19L19 47.42zm53.42-29.23L78 26.11l-11.84 5.51 6.26-13.43z" transform="translate(0 .674)"/>
        <path fill="#1D1D1B" d="M101.42 37.214H90.11v-19.35h11a5.68 5.68 0 0 1 4.18 1.47 4.72 4.72 0 0 1 1.48 3.47 4.57 4.57 0 0 1-.94 2.93 4.1 4.1 0 0 1-2.36 1.51 4 4 0 0 1 2.63 1.58 5 5 0 0 1 1.06 3.15 5.13 5.13 0 0 1-1.53 3.7 5.63 5.63 0 0 1-4.21 1.51v.03zm-1.48-11.93a1.73 1.73 0 0 0 1.23-.45 1.54 1.54 0 0 0 .48-1.18 1.5 1.5 0 0 0-.48-1.15 1.73 1.73 0 0 0-1.23-.45H95.1v3.22l4.84.01zm.17 7.72a2 2 0 0 0 1.41-.48 1.8 1.8 0 0 0 0-2.51 1.93 1.93 0 0 0-1.41-.49h-5v3.48h5zm24.13 4.21h-14.18v-19.35h14.19v4.35H115v3h9v4.35h-9v3.28h9.2v4.35l.04.02zm7.76-19.35v5.81c0 2 1.033 3 3.1 3a8.94 8.94 0 0 0 3.25-.55v-8.26h5v19.35h-5v-6.79a17.56 17.56 0 0 1-3.95.52 7.38 7.38 0 0 1-5.59-2 7.43 7.43 0 0 1-1.81-5.27v-5.81h5zm33.52 19.35h-5v-7.78h-8v7.78h-5v-19.35h5v7.22h8v-7.22h5v19.35zm22.95 0h-5.66l-1-2.79h-7.63l-1 2.79h-5.66l7.28-19.35h6.27l7.31 19.35h.09zm-8-7.14l-2.47-7.28-2.47 7.28h4.94zm14.92 7.14h-5.72l3.95-7.11a5.89 5.89 0 0 1-2.74-2 6 6 0 0 1-1.15-3.79 6.28 6.28 0 0 1 1.85-4.64 6.65 6.65 0 0 1 4.95-1.83h9.69v19.37h-5v-6.54h-2.55l-3.22 6.5-.06.04zm1.83-10.85h3.95v-4.15h-3.95a2.61 2.61 0 0 0-1.7.55 1.83 1.83 0 0 0-.68 1.51 1.87 1.87 0 0 0 .68 1.54 2.61 2.61 0 0 0 1.7.55zm-36.39 33.43h-4v-16.12H161v9.5l6.55-9.5h4.32v16.12h-4.2v-10l-6.81 10h-.03zm7.75-18.94a5 5 0 0 1-4.24 2.13 5.11 5.11 0 0 1-4.27-2.13l1.6-1.31a3.19 3.19 0 0 0 2.67 1.41 3 3 0 0 0 2.66-1.41l1.6 1.31h-.02zm38.87 18.94h-4.73l-.8-2.32h-6.38l-.8 2.32H190l6.1-16.12h5.24l6.11 16.13v-.01zm-6.67-5.95l-2.06-6.07-2.06 6.07h4.12zm-11.4 5.95h-5.12l-4.26-6.12-1.09 1.35v4.71h-4.17v-16.06h4.17v6.62l5-6.62H189l-6.28 7.54 6.62 8.58h.04zm-91.32.29a8.81 8.81 0 0 1-6.26-2.33 7.85 7.85 0 0 1-2.5-6 7.86 7.86 0 0 1 2.48-6 8.82 8.82 0 0 1 6.27-2.32 7.36 7.36 0 0 1 7.06 4.33l-3.59 1.69a3.82 3.82 0 0 0-1.37-1.67 3.56 3.56 0 0 0-2.1-.68 4.27 4.27 0 0 0-3.24 1.34 5 5 0 0 0 0 6.65 4.27 4.27 0 0 0 3.24 1.34 3.56 3.56 0 0 0 2.1-.68 3.83 3.83 0 0 0 1.37-1.67l3.59 1.69a8.38 8.38 0 0 1-2.66 3.08 7.36 7.36 0 0 1-4.4 1.25l.01-.02zm17.21-.29h-4.17v-12.5h-4.53v-3.62h13.21v3.63h-4.51v12.5-.01zm11 0h-4.17v-16.12h8.1a5.5 5.5 0 0 1 4.12 1.54 5.6 5.6 0 0 1 0 7.64 5.5 5.5 0 0 1-4.12 1.54h-3.93v5.42-.02zm3.37-9a2.09 2.09 0 0 0 1.39-.46 1.56 1.56 0 0 0 .55-1.26 1.58 1.58 0 0 0-.55-1.28 2.09 2.09 0 0 0-1.39-.46h-3.37v3.46h3.37zm22.59 7a9.34 9.34 0 0 1-12.38 0 8.53 8.53 0 0 1 0-12 9.34 9.34 0 0 1 12.38 0 7.94 7.94 0 0 1 2.45 6 7.94 7.94 0 0 1-2.45 6zm-6.23-1.39a4.1 4.1 0 0 0 3.18-1.33 5.2 5.2 0 0 0 0-6.67 4.49 4.49 0 0 0-6.38 0 5.2 5.2 0 0 0 0 6.67 4.13 4.13 0 0 0 3.2 1.33z"/>
    </g>
</svg>
