<?xml version="1.0" encoding="UTF-8"?>
<svg width="20px" height="20px" viewBox="0 0 20 20" version="1.1" xmlns="http://www.w3.org/2000/svg" xmlns:xlink="http://www.w3.org/1999/xlink">
    <!-- Generator: sketchtool 50.2 (55047) - http://www.bohemiancoding.com/sketch -->
    <title>7A70705A-A9ED-41D5-BBDC-8B28FC9D4C59</title>
    <desc>Created with sketchtool.</desc>
    <defs></defs>
    <g id="Page-3" stroke="none" stroke-width="1" fill="none" fill-rule="evenodd">
        <g id="Vs-Главная-Вечная-стройка-" transform="translate(-1489.000000, -200.000000)">
            <g id="odnoklassniki-logo" transform="translate(1489.000000, 200.000000)">
                <path d="M9.9744898,0 C4.46571429,0 0,4.46591837 0,9.9744898 C0,15.4830612 4.46571429,19.9489796 9.9744898,19.9489796 C15.4832653,19.9489796 19.9489796,15.4830612 19.9489796,9.9744898 C19.9489796,4.46591837 15.4832653,0 9.9744898,0 Z" id="Path" fill="#ED812B"></path>
                <path d="M9.98387755,8.26673469 C10.9363265,8.26326531 11.694898,7.49816327 11.6914286,6.54367347 C11.6879592,5.58877551 10.9277551,4.82897959 9.97489796,4.82816327 C9.01408163,4.82714286 8.24673469,5.60102041 8.25408163,6.5644898 C8.26122449,7.5155102 9.02836735,8.27020408 9.98387755,8.26673469 Z M9.98877551,3.03326531 C11.9316327,3.03857143 13.4910204,4.6277551 13.4810204,6.59204082 C13.4712245,8.51102041 11.8863265,10.0663265 9.94673469,10.0597959 C8.02693878,10.0532653 6.45244898,8.46163265 6.46387755,6.53877551 C6.47469388,4.59489796 8.05,3.02795918 9.98877551,3.03326531 Z M13.9238776,11.4402041 C13.4942857,11.8812245 12.9771429,12.2004082 12.4028571,12.4230612 C11.86,12.6334694 11.265102,12.7393878 10.6761224,12.81 C10.7653061,12.9067347 10.8071429,12.9542857 10.8626531,13.0097959 C11.6618367,13.8132653 12.464898,14.6126531 13.2614286,15.4183673 C13.5328571,15.6930612 13.5893878,16.0334694 13.44,16.352449 C13.2769388,16.7014286 12.9110204,16.9308163 12.5520408,16.9061224 C12.3246939,16.8904082 12.1473469,16.777551 11.99,16.6189796 C11.3867347,16.0120408 10.7720408,15.4159184 10.1814286,14.797551 C10.0089796,14.617551 9.92653061,14.6518367 9.7744898,14.8081633 C9.1677551,15.4330612 8.55102041,16.0479592 7.93081633,16.6595918 C7.6522449,16.9342857 7.32081633,16.9840816 6.99755102,16.8269388 C6.65408163,16.6608163 6.43571429,16.31 6.45244898,15.9571429 C6.46428571,15.7191837 6.58142857,15.5367347 6.74510204,15.3738776 C7.53632653,14.5842857 8.32510204,13.7922449 9.11408163,13.0008163 C9.16653061,12.9483673 9.21510204,12.8926531 9.29122449,12.8110204 C8.21510204,12.6985714 7.24469388,12.4336735 6.41387755,11.7840816 C6.31061224,11.7032653 6.20428571,11.6253061 6.11040816,11.5346939 C5.74653061,11.1855102 5.71,10.7853061 5.99755102,10.3734694 C6.24387755,10.0208163 6.65693878,9.92653061 7.08653061,10.1291837 C7.16979592,10.1681633 7.24897959,10.217551 7.32489796,10.2697959 C8.87306122,11.3336735 11,11.3628571 12.5542857,10.3173469 C12.7081633,10.1997959 12.8728571,10.1030612 13.0636735,10.0542857 C13.4342857,9.95877551 13.7804082,10.0953061 13.9791837,10.4197959 C14.2067347,10.7906122 14.2040816,11.1522449 13.9238776,11.4402041 Z" id="Shape" fill="#FFFFFF" fill-rule="nonzero"></path>
            </g>
        </g>
    </g>
</svg>