<svg width="40px" height="40px" viewBox="0 0 40 40" version="1.1" xmlns="http://www.w3.org/2000/svg" xmlns:xlink="http://www.w3.org/1999/xlink">
    <g id="телефон-активное" stroke="none" stroke-width="1" fill="none" fill-rule="evenodd">
        <g id="телефон">
            <path d="" id="Path-3" stroke="#979797" stroke-width="1"></path>
            <rect id="Rectangle-30" fill="#FFFFFF" fill-rule="evenodd" opacity="0" x="0" y="0" width="40" height="40"></rect>
            <g id="Group" stroke-width="1" fill-rule="evenodd" transform="translate(6.500000, 6.500000)" stroke="#D62626">
                <g id="phone-receiver" fill-rule="nonzero" stroke-width="2.5999999">
                    <path d="M26.0289074,20.7192649 C26.0824,21.1293505 25.9575112,21.4859088 25.6547652,21.7889396 L22.1004135,25.3187349 C21.9400668,25.497014 21.7307689,25.6486824 21.4724326,25.7733467 C21.2140963,25.8981857 20.9602577,25.9784113 20.7109168,26.0140235 C20.6931005,26.0140235 20.6395206,26.0186115 20.5503955,26.0275255 C20.461445,26.0363958 20.345639,26.0409401 20.2031086,26.0409401 C19.8645116,26.0409401 19.3166168,25.9829994 18.559424,25.8670743 C17.8022313,25.7511492 16.8758274,25.4658589 15.7802124,25.0113345 C14.6843353,24.5567228 13.4416921,23.8747178 12.0520645,22.9655817 C10.6624368,22.0564893 9.1836403,20.8084481 7.61580597,19.2217203 C6.36866504,17.9915944 5.33531969,16.8149523 4.51576993,15.6918375 C3.69622017,14.5686354 3.0370171,13.5301596 2.53816073,12.5763663 C2.03926068,11.622573 1.6651184,10.7579193 1.41569021,9.98240519 C1.16626203,9.20689105 0.997007185,8.53834437 0.907925689,7.97676516 C0.818844194,7.41518595 0.783211596,6.97394514 0.801027895,6.65304273 C0.818844194,6.33214032 0.827752343,6.15386121 0.827752343,6.11820539 C0.863384942,5.86861463 0.943558288,5.61456689 1.06827238,5.35606217 C1.19298648,5.09755746 1.34442502,4.8880795 1.52258801,4.72762829 L5.07693968,1.17095996 C5.32636787,0.9213692 5.61142866,0.79657382 5.93212204,0.79657382 C6.16373393,0.79657382 6.36862137,0.863428488 6.54678436,0.997137824 C6.72494735,1.13084716 6.87638589,1.29575534 7.00109999,1.49186237 L9.860616,6.9204614 C10.0209627,7.20570799 10.0655034,7.51769644 9.99423824,7.85642675 C9.92297304,8.19515707 9.7715345,8.48040365 9.53992261,8.7121665 L8.23042463,10.022518 C8.19479203,10.0581738 8.1636135,10.1161145 8.13688906,10.1963401 C8.11016461,10.2765657 8.09680238,10.3434204 8.09680238,10.3969041 C8.16806758,10.7712903 8.32841427,11.1991602 8.57784246,11.6805138 C8.79163805,12.1083836 9.12123958,12.62985 9.56664706,13.244913 C10.0120545,13.8599759 10.6445332,14.5685917 11.4640829,15.3708477 C12.2658164,16.1910191 12.9784683,16.8282795 13.6020388,17.2829786 C14.2254783,17.7374156 14.7467797,18.07182 15.1654627,18.285755 C15.5841458,18.4996899 15.9048391,18.6289422 16.1274992,18.6733809 L16.4614675,18.7402793 C16.4971001,18.7402793 16.5551341,18.7268647 16.6352201,18.7001665 C16.7153934,18.6733809 16.7732964,18.6422258 16.8089727,18.6065263 L18.3322226,17.055498 C18.6530906,16.7702951 19.0270582,16.6276718 19.4546931,16.6276718 C19.7576575,16.6276718 19.9980465,16.6811118 20.1762095,16.788123 L20.2028903,16.788123 L25.3606652,19.8366959 C25.7349385,20.0686335 25.9575986,20.3627066 26.0289074,20.7192649 Z" id="Shape"></path>
                </g>
            </g>
        </g>
    </g>
</svg>