<svg xmlns="http://www.w3.org/2000/svg" width="24" height="24" viewBox="0 0 24 24">
    <path fill="#D6D6D6" fill-rule="nonzero" d="M21.822 4.755a.442.442 0 0 1 .128.325v.907c0 .133-.043.241-.128.326a.441.441 0 0 1-.325.128h-1.36v13.432c0 .784-.223 1.461-.667 2.033-.443.572-.977.857-1.6.857H6.08c-.623 0-1.157-.276-1.6-.829-.445-.552-.667-1.22-.667-2.005V6.441h-1.36a.442.442 0 0 1-.326-.128A.44.44 0 0 1 2 5.987V5.08c0-.132.043-.24.127-.325a.442.442 0 0 1 .326-.128h4.379l.991-2.366c.142-.35.397-.647.766-.893C8.957 1.123 9.33 1 9.708 1h4.534c.378 0 .751.123 1.12.368.368.246.623.543.764.893l.992 2.366h4.379c.132 0 .24.043.325.128zM9.495 2.969l-.694 1.658h6.348l-.68-1.658a.4.4 0 0 0-.241-.156H9.736a.4.4 0 0 0-.24.156zm8.828 16.904V6.441H5.627v13.432c0 .208.033.4.1.574.065.174.134.302.205.382.07.08.12.12.149.12h11.788c.029 0 .078-.04.15-.12.07-.08.138-.208.205-.382.066-.175.099-.366.099-.574zM7.894 18.229a.441.441 0 0 1-.326-.127.441.441 0 0 1-.127-.326V9.614c0-.132.043-.24.127-.325a.442.442 0 0 1 .326-.128h.907c.132 0 .24.043.326.128a.442.442 0 0 1 .127.325v8.162c0 .132-.042.24-.127.326a.441.441 0 0 1-.326.127h-.907zm3.628 0a.442.442 0 0 1-.326-.127.441.441 0 0 1-.128-.326V9.614c0-.132.043-.24.128-.325a.442.442 0 0 1 .326-.128h.906c.133 0 .241.043.326.128a.44.44 0 0 1 .128.325v8.162a.44.44 0 0 1-.128.326.44.44 0 0 1-.326.127h-.906zm3.627 0a.442.442 0 0 1-.326-.127.442.442 0 0 1-.128-.326V9.614c0-.132.043-.24.128-.325a.442.442 0 0 1 .326-.128h.907c.132 0 .24.043.326.128a.442.442 0 0 1 .127.325v8.162c0 .132-.042.24-.127.326a.441.441 0 0 1-.326.127h-.907z"/>
</svg>
