<svg width="30px" height="30px" viewBox="0 0 30 30" version="1.1" xmlns="http://www.w3.org/2000/svg" xmlns:xlink="http://www.w3.org/1999/xlink">
    <g id="Добавить-в-корзину" stroke="none" stroke-width="1" fill="none" fill-rule="evenodd">
        <rect id="Rectangle-41" fill="#FFFFFF" opacity="0" x="0" y="0" width="30" height="30"></rect>
        <g id="ic_add_shopping_cart" transform="translate(15.000000, 15.000000) scale(-1, 1) translate(-15.000000, -15.000000) translate(5.000000, 5.000000)">
            <g id="Icon-24px">
                <path d="M0,0 L20,0 L20,20 L0,20 L0,0 Z M15.2583333,5 L12.9583333,9.16666667 L15.2583333,5 Z" id="Shape"></path>
                <path d="M9.6031746,7.18253968 L11.1904762,7.18253968 L11.1904762,4.8015873 L13.5714286,4.8015873 L13.5714286,3.21428571 L11.1904762,3.21428571 L11.1904762,0.833333333 L9.6031746,0.833333333 L9.6031746,3.21428571 L7.22222222,3.21428571 L7.22222222,4.8015873 L9.6031746,4.8015873 L9.6031746,7.18253968 L9.6031746,7.18253968 Z M6.42857143,14.3253968 C5.55555556,14.3253968 4.84920635,15.0396825 4.84920635,15.9126984 C4.84920635,16.7857143 5.55555556,17.5 6.42857143,17.5 C7.3015873,17.5 8.01587302,16.7857143 8.01587302,15.9126984 C8.01587302,15.0396825 7.3015873,14.3253968 6.42857143,14.3253968 L6.42857143,14.3253968 Z M14.3650794,14.3253968 C13.4920635,14.3253968 12.7857143,15.0396825 12.7857143,15.9126984 C12.7857143,16.7857143 13.4920635,17.5 14.3650794,17.5 C15.2380952,17.5 15.952381,16.7857143 15.952381,15.9126984 C15.952381,15.0396825 15.2380952,14.3253968 14.3650794,14.3253968 L14.3650794,14.3253968 Z M6.56349206,11.7460317 L6.58730159,11.6507937 L7.3015873,10.3571429 L13.2142857,10.3571429 C13.8095238,10.3571429 14.3333333,10.031746 14.6031746,9.53968254 L17.6666667,3.97619048 L16.2857143,3.21428571 L16.2777778,3.21428571 L15.4047619,4.8015873 L13.2142857,8.76984127 L7.64285714,8.76984127 L7.53968254,8.55555556 L5.76190476,4.8015873 L5.00793651,3.21428571 L4.26190476,1.62698413 L1.66666667,1.62698413 L1.66666667,3.21428571 L3.25396825,3.21428571 L6.11111111,9.23809524 L5.03968254,11.1825397 C4.91269841,11.4047619 4.84126984,11.6666667 4.84126984,11.9444444 C4.84126984,12.8174603 5.55555556,13.531746 6.42857143,13.531746 L15.952381,13.531746 L15.952381,11.9444444 L6.76190476,11.9444444 C6.65873016,11.9444444 6.56349206,11.8571429 6.56349206,11.7460317 L6.56349206,11.7460317 Z" id="Shape" fill="#FFFFFF"></path>
            </g>
        </g>
    </g>
</svg>