<svg width="19px" height="19px" viewBox="0 0 19 19" version="1.1" xmlns="http://www.w3.org/2000/svg" xmlns:xlink="http://www.w3.org/1999/xlink">
    <g id="Магазин" stroke="none" stroke-width="1" fill="none" fill-rule="evenodd">
        <g id="Artboard" transform="translate(-1109.000000, -1092.000000)" fill="#D62626" fill-rule="nonzero" stroke="#D62626" stroke-width="0.300000012">
            <g id="box-3" transform="translate(1110.000000, 1093.000000)">
                <path d="M16.0038399,10.1130276 L16.0038399,3.48982127 C16.0038399,3.48915721 16.0038399,3.48852634 16.0038399,3.48786228 L16.0038399,3.48636814 C16.0038399,3.48381149 16.0035079,3.48135446 16.0034747,3.47879781 C16.0020802,3.38137965 15.9728283,3.29189705 15.9238871,3.21629339 C15.922559,3.214268 15.9215297,3.21214299 15.9202016,3.2101176 L15.9194047,3.20892228 C15.9190063,3.20835783 15.9186411,3.20776017 15.9182426,3.20719572 L13.9279892,0.221764105 C13.8356184,0.0832071938 13.6801289,0 13.5136159,0 L4.4824033,0 C4.31589032,0 4.16036753,0.083240397 4.06799681,0.221764105 L2.07764373,3.20732853 C2.07734491,3.20776017 2.07707928,3.20815861 2.07681366,3.20859025 L2.07585077,3.21005119 C2.07419062,3.21250823 2.07292891,3.21513128 2.07136837,3.21758832 C2.01957171,3.29813925 1.9938726,3.38788748 1.99261088,3.47879781 C1.99257768,3.48132125 1.99224565,3.48377829 1.99224565,3.48633493 L1.99224565,3.48782908 C1.99224565,3.48849314 1.99224565,3.489124 1.99224565,3.48978807 L1.99224565,10.0273301 L0.498044811,10.0273301 C0.222991263,10.0273301 0,10.2503228 0,10.525378 L0,16.5019522 C0,16.7770074 0.222991263,17 0.498044811,17 L2.49022406,17 C2.9375015,17 3.33922444,16.8021754 3.6132819,16.4897334 C4.13659419,16.6368235 5.33064002,17 7.00792213,17 L11.5214366,17 C12.6129516,17 13.6555586,16.4786767 14.3104876,15.6054992 L16.7015343,12.417495 C16.7015343,12.4174618 16.7015675,12.4174618 16.7016007,12.4174285 C17.3046334,11.6134133 16.9544415,10.4501728 16.0038399,10.1130276 Z M10.9901888,0.996095695 L13.2470955,0.996095695 L14.575215,2.98828709 L10.9901888,2.98828709 L10.9901888,0.996095695 Z M8.00191997,0.996095695 L9.99409921,0.996095695 L9.99409921,2.98828709 L8.00191997,2.98828709 L8.00191997,0.996095695 Z M8.00191997,3.98438278 L9.99409921,3.98438278 L9.99409921,6.5733019 L9.27425844,6.0934162 C9.10694859,5.98188668 8.88900418,5.98188668 8.72172753,6.0934162 L8.00191997,6.5733019 L8.00191997,3.98438278 Z M4.74895688,0.996095695 L7.00583034,0.996095695 L7.00583034,2.98828709 L3.42083739,2.98828709 L4.74895688,0.996095695 Z M2.98826887,15.5058897 C2.98826887,15.7805132 2.76484596,16.0039375 2.49022406,16.0039375 L0.996089622,16.0039375 L0.996089622,11.023459 L2.49022406,11.023459 C2.76484596,11.023459 2.98826887,11.2468833 2.98826887,11.5215069 L2.98826887,15.5058897 Z M2.98826887,10.1130276 L2.98826887,3.98438278 L7.00583034,3.98438278 L7.00583034,7.50392091 C7.00583034,7.90136309 10.9901888,7.90292364 10.9901888,7.50392091 L10.9901888,3.98438278 L15.0077503,3.98438278 L15.0077503,10.113758 C14.7829329,10.1934457 14.577506,10.3259596 14.4123543,10.5032315 L12.9485342,12.074672 C12.7593436,11.4663896 12.1911741,11.023459 11.5214366,11.023459 L9.15422964,11.023459 C8.83209426,11.023459 8.52151352,10.9062518 8.27969616,10.6934525 C6.97903553,9.54890537 5.02407684,9.5388116 3.7110979,10.6617767 C3.53415918,10.4112254 3.28231452,10.2173188 2.98826887,10.1130276 Z M15.904729,11.8197379 C15.9046958,11.8198043 15.9046626,11.8198375 15.9046294,11.8199039 L13.5136159,15.0078418 C13.045819,15.6315637 12.301076,16.0039375 11.5214366,16.0039375 L7.00792213,16.0039375 C5.84004025,16.0039375 4.92234288,15.8249059 3.97635657,15.5589816 C3.97834875,15.5019717 3.97771789,15.8060797 3.97771789,11.7466577 L4.33142932,11.4412216 C5.2692809,10.6158899 6.68376137,10.6158899 7.62164615,11.4412216 C8.04541588,11.8141598 8.58971245,12.0195215 9.15422964,12.0195215 L11.5214366,12.0195215 C11.7960585,12.0195215 12.0194814,12.2429458 12.0194814,12.5175694 C12.0194814,12.792193 11.7960585,13.0156172 11.5214366,13.0156172 L7.93551399,13.0156172 C7.66046044,13.0156172 7.43746918,13.2386098 7.43746918,13.5136651 C7.43746918,13.7887203 7.66046044,14.0117129 7.93551399,14.0117129 L11.8552595,14.0117129 C12.2684374,14.0117129 12.6669397,13.8383259 12.9485674,13.5360108 L15.1412263,11.1821703 C15.2365853,11.0798048 15.3660437,11.023459 15.5057951,11.023459 C15.9160844,11.023459 16.149103,11.4939814 15.904729,11.8197379 Z" id="Shape"></path>
            </g>
        </g>
    </g>
</svg>