<?xml version="1.0" encoding="UTF-8"?>
<svg width="40px" height="40px" viewBox="0 0 40 40" version="1.1" xmlns="http://www.w3.org/2000/svg" xmlns:xlink="http://www.w3.org/1999/xlink">
    <!-- Generator: sketchtool 50.2 (55047) - http://www.bohemiancoding.com/sketch -->
    <title>B7533C0D-AC32-4097-8FCB-1FE6F21544C2</title>
    <desc>Created with sketchtool.</desc>
    <defs></defs>
    <g id="Symbols" stroke="none" stroke-width="1" fill="none" fill-rule="evenodd">
        <g id="header-new-iphone" transform="translate(-1076.000000, -128.000000)">
            <g id="header-v7">
                <rect id="Rectangle-4-Copy" fill="#FFFFFF" x="0" y="40" width="1920" height="160"></rect>
                <g id="new-header" fill="#FFFFFF">
                    <rect id="Rectangle-3-Copy-2" x="0" y="40" width="1920" height="162"></rect>
                </g>
                <g id="телефон" transform="translate(1076.000000, 128.000000)">
                    <path d="" id="Path-3" stroke="#979797" stroke-width="1"></path>
                    <rect id="Rectangle-30" fill="#FFFFFF" fill-rule="evenodd" x="0" y="0" width="40" height="40"></rect>
                    <g id="Group" stroke-width="1" fill-rule="evenodd" transform="translate(12.500000, 12.500000)" stroke="#D62626">
                        <g id="phone-receiver" fill-rule="nonzero" stroke-width="1.60000002">
                            <path d="M14.9928503,11.8379032 C15.0246351,12.0815728 14.9504272,12.2934369 14.7705379,12.4734954 L12.6585707,14.5708715 C12.563294,14.6768035 12.4389309,14.7669236 12.2854295,14.8409981 C12.1319281,14.9151765 11.9810992,14.9628459 11.8329429,14.9840063 C11.8223566,14.9840063 11.7905199,14.9867325 11.7375624,14.9920291 C11.6847087,14.9972998 11.6158978,15 11.5312073,15 C11.3300157,15 11.004461,14.9655721 10.5545431,14.8966903 C10.1046253,14.8278085 9.55416355,14.6582913 8.90315786,14.3882166 C8.2519965,14.11809 7.51362788,13.7128481 6.68792227,13.1726467 C5.86221665,12.6324713 4.98352764,11.8908952 4.05193306,10.9480743 C3.31089191,10.2171433 2.69688639,9.517992 2.2099165,8.85064624 C1.72294661,8.18324855 1.33125343,7.56619453 1.03483697,6.99945822 C0.738394568,6.43272192 0.516082225,5.91895162 0.367873996,5.45814733 C0.219665768,4.99734304 0.119095898,4.60009797 0.0661643878,4.26641211 C0.0132328776,3.93272624 -0.00793972654,3.67054449 0.00264657551,3.47986686 C0.0132328776,3.28918922 0.0185260286,3.1832572 0.0185260286,3.1620708 C0.0396986327,3.01376597 0.0873369919,2.86281284 0.161441106,2.70921141 C0.235545221,2.55560998 0.325528788,2.43113986 0.431391808,2.33580104 L2.54335907,0.222457242 C2.6915673,0.074152414 2.86094813,0 3.05150157,0 C3.18912349,0 3.31086597,0.0397245075 3.41672899,0.119173523 C3.52259201,0.198622538 3.61257557,0.296609656 3.68667969,0.413134878 L5.38578117,3.63876489 C5.48105789,3.80825612 5.50752364,3.99363716 5.46517843,4.19490799 C5.42283322,4.39617883 5.33284966,4.56567006 5.19522773,4.70338169 L4.41713453,5.48198204 C4.39596193,5.50316844 4.3774359,5.53759635 4.36155644,5.58526576 C4.34567699,5.63293517 4.33773726,5.67265967 4.33773726,5.70443928 C4.38008247,5.92689652 4.47535919,6.18113337 4.62356742,6.46714982 C4.75060304,6.72138667 4.94644963,7.03123783 5.21110718,7.3967033 C5.47576473,7.76216877 5.85157846,8.18322258 6.33854835,8.65991667 C6.81493194,9.14725589 7.23838403,9.52591094 7.6089046,9.79608952 C7.97934733,10.0661123 8.28910045,10.2648127 8.53787855,10.3919312 C8.78665665,10.5190496 8.97721008,10.5958503 9.10951291,10.6222554 L9.30795418,10.6620059 C9.32912679,10.6620059 9.36361011,10.654035 9.41119657,10.6381712 C9.45883493,10.6222554 9.49324042,10.6037433 9.51443897,10.5825309 L10.4195418,9.66092234 C10.6101991,9.49145707 10.8324076,9.40671145 11.0865048,9.40671145 C11.2665238,9.40671145 11.4093611,9.43846509 11.5152241,9.50205027 L11.5310776,9.50205027 L14.5957861,11.3134878 C14.8181763,11.4513033 14.9504791,11.6260392 14.9928503,11.8379032 Z" id="Shape"></path>
                        </g>
                    </g>
                </g>
            </g>
        </g>
    </g>
</svg>