<?xml version="1.0" encoding="UTF-8"?>
<svg width="16px" height="16px" viewBox="0 0 16 16" version="1.1" xmlns="http://www.w3.org/2000/svg" xmlns:xlink="http://www.w3.org/1999/xlink">
    <!-- Generator: Sketch 55 (78076) - https://sketchapp.com -->
    <title>checked</title>
    <desc>Created with Sketch.</desc>
    <g id="Symbols" stroke="none" stroke-width="1" fill="none" fill-rule="evenodd">
        <g id="чекбокс/да" fill="#E01B1B">
            <path d="M4,0 L12,0 C14.209139,-4.05812251e-16 16,1.790861 16,4 L16,12 C16,14.209139 14.209139,16 12,16 L4,16 C1.790861,16 2.705415e-16,14.209139 0,12 L0,4 C-2.705415e-16,1.790861 1.790861,4.05812251e-16 4,0 Z M7.04059154,9.28044342 L4.40001301,7.30004494 C3.7372921,6.80301314 2.79711955,6.9373211 2.30007887,7.60003017 C1.80303818,8.26273923 1.93734854,9.20289496 2.60006946,9.69992676 L6.59994402,12.699779 C7.32171898,13.2411006 8.35461385,13.0273411 8.80223967,12.2440099 L12.8021142,5.24435457 C13.2131163,4.52511382 12.9632291,3.60887694 12.2439754,3.19788222 C11.5247218,2.78688751 10.6084686,3.03677029 10.1974665,3.75601105 L7.04059154,9.28044342 Z" id="checked"></path>
        </g>
    </g>
</svg>