<svg width="25px" height="17px" viewBox="0 0 25 17" version="1.1" xmlns="http://www.w3.org/2000/svg" xmlns:xlink="http://www.w3.org/1999/xlink">
    <g id="Магазин" stroke="none" stroke-width="1" fill="none" fill-rule="evenodd">
        <g id="Artboard" transform="translate(-1060.000000, -1093.000000)" fill="#D62626" fill-rule="nonzero">
            <g id="credit-card" transform="translate(1060.000000, 1093.000000)">
                <path d="M22.3214304,0 L2.67856956,0 C1.19923535,0 0,1.14167397 0,2.55000249 L0,14.4499975 C0,15.858326 1.19923535,17 2.67856956,17 L22.3214304,17 C23.8007646,17 25,15.858326 25,14.4499975 L25,2.55000249 C25,1.14167397 23.8007646,0 22.3214304,0 Z M23.2142521,14.4499975 C23.2142521,14.919457 22.814507,15.3000149 22.3213781,15.3000149 L2.67856956,15.3000149 C2.18544072,15.3000149 1.7856956,14.919457 1.7856956,14.4499975 L1.7856956,9.34999253 L23.2142521,9.34999253 L23.2142521,14.4499975 Z M23.2142521,7.65000747 L1.7856956,7.65000747 L1.7856956,5.95002241 L23.2142521,5.95002241 L23.2142521,7.65000747 Z M23.2143044,4.24998755 L1.7856956,4.24998755 L1.7856956,2.55000249 C1.7856956,2.08054305 2.18544072,1.69998506 2.67856956,1.69998506 L22.3214304,1.69998506 C22.8145593,1.69998506 23.2143044,2.08054305 23.2143044,2.55000249 L23.2143044,4.24998755 Z" id="Shape"></path>
                <path d="M21.1666585,12 L17.8333415,12 C17.3730921,12 17,12.4477061 17,13 C17,13.5522939 17.3730921,14 17.8333415,14 L21.1666585,14 C21.6269079,14 22,13.5522939 22,13 C22,12.4477061 21.6269079,12 21.1666585,12 Z" id="Shape"></path>
            </g>
        </g>
    </g>
</svg>