<svg width="30px" height="30px" viewBox="0 0 30 30" version="1.1" xmlns="http://www.w3.org/2000/svg" xmlns:xlink="http://www.w3.org/1999/xlink">
    <g id="Доставка" stroke="none" stroke-width="1" fill="none" fill-rule="evenodd">
        <rect id="Rectangle-41" fill="#FFFFFF" opacity="0" x="0" y="0" width="30" height="30"></rect>
        <g id="delivery-truck-2" transform="translate(3.000000, 7.000000)" fill="#D62626" fill-rule="nonzero" stroke="#D62626" stroke-width="0.1">
            <path d="M23.8331581,8.49776571 L19.9134961,3.82689143 C19.7856588,3.67464247 19.6011296,3.58721987 19.4071627,3.58721987 L16.1432526,3.58721987 L16.1432526,0.702618645 C16.1432526,0.314556009 15.8418416,0 15.4701433,0 L1.56795193,0 C1.19625358,0 0.894842652,0.314556009 0.894842652,0.702618645 L0.894842652,14.2832953 C0.894842652,14.6713579 1.19625358,14.985914 1.56795193,14.985914 L2.97290833,14.985914 C3.26890745,16.1115229 4.25715515,16.9411765 5.42821614,16.9411765 C6.59927713,16.9411765 7.58752483,16.1115229 7.88358996,14.985914 L16.8651341,14.985914 C17.1611332,16.1114541 18.1493809,16.9411076 19.3204419,16.9411076 C20.4915029,16.9411076 21.4797506,16.1114541 21.7758157,14.9858451 L23.3268907,14.9858451 C23.6985891,14.9858451 24,14.6712891 24,14.2832264 L24,8.9606439 C23.999934,8.7904144 23.9406022,8.62583396 23.8331581,8.49776571 Z M5.42821614,15.5359392 C4.76652445,15.5359392 4.22824822,14.9739958 4.22824822,14.2832953 C4.22824822,13.5925948 4.76652445,13.0306514 5.42821614,13.0306514 C6.08990784,13.0306514 6.62825006,13.5925948 6.62825006,14.2832953 C6.62825006,14.9739958 6.08990784,15.5359392 5.42821614,15.5359392 Z M7.88345796,13.5806767 C7.58745883,12.4550677 6.59914513,11.6254142 5.42808415,11.6254142 C4.25702316,11.6254142 3.26884146,12.4550677 2.97277633,13.5806767 L2.24092921,13.5806767 L2.24092921,1.4051684 L14.79677,1.4051684 L14.79677,13.5806767 L7.88345796,13.5806767 Z M19.3203099,15.5359392 C18.6586182,15.5359392 18.120342,14.9739958 18.120342,14.2832953 C18.120342,13.5925948 18.6586182,13.0306514 19.3203099,13.0306514 C19.9820016,13.0306514 20.5203438,13.5925948 20.5203438,14.2832953 C20.5203438,14.9739958 19.9820676,15.5359392 19.3203099,15.5359392 Z M21.7756837,13.5806767 C21.4796846,12.4550677 20.4913709,11.6254142 19.3203099,11.6254142 C18.1492489,11.6254142 17.1610672,12.4550677 16.8650021,13.5806767 L16.1430546,13.5806767 L16.1430546,4.99245716 L19.1017919,4.99245716 L22.6536495,9.22490953 L22.6536495,13.5806767 L21.7756837,13.5806767 Z" id="Shape"></path>
        </g>
    </g>
</svg>