<svg xmlns="http://www.w3.org/2000/svg" width="24" height="24" viewBox="0 0 24 24">
    <g fill="none" fill-rule="evenodd">
        <path fill="transparent" d="M-32 0h88v40h-88z"/>
        <path fill="#E01B1B" fill-rule="nonzero" d="M21.604 4.411A6.354 6.354 0 0 0 17.1 2.56a6.356 6.356 0 0 0-4.506 1.851L12 5l-.593-.589A6.355 6.355 0 0 0 6.901 2.56a6.355 6.355 0 0 0-4.505 1.851 6.296 6.296 0 0 0 0 8.942l8.902 8.835a.973.973 0 0 0 .516.268.993.993 0 0 0 .888-.268l8.902-8.835a6.295 6.295 0 0 0 0-8.942z"/>
    </g>
</svg>
