<svg width="30px" height="30px" viewBox="0 0 30 30" version="1.1" xmlns="http://www.w3.org/2000/svg" xmlns:xlink="http://www.w3.org/1999/xlink">
    <g id="Artboard-Copy-2" stroke="none" stroke-width="1" fill="none" fill-rule="evenodd">
        <rect id="Rectangle-41" fill="#FFFFFF" opacity="0" x="0" y="0" width="30" height="30"></rect>
        <g id="looping-arrow-with-down-arrow-below-copy" transform="translate(11.000000, 10.000000)" fill="#4A4A4A" fill-rule="nonzero">
            <path d="M7.20237104,2.49990347 C6.93340354,2.2251494 6.87609763,2.01080739 6.50529069,2.27009598 C6.3974727,2.34528311 6.2781052,2.42865176 6.17558639,2.50062842 C5.86697692,2.76716645 6.56463475,3.46342412 6.40674627,3.23427253 C6.73862459,3.71615368 6.93343751,4.30211619 6.93343751,4.93488942 C6.93343751,6.58134257 5.62005537,7.91593139 4,7.91593139 C2.37994463,7.91593139 1.06663043,6.58134257 1.06663043,4.93488942 C1.06663043,3.47398761 2.10153371,2.26091334 3.46665081,2.00545661 L3.46665081,0.910375743 C1.51040304,1.17584362 0,2.87411306 0,4.93492394 C0,7.18000887 1.79092005,9 4,9 C6.20907995,9 8,7.17997435 8,4.93492394 C7.99993206,4.02138996 7.70317781,3.17869343 7.20237104,2.49990347 Z M3.93814223,2.76136689 L5.6739304,1.7048807 C5.92713623,1.55108884 5.92754386,1.30077577 5.67556092,1.14591375 L3.92312788,0.0682315592 C3.6711789,-0.0862852421 3.46766989,0.030396346 3.46896071,0.329764018 L3.47833619,2.49776316 C3.47938924,2.79706179 3.68520815,2.91515874 3.93814223,2.76136689 Z" id="Shape"></path>
        </g>
    </g>
</svg>