<?xml version="1.0" encoding="UTF-8"?>
<svg width="48px" height="48px" viewBox="0 0 48 48" version="1.1" xmlns="http://www.w3.org/2000/svg" xmlns:xlink="http://www.w3.org/1999/xlink">
    <!-- Generator: Sketch 55 (78076) - https://sketchapp.com -->
    <title>return</title>
    <desc>Created with Sketch.</desc>
    <g id="Page-1" stroke="none" stroke-width="1" fill="none" fill-rule="evenodd">
        <g id="Страница-товара" transform="translate(-1388.000000, -432.000000)" fill="#808080" fill-rule="nonzero">
            <g id="выгоды" transform="translate(1388.000000, 304.000000)">
                <g id="Group-13" transform="translate(0.000000, 127.000000)">
                    <g id="30-days" transform="translate(0.000000, 0.666667)">
                        <g id="Group-2" transform="translate(0.000000, 0.333333)">
                            <path d="M36.4108772,22.366151 C36.557193,22.6584074 36.5255556,23.0081339 36.3292982,23.2693775 L32.8745029,27.8698462 C32.7114035,28.0870527 32.4553801,28.2149003 32.1835673,28.2149003 C31.9117544,28.2149003 31.655731,28.0870527 31.4926316,27.8698462 L28.0378363,23.2693775 C27.8415789,23.0080171 27.809883,22.658349 27.9562573,22.3660926 C28.1026316,22.0738946 28.4016374,21.8892778 28.7288304,21.8892778 L29.6442105,21.8892778 C28.7137427,17.9648419 25.1711111,15.1790028 21.0346784,15.2785826 C16.5960819,15.3835356 12.7381287,19.2162764 12.610117,23.6479558 C12.5422807,25.9975712 13.4091813,28.2211496 15.0510526,29.9088661 C16.6940351,31.5977507 18.8932164,32.5279017 21.2433918,32.5279017 L21.5312865,32.5279017 C22.8012865,32.5279017 23.8345029,33.5597934 23.8345029,34.8281652 C23.8345029,36.096537 22.8012865,37.1284288 21.5312865,37.1284288 L21.2433918,37.1284288 C17.7059649,37.1284288 14.3803509,35.7527094 11.8789474,33.2545128 C9.37754386,30.7563162 8,27.4349658 8,23.9020157 C8,20.3691239 9.37760234,17.0476567 11.8789474,14.5495769 C14.3802924,12.0514387 17.7059649,10.675661 21.2433918,10.675661 C24.7808187,10.675661 28.1064912,12.0514387 30.6078947,14.5495769 C32.604269,16.5433917 33.91,19.1253989 34.3339181,21.8893362 L35.6383041,21.8893362 C35.9654971,21.8893362 36.2645614,22.0738946 36.4108772,22.366151 Z M32.1835088,25.9147536 L33.9109357,23.6144316 L33.5698246,23.6144316 C33.1233333,23.6144316 32.7504678,23.2746339 32.7097076,22.830584 C32.4623392,20.1354473 31.3131579,17.6936695 29.3863743,15.7693561 C27.2112865,13.5971154 24.3193567,12.4007564 21.2433918,12.4007564 C18.1674269,12.4007564 15.2754971,13.5971154 13.1004094,15.7693561 C10.9253216,17.9417137 9.7274269,20.8298775 9.7274269,23.9019573 C9.7274269,26.974037 10.9253216,29.8622009 13.1004094,32.0345584 C15.2754971,34.2067991 18.1674269,35.4031581 21.2433918,35.4031581 L21.5312865,35.4031581 C21.8487719,35.4031581 22.107076,35.1451852 22.107076,34.8281068 C22.107076,34.5110285 21.8487719,34.2530556 21.5312865,34.2530556 L21.2433918,34.2530556 C18.4223392,34.2530556 15.7831579,33.1372365 13.8121053,31.1110071 C11.8421053,29.0860043 10.8020468,26.4179088 10.8834503,23.5981368 C10.9583041,21.0059672 12.0594152,18.5254672 13.9839181,16.613594 C15.9083041,14.701896 18.3978363,13.6152792 20.9938012,13.5538376 C23.5892398,13.4939145 26.095731,14.3980171 28.0516959,16.1033718 C29.9878947,17.791614 31.2237427,20.1158818 31.5315205,22.647953 C31.561345,22.8930185 31.4845029,23.1390769 31.3205848,23.3239274 C31.1566082,23.508661 30.9212865,23.61449 30.6740936,23.61449 L30.4561404,23.61449 L32.1835088,25.9147536 Z M28.448,37.4613333 C27.0826667,37.4613333 26.0586667,36.9813333 25.504,36.3413333 L26.432,35.0933333 C26.944,35.5946667 27.7546667,35.84 28.3733333,35.84 C29.1626667,35.84 29.568,35.5413333 29.568,35.1466667 C29.568,34.7413333 29.2693333,34.5493333 28.2986667,34.5493333 C27.9893333,34.5493333 27.4453333,34.5493333 27.3386667,34.56 L27.3386667,32.928 C27.4773333,32.9386667 28.032,32.9386667 28.2986667,32.9386667 C29.0346667,32.9386667 29.4506667,32.7573333 29.4506667,32.384 C29.4506667,31.936 28.9386667,31.7333333 28.256,31.7333333 C27.6053333,31.7333333 26.9866667,31.968 26.4853333,32.416 L25.6,31.264 C26.1973333,30.592 27.136,30.112 28.448,30.112 C30.2613333,30.112 31.2746667,30.8906667 31.2746667,32.064 C31.2746667,32.896 30.56,33.5253333 29.7173333,33.664 C30.4746667,33.7386667 31.392,34.3253333 31.392,35.3493333 C31.392,36.5973333 30.2186667,37.4613333 28.448,37.4613333 Z M35.0826667,37.4613333 C33.0026667,37.4613333 32.032,35.6586667 32.032,33.7813333 C32.032,31.904 33.0026667,30.112 35.0826667,30.112 C37.1626667,30.112 38.1333333,31.904 38.1333333,33.7813333 C38.1333333,35.6586667 37.1626667,37.4613333 35.0826667,37.4613333 Z M35.0826667,35.84 C35.936,35.84 36.2773333,35.04 36.2773333,33.7813333 C36.2773333,32.5226667 35.936,31.7333333 35.0826667,31.7333333 C34.2293333,31.7333333 33.888,32.5226667 33.888,33.7813333 C33.888,35.04 34.2293333,35.84 35.0826667,35.84 Z" id="Combined-Shape"></path>
                        </g>
                    </g>
                </g>
            </g>
        </g>
    </g>
</svg>