<?xml version="1.0" encoding="UTF-8"?>
<svg width="24px" height="24px" viewBox="0 0 24 24" version="1.1" xmlns="http://www.w3.org/2000/svg" xmlns:xlink="http://www.w3.org/1999/xlink">
    <g id="Page-1" stroke="none" stroke-width="1" fill="none" fill-rule="evenodd">
        <g id="UI" transform="translate(-591.000000, -984.000000)" fill="#D6D6D6" fill-rule="nonzero">
            <g id="search" transform="translate(591.000000, 984.000000)">
                <path d="M9.97018822,18.9403764 C5.56837481,18.9403764 2,15.3720016 2,10.9701882 C2,6.56837481 5.56837481,3 9.97018822,3 C14.3720016,3 17.9403764,6.56837481 17.9403764,10.9701882 C17.9403764,12.8120105 17.3156316,14.5079158 16.2664949,15.8575513 L21,20.5910565 L19.5910565,22 L14.8575513,17.2664949 C13.5079158,18.3156316 11.8120105,18.9403764 9.97018822,18.9403764 Z M14.2250066,15.2250066 L14.6874618,14.6300928 C15.4956985,13.590357 15.9403764,12.316799 15.9403764,10.9701882 C15.9403764,7.67294431 13.2674321,5 9.97018822,5 C6.67294431,5 4,7.67294431 4,10.9701882 C4,14.2674321 6.67294431,16.9403764 9.97018822,16.9403764 C11.316799,16.9403764 12.590357,16.4956985 13.6300928,15.6874618 L14.2250066,15.2250066 Z" id="Path"></path>
            </g>
        </g>
    </g>
</svg>
