<?xml version="1.0" encoding="UTF-8"?>
<svg width="245px" height="221px" viewBox="0 0 245 221" version="1.1" xmlns="http://www.w3.org/2000/svg" xmlns:xlink="http://www.w3.org/1999/xlink">
    <defs>
        <linearGradient x1="38.9258306%" y1="104.230834%" x2="76.1076091%" y2="-6.82010492%" id="linearGradient-1">
            <stop stop-color="#27348B" offset="0%"></stop>
            <stop stop-color="#952269" offset="21%"></stop>
            <stop stop-color="#D82129" offset="51%"></stop>
            <stop stop-color="#E30613" offset="73%"></stop>
            <stop stop-color="#FFCC00" offset="100%"></stop>
        </linearGradient>
        <radialGradient cx="26.5626266%" cy="107.702106%" fx="26.5626266%" fy="107.702106%" r="80.6568348%" id="radialGradient-2">
            <stop stop-color="#FFDD55" offset="0%"></stop>
            <stop stop-color="#FFDD55" offset="10%"></stop>
            <stop stop-color="#FF543E" offset="50%"></stop>
            <stop stop-color="#C837AB" offset="100%"></stop>
        </radialGradient>
        <radialGradient cx="-7.91127961%" cy="11.0281646%" fx="-7.91127961%" fy="11.0281646%" r="49.9906001%" id="radialGradient-3">
            <stop stop-color="#3771C8" offset="0%"></stop>
            <stop stop-color="#3771C8" offset="12.8%"></stop>
            <stop stop-color="#6600FF" stop-opacity="0" offset="100%"></stop>
        </radialGradient>
    </defs>
    <g id="Page-1" stroke="none" stroke-width="1" fill="none" fill-rule="evenodd">
        <g id="sprite">
            <g id="main">
                <g id="sprite">
                    <g id="vs-logo-color">
                        <path d="M75.4038462,44.5480769 L75.4038462,26.8173077 L63.3076923,32.4519231 L75.4038462,44.5480769 L75.4038462,44.5480769 L75.4038462,44.5480769 Z M43.2211538,23.1346154 L47.3846154,42.5192308 L51.5384615,23.1346154 L47.375,18.9711538 L43.2115385,23.1346154 L43.2211538,23.1346154 L43.2211538,23.1346154 Z M53,24.5961538 L60.5961538,32.1923077 L48.8365385,43.9519231 L52.9903846,24.5961538 L53,24.5961538 L53,24.5961538 Z M45.9134615,43.9519231 L34.1634615,32.1923077 L41.7596154,24.5961538 L45.9134615,43.9519231 L45.9134615,43.9519231 L45.9134615,43.9519231 Z M34.375,34.8846154 L45.2884615,45.7692308 L36.7307692,45.7692308 L34.3942308,34.8846154 L34.375,34.8846154 L34.375,34.8846154 Z M37.1057692,47.5 L38.8846154,55.7692308 L39.1057692,56.8173077 L26.7596154,56.8173077 L26.9807692,55.7692308 L28.7596154,47.4807692 L18.2692308,47.4807692 L16.9711538,46.875 L0,38.9711538 L0,38.5480769 L25.3557692,38.5480769 L47.375,16.5288462 L61.5384615,30.7115385 L75.875,0 L83.3653846,4.31730769 L77.1346154,7.92307692 L77.1346154,47.5 L65.9903846,47.5 L67.7788462,55.7692308 L68,56.8173077 L55.6442308,56.8173077 L55.8653846,55.7692308 L57.6923077,47.5 L37.1057692,47.5 L37.1057692,47.5 L37.1057692,47.5 Z M29.1346154,45.7692308 L31.4711538,34.8846154 L20.5865385,45.7692308 L29.1346154,45.7692308 L29.1346154,45.7692308 Z M36.9711538,55.1057692 L35.3365385,47.5 L30.5288462,47.5 L28.8942308,55.1057692 L36.9711538,55.1057692 L36.9711538,55.1057692 Z M34.9615385,45.7692308 L32.9326923,36.3173077 L30.9038462,45.7692308 L34.9615385,45.7692308 L34.9615385,45.7692308 Z M63.2884615,34.8846154 L74.1730769,45.7692308 L65.625,45.7692308 L63.2884615,34.8846154 L63.2884615,34.8846154 L63.2884615,34.8846154 Z M58.0192308,45.7692308 L49.4711538,45.7692308 L60.3557692,34.8846154 L58.0192308,45.7692308 L58.0192308,45.7692308 L58.0192308,45.7692308 Z M65.8557692,55.1057692 L64.2211538,47.5 L59.4134615,47.5 L57.7788462,55.1057692 L65.8557692,55.1057692 L65.8557692,55.1057692 Z M63.8557692,45.7692308 L59.7884615,45.7692308 L61.8173077,36.3173077 L63.8461538,45.7692308 L63.8557692,45.7692308 L63.8557692,45.7692308 Z M75.3942308,22.6923077 L75.3942308,13.9423077 L70.7788462,16.0961538 L75.3942308,22.6923077 L75.3942308,22.6923077 L75.3942308,22.6923077 Z M75.3942308,12.0288462 L75.3942308,5.125 L71.2692308,13.9711538 L75.3942308,12.0480769 L75.3942308,12.0288462 L75.3942308,12.0288462 Z M77.125,2.69230769 L77.125,5.92307692 L79.9038462,4.31730769 L77.1346154,2.72115385 L77.125,2.69230769 L77.125,2.69230769 Z M18.2692308,45.5961538 L23.5865385,40.2788462 L6.91346154,40.2788462 L18.2692308,45.5961538 L18.2692308,45.5961538 L18.2692308,45.5961538 Z M69.6346154,17.4903846 L75,25.1057692 L63.6153846,30.4038462 L69.6346154,17.4903846 L69.6346154,17.4903846 Z" id="Shape" fill="url(#linearGradient-1)"></path>
                        <path d="M97.5192308,35.1346154 L86.6442308,35.1346154 L86.6442308,16.5288462 L97.2211538,16.5288462 C98.6970027,16.4364586 100.147237,16.9464693 101.240385,17.9423077 C102.157896,18.8083341 102.673497,20.0172092 102.663462,21.2788462 C102.696903,22.2941946 102.377505,23.2897649 101.759615,24.0961538 C101.197164,24.8315775 100.39382,25.3455819 99.4903846,25.5480769 C100.50176,25.6982226 101.411727,26.2448947 102.019231,27.0673077 C102.694404,27.9311678 103.054026,28.999855 103.038462,30.0961538 C103.050208,31.4323648 102.519337,32.7161696 101.567308,33.6538462 C100.476326,34.6760331 99.0111882,35.2015337 97.5192308,35.1057692 L97.5192308,35.1346154 L97.5192308,35.1346154 Z M96.0961538,23.6634615 C96.5318561,23.6798017 96.9565565,23.5244235 97.2788462,23.2307692 C97.5892393,22.9369036 97.7575068,22.5232461 97.7403846,22.0961538 C97.7541683,21.6780748 97.5857639,21.2746057 97.2788462,20.9903846 C96.9565565,20.6967303 96.5318561,20.5413521 96.0961538,20.5576923 L91.4423077,20.5576923 L91.4423077,23.6538462 L96.0961538,23.6634615 L96.0961538,23.6634615 Z M96.2596154,31.0865385 C96.7541063,31.1129877 97.2397411,30.9476652 97.6153846,30.625 C98.268796,29.9531894 98.268796,28.883349 97.6153846,28.2115385 C97.244945,27.8790053 96.7564392,27.7092408 96.2596154,27.7403846 L91.4519231,27.7403846 L91.4519231,31.0865385 L96.2596154,31.0865385 L96.2596154,31.0865385 Z M119.461538,35.1346154 L105.826923,35.1346154 L105.826923,16.5288462 L119.471154,16.5288462 L119.471154,20.7115385 L110.576923,20.7115385 L110.576923,23.5961538 L119.230769,23.5961538 L119.230769,27.7788462 L110.576923,27.7788462 L110.576923,30.9326923 L119.423077,30.9326923 L119.423077,35.1153846 L119.461538,35.1346154 L119.461538,35.1346154 Z M126.923077,16.5288462 L126.923077,22.1153846 C126.923077,24.0384615 127.916667,25 129.903846,25 C130.969288,25.0189347 132.028962,24.8396052 133.028846,24.4711538 L133.028846,16.5288462 L137.836538,16.5288462 L137.836538,35.1346154 L133.028846,35.1346154 L133.028846,28.6057692 C131.785888,28.9159817 130.511664,29.0837277 129.230769,29.1057692 C127.248891,29.2454605 125.29922,28.5479037 123.855769,27.1826923 C122.64025,25.7833184 122.016189,23.9663021 122.115385,22.1153846 L122.115385,16.5288462 L126.923077,16.5288462 L126.923077,16.5288462 Z M159.153846,35.1346154 L154.346154,35.1346154 L154.346154,27.6538462 L146.653846,27.6538462 L146.653846,35.1346154 L141.846154,35.1346154 L141.846154,16.5288462 L146.653846,16.5288462 L146.653846,23.4711538 L154.346154,23.4711538 L154.346154,16.5288462 L159.153846,16.5288462 L159.153846,35.1346154 L159.153846,35.1346154 L159.153846,35.1346154 Z M181.221154,35.1346154 L175.778846,35.1346154 L174.817308,32.4519231 L167.480769,32.4519231 L166.519231,35.1346154 L161.076923,35.1346154 L168.076923,16.5288462 L174.105769,16.5288462 L181.134615,35.1346154 L181.221154,35.1346154 L181.221154,35.1346154 Z M173.528846,28.2692308 L171.153846,21.2692308 L168.778846,28.2692308 L173.528846,28.2692308 L173.528846,28.2692308 Z M187.875,35.1346154 L182.375,35.1346154 L186.173077,28.2980769 C185.125284,27.9292911 184.209073,27.2605237 183.538462,26.375 C182.76801,25.320434 182.37817,24.035657 182.432692,22.7307692 C182.383227,21.0616007 183.027191,19.4464698 184.211538,18.2692308 C185.487465,17.0513129 187.209826,16.4145615 188.971154,16.5096154 L198.288462,16.5096154 L198.288462,35.1346154 L193.480769,35.1346154 L193.480769,28.8461538 L191.028846,28.8461538 L187.932692,35.0961538 L187.875,35.1346154 L187.875,35.1346154 Z M189.634615,24.7019231 L193.432692,24.7019231 L193.432692,20.7115385 L189.634615,20.7115385 C189.044494,20.6900176 188.465684,20.8772797 188,21.2403846 C187.563007,21.5924153 187.320122,22.1317625 187.346154,22.6923077 C187.317043,23.261639 187.559638,23.8110457 188,24.1730769 C188.465684,24.5361818 189.044494,24.723444 189.634615,24.7019231 L189.634615,24.7019231 L189.634615,24.7019231 Z M154.644231,56.8461538 L150.798077,56.8461538 L150.798077,41.3461538 L154.807692,41.3461538 L154.807692,50.4807692 L161.105769,41.3461538 L165.259615,41.3461538 L165.259615,56.8461538 L161.221154,56.8461538 L161.221154,47.2307692 L154.673077,56.8461538 L154.644231,56.8461538 L154.644231,56.8461538 Z M162.096154,38.6346154 C161.168287,39.959722 159.636224,40.7293669 158.019231,40.6826923 C156.396346,40.720151 154.859699,39.9536268 153.913462,38.6346154 L155.451923,37.375 C156.026093,38.2289593 156.99022,38.7381046 158.019231,38.7307692 C159.053256,38.7703113 160.029245,38.252964 160.576923,37.375 L162.115385,38.6346154 L162.096154,38.6346154 L162.096154,38.6346154 Z M199.471154,56.8461538 L194.923077,56.8461538 L194.153846,54.6153846 L188.019231,54.6153846 L187.25,56.8461538 L182.692308,56.8461538 L188.557692,41.3461538 L193.596154,41.3461538 L199.471154,56.8557692 L199.471154,56.8461538 L199.471154,56.8461538 Z M193.057692,51.125 L191.076923,45.2884615 L189.096154,51.125 L193.057692,51.125 L193.057692,51.125 Z M182.096154,56.8461538 L177.173077,56.8461538 L173.076923,50.9615385 L172.028846,52.2596154 L172.028846,56.7884615 L168.019231,56.7884615 L168.019231,41.3461538 L172.028846,41.3461538 L172.028846,47.7115385 L176.836538,41.3461538 L181.730769,41.3461538 L175.692308,48.5961538 L182.057692,56.8461538 L182.096154,56.8461538 L182.096154,56.8461538 Z M94.2884615,57.125 C92.0657562,57.1972516 89.9037818,56.392555 88.2692308,54.8846154 C86.6720101,53.3991923 85.7954527,51.2954546 85.8653846,49.1153846 C85.7917871,46.9385349 86.6609307,44.835768 88.25,43.3461538 C89.8890163,41.8402328 92.0543594,41.0390213 94.2788462,41.1153846 C97.1819157,40.9776075 99.8740805,42.628751 101.067308,45.2788462 L97.6153846,46.9038462 C97.33991,46.2530042 96.882519,45.6954545 96.2980769,45.2980769 C95.7112755,44.8716945 95.0041982,44.6427361 94.2788462,44.6442308 C93.103813,44.6079017 91.9695727,45.0770011 91.1634615,45.9326923 C89.5406625,47.7552136 89.5406625,50.5044018 91.1634615,52.3269231 C91.9695727,53.1826143 93.103813,53.6517137 94.2788462,53.6153846 C95.0041982,53.6168793 95.7112755,53.3879209 96.2980769,52.9615385 C96.8821483,52.5637554 97.3394399,52.0063269 97.6153846,51.3557692 L101.067308,52.9807692 C100.471043,54.1631155 99.592575,55.1802885 98.5096154,55.9423077 C97.2628082,56.7821275 95.7809644,57.2031059 94.2788462,57.1442308 L94.2884615,57.125 L94.2884615,57.125 Z M110.836538,56.8461538 L106.826923,56.8461538 L106.826923,44.8269231 L102.471154,44.8269231 L102.471154,41.3461538 L115.173077,41.3461538 L115.173077,44.8365385 L110.836538,44.8365385 L110.836538,56.8557692 L110.836538,56.8461538 L110.836538,56.8461538 Z M121.413462,56.8461538 L117.403846,56.8461538 L117.403846,41.3461538 L125.192308,41.3461538 C126.661298,41.2672627 128.096766,41.8038209 129.153846,42.8269231 C131.083556,44.8954644 131.083556,48.1045356 129.153846,50.1730769 C128.096766,51.1961791 126.661298,51.7327373 125.192308,51.6538462 L121.413462,51.6538462 L121.413462,56.8653846 L121.413462,56.8461538 L121.413462,56.8461538 Z M124.653846,48.1923077 C125.138117,48.2108503 125.612778,48.0537685 125.990385,47.75 C126.344709,47.449794 126.54,47.0023992 126.519231,46.5384615 C126.543099,46.0684374 126.347786,45.6138896 125.990385,45.3076923 C125.612778,45.0039238 125.138117,44.846842 124.653846,44.8653846 L121.413462,44.8653846 L121.413462,48.1923077 L124.653846,48.1923077 L124.653846,48.1923077 Z M146.375,54.9230769 C142.976886,57.9304517 137.869268,57.9304517 134.471154,54.9230769 C131.308432,51.7271058 131.308432,46.5805865 134.471154,43.3846154 C137.869268,40.3772406 142.976886,40.3772406 146.375,43.3846154 C147.945082,44.8850935 148.801824,46.983237 148.730769,49.1538462 C148.801824,51.3244553 147.945082,53.4225989 146.375,54.9230769 L146.375,54.9230769 L146.375,54.9230769 Z M140.384615,53.5865385 C141.542236,53.6302112 142.660475,53.1625198 143.442308,52.3076923 C144.993963,50.4514243 144.993963,47.7504988 143.442308,45.8942308 C142.631505,45.0756649 141.527151,44.6151412 140.375,44.6151412 C139.222849,44.6151412 138.118495,45.0756649 137.307692,45.8942308 C135.756037,47.7504988 135.756037,50.4514243 137.307692,52.3076923 C138.09624,53.1644641 139.221086,53.631978 140.384615,53.5865385 L140.384615,53.5865385 L140.384615,53.5865385 Z" id="Shape" fill="#1D1D1B"></path>
                    </g>
                    <path d="M50,189 C48.9,189 48.01,189.9 48.01,191 C48.01,192.1 48.9,193 50,193 C51.1,193 52,192.1 52,191 C52,189.9 51.1,189 50,189 L50,189 L50,189 Z M60,189 C58.9,189 58.01,189.9 58.01,191 C58.01,192.1 58.9,193 60,193 C61.1,193 62,192.1 62,191 C62,189.9 61.1,189 60,189 L60,189 L60,189 Z M50.2,185.63 L51.1,184 L58.55,184 C59.3,184 59.96,183.59 60.3,182.97 L64.16,175.96 L62.42,175 L61.31,177 L58,177 L49.16,177 L48.21,175 L47.27,173 L44,173 L44,175 L46,175 L49.6,182.59 L48.25,185.04 C48.09,185.32 48,185.65 48,186 C48,187.1 48.9,188 50,188 L62,188 L62,186 L50.42,186 C50.29,186 50.17,185.89 50.17,185.75 L50.2,185.63 L50.2,185.63 Z" id="Shape" fill="#4A4A4A"></path>
                    <path d="M8,175 C5.79,175 4,176.79 4,179 C4,181.21 5.79,183 8,183 C10.21,183 12,181.21 12,179 C12,176.79 10.21,175 8,175 L8,175 L8,175 Z M8,184 C5.33,184 0,185.34 0,188 L0,191 L16,191 L16,188 C16,185.34 10.67,184 8,184 L8,184 L8,184 Z" id="Shape" fill="#4A4A4A"></path>
                    <path d="M2.2625,141.86875 C3.1625,143.6375 4.6125,145.08125 6.38125,145.9875 L7.75625,144.6125 C7.925,144.44375 8.175,144.3875 8.39375,144.4625 C9.09375,144.69375 9.85,144.81875 10.625,144.81875 C10.96875,144.81875 11.25,145.1 11.25,145.44375 L11.25,147.625 C11.25,147.96875 10.96875,148.25 10.625,148.25 C4.75625,148.25 0,143.49375 0,137.625 C0,137.28125 0.28125,137 0.625,137 L2.8125,137 C3.15625,137 3.4375,137.28125 3.4375,137.625 C3.4375,138.40625 3.5625,139.15625 3.79375,139.85625 C3.8625,140.075 3.8125,140.31875 3.6375,140.49375 L2.2625,141.86875 L2.2625,141.86875 L2.2625,141.86875 Z" id="Shape" fill="#FFFFFF"></path>
                    <path d="M239.5,145 L238.71,145 L238.43,144.73 C239.41,143.59 240,142.11 240,140.5 C240,136.91 237.09,134 233.5,134 C229.91,134 227,136.91 227,140.5 C227,144.09 229.91,147 233.5,147 C235.11,147 236.59,146.41 237.73,145.43 L238,145.71 L238,146.5 L243,151.49 L244.49,150 L239.5,145 L239.5,145 L239.5,145 Z M233.5,145 C231.01,145 229,142.99 229,140.5 C229,138.01 231.01,136 233.5,136 C235.99,136 238,138.01 238,140.5 C238,142.99 235.99,145 233.5,145 L233.5,145 L233.5,145 Z" id="Shape" fill="#D62626"></path>
                    <polygon id="⌃" fill="#FFFFFF" points="85.9228516 137 91.1259766 142.203125 85.9228516 147.415039 85 146.492188 89.2890625 142.203125 85 137.922852"></polygon>
                    <polygon id="⌃" fill="#4A4A4A" points="119.602582 139 123 142.397418 119.602582 145.800574 119 145.197991 121.800574 142.397418 119 139.602582"></polygon>
                    <polygon id="⌃" fill="#D62626" points="150.602582 139 154 142.397418 150.602582 145.800574 150 145.197991 152.800574 142.397418 150 139.602582"></polygon>
                    <path d="M48.5238095,140.619048 L50.4285714,140.619048 L50.4285714,137.761905 L53.2857143,137.761905 L53.2857143,135.857143 L50.4285714,135.857143 L50.4285714,133 L48.5238095,133 L48.5238095,135.857143 L45.6666667,135.857143 L45.6666667,137.761905 L48.5238095,137.761905 L48.5238095,140.619048 L48.5238095,140.619048 L48.5238095,140.619048 Z M44.7142857,149.190476 C43.6666667,149.190476 42.8190476,150.047619 42.8190476,151.095238 C42.8190476,152.142857 43.6666667,153 44.7142857,153 C45.7619048,153 46.6190476,152.142857 46.6190476,151.095238 C46.6190476,150.047619 45.7619048,149.190476 44.7142857,149.190476 L44.7142857,149.190476 L44.7142857,149.190476 Z M54.2380952,149.190476 C53.1904762,149.190476 52.3428571,150.047619 52.3428571,151.095238 C52.3428571,152.142857 53.1904762,153 54.2380952,153 C55.2857143,153 56.1428571,152.142857 56.1428571,151.095238 C56.1428571,150.047619 55.2857143,149.190476 54.2380952,149.190476 L54.2380952,149.190476 L54.2380952,149.190476 Z M44.8761905,146.095238 L44.9047619,145.980952 L45.7619048,144.428571 L52.8571429,144.428571 C53.5714286,144.428571 54.2,144.038095 54.5238095,143.447619 L58.2,136.771429 L56.5428571,135.857143 L56.5333333,135.857143 L55.4857143,137.761905 L52.8571429,142.52381 L46.1714286,142.52381 L46.047619,142.266667 L43.9142857,137.761905 L43.0095238,135.857143 L42.1142857,133.952381 L39,133.952381 L39,135.857143 L40.9047619,135.857143 L44.3333333,143.085714 L43.047619,145.419048 C42.8952381,145.685714 42.8095238,146 42.8095238,146.333333 C42.8095238,147.380952 43.6666667,148.238095 44.7142857,148.238095 L56.1428571,148.238095 L56.1428571,146.333333 L45.1142857,146.333333 C44.9904762,146.333333 44.8761905,146.228571 44.8761905,146.095238 L44.8761905,146.095238 L44.8761905,146.095238 Z" id="Shape" fill="#FFFFFF"></path>
                    <text id="→" fill="#D62626" font-family="LucidaGrande, Lucida Grande" font-size="18" font-weight="normal">
                        <tspan x="182" y="149">→</tspan>
                    </text>
                    <g id="facebook" transform="translate(115.000000, 65.000000)">
                        <g id="Layer_1">
                            <g id="Group">
                                <path d="M19.9532877,0 C30.9738356,0 39.9067123,8.93410959 39.9067123,19.9534247 C39.9067123,30.9739726 30.9738356,39.9067123 19.9532877,39.9067123 C8.93273973,39.9067123 0,30.9738356 0,19.9534247 C0,8.93410959 8.93287671,0 19.9532877,0 L19.9532877,0 L19.9532877,0 Z" id="Shape" fill="#3B5998"></path>
                                <path d="M22.3827397,13.7365753 L24.9542466,13.7365753 L24.9542466,9.93794521 L21.9313699,9.93794521 L21.9313699,9.95164384 C18.2686301,10.0813699 17.5179452,12.140274 17.4517808,14.3027397 L17.4442466,14.3027397 L17.4442466,16.199589 L14.950137,16.199589 L14.950137,19.919589 L17.4442466,19.919589 L17.4442466,29.8912329 L21.2030137,29.8912329 L21.2030137,19.919589 L24.2820548,19.919589 L24.8768493,16.199589 L21.2042466,16.199589 L21.2042466,15.0535616 C21.2042466,14.3227397 21.6905479,13.7365753 22.3827397,13.7365753 L22.3827397,13.7365753 L22.3827397,13.7365753 Z" id="Shape" fill="#FFFFFF"></path>
                            </g>
                        </g>
                    </g>
                    <g id="vk" transform="translate(57.000000, 65.000000)">
                        <g id="Capa_1">
                            <g id="Group">
                                <circle id="XMLID_11_" fill="#4D76A1" cx="19.8576991" cy="19.8576991" r="19.8576991"></circle>
                                <path d="M19.1076106,28.5670796 L20.6661947,28.5670796 C20.6661947,28.5670796 21.1369912,28.5153982 21.3773451,28.2562832 C21.5985841,28.0184071 21.5915044,27.5716814 21.5915044,27.5716814 C21.5915044,27.5716814 21.5610619,25.480354 22.5316814,25.1723894 C23.4884956,24.8690265 24.7171681,27.1936283 26.019469,28.0874336 C27.0042478,28.7638938 27.7525664,28.6155752 27.7525664,28.6155752 L31.2346903,28.5670796 C31.2346903,28.5670796 33.0562832,28.4548673 32.1925664,27.0226549 C32.1217699,26.9054867 31.6895575,25.9631858 29.6035398,24.0269027 C27.420177,22.000354 27.7125664,22.3281416 30.3426549,18.8226549 C31.9444248,16.6877876 32.5847788,15.3844248 32.3847788,14.8261947 C32.1939823,14.2945133 31.0159292,14.4350442 31.0159292,14.4350442 L27.0952212,14.459469 C27.0952212,14.459469 26.8046018,14.419823 26.5890265,14.5486726 C26.3784071,14.6750442 26.2428319,14.9695575 26.2428319,14.9695575 C26.2428319,14.9695575 25.6223009,16.6215929 24.7946903,18.0265487 C23.0488496,20.9911504 22.3507965,21.1476106 22.0654867,20.9635398 C21.4017699,20.5345133 21.5674336,19.24 21.5674336,18.320354 C21.5674336,15.4474336 22.0031858,14.2495575 20.7189381,13.939469 C20.2927434,13.8364602 19.979115,13.7684956 18.8892035,13.7575221 C17.4902655,13.7430088 16.3061947,13.7617699 15.6357522,14.0902655 C15.1897345,14.3086726 14.8456637,14.7953982 15.0552212,14.8233628 C15.3143363,14.8580531 15.9012389,14.9815929 16.2123894,15.4053097 C16.6141593,15.9518584 16.6,17.179469 16.6,17.179469 C16.6,17.179469 16.8307965,20.5614159 16.060885,20.9815929 C15.5323894,21.2697345 14.8074336,20.6814159 13.2509735,17.9918584 C12.4534513,16.6141593 11.8513274,15.0913274 11.8513274,15.0913274 C11.8513274,15.0913274 11.7352212,14.8067257 11.5281416,14.6545133 C11.2768142,14.4700885 10.9256637,14.4113274 10.9256637,14.4113274 L7.2,14.4357522 C7.2,14.4357522 6.64070796,14.4513274 6.43539823,14.6945133 C6.25274336,14.9107965 6.42088496,15.3582301 6.42088496,15.3582301 C6.42088496,15.3582301 9.33769912,22.1823009 12.640354,25.6212389 C15.6686726,28.7741593 19.1076106,28.5670796 19.1076106,28.5670796 L19.1076106,28.5670796 L19.1076106,28.5670796 L19.1076106,28.5670796 Z" id="Shape" fill="#FFFFFF"></path>
                            </g>
                        </g>
                    </g>
                    <g id="youtube" transform="translate(0.000000, 65.000000)">
                        <g id="Layer_1">
                            <circle id="Oval" fill="#D42428" cx="19.9971308" cy="19.9971308" r="19.9971308"></circle>
                            <path d="M30.4616878,16.1382278 C30.4616878,14.4618565 29.1036287,13.1031224 27.4281857,13.1031224 L13.1959494,13.1031224 C11.5208439,13.1031224 10.163038,14.4621941 10.163038,16.1382278 L10.163038,24.276962 C10.163038,25.9533333 11.521097,27.3120675 13.1959494,27.3120675 L27.4279325,27.3120675 C29.1037131,27.3120675 30.4614346,25.9529958 30.4614346,24.276962 L30.4614346,16.1382278 L30.4616878,16.1382278 L30.4616878,16.1382278 L30.4616878,16.1382278 Z M18.2818565,23.6410127 L18.2818565,15.9967932 L24.078903,19.8190717 L18.2818565,23.6410127 L18.2818565,23.6410127 L18.2818565,23.6410127 Z" id="Shape" fill="#FFFFFF"></path>
                        </g>
                    </g>
                    <g id="ic_place" transform="translate(128.000000, 173.000000)" fill="#4A4A4A">
                        <g id="Icon-24px">
                            <path d="M7,0 C3.13,0 0,3.13 0,7 C0,12.25 7,20 7,20 C7,20 14,12.25 14,7 C14,3.13 10.87,0 7,0 L7,0 L7,0 Z M7,9.5 C5.62,9.5 4.5,8.38 4.5,7 C4.5,5.62 5.62,4.5 7,4.5 C8.38,4.5 9.5,5.62 9.5,7 C9.5,8.38 8.38,9.5 7,9.5 L7,9.5 L7,9.5 Z" id="Shape"></path>
                        </g>
                    </g>
                    <path d="M95.43,180.57 C93.83,180.57 92.28,180.82 90.83,181.29 L90.83,184.39 C90.83,184.78 90.6,185.13 90.27,185.29 C89.29,185.78 88.4,186.41 87.61,187.14 C87.43,187.32 87.18,187.42 86.91,187.42 C86.63,187.42 86.38,187.31 86.2,187.13 L83.72,184.65 C83.54,184.48 83.43,184.23 83.43,183.95 C83.43,183.67 83.54,183.42 83.72,183.24 C86.77,180.35 90.89,178.57 95.43,178.57 C99.97,178.57 104.09,180.35 107.14,183.24 C107.32,183.42 107.43,183.67 107.43,183.95 C107.43,184.23 107.32,184.48 107.14,184.66 L104.66,187.14 C104.48,187.32 104.23,187.43 103.95,187.43 C103.68,187.43 103.43,187.32 103.25,187.15 C102.46,186.41 101.56,185.79 100.58,185.3 C100.25,185.14 100.02,184.8 100.02,184.4 L100.02,181.3 C98.58,180.82 97.03,180.57 95.43,180.57 L95.43,180.57 L95.43,180.57 Z" id="Shape" fill="#4A4A4A" transform="translate(95.430000, 183.000000) rotate(-90.000000) translate(-95.430000, -183.000000) "></path>
                    <path d="M5.5515659,218.006181 L3.4408814,214.991811 L3.4408814,220.474235 L0,220.474235 L0,209.00463 L3.4392981,209.00463 L3.4459107,209 L8.370171,216.032572 C8.7833465,216.636795 9.4779614,217.033354 10.2651976,217.033354 C11.5320952,217.033354 12.5591186,216.00633 12.5591186,214.739433 C12.5591186,213.472535 11.5320952,212.445512 10.2651976,212.445512 C10.2575424,212.445512 10.249896,212.445549 10.2422584,212.445624 L10.2422584,209.004675 L10.2422584,209.004675 C10.2499013,209.004645 10.2575477,209.00463 10.2651976,209.00463 C13.4324415,209.00463 16,211.572189 16,214.739433 C16,217.906676 13.4324415,220.474235 10.2651976,220.474235 C8.3119858,220.474235 6.5868393,219.497771 5.5512887,218.006375 L5.5515659,218.006181 Z" id="Combined-Shape" fill="#9B9B9B"></path>
                    <g id="Instagram_logo_2016" transform="translate(172.000000, 65.000000)">
                        <g id="Group">
                            <g id="Rectangle-2">
                                <g id="path-4-link" fill="url(#radialGradient-2)">
                                    <rect id="path-4" x="0" y="0" width="40" height="40" rx="20"></rect>
                                </g>
                                <g id="path-4-link" fill="url(#radialGradient-3)">
                                    <rect id="path-4" x="0" y="0" width="40" height="40" rx="20"></rect>
                                </g>
                            </g>
                            <path d="M20.5010781,8 C17.3778373,8 16.9858749,8.01376144 15.7591954,8.07001435 C14.5349118,8.12650869 13.6992365,8.32182459 12.9680205,8.60840057 C12.211648,8.90439227 11.5700372,9.3003355 10.9308222,9.94470896 C10.291128,10.588841 9.89820727,11.2353873 9.6035167,11.9973366 C9.31840957,12.7344187 9.12434505,13.5767638 9.0692403,14.8099821 C9.01437515,16.0460975 9,16.4413165 9,19.5885823 C9,22.735848 9.01389598,23.1296184 9.06947989,24.3657339 C9.12578256,25.599435 9.3196075,26.4415387 9.60375629,27.1783793 C9.8977281,27.9405701 10.2906489,28.5871164 10.9301034,29.2312484 C11.5690788,29.8758633 12.2106897,30.2727722 12.966583,30.5687639 C13.6982781,30.8553399 14.5341931,31.0506558 15.7582371,31.1071502 C16.9849165,31.1634031 17.3766393,31.1771645 20.4996406,31.1771645 C23.6231211,31.1771645 24.0138856,31.1634031 25.240565,31.1071502 C26.4648486,31.0506558 27.3014823,30.8553399 28.0331774,30.5687639 C28.7893103,30.2727722 29.4299628,29.8758633 30.0689382,29.2312484 C30.7086324,28.5871164 31.1015531,27.9405701 31.3962437,27.1786208 C31.678955,26.4415387 31.8730195,25.5991936 31.9305201,24.3659753 C31.9856249,23.1298598 32,22.735848 32,19.5885823 C32,16.4413165 31.9856249,16.0463389 31.9305201,14.8102235 C31.8730195,13.5765224 31.678955,12.7344187 31.3962437,11.997578 C31.1015531,11.2353873 30.7086324,10.588841 30.0689382,9.94470896 C29.4292441,9.30009407 28.7895499,8.90415084 28.0324587,8.60840057 C27.299326,8.32182459 26.4631715,8.12650869 25.2388879,8.07001435 C24.0122085,8.01376144 23.6216836,8 20.4974843,8 L20.5010781,8 L20.5010781,8 Z M19.4694216,10.0883591 C19.7756122,10.0878762 20.1172616,10.0883591 20.5010781,10.0883591 C23.5716101,10.0883591 23.935541,10.0994648 25.1480849,10.1549934 C26.2693466,10.2066592 26.8778946,10.3954565 27.2832738,10.5540752 C27.819946,10.7641183 28.2025646,11.0152042 28.6048292,11.4208046 C29.0073334,11.826405 29.2565027,12.2126911 29.4654215,12.7534916 C29.6228294,13.1615062 29.8104251,13.7747354 29.8614569,14.9046222 C29.9165616,16.1262519 29.9285409,16.4932236 29.9285409,19.5859265 C29.9285409,22.6786294 29.9165616,23.0456012 29.8614569,24.2672309 C29.8101855,25.3971177 29.6228294,26.0103468 29.4654215,26.4183615 C29.2569818,26.959162 29.0073334,27.3442409 28.6048292,27.7495999 C28.202325,28.1552003 27.8201856,28.4062862 27.2832738,28.6163293 C26.8783737,28.7756723 26.2693466,28.9639867 25.1480849,29.0156525 C23.9357806,29.0711811 23.5716101,29.0832525 20.5010781,29.0832525 C17.4303066,29.0832525 17.0663757,29.0711811 15.8540714,29.0156525 C14.7328097,28.9635039 14.1242617,28.7747065 13.7186429,28.6160878 C13.1819706,28.4060448 12.7986333,28.1549588 12.3961291,27.7493584 C11.9936249,27.3437581 11.7444557,26.9584377 11.5355368,26.4173958 C11.3781289,26.0093811 11.1905332,25.396152 11.1395015,24.2662652 C11.0843967,23.0446355 11.0733758,22.6776637 11.0733758,19.5830294 C11.0733758,16.4883951 11.0843967,16.1233547 11.1395015,14.901725 C11.1907728,13.7718382 11.3781289,13.1586091 11.5355368,12.7501116 C11.7439765,12.2093111 11.9936249,11.823025 12.3961291,11.4174246 C12.7986333,11.0118242 13.1819706,10.7607383 13.7186429,10.5502124 C14.1240221,10.3908694 14.7328097,10.2025549 15.8540714,10.1506477 C16.9149574,10.102362 17.3260867,10.0878762 19.4694216,10.0854619 L19.4694216,10.0883591 L19.4694216,10.0883591 Z M26.6397462,12.0125466 C25.8778633,12.0125466 25.2597319,12.6347086 25.2597319,13.4026936 C25.2597319,14.1704372 25.8778633,14.7933235 26.6397462,14.7933235 C27.4016292,14.7933235 28.0197606,14.1704372 28.0197606,13.4026936 C28.0197606,12.63495 27.4016292,12.0120637 26.6397462,12.0120637 L26.6397462,12.0125466 L26.6397462,12.0125466 Z M20.5010781,13.6373624 C17.2395962,13.6373624 14.5952875,16.302012 14.5952875,19.5885823 C14.5952875,22.8751525 17.2395962,25.538595 20.5010781,25.538595 C23.76256,25.538595 26.4059105,22.8751525 26.4059105,19.5885823 C26.4059105,16.302012 23.7623204,13.6373624 20.5008386,13.6373624 L20.5010781,13.6373624 L20.5010781,13.6373624 Z M20.5010781,15.7257215 C22.6180585,15.7257215 24.3344514,17.455076 24.3344514,19.5885823 C24.3344514,21.7218471 22.6180585,23.451443 20.5010781,23.451443 C18.3838582,23.451443 16.6677049,21.7218471 16.6677049,19.5885823 C16.6677049,17.455076 18.3838582,15.7257215 20.5010781,15.7257215 L20.5010781,15.7257215 L20.5010781,15.7257215 Z" id="Shape" fill="#FFFFFF"></path>
                        </g>
                    </g>
                </g>
            </g>
        </g>
    </g>
</svg>