<?xml version="1.0" encoding="UTF-8"?>
<svg width="568px" height="164px" viewBox="0 0 568 164" version="1.1" xmlns="http://www.w3.org/2000/svg" xmlns:xlink="http://www.w3.org/1999/xlink">
    <!-- Generator: Sketch 50.2 (55047) - http://www.bohemiancoding.com/sketch -->
    <title>vs-logo-color</title>
    <desc>Created with Sketch.</desc>
    <defs>
        <linearGradient x1="26.1591696%" y1="104.230834%" x2="106.205306%" y2="-6.82010492%" id="linearGradient-1">
            <stop stop-color="#27348B" offset="0%"></stop>
            <stop stop-color="#952269" offset="21%"></stop>
            <stop stop-color="#D82129" offset="51%"></stop>
            <stop stop-color="#E30613" offset="73%"></stop>
            <stop stop-color="#FFCC00" offset="100%"></stop>
        </linearGradient>
    </defs>
    <g id="Магазин" stroke="none" stroke-width="1" fill="none" fill-rule="evenodd">
        <g id="Контакты-Copy-3" transform="translate(-676.000000, -135.000000)">
            <g id="vs-logo-color" transform="translate(676.000000, 135.000000)">
                <g id="Слой_2">
                    <g>
                        <g id="_1">
                            <path d="M214.497409,127.354852 L214.497409,76.6658068 L180.088108,92.7741477 L214.497409,127.354852 L214.497409,127.354852 Z M122.948974,66.1376591 L134.792557,121.55475 L146.608788,66.1376591 L134.765205,54.2350795 L122.921622,66.1376591 L122.948974,66.1376591 Z M150.76635,70.3159318 L172.374735,92.0319545 L138.922767,125.650557 L150.738998,70.3159318 L150.76635,70.3159318 Z M130.607642,125.650557 L97.1830266,92.0319545 L118.791411,70.3159318 L130.607642,125.650557 L130.607642,125.650557 Z M97.7847791,99.7287727 L128.829737,130.845909 L104.486114,130.845909 L97.8394838,99.7287727 L97.7847791,99.7287727 Z M105.552857,135.793864 L110.613048,159.434091 L111.242153,162.430352 L76.1216895,162.430352 L76.7507944,159.434091 L81.8109858,135.738886 L51.9695329,135.738886 L48.2769608,134.007102 L0,111.411443 L0,110.201943 L72.1282412,110.201943 L134.765205,47.2529659 L175.055269,87.7987045 L215.837676,0 L237.145184,12.3423977 L219.420838,22.6506364 L219.420838,135.793864 L187.719423,135.793864 L192.806967,159.434091 L193.436072,162.430352 L158.288256,162.430352 L158.917361,159.434091 L164.114314,135.793864 L105.552857,135.793864 L105.552857,135.793864 Z M82.8777288,130.845909 L89.5243586,99.7287727 L58.5614579,130.845909 L82.8777288,130.845909 Z M105.169923,157.537375 L100.520018,135.793864 L86.8438248,135.793864 L82.1939192,157.537375 L105.169923,157.537375 Z M99.4532746,130.845909 L93.6819212,103.82458 L87.9105678,130.845909 L99.4532746,130.845909 Z M180.033403,99.7287727 L210.996304,130.845909 L186.680033,130.845909 L180.033403,99.7287727 L180.033403,99.7287727 Z M165.044296,130.845909 L140.728025,130.845909 L171.690925,99.7287727 L165.044296,130.845909 L165.044296,130.845909 Z M187.33649,157.537375 L182.686584,135.793864 L169.010392,135.793864 L164.360486,157.537375 L187.33649,157.537375 Z M181.647194,130.845909 L170.077135,130.845909 L175.848488,103.82458 L181.619841,130.845909 L181.647194,130.845909 Z M214.470057,64.8731818 L214.470057,39.8585227 L201.340911,46.0159773 L214.470057,64.8731818 L214.470057,64.8731818 Z M214.470057,34.3882841 L214.470057,14.6514432 L202.735883,39.9409886 L214.470057,34.4432614 L214.470057,34.3882841 Z M219.393486,7.69681818 L219.393486,16.933 L227.298326,12.3423977 L219.420838,7.77928409 L219.393486,7.69681818 Z M51.9695329,130.351114 L67.0954022,115.149898 L19.6663654,115.149898 L51.9695329,130.351114 L51.9695329,130.351114 Z M198.085978,50.0018295 L213.348609,71.7728295 L180.963384,86.9190682 L198.085978,50.0018295 Z" id="Shape" fill="url(#linearGradient-1)"></path>
                            <path d="M277.407896,100.443477 L246.472348,100.443477 L246.472348,47.2529659 L276.559972,47.2529659 C280.758243,46.9888466 284.88365,48.4468744 287.99327,51.2937955 C290.603266,53.7696076 292.069969,57.2255615 292.041423,60.8323523 C292.136552,63.7350488 291.227977,66.5812035 289.470298,68.8865227 C287.870323,70.9889652 285.58509,72.4584103 283.015135,73.0373068 C285.892143,73.466546 288.480678,75.0293823 290.208813,77.3805114 C292.129444,79.8501302 293.152441,82.9053127 293.108166,86.0394318 C293.14158,89.8594161 291.63144,93.5295806 288.923251,96.2102273 C285.819791,99.1324738 281.65199,100.634785 277.407896,100.361011 L277.407896,100.443477 Z M273.359743,67.6495341 C274.599163,67.6962478 275.807286,67.2520497 276.724087,66.4125455 C277.607046,65.5724371 278.085708,64.3898653 278.037001,63.1688864 C278.076211,61.9736744 277.597159,60.8202295 276.724087,60.0076932 C275.807286,59.1681889 274.599163,58.7239909 273.359743,58.7707045 L260.121188,58.7707045 L260.121188,67.6220455 L273.359743,67.6495341 Z M273.824734,88.8707614 C275.231386,88.9463749 276.612847,88.473748 277.68142,87.5513068 C279.540146,85.6307225 279.540146,82.5722434 277.68142,80.6516591 C276.62765,79.7010072 275.238023,79.2156815 273.824734,79.3047159 L260.148541,79.3047159 L260.148541,88.8707614 L273.824734,88.8707614 Z M339.826041,100.443477 L301.040358,100.443477 L301.040358,47.2529659 L339.853393,47.2529659 L339.853393,59.2105227 L314.552436,59.2105227 L314.552436,67.4571136 L339.169583,67.4571136 L339.169583,79.4146705 L314.552436,79.4146705 L314.552436,88.4309432 L339.716631,88.4309432 L339.716631,100.3885 L339.826041,100.443477 Z M361.051492,47.2529659 L361.051492,63.2238636 C361.051492,68.7215909 363.877905,71.4704545 369.530731,71.4704545 C372.561537,71.5245855 375.575939,71.0119149 378.420257,69.9585795 L378.420257,47.2529659 L392.09645,47.2529659 L392.09645,100.443477 L378.420257,100.443477 L378.420257,81.7786932 C374.884479,82.6655341 371.259758,83.1450896 367.616064,83.2081023 C361.97832,83.6074543 356.432191,81.6132663 352.326081,77.710375 C348.868356,73.7098194 347.093123,68.5153001 347.375299,63.2238636 L347.375299,47.2529659 L361.051492,47.2529659 Z M439.060496,100.443477 L439.060496,79.0573182 L417.178587,79.0573182 L417.178587,100.443477 L403.502395,100.443477 L403.502395,47.2529659 L417.178587,47.2529659 L417.178587,67.0997614 L439.060496,67.0997614 L439.060496,47.2529659 L452.736689,47.2529659 L452.736689,100.443477 L439.060496,100.443477 Z M515.510414,100.443477 L500.028964,100.443477 L497.293725,92.7741477 L476.423855,92.7741477 L473.688616,100.443477 L458.207166,100.443477 L478.119703,47.2529659 L495.269649,47.2529659 L515.264243,100.443477 L515.510414,100.443477 Z M493.628506,80.8165909 L486.872466,60.8048636 L480.116427,80.8165909 L493.628506,80.8165909 Z M534.438265,100.443477 L518.7927,100.443477 L529.596893,80.8990568 C526.616292,79.8447653 524.009993,77.9328809 522.102339,75.4013295 C519.910676,72.386517 518.801719,68.7135732 518.956815,64.9831364 C518.816104,60.2112869 520.647955,55.5939214 524.017006,52.2284091 C527.646568,48.7466034 532.546078,46.9262468 537.556437,47.1979886 L564.060899,47.1979886 L564.060899,100.443477 L550.384706,100.443477 L550.384706,82.4659091 L543.409848,82.4659091 L534.602379,100.333523 L534.438265,100.443477 Z M539.443752,70.6183068 L550.247944,70.6183068 L550.247944,59.2105227 L539.443752,59.2105227 C537.765064,59.1489984 536.118552,59.6843468 534.793846,60.7223977 C533.550755,61.7287895 532.859833,63.2706849 532.933884,64.8731818 C532.851073,66.5007964 533.54117,68.0714503 534.793846,69.1064318 C536.118552,70.1444827 537.765064,70.6798311 539.443752,70.6183068 L539.443752,70.6183068 Z M439.90842,162.512818 L428.967466,162.512818 L428.967466,118.201136 L440.373411,118.201136 L440.373411,144.315341 L458.289223,118.201136 L470.105454,118.201136 L470.105454,162.512818 L458.617452,162.512818 L458.617452,135.024182 L439.990477,162.512818 L439.90842,162.512818 Z M461.106519,110.449341 C458.467064,114.23758 454.108884,116.437855 449.509107,116.30442 C444.892572,116.411508 440.521352,114.220155 437.829639,110.449341 L442.20602,106.84833 C443.839333,109.289644 446.581933,110.745198 449.509107,110.724227 C452.450546,110.837271 455.22689,109.358269 456.784842,106.84833 L461.161224,110.449341 L461.106519,110.449341 Z M567.425242,162.512818 L554.487564,162.512818 L552.299373,156.135455 L534.848551,156.135455 L532.66036,162.512818 L519.695329,162.512818 L536.380285,118.201136 L550.712935,118.201136 L567.425242,162.540307 L567.425242,162.512818 Z M549.181201,146.15708 L543.54661,129.471477 L537.912018,146.15708 L549.181201,146.15708 Z M517.999481,162.512818 L503.99506,162.512818 L492.342943,145.689773 L489.361533,149.400739 L489.361533,162.347886 L477.955589,162.347886 L477.955589,118.201136 L489.361533,118.201136 L489.361533,136.398614 L503.037726,118.201136 L516.960091,118.201136 L499.782792,138.927568 L517.890072,162.512818 L517.999481,162.512818 Z M268.217495,163.309989 C261.89468,163.516543 255.744624,161.216062 251.094901,156.905136 C246.55137,152.658582 244.057873,146.644378 244.256805,140.411955 C244.047446,134.188737 246.519853,128.177309 251.040196,123.918773 C255.702621,119.613618 261.86226,117.3231 268.190142,117.541409 C276.448354,117.147529 284.106615,121.867848 287.500927,129.443989 L277.68142,134.089568 C276.897792,132.228929 275.596675,130.634996 273.934143,129.498966 C272.2649,128.280016 270.253514,127.625466 268.190142,127.629739 C264.847586,127.52588 261.621072,128.86695 259.327969,131.313216 C254.711677,136.523473 254.711677,144.382902 259.327969,149.593159 C261.621072,152.039425 264.847586,153.380495 268.190142,153.276636 C270.253514,153.280909 272.2649,152.626359 273.934143,151.407409 C275.595621,150.27022 276.896455,148.676633 277.68142,146.816807 L287.500927,151.462386 C285.804762,154.842499 283.305831,157.750412 280.225192,159.928886 C276.678464,162.329779 272.46314,163.533279 268.190142,163.364966 L268.217495,163.309989 Z M315.290951,162.512818 L303.885006,162.512818 L303.885006,128.152023 L291.494375,128.152023 L291.494375,118.201136 L327.626876,118.201136 L327.626876,128.179511 L315.290951,128.179511 L315.290951,162.540307 L315.290951,162.512818 Z M345.378575,162.512818 L333.97263,162.512818 L333.97263,118.201136 L356.128062,118.201136 C360.306824,117.975601 364.390223,119.509523 367.397245,122.434386 C372.886592,128.34797 372.886592,137.522121 367.397245,143.435705 C364.390223,146.360568 360.306824,147.89449 356.128062,147.668955 L345.378575,147.668955 L345.378575,162.567795 L345.378575,162.512818 Z M354.596329,137.773045 C355.97391,137.826055 357.324151,137.376987 358.39831,136.508568 C359.406239,135.650334 359.961774,134.371313 359.902692,133.045 C359.970589,131.701286 359.414991,130.401817 358.39831,129.526455 C357.324151,128.658036 355.97391,128.208967 354.596329,128.261977 L345.378575,128.261977 L345.378575,137.773045 L354.596329,137.773045 Z M416.385368,157.015091 C406.71893,165.612629 392.189553,165.612629 382.523115,157.015091 C373.526283,147.878391 373.526283,133.165428 382.523115,124.028727 C392.189553,115.431189 406.71893,115.431189 416.385368,124.028727 C420.8517,128.318321 423.288829,134.316532 423.086703,140.521909 C423.288829,146.727286 420.8517,152.725497 416.385368,157.015091 L416.385368,157.015091 Z M399.344832,153.19417 C402.637854,153.319023 405.818852,151.981978 408.042891,149.538182 C412.456805,144.231449 412.456805,136.509994 408.042891,131.203261 C405.736442,128.86313 402.594943,127.546577 399.31748,127.546577 C396.040016,127.546577 392.898517,128.86313 390.592068,131.203261 C386.178154,136.509994 386.178154,144.231449 390.592068,149.538182 C392.83521,151.987537 396.035,153.324074 399.344832,153.19417 L399.344832,153.19417 Z" id="Shape" fill="#1D1D1B"></path>
                        </g>
                    </g>
                </g>
            </g>
        </g>
    </g>
</svg>