<svg xmlns="http://www.w3.org/2000/svg" width="24" height="24" viewBox="0 0 24 24">
    <path fill="gray" fill-rule="nonzero" d="M8.586 2.195c.316 0 .574.255.574.57 0 .314-.258.57-.574.57a.573.573 0 0 1-.574-.57c0-.315.257-.57.574-.57zM16.806 0c1.19 0 2.159.961 2.159 2.143v19.714A2.153 2.153 0 0 1 16.807 24H7.193a2.153 2.153 0 0 1-2.158-2.143V2.143C5.035.96 6.003 0 7.193 0h9.614zm1.065 21.857v-2.3H6.13v2.3c0 .583.477 1.057 1.064 1.057h9.614c.587 0 1.064-.474 1.064-1.057zm0-3.386V5.529H6.13v12.942H17.87zm0-14.028v-2.3c0-.583-.477-1.057-1.064-1.057H7.193c-.587 0-1.064.474-1.064 1.057v2.3H17.87zm-4.349-2.221c.302 0 .547.243.547.543 0 .3-.245.543-.547.543h-3.044a.545.545 0 0 1-.547-.543c0-.3.245-.543.547-.543h3.044zm-2.091 19.556a.545.545 0 0 1-.547-.543c0-.3.245-.543.547-.543h1.138c.302 0 .547.243.547.543 0 .3-.245.543-.547.543h-1.138z"/>
</svg>
