<svg xmlns="http://www.w3.org/2000/svg" width="24" height="24" viewBox="0 0 24 24">
    <path fill="gray" fill-rule="nonzero" d="M18.306 10.828a.526.526 0 0 1 .004.053v6.373a.528.528 0 0 1-.253.449L15.24 19.44a.55.55 0 0 1-.55.015.529.529 0 0 1-.28-.464v-6.055L6.192 8.364l-4.596 2.833 7.705 4.286 3.736-2.303a.549.549 0 0 1 .747.167.524.524 0 0 1-.17.73l-4.01 2.473a.55.55 0 0 1-.557.012L.274 11.681A.529.529 0 0 1 0 11.23a.527.527 0 0 1 .253-.46L5.89 7.297a.24.24 0 0 1 .004-.002L8.707 5.56l.004-.002 5.632-3.471a.552.552 0 0 1 .556-.013l8.773 4.882c.165.092.27.262.274.449a.527.527 0 0 1-.253.46l-4.01 2.472a.549.549 0 0 1-.748-.166.524.524 0 0 1 .17-.731l3.245-2-7.705-4.287-4.595 2.833 7.981 4.44a.55.55 0 0 1 .06.04l.011.008a.543.543 0 0 1 .042.035l.009.008a.52.52 0 0 1 .043.049l.005.006a.54.54 0 0 1 .026.036l.005.01.01.017a.523.523 0 0 1 .021.041l.007.016a.513.513 0 0 1 .034.123l.002.013zm-2.814 7.202l1.735-1.069v-5.11l-.61.376a.548.548 0 0 1-.747-.166.524.524 0 0 1 .17-.732l.674-.415L9.01 6.627 7.232 7.723l7.986 4.443c.17.095.274.27.274.461v5.403zm7.624-8.94a.549.549 0 0 1 .747.165.524.524 0 0 1-.17.732l-4.01 2.472a.548.548 0 0 1-.748-.167.524.524 0 0 1 .17-.731l4.01-2.472zm-10.08 6.212a.549.549 0 0 1 .748.166.524.524 0 0 1-.17.731l-4.01 2.472a.55.55 0 0 1-.557.012l-8.773-4.88a.524.524 0 0 1-.203-.724.548.548 0 0 1 .739-.199l8.49 4.724 3.737-2.302zm10.08-4.092a.549.549 0 0 1 .747.167.524.524 0 0 1-.17.73l-4.01 2.473a.548.548 0 0 1-.748-.166.524.524 0 0 1 .17-.732l4.01-2.472zm-10.08 6.213a.548.548 0 0 1 .748.166.524.524 0 0 1-.17.731l-4.01 2.472a.55.55 0 0 1-.557.013L.274 15.923a.524.524 0 0 1-.203-.723.548.548 0 0 1 .739-.199l8.49 4.725 3.737-2.303zm10.08-4.091a.549.549 0 0 1 .747.166.524.524 0 0 1-.17.731l-4.01 2.472a.548.548 0 0 1-.748-.166.524.524 0 0 1 .17-.732l4.01-2.471zm-10.08 6.212a.549.549 0 0 1 .748.166.524.524 0 0 1-.17.732l-4.01 2.472a.55.55 0 0 1-.557.012L.274 18.045a.524.524 0 0 1-.203-.724.548.548 0 0 1 .739-.199l8.49 4.725 3.737-2.303z"/>
</svg>
