<svg xmlns="http://www.w3.org/2000/svg" width="24" height="24" viewBox="0 0 24 24">
    <g fill="none" fill-rule="evenodd" transform="translate(-900 -752)">
        <rect width="182" height="70" x="765" y="729" fill="#FFF" stroke="#D6D6D6" stroke-width="2" rx="4"/>
        <path fill="gray" fill-rule="nonzero" d="M920.89 771.987l-.01.014-.025.028-.01.011-3.695 3.801-.01.01a.487.487 0 0 1-.028.025l-.013.01-.029.022-.01.007a.544.544 0 0 1-.034.02l-.008.004a.518.518 0 0 1-.04.02l-.004.001a.525.525 0 0 1-.044.016l-.005.002a.533.533 0 0 1-.045.011l-.012.002-.039.006a.515.515 0 0 1-.053.003h-12.248a.536.536 0 0 1-.528-.543v-22.914c0-.3.236-.543.528-.543h15.944c.292 0 .528.243.528.543v19.113a.56.56 0 0 1-.003.054c0 .013-.003.026-.005.04l-.002.013a.55.55 0 0 1-.012.046v.005a.553.553 0 0 1-.017.045l-.001.005a.547.547 0 0 1-.019.04l-.004.008a.518.518 0 0 1-.02.035l-.006.011-.021.03zm-15.834-18.901v21.828h11.192v-3.258c0-.3.237-.543.528-.543h3.168v-18.027h-14.888zm14.141 19.113h-1.893v1.947l1.893-1.947zm-9.065-7.844c.23.184.271.525.092.762l-1.69 2.234a.525.525 0 0 1-.416.21.519.519 0 0 1-.328-.118l-.95-.776a.554.554 0 0 1-.086-.763.518.518 0 0 1 .742-.088l.533.435 1.362-1.8a.518.518 0 0 1 .74-.096zm0-3.801c.23.184.271.525.092.762l-1.69 2.234a.525.525 0 0 1-.416.21.519.519 0 0 1-.328-.118l-.95-.776a.554.554 0 0 1-.086-.763.518.518 0 0 1 .742-.087l.533.434 1.362-1.8a.518.518 0 0 1 .74-.096zm0-3.801c.23.184.271.525.092.762l-1.69 2.234a.525.525 0 0 1-.416.21.519.519 0 0 1-.328-.118l-.95-.776a.554.554 0 0 1-.086-.763.518.518 0 0 1 .742-.087l.533.434 1.362-1.8a.518.518 0 0 1 .74-.096zm1.26 2.089a.536.536 0 0 1-.529-.543c0-.3.237-.543.528-.543h5.913c.292 0 .528.243.528.543 0 .3-.236.543-.528.543h-5.913zm0 3.8a.536.536 0 0 1-.529-.542c0-.3.237-.543.528-.543h5.913c.292 0 .528.243.528.543 0 .3-.236.543-.528.543h-5.913zm5.912 3.801h-5.913a.536.536 0 0 1-.528-.543c0-.3.237-.543.528-.543h5.913c.292 0 .528.244.528.543 0 .3-.236.543-.528.543z"/>
    </g>
</svg>
