<svg width="93px" height="93px" viewBox="0 0 93 93" version="1.1" xmlns="http://www.w3.org/2000/svg" xmlns:xlink="http://www.w3.org/1999/xlink">
    <g id="4" stroke="none" stroke-width="1" fill="none" fill-rule="evenodd">
        <rect id="Rectangle-59" fill="#FFFFFF" opacity="0" x="0" y="0" width="93" height="93"></rect>
        <g id="shopping-cart-2-copy" transform="translate(22.000000, 24.000000)" fill="#D62626" fill-rule="nonzero">
            <path d="M48.7958652,6.59994201 C48.5917305,6.39372403 48.3875,6.18740938 47.9792305,6.18740938 L9.1875,6.18740938 L8.16663477,0.824968596 C8.16663477,0.412435966 7.55413477,1.69895157e-08 7.14576953,1.69895157e-08 L1.02076953,1.69895157e-08 C0.408365234,-9.66627923e-05 0,0.412435966 0,1.03118657 C0,1.64993717 0.408365234,2.0624698 1.02086523,2.0624698 L6.32923047,2.0624698 L11.2292305,27.2250266 C11.8417305,30.5249976 14.9042305,33 18.1708652,33 L41.65,33 C42.2625,33 42.6708652,32.5874674 42.6708652,31.9687168 C42.6708652,31.3499662 42.2625,30.9374335 41.65,30.9374335 L18.375,30.9374335 C16.7416348,30.9374335 15.1083652,30.112465 14.2916348,28.6686491 L44.1,24.5437095 C44.5083652,24.5437095 44.9166348,24.1311769 44.9166348,23.7187409 L49,7.21869261 C49,7.21869261 49,6.80615998 48.7958652,6.59994201 Z M43.0791348,22.6874577 L13.2707695,26.6061793 L9.59576953,8.04366119 L46.55,8.04366119 L43.0791348,22.6874577 Z" id="Shape"></path>
            <path d="M17,35 C14.200045,35 12,37.200045 12,40 C12,42.8000488 14.200045,45 17,45 C19.8000488,45 22,42.799955 22,40 C22.0000938,37.200045 19.8000488,35 17,35 Z M17,43.0000188 C15.3999587,43.0000188 13.9999812,41.5999475 13.9999812,40 C13.9999812,38.4000525 15.3999587,36.9999812 17,36.9999812 C18.6000413,36.9999812 20.0000188,38.4000525 20.0000188,40 C20.0000188,41.5999475 18.6000413,43.0000188 17,43.0000188 Z" id="Shape"></path>
            <path d="M38,35 C35.1999512,35 33,37.200045 33,40 C33,42.8000488 35.200045,45 38,45 C40.8000488,45 43,42.799955 43,40 C43,37.200045 40.799955,35 38,35 Z M38,43.0000188 C36.3999587,43.0000188 34.9999812,41.5999475 34.9999812,40 C34.9999812,38.4000525 36.3999587,36.9999812 38,36.9999812 C39.6000413,36.9999812 41.0000188,38.4000525 41.0000188,40 C41.0000188,41.5999475 39.5999475,43.0000188 38,43.0000188 Z" id="Shape"></path>
        </g>
    </g>
</svg>