<svg width="16" height="16" viewBox="0 0 16 16" fill="none" xmlns="http://www.w3.org/2000/svg">
<g clip-path="url(#clip0)">
<path d="M15.8817 14.0649L8.90277 0.988167C8.72875 0.661243 8.38773 0.456055 8.01657 0.456055H8.01557C7.64441 0.456055 7.30442 0.66025 7.12937 0.987174L0.119227 14.0639C-0.0477425 14.3777 -0.0387091 14.7539 0.142357 15.0557C0.324415 15.3585 0.652365 15.5446 1.00543 15.5446H14.9935C15.3476 15.5446 15.6745 15.3595 15.8566 15.0557C16.0387 14.7529 16.0477 14.3767 15.8817 14.0649ZM8.01557 13.5328C7.4603 13.5328 7.00969 13.0821 7.00969 12.5269C7.00969 11.9716 7.46033 11.521 8.01557 11.521C8.56982 11.521 9.02146 11.9716 9.02146 12.5269C9.02146 13.0821 8.57085 13.5328 8.01557 13.5328ZM9.02249 9.52526C9.02249 10.0815 8.57085 10.5311 8.0166 10.5311C7.46133 10.5311 7.01071 10.0815 7.01071 9.52526V5.50164C7.01071 4.94637 7.46136 4.49575 8.0166 4.49575C8.57085 4.49575 9.02249 4.9464 9.02249 5.50164V9.52526Z" fill="white"/>
</g>
<defs>
<clipPath id="clip0">
<rect width="16" height="16" fill="white"/>
</clipPath>
</defs>
</svg>
