<?xml version="1.0" encoding="UTF-8"?>
<svg width="24px" height="104px" viewBox="0 0 24 104" version="1.1" xmlns="http://www.w3.org/2000/svg" xmlns:xlink="http://www.w3.org/1999/xlink">
    <!-- Generator: sketchtool 50.2 (55047) - http://www.bohemiancoding.com/sketch -->
    <title>CDD6CB6E-1121-45C1-8B62-F1D9770C249A</title>
    <desc>Created with sketchtool.</desc>
    <defs></defs>
    <g id="Page-3" stroke="none" stroke-width="1" fill="none" fill-rule="evenodd">
        <g id="Vs-Главная-Вечная-стройка-" transform="translate(-406.000000, -729.000000)">
            <rect id="Rectangle-71" stroke="#E4E4E4" x="376.5" y="709.5" width="1166" height="143"></rect>
            <path d="M426.257938,798.639896 L409.902156,798.639896 L406.631,729 L429.379041,729 L426.257938,798.639896 Z M426.417994,829.466212 C424.219976,831.723635 421.181304,833 418.00502,833 C414.828737,833 411.790065,831.723635 409.592047,829.466212 C407.283564,827.31269 405.983557,824.314417 406.000777,821.183486 C405.963568,818.005572 407.263455,814.954106 409.592047,812.75303 C411.792918,810.500744 414.830524,809.227982 418.00502,809.227982 C421.179516,809.227982 424.217123,810.500744 426.417994,812.75303 C428.73989,814.957827 430.035492,818.007731 429.99926,821.183486 C430.015496,824.31223 428.719786,827.308938 426.417994,829.466212 Z" id="Shape" fill="#E4E4E4"></path>
        </g>
    </g>
</svg>