<svg xmlns="http://www.w3.org/2000/svg" width="27" height="25"><g fill="#434343" fill-rule="nonzero"><path d="M25.575 18.2575758H.75c-.45 0-.75-.3030303-.75-.7575758 0-.4545455.3-.7575758.75-.7575758h24.825c.45 0 .75.3030303.75.7575758 0 .4545455-.375.7575758-.75.7575758zM25.05 5H1.275C.6 5 0 4.46969697 0 3.71212121V1.28787879C0 .60606061.6 0 1.275 0H25.05c.675 0 1.275.6060606 1.275 1.28787879v2.42424242C26.325 4.46969697 25.725 5 25.05 5zM1.5 3.48484848h23.325V1.51515152H1.5v1.96969696z"/><path d="M2.325 18.2575758c-.45 0-.75-.3030303-.75-.7575758V4.24242424c0-.45454545.3-.75757576.75-.75757576s.75.30303031.75.75757576V17.5c0 .4545455-.375.7575758-.75.7575758zM24 18.2575758c-.45 0-.75-.3030303-.75-.7575758V4.24242424c0-.45454545.3-.75757576.75-.75757576s.75.30303031.75.75757576V17.5c0 .4545455-.3.7575758-.75.7575758zM13.125 24.3181818c-1.2 0-2.1-.9848485-2.1-2.1212121 0-1.2121212.975-2.1212121 2.1-2.1212121s2.1.9848485 2.1 2.1212121c0 1.1363636-.9 2.1212121-2.1 2.1212121zm0-2.8030303c-.3 0-.6.3030303-.6.6060606s.3.6060606.6.6060606.6-.3030303.6-.6060606-.3-.6060606-.6-.6060606z"/><path d="M13.125 21.5151515c-.45 0-.75-.3030303-.75-.7575757V17.5c0-.4545455.3-.7575758.75-.7575758s.75.3030303.75.7575758v3.2575758c0 .4545454-.3.7575757-.75.7575757z"/></g></svg>