<svg xmlns="http://www.w3.org/2000/svg" width="23" height="24"><g fill="#434343" fill-rule="nonzero"><path d="M19.2903226 23.325H3.56129032C1.63225806 23.325 0 21.75 0 19.725V3.6C0 1.65 1.63225806 0 3.56129032 0H19.2903226c2.0032258 0 3.5612903 1.65 3.5612903 3.6v16.125c0 2.025-1.5580645 3.6-3.5612903 3.6zM3.56129032 1.5c-1.11290322 0-2.07741935.975-2.07741935 2.1v16.125c0 1.2.96451613 2.1 2.07741935 2.1H19.2903226c1.1870968 0 2.0774193-.975 2.0774193-2.1V3.6c0-1.125-.8903225-2.1-2.0774193-2.1H3.56129032z"/><path d="M8.23548387 19.725c-.44516129 0-.74193548-.3-.74193548-.75v-13.8c0-.45.29677419-.75.74193548-.75h3.85806453c2.5225806 0 4.6 2.1 4.6 4.65 0 2.55-2.0774194 4.65-4.6 4.65H8.97741935v5.25c0 .375-.37096774.75-.74193548.75zm.74193548-7.5h3.11612905c1.7064516 0 3.116129-1.425 3.116129-3.15 0-1.725-1.4096774-3.15-3.116129-3.15H8.97741935v6.3z"/></g></svg>