<svg xmlns="http://www.w3.org/2000/svg" width="46" height="51" fill="none"><path fill="#000" d="M43.8005 17.8327c-1.5047-1.5047-3.9531-1.5046-5.4582.0004-.463.4633-3.4187 3.4215-3.8702 3.8734V11.5121c0-1.0308-.4015-1.9999-1.1304-2.72877l-3.6384-3.63855c-.7289-.72896-1.698-1.13031-2.7289-1.13031H4.88484c-2.12797 0-3.85921 1.73123-3.85921 3.8592V44.0644c0 2.128 1.73124 3.8592 3.85921 3.8592H30.6129c2.1279 0 3.8592-1.7312 3.8592-3.8592V32.6267l9.3283-9.3362c1.5082-1.5082 1.5086-3.9494.0001-5.4578zM26.7538 6.58727c.243 0 .7113-.04211 1.1303.37674l3.6384 3.63859c.4083.4083.3769.8557.3769 1.1303h-5.1456V6.58727zm5.1455 37.47713c0 .7094-.577 1.2864-1.2864 1.2864H4.88484c-.70932 0-1.2864-.577-1.2864-1.2864V7.87367c0-.70932.57708-1.2864 1.2864-1.2864H24.1809v6.43203c0 .7104.5759 1.2864 1.2864 1.2864h6.432v9.9759s-3.7953 3.7984-3.7954 3.7985l-1.8184 1.8185c-.1412.1411-.2477.3134-.3108.5028l-1.8193 5.4578c-.1541.4622-.0338.9719.3108 1.3164.345.345.8548.4647 1.3164.3108l5.4578-1.8192c.1894-.0632.3616-.1696.5028-.3108l.1561-.1561v8.8641zm-2.885-13.2562l1.8192 1.8193-.6949.6949-2.7288.9096.9096-2.7289.6949-.6949zm3.6381-.0004l-1.8192-1.8192c.9687-.9695 5.2712-5.2757 6.1837-6.189l1.8193 1.8192-6.1838 6.189zm9.3284-9.3362l-1.3261 1.3272-1.8192-1.8192 1.3265-1.3276c.5019-.5016 1.3178-.5016 1.8193 0 .5015.5017.5041 1.3149-.0005 1.8196z"/><path fill="#000" d="M25.4672 16.8785H7.45754c-.71043 0-1.2864.5759-1.2864 1.2864 0 .7104.57597 1.2864 1.2864 1.2864H25.4672c.7104 0 1.2864-.576 1.2864-1.2864 0-.7105-.576-1.2864-1.2864-1.2864zM20.3216 22.0241H7.45754c-.71043 0-1.2864.576-1.2864 1.2864s.57597 1.2864 1.2864 1.2864H20.3216c.7104 0 1.2864-.576 1.2864-1.2864s-.576-1.2864-1.2864-1.2864zM20.3216 27.1697H7.45754c-.71043 0-1.2864.5759-1.2864 1.2864 0 .7104.57597 1.2864 1.2864 1.2864H20.3216c.7104 0 1.2864-.576 1.2864-1.2864 0-.7105-.576-1.2864-1.2864-1.2864zM20.3216 32.3153H7.45754c-.71043 0-1.2864.576-1.2864 1.2864s.57597 1.2864 1.2864 1.2864H20.3216c.7104 0 1.2864-.576 1.2864-1.2864s-.576-1.2864-1.2864-1.2864zM25.4672 40.2052h-7.7184c-.7104 0-1.2864.576-1.2864 1.2864s.576 1.2864 1.2864 1.2864h7.7184c.7105 0 1.2864-.576 1.2864-1.2864s-.5759-1.2864-1.2864-1.2864z"/></svg>