<svg width="208px" height="60px" viewBox="0 0 208 60" version="1.1" xmlns="http://www.w3.org/2000/svg" xmlns:xlink="http://www.w3.org/1999/xlink">
    <defs>
        <linearGradient x1="26.1591696%" y1="104.230834%" x2="106.205306%" y2="-6.82010492%" id="linearGradient-1">
            <stop stop-color="#27348B" offset="0%"></stop>
            <stop stop-color="#952269" offset="21%"></stop>
            <stop stop-color="#D82129" offset="51%"></stop>
            <stop stop-color="#E30613" offset="73%"></stop>
            <stop stop-color="#FFCC00" offset="100%"></stop>
        </linearGradient>
    </defs>
    <g id="Symbols" stroke="none" stroke-width="1" fill="none" fill-rule="evenodd">
        <g id="footer" transform="translate(-376.000000, -42.000000)">
            <g id="vs-logo-color">
                <g transform="translate(376.000000, 42.000000)">
                    <g id="Слой_2">
                        <g>
                            <g id="_1">
                                <path d="M78.42,46.33 L78.42,27.89 L65.84,33.75 L78.42,46.33 L78.42,46.33 Z M44.95,24.06 L49.28,44.22 L53.6,24.06 L49.27,19.73 L44.94,24.06 L44.95,24.06 Z M55.12,25.58 L63.02,33.48 L50.79,45.71 L55.11,25.58 L55.12,25.58 Z M47.75,45.71 L35.53,33.48 L43.43,25.58 L47.75,45.71 L47.75,45.71 Z M35.75,36.28 L47.1,47.6 L38.2,47.6 L35.77,36.28 L35.75,36.28 Z M38.59,49.4 L40.44,58 L40.67,59.09 L27.83,59.09 L28.06,58 L29.91,49.38 L19,49.38 L17.65,48.75 L0,40.53 L0,40.09 L26.37,40.09 L49.27,17.19 L64,31.94 L78.91,0 L86.7,4.49 L80.22,8.24 L80.22,49.4 L68.63,49.4 L70.49,58 L70.72,59.09 L57.87,59.09 L58.1,58 L60,49.4 L38.59,49.4 L38.59,49.4 Z M30.3,47.6 L32.73,36.28 L21.41,47.6 L30.3,47.6 Z M38.45,57.31 L36.75,49.4 L31.75,49.4 L30.05,57.31 L38.45,57.31 Z M36.36,47.6 L34.25,37.77 L32.14,47.6 L36.36,47.6 Z M65.82,36.28 L77.14,47.6 L68.25,47.6 L65.82,36.28 L65.82,36.28 Z M60.34,47.6 L51.45,47.6 L62.77,36.28 L60.34,47.6 L60.34,47.6 Z M68.49,57.31 L66.79,49.4 L61.79,49.4 L60.09,57.31 L68.49,57.31 Z M66.41,47.6 L62.18,47.6 L64.29,37.77 L66.4,47.6 L66.41,47.6 Z M78.41,23.6 L78.41,14.5 L73.61,16.74 L78.41,23.6 L78.41,23.6 Z M78.41,12.51 L78.41,5.33 L74.12,14.53 L78.41,12.53 L78.41,12.51 Z M80.21,2.8 L80.21,6.16 L83.1,4.49 L80.22,2.83 L80.21,2.8 Z M19,47.42 L24.53,41.89 L7.19,41.89 L19,47.42 L19,47.42 Z M72.42,18.19 L78,26.11 L66.16,31.62 L72.42,18.19 Z" id="Shape" fill="url(#linearGradient-1)"></path>
                                <path d="M101.42,36.54 L90.11,36.54 L90.11,17.19 L101.11,17.19 C102.644883,17.0939169 104.153127,17.624328 105.29,18.66 C106.244212,19.5606675 106.780437,20.8178975 106.77,22.13 C106.804779,23.1859624 106.472605,24.2213555 105.83,25.06 C105.245051,25.8248406 104.409572,26.3594051 103.47,26.57 C104.52183,26.7261515 105.468196,27.2946905 106.1,28.15 C106.80218,29.0484145 107.176187,30.1598492 107.16,31.3 C107.172216,32.6896594 106.620111,34.0248164 105.63,35 C104.495379,36.0630744 102.971636,36.6095951 101.42,36.51 L101.42,36.54 Z M99.94,24.61 C100.39313,24.6269938 100.834819,24.4654005 101.17,24.16 C101.492809,23.8543797 101.667807,23.4241759 101.65,22.98 C101.664335,22.5451978 101.489194,22.1255899 101.17,21.83 C100.834819,21.5245995 100.39313,21.3630062 99.94,21.38 L95.1,21.38 L95.1,24.6 L99.94,24.61 Z M100.11,32.33 C100.624271,32.3575072 101.129331,32.1855718 101.52,31.85 C102.199548,31.151317 102.199548,30.038683 101.52,29.34 C101.134743,28.9941655 100.626697,28.8176105 100.11,28.85 L95.11,28.85 L95.11,32.33 L100.11,32.33 Z M124.24,36.54 L110.06,36.54 L110.06,17.19 L124.25,17.19 L124.25,21.54 L115,21.54 L115,24.54 L124,24.54 L124,28.89 L115,28.89 L115,32.17 L124.2,32.17 L124.2,36.52 L124.24,36.54 Z M132,17.19 L132,23 C132,25 133.033333,26 135.1,26 C136.208059,26.0196921 137.310121,25.8331894 138.35,25.45 L138.35,17.19 L143.35,17.19 L143.35,36.54 L138.35,36.54 L138.35,29.75 C137.057324,30.0726209 135.73213,30.2470768 134.4,30.27 C132.338847,30.415279 130.311189,29.6898199 128.81,28.27 C127.54586,26.8146511 126.896837,24.9249541 127,23 L127,17.19 L132,17.19 Z M160.52,36.54 L160.52,28.76 L152.52,28.76 L152.52,36.54 L147.52,36.54 L147.52,17.19 L152.52,17.19 L152.52,24.41 L160.52,24.41 L160.52,17.19 L165.52,17.19 L165.52,36.54 L160.52,36.54 Z M188.47,36.54 L182.81,36.54 L181.81,33.75 L174.18,33.75 L173.18,36.54 L167.52,36.54 L174.8,17.19 L181.07,17.19 L188.38,36.54 L188.47,36.54 Z M180.47,29.4 L178,22.12 L175.53,29.4 L180.47,29.4 Z M195.39,36.54 L189.67,36.54 L193.62,29.43 C192.530296,29.0464628 191.577436,28.3509447 190.88,27.43 C190.078731,26.3332513 189.673297,24.9970833 189.73,23.64 C189.678556,21.9040647 190.348279,20.2243286 191.58,19 C192.906964,17.7333655 194.698219,17.0711439 196.53,17.17 L206.22,17.17 L206.22,36.54 L201.22,36.54 L201.22,30 L198.67,30 L195.45,36.5 L195.39,36.54 Z M197.22,25.69 L201.17,25.69 L201.17,21.54 L197.22,21.54 C196.606274,21.5176183 196.004311,21.7123709 195.52,22.09 C195.065527,22.4561119 194.812927,23.017033 194.84,23.6 C194.809724,24.1921045 195.062023,24.7634875 195.52,25.14 C196.004311,25.5176291 196.606274,25.7123817 197.22,25.69 L197.22,25.69 Z M160.83,59.12 L156.83,59.12 L156.83,43 L161,43 L161,52.5 L167.55,43 L171.87,43 L171.87,59.12 L167.67,59.12 L167.67,49.12 L160.86,59.12 L160.83,59.12 Z M168.58,40.18 C167.615018,41.5581109 166.021673,42.3585415 164.34,42.31 C162.6522,42.348957 161.054087,41.5517719 160.07,40.18 L161.67,38.87 C162.267137,39.7581176 163.269828,40.2876288 164.34,40.28 C165.415387,40.3211238 166.430415,39.7830826 167,38.87 L168.6,40.18 L168.58,40.18 Z M207.45,59.12 L202.72,59.12 L201.92,56.8 L195.54,56.8 L194.74,59.12 L190,59.12 L196.1,43 L201.34,43 L207.45,59.13 L207.45,59.12 Z M200.78,53.17 L198.72,47.1 L196.66,53.17 L200.78,53.17 Z M189.38,59.12 L184.26,59.12 L180,53 L178.91,54.35 L178.91,59.06 L174.74,59.06 L174.74,43 L178.91,43 L178.91,49.62 L183.91,43 L189,43 L182.72,50.54 L189.34,59.12 L189.38,59.12 Z M98.06,59.41 C95.7483865,59.4851416 93.4999331,58.6482572 91.8,57.08 C90.1388905,55.53516 89.2272708,53.3472727 89.3,51.08 C89.2234586,48.8160763 90.1273679,46.6291987 91.78,45.08 C93.4845769,43.5138422 95.7365338,42.6805822 98.05,42.76 C101.069192,42.6167118 103.869044,44.3339011 105.11,47.09 L101.52,48.78 C101.233506,48.1031244 100.75782,47.5232727 100.15,47.11 C99.5397265,46.6665622 98.8043662,46.4284455 98.05,46.43 C96.8279655,46.3922178 95.6483556,46.8800811 94.81,47.77 C93.122289,49.6654221 93.122289,52.5245779 94.81,54.42 C95.6483556,55.3099189 96.8279655,55.7977822 98.05,55.76 C98.8043662,55.7615545 99.5397265,55.5234378 100.15,55.08 C100.757434,54.6663056 101.233018,54.0865799 101.52,53.41 L105.11,55.1 C104.489884,56.3296401 103.576278,57.3875 102.45,58.18 C101.153321,59.0534126 99.612203,59.4912301 98.05,59.43 L98.06,59.41 Z M115.27,59.12 L111.1,59.12 L111.1,46.62 L106.57,46.62 L106.57,43 L119.78,43 L119.78,46.63 L115.27,46.63 L115.27,59.13 L115.27,59.12 Z M126.27,59.12 L122.1,59.12 L122.1,43 L130.2,43 C131.72775,42.9179533 133.220636,43.4759737 134.32,44.54 C136.326899,46.6912829 136.326899,50.0287171 134.32,52.18 C133.220636,53.2440263 131.72775,53.8020467 130.2,53.72 L126.27,53.72 L126.27,59.14 L126.27,59.12 Z M129.64,50.12 C130.143642,50.1392843 130.637289,49.9759192 131.03,49.66 C131.398497,49.3477857 131.6016,48.8824951 131.58,48.4 C131.604823,47.9111749 131.401697,47.4384452 131.03,47.12 C130.637289,46.8040808 130.143642,46.6407157 129.64,46.66 L126.27,46.66 L126.27,50.12 L129.64,50.12 Z M152.23,57.12 C148.695962,60.2476698 143.384038,60.2476698 139.85,57.12 C136.560769,53.79619 136.560769,48.44381 139.85,45.12 C143.384038,41.9923302 148.695962,41.9923302 152.23,45.12 C153.862886,46.6804972 154.753897,48.8625664 154.68,51.12 C154.753897,53.3774336 153.862886,55.5595028 152.23,57.12 L152.23,57.12 Z M146,55.73 C147.203925,55.7754197 148.366894,55.2890206 149.18,54.4 C150.793722,52.4694813 150.793722,49.6605187 149.18,47.73 C148.336765,46.8786915 147.188237,46.3997468 145.99,46.3997468 C144.791763,46.3997468 143.643235,46.8786915 142.8,47.73 C141.186278,49.6605187 141.186278,52.4694813 142.8,54.4 C143.62009,55.2910427 144.789929,55.7772571 146,55.73 L146,55.73 Z" id="Shape" fill="#1D1D1B"></path>
                            </g>
                        </g>
                    </g>
                </g>
            </g>
        </g>
    </g>
</svg>