<svg xmlns="http://www.w3.org/2000/svg" width="268" height="171" viewBox="0 0 268 171">
    <defs>
        <linearGradient id="a" x1="50%" x2="50%" y1="0%" y2="100%">
            <stop offset="0%" stop-color="#E1F8F6"/>
            <stop offset="100%" stop-color="#BFEFE9"/>
        </linearGradient>
        <linearGradient id="b" x1="11.48%" x2="70.109%" y1="35.857%" y2="84.151%">
            <stop offset="0%" stop-color="#FFF"/>
            <stop offset="100%" stop-color="#FFF" stop-opacity="0"/>
        </linearGradient>
        <linearGradient id="c" x1="-.431%" x2="101.656%" y1="19.082%" y2="120.141%">
            <stop offset="0%" stop-color="#FFF"/>
            <stop offset="100%" stop-color="#FFF" stop-opacity="0"/>
        </linearGradient>
        <linearGradient id="d" x1="23.683%" x2="104.017%" y1="20.214%" y2="87.08%">
            <stop offset="0%" stop-color="#FFF"/>
            <stop offset="100%" stop-color="#FFF" stop-opacity="0"/>
        </linearGradient>
        <linearGradient id="e" x1="21.614%" x2="106.282%" y1="22.3%" y2="84.981%">
            <stop offset="0%" stop-color="#FFF"/>
            <stop offset="100%" stop-color="#FFF" stop-opacity="0"/>
        </linearGradient>
        <linearGradient id="f" x1="0%" y1="12.346%" y2="12.346%">
            <stop offset="0%" stop-color="#1D2B6E"/>
            <stop offset="22.694%" stop-color="#7B245F"/>
            <stop offset="40.42%" stop-color="#D62626"/>
            <stop offset="58.353%" stop-color="#D62626"/>
            <stop offset="79.016%" stop-color="#FF871C"/>
            <stop offset="100%" stop-color="#F3C02C"/>
        </linearGradient>
        <linearGradient id="g" x1="38.548%" x2="75.293%" y1="52.407%" y2="101.099%">
            <stop offset="0%" stop-color="#AFE2DB"/>
            <stop offset="100%" stop-color="#AFE2DB" stop-opacity="0"/>
        </linearGradient>
        <linearGradient id="h" x1="-9.541%" x2="83.004%" y1="7.186%" y2="71.603%">
            <stop offset="0%" stop-color="#FFF"/>
            <stop offset="100%" stop-color="#FFF" stop-opacity="0"/>
        </linearGradient>
        <linearGradient id="i" x1="0%" x2="738.017%" y1="49.005%" y2="58.445%">
            <stop offset="0%" stop-color="#1D2B6E"/>
            <stop offset="22.694%" stop-color="#7B245F"/>
            <stop offset="40.42%" stop-color="#D62626"/>
            <stop offset="58.353%" stop-color="#D62626"/>
            <stop offset="79.016%" stop-color="#FF871C"/>
            <stop offset="100%" stop-color="#F3C02C"/>
        </linearGradient>
        <linearGradient id="j" x1="26.159%" x2="106.205%" y1="104.231%" y2="-6.82%">
            <stop offset="0%" stop-color="#27348B"/>
            <stop offset="21%" stop-color="#952269"/>
            <stop offset="51%" stop-color="#D82129"/>
            <stop offset="73%" stop-color="#E30613"/>
            <stop offset="100%" stop-color="#FC0"/>
        </linearGradient>
        <linearGradient id="k" x1="30.13%" x2="102.235%" y1="106.887%" y2="-9.477%">
            <stop offset="0%" stop-color="#27348B"/>
            <stop offset="21%" stop-color="#952269"/>
            <stop offset="51%" stop-color="#D82129"/>
            <stop offset="73%" stop-color="#E30613"/>
            <stop offset="100%" stop-color="#FC0"/>
        </linearGradient>
    </defs>
    <g fill="none" fill-rule="evenodd">
        <path fill="#FFF" d="M-518-374H886v1565H-518z"/>
        <path fill="url(#a)" d="M30.346 54.945c18.213 4.138 27.28 8.097 27.203 11.878C57.441 72.267 38.258 77.338 0 82.034a188.638 188.638 0 0 0 37.564 0c25.315-2.552 56.346-5.65 63.22-22.822C106.975 43.689 92.62 18.57 65.726 0L30.346 54.945z" transform="matrix(-1 0 0 1 136.237 87.797)"/>
        <path fill="url(#b)" d="M37.605 77.4c55.777-7.423 11.71-27.376 11.71-27.376l-10.269.444-3.005 4.66c18.214 4.138 27.281 8.098 27.204 11.878-.068 3.621-8.615 7.085-25.64 10.393z" opacity=".8" transform="matrix(-1 0 0 1 135.91 87.797)"/>
        <path fill="url(#c)" d="M19.249 12.29c2.046-1.01 27.122 17.356 30.904 38.483C53.935 71.901 7.66 77.347 7.66 77.347c1.05-.138 39.432-6.125 37.813-23.715C43.853 36.042 2.03 25.414 2.03 25.414L19.25 12.291z" opacity=".8" transform="matrix(-1 0 0 1 86.428 87.797)"/>
        <path fill="url(#d)" d="M37.995 36.752c.59.46 17.503 2.307 24.32 16.013 6.818 13.706-7.06 18.713-7.06 18.713.974-.424 7.106-6.156 5.3-13.358-1.808-7.203-23.499-13.864-23.499-13.864l.94-7.504z" opacity=".8" transform="matrix(-1 0 0 1 135.281 87.797)"/>
        <path fill="url(#e)" d="M21.32 31.648c.65.367 17.65-.281 26.396 12.291 8.747 12.573-4.284 19.54-4.284 19.54.904-.561 6.163-7.146 3.32-13.986-2.843-6.84-25.28-10.306-25.28-10.306l-.152-7.54z" opacity=".8" transform="matrix(-1 0 0 1 106.082 87.797)"/>
        <g>
            <path fill="#E8EFEE" d="M194.053 68.563s11.675 9.035.507 28.488l-.507-28.488z"/>
            <path fill="#F2D088" d="M195.195 61.254v68.91l-72.59-17.355V39.815z"/>
            <path fill="#E4BB70" d="M122.605 39.815L72.351 67.379v67.89l50.254-22.46z"/>
            <path fill="#CCA059" d="M72.35 135.269l62.438 14.292 60.407-19.397-72.59-17.355z"/>
            <path fill="#E8EFEE" d="M86.818 95.837s.254 5.487 4.822 5.104c4.569-.383 11.93-21.184 11.93-34.966s-4.442-17.482-14.214-15.058c-9.772 2.425-55.204 34.2-55.204 34.2s3.553 8.167 16.37 6.508c0 0 3.681 8.168 16.499 5.743 0 0 5.325 5.058 10.913 2.935 3.59-1.363 8.884-4.466 8.884-4.466z"/>
            <path fill="#FFF" d="M50.523 91.188l27.706-16.045-26.47 17.968a10.17 10.17 0 0 1-1.236-1.923zM67.02 97.098l20.087-12.032-18.891 13.017zM86.818 95.17a42.084 42.084 0 0 0 8.421-6.03s-2.08 4.235-8.175 7.707l-.246-1.677z"/>
            <path fill="url(#f)" d="M120.123 9.316v71.222L66.57 101.921l14.158 3.241 56.031-20.647V14.23z" transform="translate(34.025 39.815)"/>
            <path stroke="#90405B" stroke-linecap="round" stroke-linejoin="round" stroke-width="1.42" d="M127.615 99.992l4.3.985M134.128 101.482l2.61.597M138.692 102.529l9.507 2.18M150.169 105.162l.898.205M127.519 102.845l8.127 1.868M137.676 105.178l1.356.311M142.149 106.204l8.822 2.021M127.417 105.704l5.96 1.368M136.9 107.878l3.117.715M142.047 109.057l.95.22M145.027 109.741l5.842 1.338M127.32 108.562l17.61 4.038M146.362 112.926l4.411 1.011"/>
            <path fill="#90405B" d="M180.16 61.973l-2.524 3.446 1.523.424v5.441l2 .556V66.4l1.523.424zM186.383 63.704l-2.518 3.445 1.523.424v5.441l1.995.557v-5.442l1.523.424zM187.383 75.434l-8.275-2.302v-1.307l8.275 2.302z"/>
            <path stroke="#90405B" d="M190.626 78.007l-14.71-4.094V59.12l14.71 4.094z"/>
            <path fill="url(#f)" d="M66.57 101.921l53.553-21.383 16.635 3.977-56.031 20.647z" transform="translate(34.025 39.815)"/>
            <path fill="#272425" d="M192.063 130.164l-69.458-16.079-47.122 21.184s42.604-13.185 60.64-12.675c18.036.51 38.58 6.636 41.513 11.399l14.427-3.829zM91.219 101.451s-4.401.98-4.696-5.017c0 0-5.289 3.782-9.39 4.721-4.102.94-4.315-.194-4.315-.194v4.896s4.396 1.531 12.183-3.982c0 0 1.817 2.512 6.218-.424z" style="mix-blend-mode:soft-light"/>
            <path fill="#272425" d="M89.716 101.788s-3.553.45-3.685-4.216c0 0-6.782 5.441-12.69 4.456v1.557a14.164 14.164 0 0 0 11.863-3.92s.599 3.588 4.512 2.123z" style="mix-blend-mode:soft-light"/>
            <path fill="#FFF" d="M124.214 41.433l69.839 20.54v38.988s-27.371-39.452-69.839-49.513V41.433z" opacity=".5" style="mix-blend-mode:soft-light"/>
            <path fill="#272425" d="M120.661 112.043v-69.42l-17.092 9.698s8.63-.904 11.168 23.113c2.538 24.017 2.538 37.998 2.538 37.998l3.386-1.389z" style="mix-blend-mode:soft-light"/>
            <path fill="#CEDBD8" d="M71.143 78.481L50.015 90.604s-10.025 1.47-14.406-5.298l6.731-4.461s-1.208 4.783 4.183 5.804c5.39 1.02 24.62-8.168 24.62-8.168zM53.376 93.36s5.776 5.498 13.645 3.064l14.127-8.882s-14.264 9.407-23.234 2.807l-4.538 3.012zM69.645 98.083s3.3 2.388 6.767 1.454c3.467-.934 10.842-4.594 15.274-8.422 0 0-11.092 6.804-17.411 3.915l-4.63 3.053z"/>
            <path fill="#CEDBD8" d="M92.34 92.84s-2.512 3.446-4.568 4.211c0 0 .665 3.507 3.914 2.997 3.249-.51 9.645-16.651 10.614-26.227 0 0-4.883 18.254-8.436 21.061-3.554 2.807-1.523-2.042-1.523-2.042z"/>
            <path fill="#FFF" d="M53.376 93.36L72.35 80.397 55.259 94.754a4.306 4.306 0 0 1-1.883-1.393zM82.016 89.839l-12.371 8.244 1.239.714zM92.34 92.84s-2.832 3.69-4.568 4.211c0 0-.06.557.777 1.746 0 0 3.66-2.48 3.792-5.957z" style="mix-blend-mode:multiply"/>
        </g>
        <path fill="#F0F1F1" d="M30.081 61.308h-4.503s-2.03-5.237-7.106-4.594c-5.076.644-4.061 6.315-4.061 6.315s-4.127-.766-4.823 3.956c0 0-4.512.24-4.568 5.732L.522 77.255l29.559-15.947zM145.38 27.428h-5.438s-2.452-6.325-8.582-5.548c-6.13.777-4.904 7.625-4.904 7.625s-4.984-.925-5.824 4.777c0 0-5.45.29-5.517 6.923l-5.431 5.48 35.695-19.257zM230.519 8.402h-8.083s-3.645-9.4-12.757-8.246c-9.113 1.154-7.29 11.334-7.29 11.334s-7.409-1.374-8.657 7.102c0 0-8.1.43-8.201 10.29l-8.074 8.146L230.52 8.402z"/>
        <g>
            <path fill="#BFEFE9" d="M221.934 58.503c11.596 2.635 17.369 5.155 17.32 7.562-.07 3.467-12.282 6.695-36.64 9.685 7.953.795 15.964.795 23.916 0 16.117-1.625 35.872-3.598 40.248-14.53 3.943-9.882-5.197-25.874-22.318-37.697l-22.526 34.98z"/>
            <path fill="url(#g)" d="M58.23 51.525c3.703-6.653-3.164-18.91-12.795-31.28L26.607 49.495c11.595 2.634 17.368 5.155 17.319 7.562-.07 3.466-12.282 6.694-36.638 9.684 0 0 41.605 1.55 50.942-15.215z" transform="translate(195.327 9)"/>
            <path fill="url(#h)" d="M71.447 52.22c3.943-9.882-5.196-25.874-22.318-37.697l-1.803 2.801c6.932 3.9 22.202 13.919 24.238 27.33.766 5.07-.811 9.1-3.436 12.291a12.84 12.84 0 0 0 3.32-4.725z" transform="translate(195.327 9)"/>
            <path fill="url(#b)" d="M27.6 63.695c35.51-4.725 7.455-17.428 7.455-17.428l-6.538.282-1.913 2.967c11.595 2.635 17.368 5.155 17.319 7.562-.043 2.306-5.485 4.511-16.324 6.617z" opacity=".8" transform="translate(195.327 9)"/>
            <path fill="url(#c)" d="M49.123 23.184s17.267 11.049 19.674 24.5c2.408 13.45-27.053 16.918-27.053 16.918.67-.088 25.105-3.9 24.074-15.099C64.787 38.305 38.16 31.54 38.16 31.54l10.963-8.355z" opacity=".8" transform="translate(195.327 9)"/>
            <path fill="url(#d)" d="M43.664 35.822c.375.292 11.143 1.469 15.483 10.194 4.34 8.726-4.495 11.914-4.495 11.914.62-.27 4.524-3.92 3.374-8.505-1.15-4.585-14.96-8.826-14.96-8.826l.598-4.777z" opacity=".8" transform="translate(195.327 9)"/>
            <path fill="url(#e)" d="M31.781 39.722c.414.234 11.237-.18 16.805 7.825 5.568 8.004-2.728 12.44-2.728 12.44.576-.358 3.924-4.55 2.114-8.904-1.81-4.355-16.094-6.562-16.094-6.562l-.097-4.8z" opacity=".8" transform="translate(195.327 9)"/>
            <path fill="#E4BB70" d="M219.989 38.38l-24.465 11.456v-26.33L219.99 9.284z"/>
            <path fill="#F8E3A7" d="M219.989 38.38l24.464 11.456v-26.33L219.99 9.284z"/>
            <path fill="#BC8F53" d="M209.89 41.546c-.12-.923-.45-19.989-.45-19.989l-2.75 6.21c-.048.325 1.658 13.65 1.94 15.924l1.97-.923a1.584 1.584 0 0 1-.71-1.222z"/>
            <path fill="#CCA059" d="M244.453 49.836l-22.519 8.667-26.41-8.667 24.465-11.455z"/>
            <path fill="#997044" d="M218.968 51.66s8.606 3.63 9.048 3.984c.13.104.065.325-.087.555l2.463-.945c-2.55-1.772-6.845-4.55-6.845-4.55l-4.58.955z"/>
            <path fill="url(#i)" d="M8.61 36.898l5.503-2.577V6.418L8.609 9.616z" transform="translate(195.327 9)"/>
            <path fill="url(#f)" d="M14.113 34.32l26.019 9.98-6.092 2.344-25.43-9.746z" transform="translate(195.327 9)"/>
            <path fill="#AF5878" d="M196.597 24.553l5.62-2.996v2.073l-5.62 3zM196.597 27.091l4.409-2.148v2.074l-4.409 2.15z"/>
            <path fill="#F2D088" d="M236.532 30.325a43.294 43.294 0 0 0 7.918 5.407V23.507l-7.207-4.19-3.713 1.564c-.084 1.073-.1 2.15-.049 3.224a8.747 8.747 0 0 0 3.051 6.22z"/>
            <path fill="#997044" d="M244.45 32.184v-4.582l-10.19-1.22s.46 3.18 10.19 5.802z"/>
            <path fill="#E8EFEE" d="M235.744 27.803a3.098 3.098 0 0 1-1.68-1.908c-1.032-3.37-2.337-11.79 10.706-11.065 7.86.436 14.507 3.835 17.467 2.671 0 0 .259 3.754-4.375 4.92l2.317.517s-.259 4.274-6.309 4.53l2.06.65s-3.116 7.345-20.186-.315z"/>
            <path fill="#F2D088" d="M219.989 26.792v11.589l5.655 2.648c.13-.373.227-.666.227-.666-5.355-5.222-5.698-13.974-5.698-13.974l-.184.403z"/>
            <path fill="#F2D088" d="M228.33 42.287s-5.423-4.026-6.741-6.044c-1.319-2.019-1.6-14.3-1.6-14.3v16.438l8.341 3.906zM219.989 9.283v7.99s.226-5.706 1.14-5.936c.915-.231 7.86 3.188 7.86 3.188l-9-5.242zM244.004 49.622a31.44 31.44 0 0 0-.711-4.452c-2.947 2.473-8.8 0-8.8 0l9.51 4.452z"/>
            <path fill="#F2D088" d="M244.45 49.836V34.644l-3.057-.696s2.32 1.258 2.436 4.774c.117 3.516.944 10.594-6.75 7.65l7.37 3.464z"/>
            <path fill="#AF752F" d="M225.59 41.003l-5.601-2.622-24.465 11.455 8 2.626s-2.089-.81-2.518-2.837c-.43-2.028 10.302-7.559 15.428-8.079a30.81 30.81 0 0 1 9.84.741l-.685-1.284z"/>
            <path fill="#C49D72" d="M209.44 43.32l-5.494 2.578.673.26a42.46 42.46 0 0 1 5.28-2.665l-.459-.172z"/>
            <path fill="#AF752F" d="M231.71 43.87l-11.721-5.49-9 4.226s6.14-2.434 9-1.915c2.86.52 11.721 3.188 11.721 3.188v-.01z"/>
            <path fill="#997044" d="M206.28 53.365s-7.336-3.113-7.479-3.74c-.142-.627 3.022-2.736 3.022-2.736l-6.299 2.947 10.756 3.53z"/>
            <path fill="#AF752F" d="M233.462 54.07l10.988-4.224-11.492-5.391s3.697 2.015 5.604 3.318c3.438 2.356-1.041 4.293-5.1 6.298z"/>
            <path fill="#C49D72" d="M235.214 53.196c-.579.29-1.174.576-1.762.865l2.007-.77-.245-.095z"/>
            <path fill="#AF752F" d="M217.016 56.888l4.918 1.625 4.728-1.82a18.136 18.136 0 0 1-9.646.195z"/>
            <path fill="#E8B470" d="M219.989 9.283l-8.348 4.855s6.745-3.25 7.433-2.743c.75.569.899 3.757.921 5.495l-.006-7.607zM195.524 23.507v6.854c0-.173.776-5.902 2.91-7.839a98.87 98.87 0 0 0 1.964-1.842l-4.874 2.827z"/>
            <path fill="#E8655B" d="M197.23 24.215l-.645.325v1.19c.183-.518.398-1.024.646-1.515z"/>
            <path fill="#E8B470" d="M202.615 46.518s-5.277 2.064-6.018 1.544c-.74-.52-1.073-4.192-1.073-4.192v5.966l7.09-3.318zM219.989 38.38v-9.215c-.052 8.774-5.86 11.959-5.86 11.962l5.86-2.746z"/>
            <path fill="#FFE9CF" d="M203.937 33.935s.394-13.834.394-14.624c0-.79 1.913-2.044 1.913-2.044l-2.307 1.342v15.326z"/>
            <path fill="#CEDBD8" d="M235.537 26.714c-1.335-1.079-2.043-3.675-2.043-3.675.092.97.283 1.926.57 2.856a3.098 3.098 0 0 0 1.68 1.908c17.07 7.66 20.185.325 20.185.325-6.483 4.719-19.06-.331-20.392-1.414zM260.179 22.938c-2.408 3.4-8.432 3.994-8.432 3.994a9.832 9.832 0 0 0 2.123.536c6.05-.27 6.309-4.53 6.309-4.53zM254.93 22.421c1.293.462 2.932 0 2.932 0 4.634-1.166 4.375-4.92 4.375-4.92-1.38 3.497-7.307 4.92-7.307 4.92z"/>
            <path fill="#F7F9F9" d="M255.961 16.923c-3.131-.78-6.987-1.859-11.191-2.093-6.955-.387-9.828 1.826-10.843 4.488 0 0 2.977-4.55 10.53-3.845 7.552.706 11.504 1.45 11.504 1.45zM259.316 18.931c.13-.045-6.02 3.373-12.73 2.509 0 0 8.816-1.124 12.73-2.509zM255.208 24.514c.126-.045-6.02 3.373-12.73 2.51 0 0 8.817-1.125 12.73-2.51z"/>
        </g>
        <g>
            <path fill="url(#j)" d="M8.986 3.16l-1.155.663 2.005 1.425-.85-2.089zM6.438 5.008l-.44-2.284-.69-.49-.29.49 1.42 2.284zm1.061-1.217l-.821 1.386-.439-2.28 1.26.894zm-3.113 0l.53-.895 1.417 2.28-1.947-1.385zm1.96 1.6H5.34l-.797-1.283 1.805 1.283zM6.073 6.57l.076.123H4.694l-.025-.123-.187-.977H3.246l-.182-.071-2.378-.931-.02-.05h2.987L5.19 1.947l2.348 1.67L7.756 0l1.09.509-.562.424 1.897 4.663H8.87l.607.974.076.123H8.096l-.024-.123-.181-.974H5.466l.606.974zM4.444 5.392l-.247-1.283-.76 1.283h1.007zm1.37 1.1l-.557-.896h-.566l.172.896h.952zm-.684-1.1l-.692-1.114.214 1.114h.478zm4.62 0H8.743l-.797-1.283L9.75 5.392zm-2.91 0l.76-1.283.247 1.283H6.84zm2.377 1.1l-.557-.896h-.566l.172.896h.951zm-1.162-1.1l-.214-1.114.692 1.114h-.478zm.313-3.75l-.44.254.86.777-.42-1.03zm-.092-.225l-.33-.813-.063 1.042.394-.227v-.002zm-.244-1.1l.155.38.25-.188L8.036.32 8.032.317zM3.527 4.745H1.563l1.593.626.371-.626zM7.86 2.06l.997.898-1.087.624.09-1.522z" transform="rotate(25 49.508 517.454)"/>
            <path fill="#1D1D1B" d="M231.28 35.835l.118-2.363 1.13.526c.158.062.31.2.42.38.092.156.14.335.13.495a.452.452 0 0 1-.114.313.269.269 0 0 1-.251.071c.107.07.2.184.26.319a.919.919 0 0 1 .09.435c-.008.17-.073.307-.18.38-.123.075-.283.068-.442-.018l-1.16-.538zm1.082-.986c.047.023.093.025.13.004.034-.022.055-.066.056-.122a.284.284 0 0 0-.043-.163.28.28 0 0 0-.123-.114l-.497-.231-.02.393.497.233zm-.03.95c.053.029.106.032.148.01.074-.053.081-.19.015-.307a.307.307 0 0 0-.141-.127l-.514-.24-.02.425.512.24zm2.452 1.67l-1.456-.679.118-2.363 1.457.68-.027.53-.95-.442-.017.366.924.43-.027.532-.924-.43-.02.4.945.44-.027.532.004.004zm.915-1.992l-.036.71c-.012.244.088.416.3.515a.824.824 0 0 0 .337.088l.05-1.009.514.24-.118 2.363-.514-.24.042-.829a1.692 1.692 0 0 1-.409-.125c-.212-.081-.416-.267-.561-.512-.121-.239-.176-.5-.154-.73l.035-.71.514.24zm2.81 3.729l.047-.95-.821-.383-.048.95-.513-.24.118-2.363.513.24-.044.881.821.383.044-.882.514.24-.118 2.363-.514-.24zm2.869 1.338l-.581-.271-.086-.389-.783-.365-.12.293-.581-.271.865-2.015.644.3.632 2.713.01.005zm-.778-1.255l-.21-1.008-.297.771.507.237zm1.488 1.586l-.587-.274.449-.68a1.146 1.146 0 0 1-.27-.375 1.083 1.083 0 0 1-.094-.517c.005-.215.084-.388.218-.479.144-.09.332-.086.52.014l.994.464-.118 2.365-.513-.239.04-.799-.262-.122-.37.64-.007.002zm.66-1.048l.025-.507-.406-.19a.206.206 0 0 0-.177-.014c-.05.023-.079.08-.08.152a.355.355 0 0 0 .061.22.41.41 0 0 0 .171.15l.406.189zm-4.756 1.96l.098-1.969.428.2-.058 1.16.73-.847.444.207-.098 1.969-.431-.201.06-1.221-.76.895-.413-.193zm1.322-1.75c-.108.121-.276.143-.449.056-.173-.076-.332-.25-.425-.464l.172-.084c.056.137.156.25.266.3.11.057.217.04.281-.044l.157.236h-.002zm3.389 3.947l-.068-.322-.655-.305-.096.245-.487-.227.725-1.677.538.25.528 2.263-.485-.227zm-.163-.82l-.174-.84-.249.643.423.197zm-1.207.181l-.525-.245-.4-.951-.12.112-.029.576-.428-.2.098-1.961.428.2-.04.808.553-.57.523.244-.69.62.626 1.365.004.002zm-9.376-4.336c-.238-.101-.464-.311-.629-.584a1.484 1.484 0 0 1-.22-.853c.006-.28.112-.504.292-.614.184-.11.42-.103.657.017.311.127.588.47.699.867l-.38.034a.784.784 0 0 0-.13-.27.56.56 0 0 0-.211-.183c-.125-.063-.25-.06-.34.009-.186.15-.203.5-.041.812.08.149.198.265.324.319a.28.28 0 0 0 .22.017.26.26 0 0 0 .15-.138l.359.378a.555.555 0 0 1-.292.249.601.601 0 0 1-.46-.058l.002-.002zm1.34.589l.077-1.527-.465-.217.022-.442 1.356.633-.022.443-.463-.216-.077 1.527-.428-.201zm1.13.526l.098-1.968.831.387a.892.892 0 0 1 .414.386c.193.359.173.766-.047.933-.119.077-.276.074-.432-.01l-.403-.187-.033.662-.428-.203zm.828-.738c.052.027.104.03.146.01.04-.02.063-.067.064-.127a.3.3 0 0 0-.049-.183.33.33 0 0 0-.14-.122l-.345-.162-.021.423.345.161zm1.006 1.344c-.317-.564-.285-1.217.073-1.466.382-.213.927.042 1.271.593.158.269.236.578.215.85-.006.28-.111.503-.288.616-.382.212-.927-.042-1.271-.593zm.974.114c.178-.158.195-.501.041-.814a.751.751 0 0 0-.32-.316c-.122-.057-.243-.053-.335.01-.177.159-.195.502-.04.815a.688.688 0 0 0 .32.316c.123.063.245.059.334-.01z"/>
        </g>
        <g>
            <path fill="url(#k)" d="M8.968 3.852l-1.106.834 2.1 1.208-.994-2.042zM6.555 6.075l-.598-2.267-.722-.405-.256.536 1.576 2.136zm.974-1.377l-.723 1.52L6.21 3.95l1.32.747zM4.423 5.1l.467-.974L6.463 6.26 4.423 5.1zm2.068 1.376L5.485 6.6l-.884-1.2 1.89 1.076zM6.3 7.71l.085.117L4.933 8 4.9 7.877l-.255-.967-1.233.15-.187-.05-2.437-.64-.024-.048 2.98-.372 1.354-2.823 2.459 1.387L7.521.786l1.122.363-.53.516L10.33 6.21l-1.31.163.673.93.085.118-1.452.174-.033-.124-.248-.977-2.42.299.673.917zm-1.706-.999l-.336-1.266-.669 1.39 1.005-.124zm1.444.95l-.618-.843-.565.07.234.886.949-.113zm-.76-1.034L4.51 5.585l.29 1.1.478-.058zm4.609-.574l-1.005.126-.884-1.215 1.889 1.089zm-2.903.363l.669-1.407.335 1.282-1.004.125zm2.448.837L8.813 6.4l-.565.07.234.899.95-.115zm-1.236-.988L7.904 5.15l.768 1.054-.477.06zm.05-3.886l-.421.321.912.68-.49-1zm-.493-1.003l.01 1.074.377-.287-.387-.787zM8 1.437l.236-.23-.415-.134.179.364zM3.633 6.171l-1.96.244 1.633.433.327-.677zm4.135-3.293l1.057.784-1.041.785-.016-1.57z" transform="rotate(25 -28.439 314.35)"/>
            <path fill="#1D1D1B" d="M137.552 51.123l-.04-2.383 1.2.368c.168.04.333.155.46.321a.837.837 0 0 1 .167.479.48.48 0 0 1-.097.33.3.3 0 0 1-.255.108.677.677 0 0 1 .29.284.87.87 0 0 1 .12.427c.003.173-.055.32-.16.407-.123.093-.287.109-.456.043l-1.23-.384zm1.047-1.139c.05.017.097.012.133-.014.035-.027.053-.074.05-.13.001-.053-.019-.11-.054-.158a.26.26 0 0 0-.135-.097l-.527-.162.006.396.527.165zm.032.96c.056.021.111.017.153-.01.073-.064.07-.202-.004-.312a.286.286 0 0 0-.155-.108l-.544-.17.007.43.543.17zm1.09.863l-.032-2.4 1.549.473.006.54-1.009-.31.005.373.98.303.007.542-.98-.305.004.408 1.002.313.005.543-1.538-.48zm2.363-1.67l.007.725c.003.25.116.41.342.479.12.04.24.053.353.04l-.01-1.032.547.166.018 2.427-.544-.17-.006-.852a1.68 1.68 0 0 1-.43-.068c-.224-.052-.446-.211-.611-.44a1.3 1.3 0 0 1-.204-.717l-.008-.723.546.166zm3.126 3.388l-.004-.984-.872-.268.005.98-.544-.17-.017-2.43.546.166.007.906.873.267-.006-.909.547.166.01 2.445-.545-.17zm3.045.944l-.617-.19-.11-.39-.83-.257-.109.321-.616-.191.786-2.207.685.207.8 2.704.01.003zm-.873-1.178l-.271-1.006-.268.84.54.166zm1.627 1.411l-.624-.192.432-.776a1.057 1.057 0 0 1-.425-.867c-.006-.223.067-.414.202-.53.145-.117.34-.142.54-.07l1.06.318-.005 2.481-.545-.168.002-.838-.278-.085-.353.724-.006.003zm.632-1.195l.001-.53-.432-.13a.216.216 0 0 0-.185.014c-.05.031-.078.095-.075.17a.34.34 0 0 0 .075.219.37.37 0 0 0 .185.126l.431.131zm-4.826 2.757l-.003-2.047.453.142.002 1.207.71-.983.47.147v2.058l-.456-.146v-1.276l-.739 1.039-.437-.14zm1.274-2.004c-.105.142-.278.19-.46.126-.185-.053-.359-.208-.466-.416l.174-.111a.512.512 0 0 0 .29.27c.118.041.228.007.29-.09l.174.221h-.002zm3.705 3.597l-.085-.327-.693-.22-.089.271-.514-.164.67-1.863.571.178.653 2.29-.513-.165zm-.207-.835l-.22-.852-.227.71.447.142zm-1.797.196l-.46-.932-.119.135-.001.604-.453-.145.002-2.052.454.142v.846l.544-.676.554.173-.685.751.715 1.33-.55-.176zm-10.022-3.488a1.42 1.42 0 0 1-.28-.834c-.012-.283.083-.523.26-.658.182-.135.425-.16.677-.07.327.086.634.396.772.782l-.387.086a.728.728 0 0 0-.151-.255.523.523 0 0 0-.229-.158c-.133-.047-.26-.027-.35.054-.18.177-.175.532.01.827.092.14.22.243.353.281a.29.29 0 0 0 .373-.172l.391.337a.63.63 0 0 1-.285.292.617.617 0 0 1-.474.001c-.25-.074-.494-.258-.68-.513zm2.092.934l-.014-1.565-.491-.157-.005-.45 1.435.454.004.455-.49-.156.013 1.566-.452-.147zm1.191.386l-.014-2.024.88.279a.821.821 0 0 1 .449.335c.22.34.222.76.005.962-.118.096-.28.114-.446.05l-.426-.136.004.683-.452-.15zm.811-.87a.17.17 0 0 0 .15-.01c.04-.026.062-.078.06-.14a.287.287 0 0 0-.061-.18.304.304 0 0 0-.152-.105l-.366-.116.003.434.366.117zm1.112 1.238c-.359-.534-.362-1.21-.007-1.515.382-.273.96-.092 1.345.425.178.254.276.56.269.845.008.289-.088.535-.265.677-.382.274-.958.088-1.342-.432zm1.01-.02c.175-.189.174-.545-.002-.845a.687.687 0 0 0-.347-.278.352.352 0 0 0-.346.059c-.174.188-.173.543.003.843.09.141.217.243.348.28.13.047.257.026.345-.059z"/>
        </g>
    </g>
</svg>
