<?xml version="1.0" encoding="UTF-8"?>
<svg width="40px" height="40px" viewBox="0 0 40 40" version="1.1" xmlns="http://www.w3.org/2000/svg" xmlns:xlink="http://www.w3.org/1999/xlink">
    <!-- Generator: sketchtool 48.1 (47250) - http://www.bohemiancoding.com/sketch -->
    <title>48EC4765-CED3-4C7E-9A70-949930C7419A</title>
    <desc>Created with sketchtool.</desc>
    <defs></defs>
    <g id="footer" stroke="none" stroke-width="1" fill="none" fill-rule="evenodd" transform="translate(-1465.000000, -264.000000)">
        <g id="social">
            <g transform="translate(1276.000000, 264.000000)">
                <g id="facebook" transform="translate(189.000000, 0.000000)">
                    <g id="Layer_1">
                        <g id="Group">
                            <path d="M19.9532877,0 C30.9738356,0 39.9067123,8.93410959 39.9067123,19.9534247 C39.9067123,30.9739726 30.9738356,39.9067123 19.9532877,39.9067123 C8.93273973,39.9067123 0,30.9738356 0,19.9534247 C0,8.93410959 8.93287671,0 19.9532877,0 L19.9532877,0 Z" id="Shape" fill="#3B5998"></path>
                            <path d="M22.3827397,13.7365753 L24.9542466,13.7365753 L24.9542466,9.93794521 L21.9313699,9.93794521 L21.9313699,9.95164384 C18.2686301,10.0813699 17.5179452,12.140274 17.4517808,14.3027397 L17.4442466,14.3027397 L17.4442466,16.199589 L14.950137,16.199589 L14.950137,19.919589 L17.4442466,19.919589 L17.4442466,29.8912329 L21.2030137,29.8912329 L21.2030137,19.919589 L24.2820548,19.919589 L24.8768493,16.199589 L21.2042466,16.199589 L21.2042466,15.0535616 C21.2042466,14.3227397 21.6905479,13.7365753 22.3827397,13.7365753 L22.3827397,13.7365753 Z" id="Shape" fill="#FFFFFF"></path>
                        </g>
                    </g>
                </g>
            </g>
        </g>
    </g>
</svg>