<?xml version="1.0" encoding="UTF-8"?>
<svg width="40px" height="40px" viewBox="0 0 40 40" version="1.1" xmlns="http://www.w3.org/2000/svg" xmlns:xlink="http://www.w3.org/1999/xlink">
    <!-- Generator: sketchtool 48.1 (47250) - http://www.bohemiancoding.com/sketch -->
    <title>546B6864-61DD-446B-9CD7-86DA9B18FC24</title>
    <desc>Created with sketchtool.</desc>
    <defs></defs>
    <g id="footer" stroke="none" stroke-width="1" fill="none" fill-rule="evenodd" transform="translate(-1402.000000, -264.000000)">
        <g id="social">
            <g transform="translate(1276.000000, 264.000000)">
                <g id="odnoklassniki-logo" transform="translate(126.000000, 0.000000)">
                    <path d="M19.9489796,0 C8.93142857,0 0,8.93183673 0,19.9489796 C0,30.9661224 8.93142857,39.8979592 19.9489796,39.8979592 C30.9665306,39.8979592 39.8979592,30.9661224 39.8979592,19.9489796 C39.8979592,8.93183673 30.9665306,0 19.9489796,0 Z" id="Path" fill="#ED812B"></path>
                    <path d="M19.9677551,16.5334694 C21.8726531,16.5265306 23.3897959,14.9963265 23.3828571,13.0873469 C23.3759184,11.177551 21.8555102,9.65795918 19.9497959,9.65632653 C18.0281633,9.65428571 16.4934694,11.2020408 16.5081633,13.1289796 C16.522449,15.0310204 18.0567347,16.5404082 19.9677551,16.5334694 Z M19.977551,6.06653061 C23.8632653,6.07714286 26.9820408,9.2555102 26.9620408,13.1840816 C26.942449,17.0220408 23.7726531,20.1326531 19.8934694,20.1195918 C16.0538776,20.1065306 12.904898,16.9232653 12.9277551,13.077551 C12.9493878,9.18979592 16.1,6.05591837 19.977551,6.06653061 Z M27.8477551,22.8804082 C26.9885714,23.762449 25.9542857,24.4008163 24.8057143,24.8461224 C23.72,25.2669388 22.5302041,25.4787755 21.3522449,25.62 C21.5306122,25.8134694 21.6142857,25.9085714 21.7253061,26.0195918 C23.3236735,27.6265306 24.9297959,29.2253061 26.5228571,30.8367347 C27.0657143,31.3861224 27.1787755,32.0669388 26.88,32.704898 C26.5538776,33.4028571 25.8220408,33.8616327 25.1040816,33.8122449 C24.6493878,33.7808163 24.2946939,33.555102 23.98,33.2379592 C22.7734694,32.0240816 21.5440816,30.8318367 20.3628571,29.595102 C20.0179592,29.235102 19.8530612,29.3036735 19.5489796,29.6163265 C18.3355102,30.8661224 17.1020408,32.0959184 15.8616327,33.3191837 C15.3044898,33.8685714 14.6416327,33.9681633 13.995102,33.6538776 C13.3081633,33.3216327 12.8714286,32.62 12.904898,31.9142857 C12.9285714,31.4383673 13.1628571,31.0734694 13.4902041,30.7477551 C15.0726531,29.1685714 16.6502041,27.5844898 18.2281633,26.0016327 C18.3330612,25.8967347 18.4302041,25.7853061 18.582449,25.6220408 C16.4302041,25.3971429 14.4893878,24.8673469 12.8277551,23.5681633 C12.6212245,23.4065306 12.4085714,23.2506122 12.2208163,23.0693878 C11.4930612,22.3710204 11.42,21.5706122 11.995102,20.7469388 C12.4877551,20.0416327 13.3138776,19.8530612 14.1730612,20.2583673 C14.3395918,20.3363265 14.4979592,20.435102 14.6497959,20.5395918 C17.7461224,22.6673469 22,22.7257143 25.1085714,20.6346939 C25.4163265,20.3995918 25.7457143,20.2061224 26.1273469,20.1085714 C26.8685714,19.917551 27.5608163,20.1906122 27.9583673,20.8395918 C28.4134694,21.5812245 28.4081633,22.3044898 27.8477551,22.8804082 Z" id="Shape" fill="#FFFFFF" fill-rule="nonzero"></path>
                </g>
            </g>
        </g>
    </g>
</svg>