<?xml version="1.0" encoding="UTF-8"?>
<svg width="40px" height="40px" viewBox="0 0 40 40" version="1.1" xmlns="http://www.w3.org/2000/svg" xmlns:xlink="http://www.w3.org/1999/xlink">
    <!-- Generator: sketchtool 48.1 (47250) - http://www.bohemiancoding.com/sketch -->
    <title>18CC116F-80A8-44EB-94AC-4CFC5924B71C</title>
    <desc>Created with sketchtool.</desc>
    <defs></defs>
    <g id="footer" stroke="none" stroke-width="1" fill="none" fill-rule="evenodd" transform="translate(-1339.000000, -264.000000)">
        <g id="social">
            <g transform="translate(1276.000000, 264.000000)">
                <g id="vk" transform="translate(63.000000, 0.000000)">
                    <g id="Capa_1">
                        <g id="Group">
                            <circle id="XMLID_11_" fill="#4D76A1" cx="19.8576991" cy="19.8576991" r="19.8576991"></circle>
                            <path d="M19.1076106,28.5670796 L20.6661947,28.5670796 C20.6661947,28.5670796 21.1369912,28.5153982 21.3773451,28.2562832 C21.5985841,28.0184071 21.5915044,27.5716814 21.5915044,27.5716814 C21.5915044,27.5716814 21.5610619,25.480354 22.5316814,25.1723894 C23.4884956,24.8690265 24.7171681,27.1936283 26.019469,28.0874336 C27.0042478,28.7638938 27.7525664,28.6155752 27.7525664,28.6155752 L31.2346903,28.5670796 C31.2346903,28.5670796 33.0562832,28.4548673 32.1925664,27.0226549 C32.1217699,26.9054867 31.6895575,25.9631858 29.6035398,24.0269027 C27.420177,22.000354 27.7125664,22.3281416 30.3426549,18.8226549 C31.9444248,16.6877876 32.5847788,15.3844248 32.3847788,14.8261947 C32.1939823,14.2945133 31.0159292,14.4350442 31.0159292,14.4350442 L27.0952212,14.459469 C27.0952212,14.459469 26.8046018,14.419823 26.5890265,14.5486726 C26.3784071,14.6750442 26.2428319,14.9695575 26.2428319,14.9695575 C26.2428319,14.9695575 25.6223009,16.6215929 24.7946903,18.0265487 C23.0488496,20.9911504 22.3507965,21.1476106 22.0654867,20.9635398 C21.4017699,20.5345133 21.5674336,19.24 21.5674336,18.320354 C21.5674336,15.4474336 22.0031858,14.2495575 20.7189381,13.939469 C20.2927434,13.8364602 19.979115,13.7684956 18.8892035,13.7575221 C17.4902655,13.7430088 16.3061947,13.7617699 15.6357522,14.0902655 C15.1897345,14.3086726 14.8456637,14.7953982 15.0552212,14.8233628 C15.3143363,14.8580531 15.9012389,14.9815929 16.2123894,15.4053097 C16.6141593,15.9518584 16.6,17.179469 16.6,17.179469 C16.6,17.179469 16.8307965,20.5614159 16.060885,20.9815929 C15.5323894,21.2697345 14.8074336,20.6814159 13.2509735,17.9918584 C12.4534513,16.6141593 11.8513274,15.0913274 11.8513274,15.0913274 C11.8513274,15.0913274 11.7352212,14.8067257 11.5281416,14.6545133 C11.2768142,14.4700885 10.9256637,14.4113274 10.9256637,14.4113274 L7.2,14.4357522 C7.2,14.4357522 6.64070796,14.4513274 6.43539823,14.6945133 C6.25274336,14.9107965 6.42088496,15.3582301 6.42088496,15.3582301 C6.42088496,15.3582301 9.33769912,22.1823009 12.640354,25.6212389 C15.6686726,28.7741593 19.1076106,28.5670796 19.1076106,28.5670796 L19.1076106,28.5670796 L19.1076106,28.5670796 Z" id="Shape" fill="#FFFFFF"></path>
                        </g>
                    </g>
                </g>
            </g>
        </g>
    </g>
</svg>