<?xml version="1.0" encoding="UTF-8"?>
<svg width="200px" height="58px" viewBox="0 0 200 58" version="1.1" xmlns="http://www.w3.org/2000/svg" xmlns:xlink="http://www.w3.org/1999/xlink">
    <!-- Generator: sketchtool 48.1 (47250) - http://www.bohemiancoding.com/sketch -->
    <title>67EE7EB1-D0C2-463F-B217-A41AEC8DB5DD</title>
    <desc>Created with sketchtool.</desc>
    <defs>
        <linearGradient x1="26.1591696%" y1="104.230834%" x2="106.205306%" y2="-6.82010492%" id="linearGradient-1">
            <stop stop-color="#27348B" offset="0%"></stop>
            <stop stop-color="#952269" offset="21%"></stop>
            <stop stop-color="#D82129" offset="51%"></stop>
            <stop stop-color="#E30613" offset="73%"></stop>
            <stop stop-color="#FFCC00" offset="100%"></stop>
        </linearGradient>
    </defs>
    <g id="UI" stroke="none" stroke-width="1" fill="none" fill-rule="evenodd" transform="translate(-10.000000, -10.000000)">
        <g id="vs-logo-color" transform="translate(10.000000, 10.000000)">
            <path d="M75.4038462,44.5480769 L75.4038462,26.8173077 L63.3076923,32.4519231 L75.4038462,44.5480769 L75.4038462,44.5480769 Z M43.2211538,23.1346154 L47.3846154,42.5192308 L51.5384615,23.1346154 L47.375,18.9711538 L43.2115385,23.1346154 L43.2211538,23.1346154 Z M53,24.5961538 L60.5961538,32.1923077 L48.8365385,43.9519231 L52.9903846,24.5961538 L53,24.5961538 Z M45.9134615,43.9519231 L34.1634615,32.1923077 L41.7596154,24.5961538 L45.9134615,43.9519231 L45.9134615,43.9519231 Z M34.375,34.8846154 L45.2884615,45.7692308 L36.7307692,45.7692308 L34.3942308,34.8846154 L34.375,34.8846154 Z M37.1057692,47.5 L38.8846154,55.7692308 L39.1057692,56.8173077 L26.7596154,56.8173077 L26.9807692,55.7692308 L28.7596154,47.4807692 L18.2692308,47.4807692 L16.9711538,46.875 L0,38.9711538 L0,38.5480769 L25.3557692,38.5480769 L47.375,16.5288462 L61.5384615,30.7115385 L75.875,0 L83.3653846,4.31730769 L77.1346154,7.92307692 L77.1346154,47.5 L65.9903846,47.5 L67.7788462,55.7692308 L68,56.8173077 L55.6442308,56.8173077 L55.8653846,55.7692308 L57.6923077,47.5 L37.1057692,47.5 L37.1057692,47.5 Z M29.1346154,45.7692308 L31.4711538,34.8846154 L20.5865385,45.7692308 L29.1346154,45.7692308 Z M36.9711538,55.1057692 L35.3365385,47.5 L30.5288462,47.5 L28.8942308,55.1057692 L36.9711538,55.1057692 Z M34.9615385,45.7692308 L32.9326923,36.3173077 L30.9038462,45.7692308 L34.9615385,45.7692308 Z M74.1730769,45.7692308 L65.625,45.7692308 L64.0937232,38.6358756 L63.2884615,34.8846154 L74.1730769,45.7692308 Z M58.0192308,45.7692308 L49.4711538,45.7692308 L60.3557692,34.8846154 L58.0192308,45.7692308 L58.0192308,45.7692308 Z M65.8557692,55.1057692 L64.2211538,47.5 L59.4134615,47.5 L57.7788462,55.1057692 L65.8557692,55.1057692 Z M63.8557692,45.7692308 L59.7884615,45.7692308 L61.8173077,36.3173077 L63.8461538,45.7692308 L63.8557692,45.7692308 Z M75.3942308,22.6923077 L75.3942308,13.9423077 L70.7788462,16.0961538 L75.3942308,22.6923077 L75.3942308,22.6923077 Z M75.3942308,12.0288462 L75.3942308,5.125 L71.2692308,13.9711538 L75.3942308,12.0480769 L75.3942308,12.0288462 Z M77.125,2.69230769 L77.125,5.92307692 L79.9038462,4.31730769 L77.1346154,2.72115385 L77.125,2.69230769 Z M18.2692308,45.5961538 L23.5865385,40.2788462 L6.91346154,40.2788462 L18.2692308,45.5961538 L18.2692308,45.5961538 Z M69.6346154,17.4903846 L75,25.1057692 L63.6153846,30.4038462 L69.6346154,17.4903846 Z" id="Shape" fill="url(#linearGradient-1)"></path>
            <path d="M97.5192308,35.1346154 L86.6442308,35.1346154 L86.6442308,16.5288462 L97.2211538,16.5288462 C98.6970027,16.4364586 100.147237,16.9464693 101.240385,17.9423077 C102.157896,18.8083341 102.673497,20.0172092 102.663462,21.2788462 C102.696903,22.2941946 102.377505,23.2897649 101.759615,24.0961538 C101.197164,24.8315775 100.39382,25.3455819 99.4903846,25.5480769 C100.50176,25.6982226 101.411727,26.2448947 102.019231,27.0673077 C102.694404,27.9311678 103.054026,28.999855 103.038462,30.0961538 C103.050208,31.4323648 102.519337,32.7161696 101.567308,33.6538462 C100.476326,34.6760331 99.0111882,35.2015337 97.5192308,35.1057692 L97.5192308,35.1346154 Z M96.0961538,23.6634615 C96.5318561,23.6798017 96.9565565,23.5244235 97.2788462,23.2307692 C97.5892393,22.9369036 97.7575068,22.5232461 97.7403846,22.0961538 C97.7541683,21.6780748 97.5857639,21.2746057 97.2788462,20.9903846 C96.9565565,20.6967303 96.5318561,20.5413521 96.0961538,20.5576923 L91.4423077,20.5576923 L91.4423077,23.6538462 L96.0961538,23.6634615 Z M96.2596154,31.0865385 C96.7541063,31.1129877 97.2397411,30.9476652 97.6153846,30.625 C98.268796,29.9531894 98.268796,28.883349 97.6153846,28.2115385 C97.244945,27.8790053 96.7564392,27.7092408 96.2596154,27.7403846 L91.4519231,27.7403846 L91.4519231,31.0865385 L96.2596154,31.0865385 Z M119.461538,35.1346154 L105.826923,35.1346154 L105.826923,16.5288462 L119.471154,16.5288462 L119.471154,20.7115385 L110.576923,20.7115385 L110.576923,23.5961538 L119.230769,23.5961538 L119.230769,27.7788462 L110.576923,27.7788462 L110.576923,30.9326923 L119.423077,30.9326923 L119.423077,35.1153846 L119.461538,35.1346154 Z M126.923077,16.5288462 L126.923077,22.1153846 C126.923077,24.0384615 127.916667,25 129.903846,25 C130.969288,25.0189347 132.028962,24.8396052 133.028846,24.4711538 L133.028846,16.5288462 L137.836538,16.5288462 L137.836538,35.1346154 L133.028846,35.1346154 L133.028846,28.6057692 C131.785888,28.9159817 130.511664,29.0837277 129.230769,29.1057692 C127.248891,29.2454605 125.29922,28.5479037 123.855769,27.1826923 C122.64025,25.7833184 122.016189,23.9663021 122.115385,22.1153846 L122.115385,16.5288462 L126.923077,16.5288462 Z M159.153846,35.1346154 L154.346154,35.1346154 L154.346154,27.6538462 L146.653846,27.6538462 L146.653846,35.1346154 L141.846154,35.1346154 L141.846154,16.5288462 L146.653846,16.5288462 L146.653846,23.4711538 L154.346154,23.4711538 L154.346154,16.5288462 L159.153846,16.5288462 L159.153846,35.1346154 L159.153846,35.1346154 Z M181.221154,35.1346154 L175.778846,35.1346154 L174.817308,32.4519231 L167.480769,32.4519231 L166.519231,35.1346154 L161.076923,35.1346154 L168.076923,16.5288462 L174.105769,16.5288462 L181.134615,35.1346154 L181.221154,35.1346154 Z M173.528846,28.2692308 L171.153846,21.2692308 L168.778846,28.2692308 L173.528846,28.2692308 Z M187.875,35.1346154 L182.375,35.1346154 L186.173077,28.2980769 C185.125284,27.9292911 184.209073,27.2605237 183.538462,26.375 C182.76801,25.320434 182.37817,24.035657 182.432692,22.7307692 C182.383227,21.0616007 183.027191,19.4464698 184.211538,18.2692308 C185.487465,17.0513129 187.209826,16.4145615 188.971154,16.5096154 L198.288462,16.5096154 L198.288462,35.1346154 L193.480769,35.1346154 L193.480769,28.8461538 L191.028846,28.8461538 L187.932692,35.0961538 L187.875,35.1346154 Z M189.634615,24.7019231 L193.432692,24.7019231 L193.432692,20.7115385 L189.634615,20.7115385 C189.044494,20.6900176 188.465684,20.8772797 188,21.2403846 C187.563007,21.5924153 187.320122,22.1317625 187.346154,22.6923077 C187.317043,23.261639 187.559638,23.8110457 188,24.1730769 C188.465684,24.5361818 189.044494,24.723444 189.634615,24.7019231 L189.634615,24.7019231 Z M154.644231,56.8461538 L150.798077,56.8461538 L150.798077,41.3461538 L154.807692,41.3461538 L154.807692,50.4807692 L161.105769,41.3461538 L165.259615,41.3461538 L165.259615,56.8461538 L161.221154,56.8461538 L161.221154,47.2307692 L154.673077,56.8461538 L154.644231,56.8461538 Z M162.096154,38.6346154 C161.168287,39.959722 159.636224,40.7293669 158.019231,40.6826923 C156.396346,40.720151 154.859699,39.9536268 153.913462,38.6346154 L155.451923,37.375 C156.026093,38.2289593 156.99022,38.7381046 158.019231,38.7307692 C159.053256,38.7703113 160.029245,38.252964 160.576923,37.375 L162.115385,38.6346154 L162.096154,38.6346154 Z M199.471154,56.8461538 L194.923077,56.8461538 L194.153846,54.6153846 L188.019231,54.6153846 L187.25,56.8461538 L182.692308,56.8461538 L188.557692,41.3461538 L193.596154,41.3461538 L199.471154,56.8557692 L199.471154,56.8461538 Z M193.057692,51.125 L191.076923,45.2884615 L189.096154,51.125 L193.057692,51.125 Z M182.096154,56.8461538 L177.173077,56.8461538 L173.076923,50.9615385 L172.028846,52.2596154 L172.028846,56.7884615 L168.019231,56.7884615 L168.019231,41.3461538 L172.028846,41.3461538 L172.028846,47.7115385 L176.836538,41.3461538 L181.730769,41.3461538 L175.692308,48.5961538 L182.057692,56.8461538 L182.096154,56.8461538 Z M94.2884615,57.125 C92.0657562,57.1972516 89.9037818,56.392555 88.2692308,54.8846154 C86.6720101,53.3991923 85.7954527,51.2954546 85.8653846,49.1153846 C85.7917871,46.9385349 86.6609307,44.835768 88.25,43.3461538 C89.8890163,41.8402328 92.0543594,41.0390213 94.2788462,41.1153846 C97.1819157,40.9776075 99.8740805,42.628751 101.067308,45.2788462 L97.6153846,46.9038462 C97.33991,46.2530042 96.882519,45.6954545 96.2980769,45.2980769 C95.7112755,44.8716945 95.0041982,44.6427361 94.2788462,44.6442308 C93.103813,44.6079017 91.9695727,45.0770011 91.1634615,45.9326923 C89.5406625,47.7552136 89.5406625,50.5044018 91.1634615,52.3269231 C91.9695727,53.1826143 93.103813,53.6517137 94.2788462,53.6153846 C95.0041982,53.6168793 95.7112755,53.3879209 96.2980769,52.9615385 C96.8821483,52.5637554 97.3394399,52.0063269 97.6153846,51.3557692 L101.067308,52.9807692 C100.471043,54.1631155 99.592575,55.1802885 98.5096154,55.9423077 C97.2628082,56.7821275 95.7809644,57.2031059 94.2788462,57.1442308 L94.2884615,57.125 Z M110.836538,56.8461538 L106.826923,56.8461538 L106.826923,44.8269231 L102.471154,44.8269231 L102.471154,41.3461538 L115.173077,41.3461538 L115.173077,44.8365385 L110.836538,44.8365385 L110.836538,56.8557692 L110.836538,56.8461538 Z M121.413462,56.8461538 L117.403846,56.8461538 L117.403846,41.3461538 L125.192308,41.3461538 C126.661298,41.2672627 128.096766,41.8038209 129.153846,42.8269231 C131.083556,44.8954644 131.083556,48.1045356 129.153846,50.1730769 C128.096766,51.1961791 126.661298,51.7327373 125.192308,51.6538462 L121.413462,51.6538462 L121.413462,56.8653846 L121.413462,56.8461538 Z M124.653846,48.1923077 C125.138117,48.2108503 125.612778,48.0537685 125.990385,47.75 C126.344709,47.449794 126.54,47.0023992 126.519231,46.5384615 C126.543099,46.0684374 126.347786,45.6138896 125.990385,45.3076923 C125.612778,45.0039238 125.138117,44.846842 124.653846,44.8653846 L121.413462,44.8653846 L121.413462,48.1923077 L124.653846,48.1923077 Z M146.375,54.9230769 C142.976886,57.9304517 137.869268,57.9304517 134.471154,54.9230769 C131.308432,51.7271058 131.308432,46.5805865 134.471154,43.3846154 C137.869268,40.3772406 142.976886,40.3772406 146.375,43.3846154 C147.945082,44.8850935 148.801824,46.983237 148.730769,49.1538462 C148.801824,51.3244553 147.945082,53.4225989 146.375,54.9230769 L146.375,54.9230769 Z M140.384615,53.5865385 C141.542236,53.6302112 142.660475,53.1625198 143.442308,52.3076923 C144.993963,50.4514243 144.993963,47.7504988 143.442308,45.8942308 C142.631505,45.0756649 141.527151,44.6151412 140.375,44.6151412 C139.222849,44.6151412 138.118495,45.0756649 137.307692,45.8942308 C135.756037,47.7504988 135.756037,50.4514243 137.307692,52.3076923 C138.09624,53.1644641 139.221086,53.631978 140.384615,53.5865385 L140.384615,53.5865385 Z" id="Shape" fill="#1D1D1B"></path>
        </g>
    </g>
</svg>