<?xml version="1.0" encoding="UTF-8"?>
<svg width="48px" height="48px" viewBox="0 0 48 48" version="1.1" xmlns="http://www.w3.org/2000/svg" xmlns:xlink="http://www.w3.org/1999/xlink">
    <!-- Generator: Sketch 55 (78076) - https://sketchapp.com -->
    <title>delivery</title>
    <desc>Created with Sketch.</desc>
    <g id="Page-1" stroke="none" stroke-width="1" fill="none" fill-rule="evenodd">
        <g id="Страница-товара" transform="translate(-1388.000000, -368.000000)" fill="#808080" fill-rule="nonzero">
            <g id="выгоды" transform="translate(1388.000000, 304.000000)">
                <g id="Group-12" transform="translate(0.000000, 64.000000)">
                    <g id="Group-3">
                        <path d="M39.1987719,25.4260951 L38.1705848,23.1591684 L38.1705848,23.1591104 L36.6077778,19.7135536 C36.4682456,19.4060596 36.1599415,19.2082772 35.8200585,19.2082772 L30.9257895,19.2082772 L30.9257895,17.7801708 C30.9257895,16.677718 30.0217544,15.7808219 28.9104678,15.7808219 L11.348655,15.7808219 C10.2373684,15.7808219 9.33333333,16.677718 9.33333333,17.7801708 L9.33333333,29.2051958 C9.33333333,30.3076487 10.2373684,31.2046027 11.348655,31.2046027 L13.1967251,31.2046027 C13.5736842,32.5217212 14.7961404,33.4896309 16.242924,33.4896309 C17.6897076,33.4896309 18.9121053,32.5217792 19.2891228,31.2046027 L27.0159064,31.2046027 C27.3928655,32.5217212 28.6153216,33.4896309 30.0621053,33.4896309 C31.5088889,33.4896309 32.7312865,32.5217792 33.1083041,31.2046027 L37.2595906,31.2046027 C38.3708187,31.2046027 39.2749123,30.3077067 39.2749123,29.2051958 L39.2749123,25.7776825 C39.2748538,25.6564835 39.2489474,25.5366189 39.1987719,25.4260951 Z M30.9257895,20.9220629 L35.2616374,20.9220629 L36.0389474,22.6357905 L30.9257895,22.6357905 L30.9257895,20.9220629 Z M16.242924,31.7758453 C15.4491813,31.7758453 14.8034503,31.1352135 14.8034503,30.3477389 C14.8034503,29.5602643 15.4491813,28.9196326 16.242924,28.9196326 C17.0366667,28.9196326 17.6823977,29.5602643 17.6823977,30.3477389 C17.6823977,31.1352135 17.0366667,31.7758453 16.242924,31.7758453 Z M28.4866667,27.6239807 C28.471345,27.6327413 28.455848,27.6412119 28.4406433,27.6502627 C28.3891813,27.680838 28.3384795,27.7124577 28.2889474,27.7457599 C28.2817544,27.7506334 28.2748538,27.755855 28.2676608,27.7607865 C28.2250877,27.7899114 28.1833918,27.8200806 28.1423392,27.8512361 C28.1268421,27.8629557 28.1116959,27.8750234 28.0964327,27.887033 C28.062807,27.9135471 28.0297661,27.9406994 27.9973099,27.9684899 C27.9830409,27.9807317 27.9685965,27.9927413 27.9545029,28.0052732 C27.9110526,28.043855 27.8683041,28.083249 27.8270175,28.1240355 C27.8248538,28.1261821 27.8226316,28.1283868 27.8204678,28.1305334 C27.7792982,28.171494 27.7396491,28.2138469 27.7007602,28.2569541 C27.6881287,28.2709363 27.6760234,28.2852087 27.6636842,28.299423 C27.6356725,28.3316809 27.6083041,28.3644029 27.5815789,28.3978211 C27.5694737,28.4129057 27.5573684,28.4279903 27.545614,28.443307 C27.5142105,28.4840355 27.4838012,28.5255181 27.454386,28.5678131 C27.4494737,28.5748912 27.4442105,28.5816793 27.4393567,28.5887575 C27.4057895,28.6378985 27.3738596,28.6881998 27.3430409,28.7392554 C27.3339766,28.754282 27.3254971,28.7695987 27.3166667,28.7847413 C27.2946199,28.8226849 27.2733333,28.8610346 27.2528655,28.8999645 C27.2438012,28.9171378 27.2348538,28.9343691 27.2260819,28.9517744 C27.204269,28.9952877 27.1834503,29.0393811 27.1636257,29.0839968 C27.1587135,29.0950201 27.1534503,29.1057534 27.148655,29.1168348 C27.1247368,29.1722998 27.1025731,29.228693 27.0818713,29.2857244 C27.0765497,29.3002869 27.0718713,29.3151974 27.0667836,29.3298759 C27.0515789,29.3737373 27.0373099,29.4179468 27.0240351,29.4626205 C27.0212281,29.4720774 27.0176608,29.4813022 27.0149123,29.4908171 L19.290117,29.4908171 C19.285731,29.4755004 19.2807018,29.4605318 19.2760819,29.4453312 C19.2708772,29.428274 19.2657895,29.4111007 19.2602924,29.3941595 C19.2502339,29.36283 19.2395322,29.3318485 19.2284795,29.3009831 C19.2234503,29.2870588 19.2188304,29.2729605 19.2136257,29.2590943 C19.1971345,29.2150008 19.1798246,29.1712554 19.161462,29.1280902 C19.1588304,29.1218824 19.155848,29.1157905 19.1530994,29.1095826 C19.1369591,29.0724512 19.1202339,29.035668 19.1026901,28.9992329 C19.0957895,28.9848445 19.0884795,28.9707462 19.081345,28.9564738 C19.0673099,28.9283932 19.052924,28.9003707 19.0380702,28.8727542 C19.0297076,28.8573215 19.0212865,28.8419468 19.0126901,28.8266882 C18.9977193,28.8 18.9823977,28.7736019 18.9666667,28.7473779 C18.9579532,28.7328735 18.9494152,28.7183691 18.9404678,28.7040387 C18.9224561,28.6750298 18.9038596,28.6464851 18.8849123,28.6181144 C18.8778363,28.6074972 18.8709942,28.5966479 18.8638012,28.5861467 C18.8373684,28.5475649 18.8101754,28.5096213 18.7821637,28.4723159 C18.7767836,28.4651797 18.7711111,28.4583336 18.7656725,28.4511974 C18.7426316,28.4211442 18.7191813,28.3913811 18.6950877,28.3621402 C18.6850292,28.3498985 18.6746199,28.3379468 18.6644444,28.3259371 C18.6440936,28.3020338 18.6235673,28.2783626 18.6025731,28.2550975 C18.5911696,28.2424496 18.5796491,28.2299178 18.5680117,28.217444 C18.5467836,28.194643 18.5251462,28.1722482 18.5032749,28.1500854 C18.4919883,28.1385979 18.4807602,28.1271104 18.4692398,28.1157969 C18.4434503,28.0904432 18.417076,28.0656696 18.3904094,28.0412442 C18.3825731,28.03405 18.3749708,28.0266237 18.367076,28.0195455 C18.3322222,27.988216 18.2966667,27.9576406 18.2604678,27.9278775 C18.2522222,27.9210894 18.2436842,27.9147075 18.2353801,27.9079774 C18.207193,27.8852345 18.178655,27.8628977 18.1497076,27.841141 C18.1368421,27.8315101 18.1237427,27.8221112 18.1107018,27.8126543 C18.0853216,27.7942047 18.0597661,27.7761031 18.0338596,27.7584077 C18.019883,27.7488348 18.0057895,27.7393779 17.9915789,27.7300371 C17.9650877,27.7125737 17.9382456,27.6955745 17.9111696,27.6788654 C17.8978363,27.6705689 17.8845029,27.6622143 17.8710526,27.6541499 C17.8377778,27.6342498 17.8040351,27.6151039 17.77,27.5964222 C17.7626316,27.592361 17.7554971,27.5880677 17.7481287,27.5840645 C17.7064912,27.5616696 17.6642105,27.5402611 17.6215205,27.5196068 C17.6102339,27.5141531 17.5987135,27.5091636 17.5873684,27.5038259 C17.5556725,27.4890314 17.5238012,27.474585 17.4915789,27.4608348 C17.4761988,27.4542788 17.4607018,27.4480129 17.4452047,27.441689 C17.4160819,27.4297373 17.3867251,27.4182498 17.357193,27.4071684 C17.3409357,27.4011346 17.3247368,27.3951007 17.3083626,27.389299 C17.2776608,27.3783916 17.2466667,27.3680645 17.2155556,27.3580274 C17.2007018,27.3532119 17.1859064,27.3482804 17.1709357,27.343697 C17.130117,27.3312232 17.0888889,27.3196777 17.0473684,27.3087703 C17.0421053,27.3073779 17.037076,27.3058114 17.0318129,27.304477 C16.9850877,27.2925254 16.9377778,27.2817921 16.8902339,27.2719871 C16.8761404,27.2690862 16.8618713,27.2666495 16.8476608,27.2639226 C16.8138596,27.2574247 16.779883,27.2512168 16.7456725,27.2458211 C16.7281871,27.2430363 16.7105848,27.2405415 16.6929825,27.2381048 C16.6612281,27.2335794 16.6292982,27.2295181 16.5972515,27.225979 C16.5792398,27.2240064 16.5612865,27.2220338 16.5430994,27.2203513 C16.5092398,27.2171604 16.4752047,27.2147816 16.4410526,27.212635 C16.4251462,27.2116487 16.4093567,27.2104303 16.3934503,27.2096761 C16.3435673,27.2072393 16.2934503,27.2057309 16.2429825,27.2057309 C16.1925146,27.2057309 16.1423977,27.2072393 16.0925146,27.209502 C16.0765497,27.2102562 16.0607602,27.2114746 16.0449123,27.2124609 C16.0107602,27.2145496 15.9767251,27.2170443 15.9428655,27.2201773 C15.9247953,27.2219178 15.9067836,27.2238324 15.8887135,27.225805 C15.8566667,27.2293441 15.8247368,27.2334053 15.7929825,27.2379307 C15.7754386,27.2404255 15.7577778,27.2429202 15.7402924,27.2456471 C15.7060819,27.2511007 15.6721637,27.2572506 15.6383041,27.2637486 C15.624152,27.2664754 15.609883,27.2689122 15.595731,27.2718131 C15.5481871,27.281618 15.5008772,27.2923513 15.454152,27.304303 C15.4488889,27.3056374 15.4438596,27.3072039 15.4385965,27.3085963 C15.397076,27.3194456 15.355848,27.3310492 15.3150292,27.343523 C15.3000585,27.3481064 15.2853216,27.3530379 15.2704094,27.3578533 C15.2392398,27.3678324 15.2083041,27.3781595 15.1776023,27.3891249 C15.1612281,27.3949267 15.1450292,27.4009605 15.1287719,27.4069944 C15.0991813,27.4180757 15.069883,27.4296213 15.0407602,27.4415149 C15.0252632,27.4478388 15.0097076,27.4541048 14.994386,27.4606608 C14.9621637,27.474411 14.9302924,27.4888574 14.8985965,27.5036519 C14.8872515,27.5089895 14.875731,27.513921 14.8644444,27.5194327 C14.8216959,27.539971 14.7794737,27.5614376 14.7378363,27.5838904 C14.7304678,27.5878936 14.7232749,27.5921869 14.7159649,27.5962482 C14.6819298,27.6149299 14.6481871,27.6341338 14.6149123,27.6539178 C14.6014035,27.6619823 14.5881287,27.6703948 14.5747953,27.6786334 C14.5477193,27.6952844 14.5208772,27.7123417 14.494386,27.729805 C14.4802339,27.7391459 14.4661404,27.7486608 14.4521053,27.7581757 C14.4261988,27.7758711 14.4005848,27.7939726 14.3752632,27.8124222 C14.3622222,27.8218791 14.3491813,27.831278 14.3362573,27.8409089 C14.3072515,27.8626656 14.2787135,27.8850024 14.2505848,27.9077454 C14.2422807,27.9144174 14.2338012,27.9209154 14.2254971,27.9276454 C14.1892982,27.9574085 14.1536842,27.9880419 14.1188304,28.0193135 C14.1109357,28.0263916 14.1033333,28.0338179 14.0954971,28.0410121 C14.0688304,28.0654376 14.0424561,28.0902691 14.0166667,28.1155649 C14.0051462,28.1268203 13.9939181,28.1383658 13.9826316,28.1498533 C13.9607602,28.1720161 13.9391228,28.194411 13.9178947,28.2172119 C13.9062573,28.2296857 13.8947368,28.2422176 13.8833333,28.2548654 C13.8623392,28.2781886 13.8417544,28.3018018 13.821462,28.3257051 C13.8112281,28.3377728 13.8008772,28.3497244 13.7908187,28.3619081 C13.7667251,28.3910911 13.7433333,28.4208541 13.7202339,28.4509654 C13.7147953,28.4580435 13.7091228,28.4649476 13.7037427,28.4720838 C13.6756725,28.5093892 13.6484795,28.5473908 13.6221053,28.5859146 C13.6149123,28.5964738 13.6080702,28.6072651 13.6009942,28.6178824 C13.5820468,28.646195 13.5634503,28.6747977 13.5454386,28.7038066 C13.5364912,28.718137 13.5279532,28.7326414 13.5192398,28.7471459 C13.5035088,28.7733699 13.4881287,28.7997679 13.4732164,28.8264561 C13.4646199,28.8417728 13.4561988,28.8570894 13.4478363,28.8725222 C13.4329825,28.9001966 13.4185965,28.9281612 13.4045614,28.9562417 C13.3974269,28.9705141 13.390117,28.9846124 13.3832164,28.9990008 C13.365731,29.0353779 13.3489474,29.0721612 13.332807,29.1093505 C13.330117,29.1155584 13.327193,29.1216503 13.3244444,29.1278582 C13.3060819,29.1710234 13.2887719,29.2147687 13.2722807,29.2588622 C13.267076,29.2727284 13.2624561,29.2868268 13.2574269,29.300751 C13.2463743,29.3316745 13.2356725,29.3625979 13.225614,29.3939275 C13.220117,29.4108687 13.2150292,29.4279839 13.2098246,29.4450991 C13.2052047,29.4602998 13.2001754,29.4753263 13.1957895,29.490585 L11.348655,29.490585 C11.189883,29.490643 11.0607602,29.3624819 11.0607602,29.2050218 L11.0607602,17.7801708 C11.0607602,17.6226527 11.189883,17.4945496 11.348655,17.4945496 L28.9105263,17.4945496 C29.0692982,17.4945496 29.1984211,17.6226527 29.1984211,17.7801708 L29.1984211,27.3246092 C29.188538,27.327394 29.1790058,27.3309911 29.1691813,27.333834 C29.1247368,27.34683 29.0807602,27.3608703 29.037076,27.3757228 C29.0218129,27.3809444 29.0064327,27.3857019 28.9912865,27.3911555 C28.9339181,27.4116358 28.8773099,27.4336245 28.8215789,27.4572377 C28.8100585,27.4621112 28.7988889,27.4675649 28.7874269,27.4725544 C28.742807,27.4921064 28.698655,27.5125866 28.6550877,27.5340532 C28.6374854,27.5427558 28.62,27.5517486 28.6025731,27.5607994 C28.5634503,27.5811056 28.5248538,27.602166 28.4866667,27.6239807 Z M30.0621053,31.7758453 C29.2683626,31.7758453 28.6226316,31.1352135 28.6226316,30.3477389 C28.6226316,29.5602643 29.2683626,28.9196326 30.0621053,28.9196326 C30.855848,28.9196326 31.5015789,29.5602643 31.5015789,30.3477389 C31.5015789,31.1352135 30.8557895,31.7758453 30.0621053,31.7758453 Z M37.5474854,29.2051958 C37.5474854,29.3627139 37.4183626,29.4908171 37.2595906,29.4908171 L33.1092982,29.4908171 C33.1066082,29.4813022 33.1030409,29.4720774 33.1001754,29.4626205 C33.0869591,29.4178888 33.0726316,29.3736793 33.0574269,29.3298759 C33.0523392,29.3151974 33.0476608,29.3003449 33.0423392,29.2857244 C33.0216374,29.228635 32.9994152,29.1723578 32.9755556,29.1168348 C32.9707602,29.1057534 32.9654971,29.0950201 32.9605848,29.0839968 C32.9407018,29.0393811 32.9199415,28.9952877 32.8981287,28.9517744 C32.8893567,28.9343691 32.8804094,28.9171378 32.871345,28.8999645 C32.8508772,28.8610927 32.8295906,28.8226849 32.8075439,28.7847413 C32.7987135,28.7695407 32.7902339,28.754282 32.7811696,28.7392554 C32.7503509,28.6881998 32.7184211,28.6378405 32.6848538,28.5887575 C32.68,28.5816213 32.6747368,28.5748332 32.6698246,28.5678131 C32.6404678,28.5255181 32.61,28.4840935 32.5785965,28.443365 C32.5667836,28.4280483 32.5546199,28.4130218 32.5426316,28.3978791 C32.5159064,28.3645189 32.488538,28.3317389 32.4605263,28.2994811 C32.4481871,28.2853247 32.4360819,28.2709944 32.4234503,28.2570121 C32.3845614,28.2139049 32.3449123,28.171552 32.3037427,28.1305915 C32.3015789,28.1284448 32.2993567,28.1262401 32.297193,28.1240935 C32.2559064,28.083249 32.2132164,28.043855 32.1697076,28.0053312 C32.1556725,27.9928574 32.1412865,27.9807897 32.1269006,27.9685479 C32.0944444,27.9407575 32.0614035,27.9136052 32.0277778,27.8870911 C32.0125146,27.8750814 31.9973684,27.8630717 31.9818713,27.8512941 C31.9408772,27.8201386 31.8990643,27.7900274 31.8565497,27.7608445 C31.8493567,27.755913 31.8425146,27.7506914 31.8352632,27.7458179 C31.785731,27.7125157 31.7350877,27.680838 31.6836257,27.6503207 C31.6684795,27.6412699 31.6529825,27.6328574 31.6376023,27.6240387 C31.5994152,27.602224 31.5608187,27.5811056 31.5216959,27.5608574 C31.504269,27.5518066 31.4867836,27.5428719 31.4691813,27.5341112 C31.4256725,27.5125866 31.381462,27.4921064 31.3368421,27.4726124 C31.3253801,27.4675649 31.3142105,27.4621692 31.3026901,27.4572957 C31.2469591,27.4336245 31.1903509,27.4116938 31.1329825,27.3912135 C31.1178363,27.3857599 31.1023977,27.3810024 31.087193,27.3757808 C31.0435673,27.3609283 30.9995322,27.346946 30.9550877,27.333892 C30.9452632,27.3310492 30.935731,27.3274521 30.925848,27.3246672 L30.925848,24.3497502 L36.8163158,24.3497502 L37.5474854,25.9618308 L37.5474854,29.2051958 L37.5474854,29.2051958 Z" id="Shape"></path>
                    </g>
                </g>
            </g>
        </g>
    </g>
</svg>