<?xml version="1.0" encoding="UTF-8"?>
<svg width="48px" height="48px" viewBox="0 0 48 48" version="1.1" xmlns="http://www.w3.org/2000/svg" xmlns:xlink="http://www.w3.org/1999/xlink">
    <!-- Generator: Sketch 55 (78076) - https://sketchapp.com -->
    <title>discount</title>
    <desc>Created with Sketch.</desc>
    <g id="Page-1" stroke="none" stroke-width="1" fill="none" fill-rule="evenodd">
        <g id="Страница-товара" transform="translate(-1388.000000, -304.000000)" fill="#808080" fill-rule="nonzero">
            <g id="выгоды" transform="translate(1388.000000, 304.000000)">
                <g id="Group-11">
                    <g id="Group-4">
                        <path d="M37.2449285,24.6622171 L38.3575681,26.9422755 C38.9770477,28.2117891 38.4862185,29.7250381 37.2401507,30.387256 L35.0021697,31.5767502 C34.7607754,31.7050965 34.5952429,31.9333649 34.5479895,32.2030148 L34.1102401,34.7026451 C33.8665152,36.094435 32.5819339,37.0297463 31.1848418,36.8317696 L28.6763336,36.4763221 C28.40569,36.4382677 28.1379014,36.5252327 27.9414298,36.7155634 L26.1205139,38.480077 C25.6137198,38.9712832 24.9629515,39.2168863 24.3125328,39.2169447 C23.6619393,39.2170031 23.0115789,38.9714 22.5045518,38.480077 L20.6836941,36.7155634 C20.4872225,36.5252327 20.2193174,36.4378591 19.9487903,36.4763221 L17.4402821,36.8317696 C17.3150694,36.8495128 17.1904976,36.8581509 17.067732,36.8581509 C15.8212564,36.8582677 14.7367008,35.9697074 14.5148255,34.7027035 L14.0771345,32.2029564 C14.0298811,31.9333649 13.8643485,31.7050381 13.622896,31.5767502 L11.3849149,30.387256 C10.1388472,29.7249797 9.64801792,28.2118474 10.2674976,26.9423338 L11.3801372,24.6623338 C11.5001643,24.4163805 11.5001643,24.1342404 11.3801372,23.8882288 L10.2675559,21.6082288 C9.64807619,20.3387151 10.1389055,18.8254661 11.3849732,18.1632482 L13.6229542,16.9737541 C13.8643485,16.8454077 14.0298811,16.6171393 14.0771345,16.3474895 L14.5148255,13.8478591 C14.7585504,12.4560692 16.0433065,11.5206996 17.4402239,11.7187346 L19.948732,12.0741821 C20.2194339,12.1123533 20.4871643,12.0253299 20.6836358,11.8349408 L22.5045518,10.0702521 C23.5183729,9.08766456 25.1066927,9.08772292 26.1205721,10.0702521 L27.9414298,11.8347657 C28.1378431,12.0250965 28.4055735,12.1122949 28.6763336,12.074007 L31.1848418,11.7185595 C32.581293,11.5206412 33.8665152,12.4558941 34.1102401,13.847684 L34.5479312,16.3474311 C34.5951846,16.6170225 34.7607171,16.8453494 35.0021697,16.9736373 L37.2401507,18.1631315 C38.4862185,18.8254077 38.9770477,20.33854 38.3575681,21.6080537 L37.2449285,23.888112 C37.1249014,24.1340653 37.1249014,24.4162054 37.2449285,24.6622171 Z M36.4336968,28.8646685 C36.8553065,28.6406023 37.0213635,28.1286179 36.8117239,27.6989875 L35.6990843,25.4189875 C35.3443635,24.692042 35.3443635,23.858112 35.6990843,23.1311665 L36.8117239,20.8511665 C37.0213052,20.4216529 36.8552483,19.9097268 36.4336385,19.6856607 L34.1956575,18.4961665 C33.4820789,18.1169642 32.9927645,17.4423144 32.8531602,16.6452716 L32.4154691,14.1455245 C32.3330233,13.6746295 31.8980708,13.3582288 31.4257117,13.4251743 L28.9172036,13.7806218 C28.1173919,13.8940264 27.3256209,13.6362832 26.7450044,13.0736373 L24.9241466,11.3091237 C24.5810789,10.9767891 24.0436954,10.9767891 23.7007442,11.3091237 L21.8798282,13.0736373 C21.2992117,13.6362249 20.5073242,13.8940264 19.707629,13.7806218 L17.1991209,13.4251743 C16.7264122,13.3582871 16.2918675,13.6746295 16.2093635,14.1455245 L15.7716724,16.6452132 C15.6321263,17.442256 15.1427537,18.1168474 14.4292334,18.4961665 L12.1912523,19.6856607 C11.7696426,19.9097268 11.6035857,20.4216529 11.813167,20.8511665 L12.9258065,23.1312249 C13.2805274,23.8582288 13.2805274,24.692042 12.9258065,25.4190459 L11.813167,27.6991042 C11.6035857,28.1286179 11.7696426,28.6405439 12.1912523,28.8646101 L14.4292334,30.0541042 C15.142812,30.4333066 15.6321263,31.1079564 15.7717307,31.9049992 L16.20948,34.4047463 C16.291984,34.8756412 16.7269366,35.1919836 17.1992374,35.1250965 L19.7077456,34.769649 C19.8316182,34.7520809 19.955316,34.7434428 20.0780233,34.7434428 C20.7477279,34.7434428 21.389232,35.0011276 21.8799448,35.4766334 L23.7008025,37.241147 C24.0438702,37.5734817 24.5812537,37.5734817 24.9242049,37.241147 L26.7451209,35.4766918 C27.3257374,34.9141042 28.1173336,34.656186 28.9173201,34.7697074 L31.4258282,35.1251548 C31.8985369,35.1919836 32.3331399,34.8756996 32.4155857,34.4048046 L32.8532767,31.9051159 C32.9928228,31.1080731 33.4821954,30.4334817 34.1957158,30.0541626 L36.4336968,28.8646685 Z M30.5984569,17.9783455 C30.9344746,18.3149408 30.9344746,18.8605439 30.5983987,19.1971393 L19.2430775,30.5719836 C19.0751561,30.7403105 18.8549122,30.8244155 18.6347849,30.8244155 C18.4146575,30.8244155 18.1944719,30.7402521 18.0264922,30.5719836 C17.6905328,30.2354467 17.6905328,29.6897852 18.0264922,29.3532482 L29.3818133,17.9783455 C29.7177727,17.6418085 30.2625559,17.6418085 30.5984569,17.9783455 Z M20.8713092,16.5192015 C22.6106534,16.5192015 24.0257496,17.9367307 24.0257496,19.6790653 C24.0257496,21.4214 22.6106534,22.8389292 20.8713092,22.8389292 C19.1319651,22.8389292 17.7168689,21.4214 17.7168689,19.6790653 C17.7168689,17.9367307 19.1319651,16.5192015 20.8713092,16.5192015 Z M20.8713092,21.1153299 C21.6619149,21.1153299 22.3051087,20.4710303 22.305167,19.679007 C22.305167,18.887042 21.6619149,18.2427424 20.8713092,18.2427424 C20.0807036,18.2427424 19.4375098,18.887042 19.4375098,19.679007 C19.4375098,20.4710303 20.0807036,21.1153299 20.8713092,21.1153299 Z M27.7536399,25.7114583 C29.492984,25.7114583 30.9080803,27.1289875 30.9080803,28.8713221 C30.9080803,30.6136568 29.492984,32.031186 27.7536399,32.031186 C26.0142957,32.031186 24.5991995,30.6136568 24.5991995,28.8713221 C24.5991995,27.1289875 26.0142957,25.7114583 27.7536399,25.7114583 Z M27.7536399,30.3075867 C28.5442456,30.3075867 29.1874393,29.6632871 29.1874393,28.8713221 C29.1874393,28.0793572 28.5442456,27.4350576 27.7536399,27.4350576 C26.9629759,27.4350576 26.3197821,28.0793572 26.3197821,28.8713221 C26.3197821,29.6632871 26.9630342,30.3075867 27.7536399,30.3075867 Z" id="Combined-Shape"></path>
                    </g>
                </g>
            </g>
        </g>
    </g>
</svg>