<svg width="30" height="30" xmlns="http://www.w3.org/2000/svg">
	<g transform="translate(7 7)" fill="none" fill-rule="evenodd">
		<path d="M5.174 8.432h.978V3.696h2.52c.468 0 .895.057 1.281.17a2.7 2.7 0 0 1 .992.52c.275.233.49.527.647.883.156.357.234.782.234 1.277 0 .495-.083.926-.248 1.292-.165.366-.39.67-.675.913-.284.242-.62.423-1.005.542a4.239 4.239 0 0 1-1.253.178H7.254v1.5H9.47v.98H7.254v2.092H6.152V11.95h-.978v-.98h.978v-1.5h-.978V8.433zm3.498 0c.634 0 1.132-.156 1.494-.468.363-.312.545-.784.545-1.418 0-.633-.182-1.094-.545-1.38-.362-.288-.86-.431-1.494-.431H7.254v3.697h1.418z" fill="#D62626"/>
		<rect stroke="#D62626" stroke-width="1.5" x=".75" y=".75" width="15.5" height="15.5" rx="2"/>
	</g>
</svg>