<svg xmlns="http://www.w3.org/2000/svg" width="15" height="13" viewBox="0 0 15 13">
    <path fill="gray" fill-rule="nonzero" d="M7.492 9.134c.422 0 .77.33.751.747.019.379-.348.71-.751.71-.42 0-.77-.331-.77-.728 0-.396.35-.729.77-.729zm7.127 2.583c-.487.796-1.352 1.27-2.316 1.27H2.668c-.96 0-1.82-.468-2.3-1.25a2.393 2.393 0 0 1-.01-2.533l4.83-7.913C5.665.5 6.528.026 7.495.026c.967 0 1.83.472 2.307 1.268l4.823 7.905c.48.787.477 1.728-.006 2.518zm-1.047-.571c.264-.435.268-.948.009-1.373L8.754 1.862a1.452 1.452 0 0 0-1.26-.694c-.53 0-.997.257-1.26.691L1.406 9.77c-.265.438-.262.957.003 1.391.262.429.733.682 1.257.682H12.3c.53 0 1.004-.26 1.272-.696zM7.3 4.019a.785.785 0 0 1 .89.411c.052.117.07.233.07.364-.018.365-.052.729-.07 1.093-.034.563-.071 1.125-.105 1.688-.018.184-.018.35-.018.53a.562.562 0 0 1-.576.531c-.315 0-.558-.216-.576-.513l-.158-2.615c-.018-.23-.033-.463-.052-.693 0-.382.228-.697.595-.796z"/>
</svg>
