<svg width="891px" height="118px" viewBox="0 0 891.394 118.282" xml:space="preserve" xmlns="http://www.w3.org/2000/svg" xmlns:xlink="http://www.w3.org/1999/xlink">
<polygon points="249 15 284 55.5 223 95.5" fill="#E21F26"/>
<path d="m73.5 0.147h-6.78c-14.2 0.399-27.2 7.93-34.6 20.1-1.05 1.94-1.93 3.96-2.65 6.04l-29.4 91.8h19.9c20-2.02 36.7-16 42.1-35.4l4.42-13.3h94.7l-16.1 48.5h51l39-118h-162l0.5 0.147zm96.5 44.2h-95l5.6-17.5h94l-5 17.5z" fill="#010101"/>
<path d="m462 25.2l-19.6 59.7c-5.37 11.8-0.186 25.7 11.6 31 2.93 1.34 6.11 2.06 9.34 2.11h142c18.7-2.71 34.5-15.3 41.2-33v-1.62l15.9-49.2c5.3-18.6-4.12-33.9-21.4-33.9h-140c-17 0.006-32 9.7-39 24.9zm131 66.3h-103l21.2-65.5h103l-21 65.5z" fill="#010101"/>
<path d="m657 118h20.5c20.1-2.01 36.9-16.2 42.3-35.6l18.6-56.4h100l-6.78 19.6h-74.8l49.5 72.5h59.8l-32.3-47.1h21.2c4.15-0.563 8.15-1.91 11.8-3.98 6.12-3.12 11.2-7.93 14.7-13.8 2.92-6.13 5.33-12.5 7.22-19l1.18-3.83c0.561-1.73 0.955-3.5 1.18-5.3 1.72-11.8-6.48-22.8-18.3-24.5-1.35-0.196-2.71-0.264-4.08-0.204h-174l-38 118z" fill="#010101"/>
<path d="m361 118h61.1l-51.1-58.9 90.7-58.9h-39.2c-18.1 0-22.7 0.736-51.4 19.6l-22.1 14.7-12.5-14.7c-14.7-17.4-19.6-19.3-34.5-19.6h-44l51.3 58.9-90.4 58.9h47c12.2 0 19.3-3.68 43.2-19.3l22.1-14.7 28.6 33.7h-1z" fill="#010101"/>
</svg>