<?xml version="1.0" encoding="UTF-8"?>
<svg width="93px" height="93px" viewBox="0 0 93 93" version="1.1" xmlns="http://www.w3.org/2000/svg" xmlns:xlink="http://www.w3.org/1999/xlink">
    <g id="демонтаж-старых-изделий" stroke="none" stroke-width="1" fill="none" fill-rule="evenodd">
        <rect id="Rectangle-59" fill="#FFFFFF" opacity="0" x="0" y="0" width="93" height="93"></rect>
        <g id="tools-(1)" transform="translate(23.500000, 24.000000)" fill="#DA3838" fill-rule="nonzero">
            <path d="M44.4961967,40.563452 C44.4961967,40.3387237 44.3463485,40.1888756 44.1965882,40.0391153 L40.9005444,37.7918326 L27.7914248,24.6826253 L28.840186,23.6338641 C28.9900341,23.484016 29.0649143,23.3342557 29.0649143,23.1095274 C29.0649143,22.8847992 28.9900341,22.734951 28.840186,22.5851907 L27.0359516,20.7809563 L29.0423536,18.5350782 C29.5968004,18.8480299 30.1922425,19.0542356 30.7878602,19.1392988 C31.2373167,19.214179 31.5369252,19.214179 31.8366214,19.214179 C32.435926,19.214179 32.5856863,19.214179 33.184991,19.7385156 C32.8853826,19.9632439 32.7355345,20.3378203 32.7355345,20.7123089 C32.7355345,21.0867975 32.8853826,21.5363418 33.184991,21.8359502 L35.80685,24.4578092 C36.1814264,24.9072658 36.7806432,25.131994 37.3799479,25.131994 C37.9792525,25.131994 38.5784694,24.9072658 38.9530457,24.3829291 L44.271644,19.0643308 C44.7211005,18.6897545 44.9458288,18.0905376 44.9458288,17.491233 C44.9458288,16.8919283 44.7211005,16.3675917 44.271644,15.9181351 L41.6497849,13.2962761 C41.3501765,12.9966677 40.9756001,12.8468196 40.6010238,12.8468196 C40.2264474,12.8468196 39.8519588,13.0715478 39.5522626,13.2962761 C38.952958,12.7719394 38.952958,12.6220913 38.952958,12.0227867 C38.952958,11.7231782 38.952958,11.3486019 38.8031098,10.8991453 C38.6532617,9.85038416 38.128925,8.80171077 37.3048921,7.97767787 L34.608153,5.28093868 C33.0350551,3.70784082 32.2859901,2.95877586 30.2634357,2.0598628 C25.9187185,0.0373084035 21.4990334,0.411884775 15.0567938,3.33335223 C14.6822174,3.48320034 14.5324571,3.78280876 14.6073373,4.15738514 C14.6822174,4.53196151 14.9819137,4.75668977 15.3564022,4.75668977 L16.3301955,4.75668977 C19.6262393,4.75668977 21.3490975,4.75668977 24.3455329,7.75303739 C25.6575597,9.06506421 25.6953948,11.0768211 24.5198729,12.557043 C24.3614219,12.5809204 24.240806,12.6520258 24.1208046,12.7720272 L21.7490436,15.4191681 L7.26618467,0.936397036 C6.06766318,-0.262124454 4.11998895,-0.262124454 2.92146746,0.936397036 L0.898913064,2.95895143 C0.299608426,3.55816828 0,4.30732103 0,5.13126614 C0,5.95521126 0.299608426,6.70436401 0.898913064,7.30366864 L15.731242,22.1359975 L0.898913064,38.6907457 C0.299608426,39.2899626 0,40.1139955 0,40.9380284 C0,41.7620613 0.299608426,42.5111262 0.898913064,43.1104309 L1.94767423,44.159192 C2.54697887,44.6835287 3.22116367,44.9832249 4.04510879,44.9832249 C4.86905391,44.9832249 5.61820665,44.6086486 6.21751129,44.0843119 L21.0979461,27.4278215 L22.5477945,28.87767 C22.6976426,29.0275181 22.847403,29.1023982 23.0721312,29.1023982 C23.2968595,29.1023982 23.4467076,29.0275181 23.5215878,28.9525501 L24.6452291,27.8289088 L37.7543487,40.9380284 L40.0016313,44.2340722 C40.1514794,44.3839203 40.3012398,44.5336806 40.525968,44.5336806 L44.1216203,44.9831372 L44.1965004,44.9831372 C44.4212287,44.9831372 44.5710768,44.908257 44.7958051,44.8332891 C44.9456532,44.6834409 45.0205333,44.4587127 45.0205333,44.2339844 L44.4961967,40.563452 Z M25.3194139,6.55460368 C22.9222831,4.23235308 21.124457,3.48328812 19.1019026,3.25855986 C23.3717397,1.91019026 26.5179354,1.98507042 29.6641311,3.40840796 C31.4619572,4.15747292 32.0612619,4.75677756 33.6343597,6.32987542 L36.3310989,9.02661461 C36.9304036,9.62591925 37.3048921,10.3749842 37.3798601,11.1240492 C37.4547403,11.4986255 37.4547403,11.798234 37.4547403,12.0229622 C37.4547403,12.8469951 37.5296204,13.446212 38.4285335,14.345125 C38.7281419,14.6447335 39.1775984,14.7945816 39.5521748,14.7945816 C40.0016313,14.7945816 40.3762077,14.6447335 40.600936,14.345125 L43.222795,16.9669841 C43.3726431,17.1168322 43.4475233,17.2665925 43.4475233,17.4913208 C43.4475233,17.716049 43.3726431,17.8658971 43.222795,18.0156575 L37.9041968,23.3342557 C37.6045884,23.6338641 37.1551318,23.6338641 36.8554356,23.3342557 L34.2335766,20.7123967 C34.533185,20.4876684 34.6830331,20.113092 34.608153,19.6636355 C34.608153,19.2890591 34.4583048,18.8396026 34.1586964,18.5399942 C33.2597834,17.6410811 32.6604787,17.5662009 31.8365336,17.5662009 C31.6118053,17.5662009 31.3121969,17.5662009 30.9376205,17.4913208 C30.1135876,17.4164406 29.4394028,17.0418642 28.840186,16.4425596 L25.6191101,13.2214837 C27.2670003,11.1989293 27.11724,8.35242981 25.3194139,6.55460368 Z M1.94767423,6.25490747 C1.64806581,5.95529905 1.4982177,5.58072268 1.4982177,5.13126614 C1.4982177,4.68180961 1.64806581,4.30723324 1.94767423,4.00762481 L3.97022863,1.98507042 C4.26983705,1.68546199 4.71929358,1.53561389 5.09386996,1.53561389 C5.46844633,1.53561389 5.91790286,1.68546199 6.21751129,1.98507042 L20.7498806,16.5175275 L19.689093,17.7184192 L16.7577059,20.9902345 L1.94767423,6.25490747 Z M5.16875012,43.0354629 C4.86914169,43.3350714 4.49456532,43.4849195 4.04510879,43.4849195 C3.67053242,43.4849195 3.29604383,43.3350714 2.99634762,43.0354629 L1.94758645,42.0616697 C1.64797802,41.7620613 1.49812992,41.3874849 1.49812992,41.0129085 C1.49812992,40.563452 1.64797802,40.1888756 2.02246661,39.814387 L24.6846443,14.4596838 L27.8662172,17.6412567 L25.6482545,20.1227483 C25.5856642,20.158301 25.5272875,20.2049146 25.4690864,20.2631157 L20.5250646,25.8064422 C20.4571194,25.8743874 20.4054143,25.9502332 20.3683693,26.0300292 L5.16875012,43.0354629 Z M23.0721312,27.3044843 L22.098338,26.3306911 L23.5864605,24.6422444 L26.0115067,21.9277728 L27.2671759,23.1095274 L23.0721312,27.3044843 Z M26.8175438,25.7313864 L39.3274465,38.3910495 L38.2786854,39.4398107 L25.6939025,26.7801476 L26.8175438,25.7313864 Z M41.0503925,43.1103431 L39.3274465,40.563452 L40.600936,39.2899626 L43.0729469,41.0129085 L43.3725553,43.4100393 L41.0503925,43.1103431 Z" id="Shape"></path>
            <path d="M17.753533,16.7422558 L5.01890201,4.00762481 C4.71929358,3.70801639 4.26983705,3.70801639 3.97014084,4.00762481 C3.67044463,4.30723324 3.67053242,4.75668977 3.97014084,5.05638598 L16.7047718,17.791017 C16.8546199,17.9408651 17.0043803,18.0157452 17.2291085,18.0157452 C17.4538368,18.0157452 17.6036849,17.9408651 17.7534452,17.791017 C18.0531414,17.4913208 18.0531414,17.0418642 17.753533,16.7422558 Z" id="Shape"></path>
        </g>
    </g>
</svg>