<?xml version="1.0" encoding="UTF-8"?>
<svg width="93px" height="93px" viewBox="0 0 93 93" version="1.1" xmlns="http://www.w3.org/2000/svg" xmlns:xlink="http://www.w3.org/1999/xlink">
    <g id="погрузка-и-выгрузка-(только-в-случае-установки-изделия-нашими-силами)" stroke="none" stroke-width="1" fill="none" fill-rule="evenodd">
        <rect id="Rectangle-59" fill="#FFFFFF" opacity="0" x="0" y="0" width="93" height="93"></rect>
        <g id="window-cleaning" transform="translate(28.000000, 24.000000)" fill="#DA3838" fill-rule="nonzero" stroke="#DA3838" stroke-width="0.599999964">
            <path d="M20.0969738,10.9506173 C20.0969738,13.1283085 21.8288909,14.8999941 23.9577412,14.8999941 C26.086681,14.8999941 27.8186876,13.1284 27.8186876,10.9506173 C27.8186876,8.77310916 26.086681,7.00151507 23.9577412,7.00151507 C21.8288909,7.00160661 20.0969738,8.77310916 20.0969738,10.9506173 Z M27.0579365,10.9506173 C27.0579365,12.6992334 25.6671938,14.1218549 23.9577412,14.1218549 C22.2483781,14.1218549 20.8577249,12.6992334 20.8577249,10.9506173 C20.8577249,9.20209272 22.2483781,7.77965427 23.9577412,7.77965427 C25.6671938,7.77974581 27.0579365,9.20218426 27.0579365,10.9506173 Z" id="Shape"></path>
            <path d="M35.212652,23.8946424 L31.933367,20.7145248 L31.933367,0.728797675 C31.933367,0.513848165 31.7631377,0.339728077 31.5529914,0.339728077 L0.406943528,0.339728077 C0.196886705,0.339728077 0.0265679433,0.513848165 0.0265679433,0.728797675 L0.0265679433,29.2910835 C0.0265679433,29.506033 0.196886705,29.6801531 0.406943528,29.6801531 L18.8258033,29.6801531 L18.8258033,42.0835088 C18.8258033,43.4247462 19.892645,44.5158804 21.204001,44.5158804 C22.5152675,44.5158804 23.5820196,43.4247462 23.5820196,42.0835088 L23.5820196,32.0766388 C23.840138,32.1000745 24.0758814,32.0999829 24.3334628,32.0767303 L24.3334628,42.0835088 C24.3334628,43.4247462 25.4002149,44.5158804 26.7114814,44.5158804 C28.0228375,44.5158804 29.0896791,43.4247462 29.0896791,42.0835088 L29.0897686,29.6801531 L31.5529914,29.6801531 C31.7631377,29.6801531 31.933367,29.506033 31.933367,29.2910835 L31.933367,26.2262221 L32.5189664,26.8085448 C32.8971939,27.1743618 33.3814792,27.3556225 33.8649589,27.3556225 C34.3854917,27.3556225 34.9051295,27.1453418 35.2902486,26.7288085 C36.0327418,25.9253111 35.9976577,24.6538316 35.212652,23.8946424 Z M31.1727053,19.9767573 L28.2319098,17.1249229 C28.2243918,17.1175993 28.2157102,17.1123812 28.2077447,17.1058814 C27.1358911,15.9526791 25.3040023,15.2092358 23.9577412,15.2092358 C23.0146783,15.2092358 21.8328289,15.5739542 20.8410779,16.1886842 L16.1814323,11.5734948 L16.1814323,1.11786727 L31.1727053,1.11786727 L31.1727053,19.9767573 Z M18.8763709,18.6197741 L12.2533607,12.1819997 C11.7726555,11.7171302 11.751265,10.938991 12.2055677,10.4473901 C12.425738,10.2090964 12.7234154,10.0728763 13.0436469,10.0637217 C13.3653999,10.0540178 13.6685369,10.173302 13.8980153,10.3953005 L20.2049109,16.6418358 C19.5347339,17.1888219 19.0303111,17.8646129 18.8763709,18.6197741 Z M15.4205916,1.11786727 L15.4205916,10.820073 L14.4240076,9.83302629 C14.0435425,9.46492068 13.5456532,9.27120979 13.0223459,9.28567402 C12.6204008,9.29730034 12.2408307,9.43223883 11.9231052,9.67016633 L11.4062419,10.2427852 C10.9321597,11.0338324 11.0459144,12.0851442 11.7301429,12.7468372 L15.4226501,16.3361644 C15.4224114,16.3406807 15.4217551,20.5292972 15.4206811,28.9020139 L0.787319112,28.9020139 L0.787319112,1.11786727 L15.4205916,1.11786727 Z M16.1813428,28.9020139 L16.1813428,17.0735658 L18.8258033,19.6440799 L18.8258033,28.9020139 L16.1813428,28.9020139 Z M27.2851773,43.628344 L26.5244262,43.7257487 C25.7206254,43.6304496 25.0943035,42.9308567 25.0943035,42.0835088 L25.0943035,31.6322755 C25.0943035,31.5171109 25.0444519,31.4079883 24.9581737,31.3340193 C24.8891691,31.2748807 24.802533,31.2432059 24.7139279,31.2432059 C24.6917318,31.2432059 24.6694463,31.2452199 24.6473398,31.2492479 C24.4032729,31.2936476 24.1712885,31.3161679 23.9579202,31.3161679 C23.7449099,31.3161679 23.512836,31.2936476 23.2682321,31.2492479 C23.157431,31.2289248 23.0435868,31.2602334 22.9573982,31.3342024 C22.87112,31.4080799 22.8212685,31.517294 22.8212685,31.6323671 L22.8212685,42.0836004 C22.8212685,42.9405605 22.180895,43.6471109 21.3639377,43.7295937 L20.6031866,43.618274 C20.0081896,43.3736636 19.5865545,42.778616 19.5865545,42.0836919 L19.5865545,19.0990163 C19.5865545,17.4113697 22.2714691,15.9874665 23.9577412,15.9874665 C25.6440133,15.9874665 28.3290174,17.4114613 28.3290174,19.0990163 L28.3291069,42.0835088 C28.3291069,42.7889607 27.8943153,43.3909658 27.2851773,43.628344 Z M31.1726158,28.9020139 L29.0897686,28.9020139 L29.0897686,23.3985558 L31.1726158,25.4697792 L31.1726158,28.9020139 Z M34.7374063,26.1941811 C34.2829246,26.685965 33.5220839,26.7077529 33.0454957,26.2469114 L29.0897686,22.3132805 L29.0897686,19.0990163 C29.0897686,19.0492154 29.0863676,19.0000553 29.0833246,18.9508952 L34.6896132,24.459663 C35.1703184,24.9245325 35.1917985,25.7025802 34.7374063,26.1941811 Z" id="Shape"></path>
            <path d="M9.62501019,13.5787138 L3.09150015,20.2615563 C2.94292992,20.4134307 2.94292992,20.659872 3.09150015,20.8117465 C3.16578527,20.8877295 3.26316142,20.925721 3.36044806,20.925721 C3.45782421,20.925721 3.55511086,20.8877295 3.62939598,20.8117465 L10.162906,14.1289039 C10.3114762,13.9770295 10.3114762,13.7305882 10.162906,13.5787138 C10.0143358,13.4267477 9.77358042,13.4267477 9.62501019,13.5787138 Z" id="Shape"></path>
            <path d="M9.1775095,19.2545526 L2.64399946,25.9373951 C2.49542924,26.0892696 2.49542924,26.3357109 2.64399946,26.4875853 C2.71828458,26.5635683 2.81566073,26.6015598 2.91294738,26.6015598 C3.01032353,26.6015598 3.10761018,26.5635683 3.18189529,26.4875853 L9.71540533,19.8047428 C9.86397556,19.6528683 9.86397556,19.4064271 9.71540533,19.2545526 C9.5668351,19.1025866 9.32607973,19.1025866 9.1775095,19.2545526 Z" id="Shape"></path>
            <path d="M18.619774,7.5833801 C18.6939696,7.6593631 18.7913458,7.6973546 18.8887219,7.6973546 C18.9860981,7.6973546 19.0834742,7.6593631 19.1576698,7.5833801 L24.0354273,2.59413465 C24.1839976,2.44226019 24.1839976,2.19581893 24.0354273,2.04394447 C23.8870361,1.89197846 23.6459227,1.89197846 23.4975315,2.04394447 L18.619774,7.03318991 C18.4712038,7.18506437 18.4712038,7.43150563 18.619774,7.5833801 Z" id="Shape"></path>
        </g>
    </g>
</svg>