<?xml version="1.0" encoding="UTF-8"?>
<svg width="93px" height="93px" viewBox="0 0 93 93" version="1.1" xmlns="http://www.w3.org/2000/svg" xmlns:xlink="http://www.w3.org/1999/xlink">
    <g id="оптимальный-срок-изготовления-заказа" stroke="none" stroke-width="1" fill="none" fill-rule="evenodd">
        <rect id="Rectangle-59" fill="#FFFFFF" opacity="0" x="0" y="0" width="93" height="93"></rect>
        <g id="glass" transform="translate(24.000000, 24.000000)" fill="#DA3838" fill-rule="nonzero">
            <path d="M23.0715899,0.25751461 C22.9084505,0.0943752452 22.6821605,0.000526256014 22.4514849,0.000526256014 C22.2208094,0.000526256014 21.9945193,0.0943752452 21.8313799,0.25751461 C21.6683283,0.420653974 21.5743916,0.64694406 21.5743916,0.877619613 C21.5743916,1.10829517 21.6682405,1.33458525 21.8313799,1.49772462 C21.9945193,1.66086398 22.2208971,1.75471297 22.4514849,1.75471297 C22.6821605,1.75471297 22.9084505,1.66086398 23.0715899,1.49772462 C23.2346416,1.33458525 23.3285783,1.10829517 23.3285783,0.877619613 C23.3285783,0.64694406 23.2347293,0.420653974 23.0715899,0.25751461 Z" id="Shape"></path>
            <path d="M15.8776045,13.5148113 C15.5350118,13.1722186 14.9798117,13.1722186 14.6372191,13.5148113 L5.73057716,22.3021159 C5.3880722,22.6446209 5.3880722,23.1999964 5.73057716,23.542589 C5.90187349,23.7137977 6.12632168,23.7994897 6.35076987,23.7994897 C6.57521806,23.7994897 6.79966625,23.7137977 6.97096258,23.542589 L15.8776045,14.7552844 C16.2201095,14.4127794 16.2201095,13.8574039 15.8776045,13.5148113 Z" id="Shape"></path>
            <path d="M41.3988941,41.3928422 L44.0300865,41.3928422 C44.5144175,41.3928422 44.9071799,41.0000798 44.9071799,40.5157488 L44.9071799,5.7892547 C44.9071799,5.78393367 44.9067706,4.14672197 44.9059519,0.877619613 C44.9059519,0.393200952 44.5131895,0.000526256014 44.0288586,0.000526256014 L18.2490922,0.000526256014 C17.7647612,0.000526256014 17.3719988,0.393200952 17.3719988,0.877619613 C17.3719988,1.36203827 17.7647612,1.75471297 18.2490922,1.75471297 L43.1517652,1.75471297 L43.1517652,4.91216134 L1.754099,4.91216134 L1.754099,1.75471297 L18.2977462,1.75471297 C18.7820771,1.75471297 19.1748395,1.36203827 19.1748395,0.877619613 C19.1748395,0.393200952 18.7820771,0.000526256014 18.2977462,0.000526256014 L0.877093357,0.000526256014 C0.392762405,0.000526256014 0,0.393200952 0,0.877619613 L0,5.78916699 L0,40.5156611 C0,40.9999921 0.392762405,41.3927545 0.877093357,41.3927545 L30.5232874,41.3927545 L30.5232874,42.9989756 C30.5232874,43.0507241 30.5259186,43.1017709 30.530041,43.1524669 L12.682156,43.1524669 C12.197825,43.1524669 11.8050626,43.5452293 11.8050626,44.0295603 C11.8050626,44.5138912 12.197825,44.9066536 12.682156,44.9066536 L44.0300865,44.9066536 C44.5144175,44.9066536 44.9071799,44.5138912 44.9071799,44.0295603 C44.9071799,43.5452293 44.5144175,43.1524669 44.0300865,43.1524669 L41.3921405,43.1524669 C41.3961752,43.1017709 41.3988941,43.0507241 41.3988941,42.9989756 L41.3988941,41.3928422 Z M21.5771105,39.6386555 L1.754099,39.6386555 L1.754099,37.4386422 L18.0946991,21.0980422 C18.437204,20.7555372 18.437204,20.2001617 18.0946991,19.857569 C17.7521064,19.5150641 17.1969063,19.5150641 16.8542259,19.857569 L1.754099,34.9577837 L1.754099,6.66626035 L21.5771105,6.66626035 L21.5771105,39.6386555 Z M39.6447951,42.9988878 C39.6447951,43.0835274 39.5759433,43.1523792 39.4913038,43.1523792 L32.4308777,43.1523792 C32.3462382,43.1523792 32.2773864,43.0835274 32.2773864,42.9988878 L32.2773864,34.3817087 L39.6447951,34.3817087 L39.6447951,42.9988878 Z M34.3718853,32.627522 L33.5870622,32.627522 C33.3509486,31.4813364 33.0268626,30.3617268 32.6230489,29.2993913 C33.5516276,30.1450847 34.1848013,31.3392473 34.3718853,32.627522 Z M33.334547,24.1221723 C34.9797987,25.3025646 36.0062611,27.2207677 36.0380118,29.2775517 C35.8997819,29.7903004 35.7895313,30.3118202 35.708751,30.8398304 C35.4851799,30.2474415 35.1881084,29.6862772 34.8272722,29.1737915 C34.5148515,27.4339891 34.0156977,25.7430409 33.334547,24.1221723 Z M37.5071432,25.7604073 C37.3994362,25.9450355 37.2969916,26.1326457 37.197617,26.3218348 C37.0726312,26.0120454 36.9289633,25.7105884 36.7679289,25.4188672 C36.770034,25.3990448 36.7725775,25.3793102 36.7733669,25.3590494 C36.7765244,25.2800233 36.8494109,23.8125584 37.8356147,22.6845286 C37.6109034,23.6481911 37.4952147,24.6378155 37.4952147,25.6227036 C37.4953025,25.6696281 37.5000388,25.7154124 37.5071432,25.7604073 Z M39.4647279,25.9388958 C38.831905,28.0972471 38.4167767,30.4825025 38.3324004,32.627522 L37.3054117,32.627522 C37.3761055,30.2193745 38.1407555,27.8995503 39.4647279,25.9388958 Z M40.5218008,32.627522 L40.0880781,32.627522 C40.2373594,29.1893161 41.3194295,24.9905825 42.7221649,22.5451585 C42.7340934,22.5244591 42.747776,22.49762 42.7579503,22.4759558 C42.9281064,22.1135408 42.8312753,21.6817478 42.5225384,21.4267767 C42.2137139,21.171718 41.7714834,21.1582108 41.447836,21.3938857 C40.7633523,21.8921625 40.1301786,22.4470994 39.5525249,23.049224 C39.7233827,22.3267622 39.9641448,21.6210529 40.2731448,20.9499888 C40.4288289,20.6116939 40.3539251,20.211827 40.0862362,19.9528214 C39.8184596,19.6939034 39.4164877,19.632156 39.0833677,19.7990669 L38.1414571,20.2711185 C36.5245355,21.0822545 35.7455012,22.4524497 35.369579,23.5589907 C34.7243014,22.9138885 33.9686855,22.3709677 33.1231675,21.9668031 L31.7520952,21.3115267 C31.4082746,21.1471594 30.9977949,21.2236419 30.7361579,21.500628 C30.4746087,21.7776141 30.42172,22.1918653 30.6053833,22.525687 L30.6969518,22.6920716 C31.4680046,24.0934037 32.081356,25.5654295 32.5330591,27.0896423 C32.4195632,27.0265793 32.3047517,26.9659721 32.1873966,26.9099259 L31.0376149,26.3604269 C30.6937943,26.196235 30.2831392,26.2726298 30.0216777,26.5497036 C29.7601284,26.8267774 29.7073274,27.2410286 29.8911662,27.5748503 L29.9678241,27.7141328 C30.7733467,29.1784401 31.3966092,30.8611437 31.79288,32.6273466 L31.4000299,32.6273466 C30.9156989,32.6273466 30.5229365,33.020109 30.5229365,33.50444 L30.5229365,39.6384801 L23.3309464,39.6386555 L23.3309464,6.66626035 L43.15273,6.66626035 L43.15273,39.6386555 L41.398631,39.6386555 L41.398631,33.5046154 C41.3988941,33.0202844 41.0061317,32.627522 40.5218008,32.627522 Z" id="Shape"></path>
        </g>
    </g>
</svg>