<?xml version="1.0" encoding="UTF-8"?>
<svg width="93px" height="93px" viewBox="0 0 93 93" version="1.1" xmlns="http://www.w3.org/2000/svg" xmlns:xlink="http://www.w3.org/1999/xlink">
    <g id="изделия-по-индивидуальным-размерам-для-решения-самых-сложных-задач" stroke="none" stroke-width="1" fill="none" fill-rule="evenodd">
        <rect id="Rectangle-59" fill="#FFFFFF" opacity="0" x="0" y="0" width="93" height="93"></rect>
        <g id="photo-size" transform="translate(23.000000, 24.111276)" fill="#DA3838" fill-rule="nonzero">
            <path d="M5.8342933,7.39555823 C5.45349698,7.39555823 5.14498142,7.7040737 5.14498142,8.08451745 L5.14498142,13.2601742 C5.14498142,13.6409705 5.45349698,13.949486 5.8342933,13.949486 C6.21473697,13.949486 6.52325253,13.6409705 6.52325253,13.2601742 L6.52325253,8.77347677 L38.956169,8.77347677 L38.956169,19.4523454 L35.758185,15.7212467 C35.4863387,15.404269 34.9803732,15.4053268 34.7099374,15.7233622 L22.6778314,29.8787603 L14.3849337,22.2769374 C14.1141452,22.0287146 13.6959744,22.0364716 13.4350584,22.2949195 L6.52325253,29.1280979 L6.52325253,12.4561468 C6.52325253,12.0753505 6.21473697,11.7668349 5.8342933,11.7668349 C5.45349698,11.7668349 5.14498142,12.0753505 5.14498142,12.4561468 L5.14498142,38.9554638 C5.14498142,39.3359075 5.45349698,39.6444231 5.8342933,39.6444231 L39.6451282,39.6444231 C40.0259245,39.6444231 40.3344401,39.3359075 40.3344401,38.9554638 L40.3344401,32.7382587 C40.3344401,32.3578149 40.0259245,32.0492993 39.6451282,32.0492993 C39.2646845,32.0492993 38.956169,32.3578149 38.956169,32.7382587 L38.956169,38.2665045 L6.52325253,38.2665045 L6.52325253,31.0659281 L13.937498,23.7363041 L22.2741167,31.3779695 C22.5583036,31.638533 23.0152592,31.6099733 23.2648924,31.316619 L35.2370582,17.2310336 L38.956169,21.5696436 L38.956169,37.5626319 C38.956169,37.9434282 39.2646845,38.2519438 39.6451282,38.2519438 C40.0259245,38.2519438 40.3344401,37.9434282 40.3344401,37.5626319 L40.3344401,8.08451745 C40.3344401,7.7040737 40.0259245,7.39555823 39.6451282,7.39555823 L5.8342933,7.39555823 Z" id="Shape"></path>
            <path d="M27.1038834,15.4345917 C27.1038834,13.0285231 25.1459557,11.0705953 22.7398871,11.0705953 C20.3334658,11.0705953 18.3755381,13.0285231 18.3755381,15.4345917 C18.3755381,17.8410129 20.3334658,19.7989406 22.7398871,19.7989406 C25.1459557,19.7989406 27.1038834,17.8410129 27.1038834,15.4345917 Z M19.7538092,15.4345917 C19.7538092,13.7883527 21.0932955,12.4488665 22.7398871,12.4488665 C24.386126,12.4488665 25.7256122,13.7883527 25.7256122,15.4345917 C25.7256122,17.0811832 24.386126,18.4206695 22.7398871,18.4206695 C21.0932955,18.4206695 19.7538092,17.0811832 19.7538092,15.4345917 Z" id="Shape"></path>
            <path d="M32.458698,8.77347677 L44.7904622,8.77347677 C45.170906,8.77347677 45.4794215,8.46496121 45.4794215,8.08451745 C45.4794215,7.7040737 45.170906,7.39555823 44.7904622,7.39555823 L32.458698,7.39555823 C32.0779016,7.39555823 31.7693861,7.7040737 31.7693861,8.08451745 C31.7693861,8.46496121 32.0779016,8.77347677 32.458698,8.77347677 Z" id="Shape"></path>
            <path d="M39.6451282,2.25022424 C39.2646845,2.25022424 38.956169,2.55873971 38.956169,2.93953603 L38.956169,15.2709478 C38.956169,15.6517441 39.2646845,15.9602596 39.6451282,15.9602596 C40.0259245,15.9602596 40.3344401,15.6517441 40.3344401,15.2709478 L40.3344401,2.93953603 C40.3344401,2.55873971 40.0259245,2.25022424 39.6451282,2.25022424 Z" id="Shape"></path>
            <path d="M6.94472065,7.39555823 L0.688959227,7.39555823 C0.308515561,7.39555823 0,7.7040737 0,8.08451745 C0,8.46496121 0.308515561,8.77347677 0.688959227,8.77347677 L6.94472065,8.77347677 C7.32551698,8.77347677 7.63403254,8.46496121 7.63403254,8.08451745 C7.63403254,7.7040737 7.32551698,7.39555823 6.94472065,7.39555823 Z" id="Shape"></path>
            <path d="M5.8342933,10.8969238 C6.21473697,10.8969238 6.52325253,10.5884084 6.52325253,10.207612 L6.52325253,2.93953603 C6.52325253,2.55873971 6.21473697,2.25022424 5.8342933,2.25022424 C5.45349698,2.25022424 5.14498142,2.55873971 5.14498142,2.93953603 L5.14498142,10.207612 C5.14498142,10.5884084 5.45349698,10.8969238 5.8342933,10.8969238 Z" id="Shape"></path>
            <path d="M44.7904622,38.2665045 L39.547368,38.2665045 C39.1665717,38.2665045 38.8580561,38.57502 38.8580561,38.9554638 C38.8580561,39.3359075 39.1665717,39.6444231 39.547368,39.6444231 L44.7904622,39.6444231 C45.170906,39.6444231 45.4794215,39.3359075 45.4794215,38.9554638 C45.4794215,38.57502 45.170906,38.2665045 44.7904622,38.2665045 Z" id="Shape"></path>
            <path d="M39.6451282,37.1557245 C39.2646845,37.1557245 38.956169,37.4642401 38.956169,37.8446839 L38.956169,44.1004452 C38.956169,44.4812415 39.2646845,44.7897571 39.6451282,44.7897571 C40.0259245,44.7897571 40.3344401,44.4812415 40.3344401,44.1004452 L40.3344401,37.8446839 C40.3344401,37.4642401 40.0259245,37.1557245 39.6451282,37.1557245 Z" id="Shape"></path>
            <path d="M6.94472065,38.2665045 L0.688959227,38.2665045 C0.308515561,38.2665045 0,38.57502 0,38.9554638 C0,39.3359075 0.308515561,39.6444231 0.688959227,39.6444231 L6.94472065,39.6444231 C7.32551698,39.6444231 7.63403254,39.3359075 7.63403254,38.9554638 C7.63403254,38.57502 7.32551698,38.2665045 6.94472065,38.2665045 Z" id="Shape"></path>
            <path d="M5.8342933,37.1557245 C5.45349698,37.1557245 5.14498142,37.4642401 5.14498142,37.8446839 L5.14498142,44.1004452 C5.14498142,44.4812415 5.45349698,44.7897571 5.8342933,44.7897571 C6.21473697,44.7897571 6.52325253,44.4812415 6.52325253,44.1004452 L6.52325253,37.8446839 C6.52325253,37.4642401 6.21473697,37.1557245 5.8342933,37.1557245 Z" id="Shape"></path>
            <path d="M20.8873835,5.71758626 C21.2001301,5.92631906 21.6348725,5.83887694 21.8429002,5.52648288 L22.7398871,4.18170776 L23.6365213,5.52648288 C23.8611206,5.8639108 24.3431101,5.93231305 24.6533885,5.67174971 C24.9188882,5.44891335 24.9749499,5.05013495 24.7831414,4.76206952 L23.5677664,2.93918347 L24.7831414,1.11629741 C24.9943423,0.799672277 24.9086631,0.371981615 24.5920381,0.160780669 C24.2754129,-0.0500677097 23.8473697,0.0352589187 23.6365213,0.351884054 L22.7398871,1.69701174 L21.8429002,0.351884054 C21.6320518,0.0352589187 21.2040085,-0.0500677097 20.8873835,0.160780669 C20.5707584,0.371981615 20.4850792,0.799672277 20.6962801,1.11629741 L21.911655,2.93918347 L20.6962801,4.76206952 C20.4850792,5.07869465 20.5707584,5.50673788 20.8873835,5.71758626 Z" id="Shape"></path>
            <path d="M45.9074648,20.7414115 C45.5911923,20.5302106 45.163149,20.6158898 44.9519481,20.9325149 L44.0553138,22.2776426 L43.1586794,20.9325149 C42.9502993,20.6201208 42.5155568,20.5333839 42.2031628,20.7414115 C41.8907687,20.9497917 41.8036792,21.3845342 42.0120594,21.6969282 L43.3663545,23.7285471 L43.3663545,25.7249071 C43.3663545,26.1053509 43.67487,26.4138663 44.0553138,26.4138663 C44.4361101,26.4138663 44.7442731,26.1053509 44.7442731,25.7249071 L44.7442731,23.7285471 L46.0985681,21.6969282 C46.3097691,21.3806557 46.2240899,20.9526124 45.9074648,20.7414115 Z" id="Shape"></path>
        </g>
    </g>
</svg>