<?xml version="1.0" encoding="UTF-8"?>
<svg width="93px" height="93px" viewBox="0 0 93 93" version="1.1" xmlns="http://www.w3.org/2000/svg" xmlns:xlink="http://www.w3.org/1999/xlink">
    <g id="сопутствующие-товары:-москитные-сетки,-отливы,-подоконники,-роллеты-и-жалюзи" stroke="none" stroke-width="1" fill="none" fill-rule="evenodd">
        <rect id="Rectangle-59" fill="#FFFFFF" opacity="0" x="0" y="0" width="93" height="93"></rect>
        <g id="blinds" transform="translate(27.000000, 24.000000)" fill="#DA3838" fill-rule="nonzero">
            <path d="M37.9784881,39.3201194 L35.7596362,39.3201194 L35.7596362,23.1173406 L36.6368567,23.1173406 C37.0644243,23.1173406 37.4108748,22.7707869 37.4108748,22.3433225 L37.4108748,3.97618258 C38.1663165,3.6691554 38.700905,2.92836848 38.700905,2.06404826 C38.700905,0.925932052 37.7749729,-7.10542736e-15 36.6368567,-7.10542736e-15 C35.4987405,-7.10542736e-15 34.5728084,0.925932052 34.5728084,2.06404826 C34.5728084,2.92836848 35.1073969,3.6691554 35.8628386,3.97618258 L35.8628386,6.08894238 L2.94126878,6.08894238 L2.94126878,3.97618258 C3.69671044,3.6691554 4.23129894,2.92836848 4.23129894,2.06404826 C4.23129894,0.925932052 3.30536689,-7.10542736e-15 2.16725068,-7.10542736e-15 C1.02913446,-7.10542736e-15 0.103202413,0.925932052 0.103202413,2.06404826 C0.103202413,2.92836848 0.637790914,3.6691554 1.39323258,3.97618258 L1.39323258,22.3433225 C1.39323258,22.7707869 1.73968308,23.1173406 2.16725068,23.1173406 L3.04447119,23.1173406 L3.04447119,39.3201194 L0.825619306,39.3201194 C0.398051708,39.3201194 0.0516012066,39.6666731 0.0516012066,40.0941375 L0.0516012066,44.4286389 C0.0516012066,44.8561033 0.398051708,45.202657 0.825619306,45.202657 L37.9784881,45.202657 C38.4060557,45.202657 38.7525062,44.8561033 38.7525062,44.4286389 L38.7525062,40.0941375 C38.7525062,39.6666731 38.4060557,39.3201194 37.9784881,39.3201194 Z M2.94126878,11.5070691 L35.8628386,11.5070691 L35.8628386,13.8291234 L2.94126878,13.8291234 L2.94126878,11.5070691 Z M2.94126878,15.3771596 L35.8628386,15.3771596 L35.8628386,17.6992139 L2.94126878,17.6992139 L2.94126878,15.3771596 Z M36.6368567,1.5480362 C36.9213858,1.5480362 37.1528688,1.77951921 37.1528688,2.06404826 C37.1528688,2.34857732 36.9213858,2.58006033 36.6368567,2.58006033 C36.3523276,2.58006033 36.1208446,2.34857732 36.1208446,2.06404826 C36.1208446,1.77951921 36.3523276,1.5480362 36.6368567,1.5480362 Z M35.8628386,7.63697858 L35.8628386,9.95903288 L2.94126878,9.95903288 L2.94126878,7.63697858 L35.8628386,7.63697858 Z M2.16725068,1.5480362 C2.45177973,1.5480362 2.68326274,1.77951921 2.68326274,2.06404826 C2.68326274,2.34857732 2.45177973,2.58006033 2.16725068,2.58006033 C1.88272162,2.58006033 1.65123861,2.34857732 1.65123861,2.06404826 C1.65123861,1.77951921 1.88272162,1.5480362 2.16725068,1.5480362 Z M2.94126878,19.2472501 L35.8628386,19.2472501 L35.8628386,21.5693044 L2.94126878,21.5693044 L2.94126878,19.2472501 Z M31.5283372,29.1418846 L21.7683818,35.3770648 L21.7683818,23.1173406 L31.5283372,23.1173406 L31.5283372,29.1418846 Z M31.5283372,30.9789908 L31.5283372,36.4304519 L22.9950457,36.4304519 L31.5283372,30.9789908 Z M17.0357256,29.1434327 L7.27577013,35.3787161 L7.27577013,33.706837 L17.0357256,27.4716568 L17.0357256,29.1434327 Z M17.0357256,30.9804356 L17.0357256,36.4304519 L8.50491087,36.4304519 L17.0357256,30.9804356 Z M17.0357256,25.6345506 L7.27577013,31.869834 L7.27577013,23.1173406 L17.0357256,23.1173406 L17.0357256,25.6345506 Z M4.59250739,23.1173406 L5.72773393,23.1173406 L5.72773393,37.20447 C5.72773393,37.6319344 6.07418444,37.9784881 6.50175203,37.9784881 L17.8097437,37.9784881 C18.2373113,37.9784881 18.5837618,37.6319344 18.5837618,37.20447 L18.5837618,23.1173406 L20.2202424,23.1173406 L20.2202424,37.20447 C20.2202424,37.6319344 20.5666929,37.9784881 20.9942605,37.9784881 L32.3023553,37.9784881 C32.7299229,37.9784881 33.0763734,37.6319344 33.0763734,37.20447 L33.0763734,23.1173406 L34.2116,23.1173406 L34.2116,39.3201194 L4.59250739,39.3201194 L4.59250739,23.1173406 Z M37.20447,43.6546208 L1.59963741,43.6546208 L1.59963741,40.8681556 L37.20447,40.8681556 L37.20447,43.6546208 Z" id="Shape"></path>
        </g>
    </g>
</svg>