<?xml version="1.0" encoding="UTF-8"?>
<svg width="93px" height="93px" viewBox="0 0 93 93" version="1.1" xmlns="http://www.w3.org/2000/svg" xmlns:xlink="http://www.w3.org/1999/xlink">
    <g id="доставка-и-установка-изделия" stroke="none" stroke-width="1" fill="none" fill-rule="evenodd">
        <rect id="Rectangle-59" fill="#FFFFFF" opacity="0" x="0" y="0" width="93" height="93"></rect>
        <g id="moving-truck" transform="translate(20.000000, 24.000000)" fill="#DA3838" fill-rule="nonzero">
            <path d="M33.510897,0 L22.0681517,0 C21.6161632,0 21.2508127,0.36616785 21.2508127,0.817338951 C21.2508127,1.26851005 21.6161632,1.6346779 22.0681517,1.6346779 L33.510897,1.6346779 C33.9628854,1.6346779 34.3282359,1.26851005 34.3282359,0.817338951 C34.3282359,0.36616785 33.9628854,0 33.510897,0 Z" id="Shape"></path>
            <path d="M29.4242022,0 C28.9722138,0 28.6068633,0.36616785 28.6068633,0.817338951 L28.6068633,4.90403371 C28.6068633,5.35520481 28.9722138,5.72137266 29.4242022,5.72137266 C29.8761907,5.72137266 30.2415412,5.35520481 30.2415412,4.90403371 L30.2415412,0.817338951 C30.2415412,0.36616785 29.8761907,0 29.4242022,0 Z" id="Shape"></path>
            <path d="M29.4242022,4.08669476 L26.1548464,4.08669476 C25.702858,4.08669476 25.3375075,4.45286261 25.3375075,4.90403371 C25.3375075,5.35520481 25.702858,5.72137266 26.1548464,5.72137266 L29.4242022,5.72137266 C29.8761907,5.72137266 30.2415412,5.35520481 30.2415412,4.90403371 C30.2415412,4.45286261 29.8761907,4.08669476 29.4242022,4.08669476 Z" id="Shape"></path>
            <path d="M26.1548464,0 C25.702858,0 25.3375075,0.36616785 25.3375075,0.817338951 L25.3375075,4.90403371 C25.3375075,5.35520481 25.702858,5.72137266 26.1548464,5.72137266 C26.6068349,5.72137266 26.9721854,5.35520481 26.9721854,4.90403371 L26.9721854,0.817338951 C26.9721854,0.36616785 26.6068349,0 26.1548464,0 Z" id="Shape"></path>
            <path d="M22.0681517,16.346779 L12.2600843,16.346779 C11.8080958,16.346779 11.4427453,16.7129469 11.4427453,17.164118 C11.4427453,17.6152891 11.8080958,17.9814569 12.2600843,17.9814569 L22.0681517,17.9814569 C22.5201401,17.9814569 22.8854906,17.6152891 22.8854906,17.164118 C22.8854906,16.7129469 22.5201401,16.346779 22.0681517,16.346779 Z" id="Shape"></path>
            <path d="M33.510897,14.7121011 C33.0589086,14.7121011 32.693558,15.078269 32.693558,15.5294401 L32.693558,29.4242022 C32.693558,29.8761907 33.0589086,30.2415412 33.510897,30.2415412 C33.9628854,30.2415412 34.3282359,29.8761907 34.3282359,29.4242022 L34.3282359,15.5294401 C34.3282359,15.078269 33.9628854,14.7121011 33.510897,14.7121011 Z" id="Shape"></path>
            <path d="M51.4923539,35.1455749 L49.0575012,35.1455749 C48.6055127,35.1455749 48.2401622,35.5109254 48.2401622,35.9629139 C48.2401622,36.4149023 48.6055127,36.7802528 49.0575012,36.7802528 L51.4923539,36.7802528 C51.9443424,36.7802528 52.3096929,36.4149023 52.3096929,35.9629139 C52.3096929,35.5109254 51.9443424,35.1455749 51.4923539,35.1455749 Z" id="Shape"></path>
            <path d="M51.4923539,35.1455749 C51.0403655,35.1455749 50.675015,35.5109254 50.675015,35.9629139 L50.675015,39.2322697 C50.675015,39.6842581 51.0403655,40.0496086 51.4923539,40.0496086 C51.9443424,40.0496086 52.3096929,39.6842581 52.3096929,39.2322697 L52.3096929,35.9629139 C52.3096929,35.5109254 51.9443424,35.1455749 51.4923539,35.1455749 Z" id="Shape"></path>
            <path d="M8.17338951,38.4149307 C8.17257217,38.4149307 8.17175483,38.4149307 8.17093749,38.4149307 L2.44956484,38.4320948 C1.9975764,38.4337295 1.63304322,38.7998974 1.6346779,39.2518858 C1.63631258,39.7030569 2.00166309,40.0667727 2.45201685,40.0667727 C2.45283419,40.0667727 2.45365153,40.0667727 2.45446887,40.0667727 L8.17584153,40.0496086 C8.62782997,40.0479739 8.99236314,39.6818061 8.99072846,39.2298176 C8.98909378,38.7786465 8.62374327,38.4149307 8.17338951,38.4149307 Z" id="Shape"></path>
            <path d="M50.675015,31.0588801 L49.857676,31.0588801 C49.4056876,31.0588801 49.0403371,31.4242307 49.0403371,31.8762191 C49.0403371,32.3282075 49.4056876,32.693558 49.857676,32.693558 L50.675015,32.693558 C51.1270034,32.693558 51.4923539,32.3282075 51.4923539,31.8762191 C51.4923539,31.4242307 51.1270034,31.0588801 50.675015,31.0588801 Z" id="Shape"></path>
            <path d="M50.675015,25.3375075 C50.2230265,25.3375075 49.857676,25.702858 49.857676,26.1548464 L49.857676,35.9629139 C49.857676,36.4149023 50.2230265,36.7802528 50.675015,36.7802528 C51.1270034,36.7802528 51.4923539,36.4149023 51.4923539,35.9629139 L51.4923539,26.1548464 C51.4923539,25.702858 51.1270034,25.3375075 50.675015,25.3375075 Z" id="Shape"></path>
            <path d="M45.7709813,14.7121011 L33.510897,14.7121011 C33.0589086,14.7121011 32.693558,15.078269 32.693558,15.5294401 C32.693558,15.9806112 33.0589086,16.346779 33.510897,16.346779 L45.7709813,16.346779 C46.2229697,16.346779 46.5883202,15.9806112 46.5883202,15.5294401 C46.5883202,15.078269 46.2229697,14.7121011 45.7709813,14.7121011 Z" id="Shape"></path>
            <path d="M51.4171587,25.8123814 L46.513125,15.1869751 C46.3243197,14.7774882 45.8404551,14.598491 45.4285162,14.7872963 C45.0182121,14.9761016 44.8400322,15.4624183 45.0288375,15.8719051 L49.9328712,26.4973115 C50.0710015,26.7964575 50.3668782,26.9721854 50.6758323,26.9721854 C50.7902598,26.9721854 50.9063219,26.9484826 51.01748,26.8969902 C51.4277841,26.7081849 51.605964,26.2218682 51.4171587,25.8123814 Z" id="Shape"></path>
            <path d="M2.45201685,35.1455749 C2.00002841,35.1455749 1.6346779,35.5109254 1.6346779,35.9629139 L1.6346779,39.283762 C1.6346779,39.7357504 2.00002841,40.101101 2.45201685,40.101101 C2.90400529,40.101101 3.2693558,39.7349331 3.2693558,39.283762 L3.2693558,35.9629139 C3.2693558,35.5109254 2.90400529,35.1455749 2.45201685,35.1455749 Z" id="Shape"></path>
            <path d="M0.817338951,24.5201685 C0.365350511,24.5201685 0,24.885519 0,25.3375075 L0,35.9629139 C0,36.4149023 0.365350511,36.7802528 0.817338951,36.7802528 C1.26932739,36.7802528 1.6346779,36.4149023 1.6346779,35.9629139 L1.6346779,25.3375075 C1.6346779,24.885519 1.26932739,24.5201685 0.817338951,24.5201685 Z" id="Shape"></path>
            <path d="M33.510897,24.5201685 L0.817338951,24.5201685 C0.365350511,24.5201685 0,24.885519 0,25.3375075 C0,25.7894959 0.365350511,26.1548464 0.817338951,26.1548464 L33.510897,26.1548464 C33.9628854,26.1548464 34.3282359,25.7894959 34.3282359,25.3375075 C34.3282359,24.885519 33.9628854,24.5201685 33.510897,24.5201685 Z" id="Shape"></path>
            <path d="M4.90403371,35.1455749 L0.817338951,35.1455749 C0.365350511,35.1455749 0,35.5109254 0,35.9629139 C0,36.4149023 0.365350511,36.7802528 0.817338951,36.7802528 L4.90403371,36.7802528 C5.35602215,36.7802528 5.72137266,36.4149023 5.72137266,35.9629139 C5.72137266,35.5109254 5.35602215,35.1455749 4.90403371,35.1455749 Z" id="Shape"></path>
            <path d="M13.0774232,33.510897 C9.92331221,33.510897 7.35605056,36.0781586 7.35605056,39.2322697 C7.35605056,42.3863807 9.92331221,44.9536423 13.0774232,44.9536423 C16.2315342,44.9536423 18.7987959,42.3863807 18.7987959,39.2322697 C18.7987959,36.0781586 16.2315342,33.510897 13.0774232,33.510897 Z M13.0774232,43.3189644 C10.8240197,43.3189644 8.99072846,41.4856731 8.99072846,39.2322697 C8.99072846,36.9788662 10.8240197,35.1455749 13.0774232,35.1455749 C15.3308267,35.1455749 17.164118,36.9788662 17.164118,39.2322697 C17.164118,41.4856731 15.3308267,43.3189644 13.0774232,43.3189644 Z" id="Shape"></path>
            <path d="M13.0774232,36.7802528 C11.7255446,36.7802528 10.6254064,37.880391 10.6254064,39.2322697 C10.6254064,40.5841483 11.7255446,41.6842865 13.0774232,41.6842865 C14.4293018,41.6842865 15.5294401,40.5841483 15.5294401,39.2322697 C15.5294401,37.880391 14.4293018,36.7802528 13.0774232,36.7802528 Z M13.0774232,40.0496086 C12.6262521,40.0496086 12.2600843,39.6834408 12.2600843,39.2322697 C12.2600843,38.7810986 12.6262521,38.4149307 13.0774232,38.4149307 C13.5285943,38.4149307 13.8947622,38.7810986 13.8947622,39.2322697 C13.8947622,39.6834408 13.5285943,40.0496086 13.0774232,40.0496086 Z" id="Shape"></path>
            <path d="M40.0496086,36.7802528 C38.69773,36.7802528 37.5975918,37.880391 37.5975918,39.2322697 C37.5975918,40.5841483 38.69773,41.6842865 40.0496086,41.6842865 C41.4014872,41.6842865 42.5016255,40.5841483 42.5016255,39.2322697 C42.5016255,37.880391 41.4014872,36.7802528 40.0496086,36.7802528 Z M40.0496086,40.0496086 C39.5984375,40.0496086 39.2322697,39.6834408 39.2322697,39.2322697 C39.2322697,38.7810986 39.5984375,38.4149307 40.0496086,38.4149307 C40.5007797,38.4149307 40.8669476,38.7810986 40.8669476,39.2322697 C40.8669476,39.6834408 40.5007797,40.0496086 40.0496086,40.0496086 Z" id="Shape"></path>
            <path d="M40.0496086,33.510897 C36.8954976,33.510897 34.3282359,36.0781586 34.3282359,39.2322697 C34.3282359,42.3863807 36.8954976,44.9536423 40.0496086,44.9536423 C43.2037196,44.9536423 45.7709813,42.3863807 45.7709813,39.2322697 C45.7709813,36.0781586 43.2037196,33.510897 40.0496086,33.510897 Z M40.0496086,43.3189644 C37.7962051,43.3189644 35.9629139,41.4856731 35.9629139,39.2322697 C35.9629139,36.9788662 37.7962051,35.1455749 40.0496086,35.1455749 C42.3030121,35.1455749 44.1363034,36.9788662 44.1363034,39.2322697 C44.1363034,41.4856731 42.3030121,43.3189644 40.0496086,43.3189644 Z" id="Shape"></path>
            <path d="M35.1660084,38.4149307 L17.9814569,38.4149307 C17.5294685,38.4149307 17.164118,38.7802812 17.164118,39.2322697 C17.164118,39.6842581 17.5294685,40.0496086 17.9814569,40.0496086 L35.1660084,40.0496086 C35.6179968,40.0496086 35.9833473,39.6842581 35.9833473,39.2322697 C35.9833473,38.7802812 35.6179968,38.4149307 35.1660084,38.4149307 Z" id="Shape"></path>
            <path d="M51.4923539,38.4149307 L44.9536423,38.4149307 C44.5016539,38.4149307 44.1363034,38.7802812 44.1363034,39.2322697 C44.1363034,39.6842581 44.5016539,40.0496086 44.9536423,40.0496086 L51.4923539,40.0496086 C51.9443424,40.0496086 52.3096929,39.6842581 52.3096929,39.2322697 C52.3096929,38.7802812 51.9443424,38.4149307 51.4923539,38.4149307 Z" id="Shape"></path>
            <path d="M50.675015,25.3375075 L40.8669476,25.3375075 C40.4149591,25.3375075 40.0496086,25.702858 40.0496086,26.1548464 C40.0496086,26.6068349 40.4149591,26.9721854 40.8669476,26.9721854 L50.675015,26.9721854 C51.1270034,26.9721854 51.4923539,26.6068349 51.4923539,26.1548464 C51.4923539,25.702858 51.1270034,25.3375075 50.675015,25.3375075 Z" id="Shape"></path>
            <path d="M40.8669476,25.3375075 C39.5150689,25.3375075 38.4149307,24.2373693 38.4149307,22.8854906 C38.4149307,22.4343195 38.0495802,22.0681517 37.5975918,22.0681517 C37.1456033,22.0681517 36.7802528,22.4343195 36.7802528,22.8854906 C36.7802528,25.1388941 38.6135441,26.9721854 40.8669476,26.9721854 C41.318936,26.9721854 41.6842865,26.6068349 41.6842865,26.1548464 C41.6842865,25.702858 41.318936,25.3375075 40.8669476,25.3375075 Z" id="Shape"></path>
            <path d="M37.5975918,14.7121011 C37.1456033,14.7121011 36.7802528,15.078269 36.7802528,15.5294401 L36.7802528,22.8854906 C36.7802528,23.3374791 37.1456033,23.7028296 37.5975918,23.7028296 C38.0495802,23.7028296 38.4149307,23.3374791 38.4149307,22.8854906 L38.4149307,15.5294401 C38.4149307,15.078269 38.0495802,14.7121011 37.5975918,14.7121011 Z" id="Shape"></path>
            <path d="M33.510897,0 C33.0589086,0 32.693558,0.36616785 32.693558,0.817338951 L32.693558,25.3375075 C32.693558,25.7894959 33.0589086,26.1548464 33.510897,26.1548464 C33.9628854,26.1548464 34.3282359,25.7894959 34.3282359,25.3375075 L34.3282359,0.817338951 C34.3282359,0.36616785 33.9628854,0 33.510897,0 Z" id="Shape"></path>
            <path d="M22.0681517,0 C21.6161632,0 21.2508127,0.36616785 21.2508127,0.817338951 L21.2508127,25.3375075 C21.2508127,25.7894959 21.6161632,26.1548464 22.0681517,26.1548464 C22.5201401,26.1548464 22.8854906,25.7894959 22.8854906,25.3375075 L22.8854906,0.817338951 C22.8854906,0.36616785 22.5201401,0 22.0681517,0 Z" id="Shape"></path>
            <path d="M12.2600843,6.53871161 C11.8080958,6.53871161 11.4427453,6.90487946 11.4427453,7.35605056 L11.4427453,25.3375075 C11.4427453,25.7894959 11.8080958,26.1548464 12.2600843,26.1548464 C12.7120727,26.1548464 13.0774232,25.7894959 13.0774232,25.3375075 L13.0774232,7.35605056 C13.0774232,6.90487946 12.7120727,6.53871161 12.2600843,6.53871161 Z" id="Shape"></path>
            <path d="M17.164118,16.346779 C16.7121295,16.346779 16.346779,16.7129469 16.346779,17.164118 L16.346779,19.6161348 C16.346779,20.0673059 16.7121295,20.4334738 17.164118,20.4334738 C17.6161064,20.4334738 17.9814569,20.0673059 17.9814569,19.6161348 L17.9814569,17.164118 C17.9814569,16.7129469 17.6161064,16.346779 17.164118,16.346779 Z" id="Shape"></path>
            <path d="M22.0681517,6.53871161 L12.2600843,6.53871161 C11.8080958,6.53871161 11.4427453,6.90487946 11.4427453,7.35605056 C11.4427453,7.80722166 11.8080958,8.17338951 12.2600843,8.17338951 L22.0681517,8.17338951 C22.5201401,8.17338951 22.8854906,7.80722166 22.8854906,7.35605056 C22.8854906,6.90487946 22.5201401,6.53871161 22.0681517,6.53871161 Z" id="Shape"></path>
            <path d="M17.164118,6.53871161 C16.7121295,6.53871161 16.346779,6.90487946 16.346779,7.35605056 L16.346779,8.99072846 C16.346779,9.44189956 16.7121295,9.80806741 17.164118,9.80806741 C17.6161064,9.80806741 17.9814569,9.44189956 17.9814569,8.99072846 L17.9814569,7.35605056 C17.9814569,6.90487946 17.6161064,6.53871161 17.164118,6.53871161 Z" id="Shape"></path>
            <path d="M2.45201685,12.2600843 C2.00002841,12.2600843 1.6346779,12.6262521 1.6346779,13.0774232 L1.6346779,25.3375075 C1.6346779,25.7894959 2.00002841,26.1548464 2.45201685,26.1548464 C2.90400529,26.1548464 3.2693558,25.7894959 3.2693558,25.3375075 L3.2693558,13.0774232 C3.2693558,12.6262521 2.90400529,12.2600843 2.45201685,12.2600843 Z" id="Shape"></path>
            <path d="M12.2600843,12.2600843 L2.45201685,12.2600843 C2.00002841,12.2600843 1.6346779,12.6262521 1.6346779,13.0774232 C1.6346779,13.5285943 2.00002841,13.8947622 2.45201685,13.8947622 L12.2600843,13.8947622 C12.7120727,13.8947622 13.0774232,13.5285943 13.0774232,13.0774232 C13.0774232,12.6262521 12.7120727,12.2600843 12.2600843,12.2600843 Z" id="Shape"></path>
            <path d="M5.72137266,12.2600843 C5.26938422,12.2600843 4.90403371,12.6262521 4.90403371,13.0774232 L4.90403371,15.5294401 C4.90403371,15.9806112 5.26938422,16.346779 5.72137266,16.346779 C6.1733611,16.346779 6.53871161,15.9806112 6.53871161,15.5294401 L6.53871161,13.0774232 C6.53871161,12.6262521 6.1733611,12.2600843 5.72137266,12.2600843 Z" id="Shape"></path>
            <path d="M8.99072846,14.7121011 L5.72137266,14.7121011 C5.26938422,14.7121011 4.90403371,15.078269 4.90403371,15.5294401 C4.90403371,15.9806112 5.26938422,16.346779 5.72137266,16.346779 L8.99072846,16.346779 C9.4427169,16.346779 9.80806741,15.9806112 9.80806741,15.5294401 C9.80806741,15.078269 9.4427169,14.7121011 8.99072846,14.7121011 Z" id="Shape"></path>
            <path d="M8.99072846,12.2600843 C8.53874002,12.2600843 8.17338951,12.6262521 8.17338951,13.0774232 L8.17338951,15.5294401 C8.17338951,15.9806112 8.53874002,16.346779 8.99072846,16.346779 C9.4427169,16.346779 9.80806741,15.9806112 9.80806741,15.5294401 L9.80806741,13.0774232 C9.80806741,12.6262521 9.4427169,12.2600843 8.99072846,12.2600843 Z" id="Shape"></path>
        </g>
    </g>
</svg>