<?xml version="1.0" encoding="UTF-8"?>
<svg width="93px" height="93px" viewBox="0 0 93 93" version="1.1" xmlns="http://www.w3.org/2000/svg" xmlns:xlink="http://www.w3.org/1999/xlink">
    <g id="индивидуально-рассчитанная-справедливая-цена" stroke="none" stroke-width="1" fill="none" fill-rule="evenodd">
        <rect id="Rectangle-59" fill="#FFFFFF" opacity="0" x="0" y="0" width="93" height="93"></rect>
        <g id="price-tag" transform="translate(32.000000, 24.000000)" fill="#DA3838" fill-rule="nonzero">
            <path d="M26.4233069,2.9823987 L14.9119935,2.9823987 L14.9119935,0.745599675 C14.9119935,0.333283055 14.5779648,0 14.1663938,0 C13.7548228,0 13.4207941,0.333283055 13.4207941,0.745599675 L13.4207941,2.9823987 L1.90948077,2.9823987 C0.855948427,2.9823987 0,3.83834713 0,4.89187947 L0,42.8272453 C0,43.8800321 0.855948427,44.7359805 1.90948077,44.7359805 L26.4240525,44.7359805 C27.4768392,44.7359805 28.3327876,43.8800321 28.3327876,42.8264997 L28.3327876,4.89187947 C28.3327876,3.83834713 27.4768392,2.9823987 26.4233069,2.9823987 Z M1.90948077,4.47359805 L13.4207941,4.47359805 L13.4207941,6.04010297 C11.7215725,6.38680682 10.4383954,7.89217256 10.4383954,9.69279577 C10.4383954,11.7484141 12.1107755,13.4207941 14.1663938,13.4207941 C16.2220121,13.4207941 17.8943922,11.7484141 17.8943922,9.69279577 C17.8943922,7.89291816 16.6112152,6.38680682 14.9119935,6.04010297 L14.9119935,4.47359805 L26.4233069,4.47359805 C26.6544428,4.47359805 26.8415883,4.66074357 26.8415883,4.89187947 L26.8415883,37.2799837 L1.49119935,37.2799837 L1.49119935,4.89187947 C1.49119935,4.66074357 1.67834487,4.47359805 1.90948077,4.47359805 Z M14.1663938,10.4383954 C14.5779648,10.4383954 14.9119935,10.1051124 14.9119935,9.69279577 L14.9119935,7.59318709 C15.7776347,7.90186536 16.4031928,8.722025 16.4031928,9.69279577 C16.4031928,10.9260176 15.3996157,11.9295948 14.1663938,11.9295948 C12.933172,11.9295948 11.9295948,10.9260176 11.9295948,9.69279577 C11.9295948,8.722025 12.5551529,7.90186536 13.4207941,7.59318709 L13.4207941,9.69279577 C13.4207941,10.1051124 13.7548228,10.4383954 14.1663938,10.4383954 Z M26.4233069,43.2447811 L1.90948077,43.2447811 C1.67834487,43.2447811 1.49119935,43.0576356 1.49119935,42.8264997 L1.49119935,38.7711831 L26.8415883,38.7711831 L26.8415883,42.8264997 C26.8415883,43.0576356 26.6544428,43.2447811 26.4233069,43.2447811 Z" id="Shape"></path>
            <path d="M8.20159642,33.5519854 L20.1311912,33.5519854 C20.5427622,33.5519854 20.8767909,33.2187023 20.8767909,32.8063857 C20.8767909,32.3940691 20.5427622,32.060786 20.1311912,32.060786 L8.20159642,32.060786 C7.7900254,32.060786 7.45599675,32.3940691 7.45599675,32.8063857 C7.45599675,33.2187023 7.7900254,33.5519854 8.20159642,33.5519854 Z" id="Shape"></path>
            <path d="M8.20159642,35.7887844 L20.1311912,35.7887844 C20.5427622,35.7887844 20.8767909,35.4555013 20.8767909,35.0431847 C20.8767909,34.6308681 20.5427622,34.297585 20.1311912,34.297585 L8.20159642,34.297585 C7.7900254,34.297585 7.45599675,34.6308681 7.45599675,35.0431847 C7.45599675,35.4555013 7.7900254,35.7887844 8.20159642,35.7887844 Z" id="Shape"></path>
        </g>
        <g id="Group-7" transform="translate(42.287982, 40.500000)" fill="#DA3838">
            <path d="M0,6.07937941 L1.31696649,6.07937941 L1.31696649,0 L4.71140125,0 C5.34206442,0 5.9170722,0.073053463 6.43644187,0.219162581 C6.95581153,0.365271698 7.40097885,0.587608325 7.77195718,0.88617913 C8.14293552,1.18474994 8.43353085,1.5627222 8.6437519,2.02010726 C8.85397296,2.47749233 8.95908191,3.02380518 8.95908191,3.65906221 C8.95908191,4.29431925 8.84779008,4.84698458 8.62520308,5.31707478 C8.40261608,5.78716499 8.09965499,6.1778422 7.71631071,6.48911815 C7.33296644,6.80039409 6.88161624,7.03225943 6.36224657,7.18472112 C5.84287691,7.33718281 5.28023488,7.41341251 4.6743036,7.41341251 L2.8008724,7.41341251 L2.8008724,9.33823169 L5.78723303,9.33823169 L5.78723303,10.5960343 L2.8008724,10.5960343 L2.8008724,13.2831581 L1.31696649,13.2831581 L1.31696649,10.5960343 L0,10.5960343 L0,9.33823169 L1.31696649,9.33823169 L1.31696649,7.41341251 L0,7.41341251 L0,6.07937941 Z M4.70718651,6.0292349 C5.56462927,6.0292349 6.23876799,5.8306081 6.7296229,5.43334855 C7.22047782,5.03608899 7.46590159,4.43390298 7.46590159,3.62677245 C7.46590159,2.81964192 7.22047782,2.23321994 6.7296229,1.86748892 C6.23876799,1.5017579 5.56462927,1.31889513 4.70718651,1.31889513 L2.78726993,1.31889513 L2.78726993,6.0292349 L4.70718651,6.0292349 Z" id="₽-copy"></path>
        </g>
    </g>
</svg>