<?xml version="1.0" encoding="UTF-8"?>
<svg width="93px" height="93px" viewBox="0 0 93 93" version="1.1" xmlns="http://www.w3.org/2000/svg" xmlns:xlink="http://www.w3.org/1999/xlink">
    <g id="сопутствующие-товары:-москитные-сетки,-отливы,-подоконники,-роллеты-и-жалюзи-copy" stroke="none" stroke-width="1" fill="none" fill-rule="evenodd">
        <rect id="Rectangle-59" fill="#FFFFFF" opacity="0" x="0" y="0" width="93" height="93"></rect>
        <path d="M67.9356704,59.5463695 L33.4522956,59.5463695 L33.4522956,25.0629947 C33.4522956,24.5796148 33.060463,24.1877821 32.5770831,24.1877821 L24.8752126,24.1877821 C24.3918327,24.1877821 24,24.5796148 24,25.0629947 L24,68.1234525 C24,68.6068324 24.3918327,68.9986651 24.8752126,68.9986651 L51.2191106,68.9986651 C51.7024905,68.9986651 52.0943231,68.6068324 52.0943231,68.1234525 C52.0943231,67.6400726 51.7024905,67.24824 51.2191106,67.24824 L33.4522956,67.24824 L33.4522956,61.2967946 L37.1865651,61.2967946 L37.1865651,64.0099535 C37.1865651,64.4933334 37.5783977,64.8851661 38.0617776,64.8851661 C38.5451575,64.8851661 38.9369902,64.4933334 38.9369902,64.0099535 L38.9369902,61.2967946 L41.3584408,61.2967946 L41.3584408,62.5406467 C41.3584408,63.0240266 41.7502734,63.4158592 42.2336533,63.4158592 C42.7170332,63.4158592 43.1088659,63.0240266 43.1088659,62.5406467 L43.1088659,61.2967946 L45.5302289,61.2967946 L45.5302289,64.0099535 C45.5302289,64.4933334 45.9220616,64.8851661 46.4054415,64.8851661 C46.8888214,64.8851661 47.280654,64.4933334 47.280654,64.0099535 L47.280654,61.2967946 L49.7021046,61.2967946 L49.7021046,62.5406467 C49.7021046,63.0240266 50.0939373,63.4158592 50.5773172,63.4158592 C51.0606971,63.4158592 51.4525298,63.0240266 51.4525298,62.5406467 L51.4525298,61.2967946 L53.8739803,61.2967946 L53.8739803,64.0099535 C53.8739803,64.4933334 54.265813,64.8851661 54.7491929,64.8851661 C55.2325728,64.8851661 55.6244055,64.4933334 55.6244055,64.0099535 L55.6244055,61.2967946 L58.0457685,61.2967946 L58.0457685,62.5406467 C58.0457685,63.0240266 58.4376012,63.4158592 58.9209811,63.4158592 C59.404361,63.4158592 59.7961936,63.0240266 59.7961936,62.5406467 L59.7961936,61.2967946 L62.2176442,61.2967946 L62.2176442,64.0099535 C62.2176442,64.4933334 62.6094769,64.8851661 63.0928568,64.8851661 C63.5762367,64.8851661 63.9680693,64.4933334 63.9680693,64.0099535 L63.9680693,61.2967946 L67.0604579,61.2967946 L67.0604579,67.24824 L51.2191106,67.24824 L51.2191106,68.9986651 L67.9356704,68.9986651 C68.4190503,68.9986651 68.810883,68.6068324 68.810883,68.1234525 L68.810883,60.421582 C68.810883,59.9382021 68.4190503,59.5463695 67.9356704,59.5463695 Z M31.7018705,29.0305958 L28.9887116,29.0305958 C28.5053317,29.0305958 28.113499,29.4224284 28.113499,29.9058083 C28.113499,30.3891882 28.5053317,30.7810209 28.9887116,30.7810209 L31.7018705,30.7810209 L31.7018705,33.2024715 L30.4580184,33.2024715 C29.9746385,33.2024715 29.5828059,33.5943041 29.5828059,34.077684 C29.5828059,34.5610639 29.9746385,34.9528966 30.4580184,34.9528966 L31.7018705,34.9528966 L31.7018705,37.3743472 L28.9887116,37.3743472 C28.5053317,37.3743472 28.113499,37.7661798 28.113499,38.2495597 C28.113499,38.7329396 28.5053317,39.1247723 28.9887116,39.1247723 L31.7018705,39.1247723 L31.7018705,41.5462229 L30.4580184,41.5462229 C29.9746385,41.5462229 29.5828059,41.9380555 29.5828059,42.4214354 C29.5828059,42.9048153 29.9746385,43.296648 30.4580184,43.296648 L31.7018705,43.296648 L31.7018705,45.718011 L28.9887116,45.718011 C28.5053317,45.718011 28.113499,46.1098437 28.113499,46.5932236 C28.113499,47.0766035 28.5053317,47.4684362 28.9887116,47.4684362 L31.7018705,47.4684362 L31.7018705,49.8898867 L30.4580184,49.8898867 C29.9746385,49.8898867 29.5828059,50.2817194 29.5828059,50.7650993 C29.5828059,51.2484792 29.9746385,51.6403119 30.4580184,51.6403119 L31.7018705,51.6403119 L31.7018705,54.0617624 L28.9887116,54.0617624 C28.5053317,54.0617624 28.113499,54.4535951 28.113499,54.936975 C28.113499,55.4203549 28.5053317,55.8121876 28.9887116,55.8121876 L31.7018705,55.8121876 L31.7018705,58.2335506 L30.4580184,58.2335506 C29.9746385,58.2335506 29.5828059,58.6253833 29.5828059,59.1087632 C29.5828059,59.5921431 29.9746385,59.9839757 30.4580184,59.9839757 L31.7018705,59.9839757 L31.7018705,62.4054263 L28.9887116,62.4054263 C28.5053317,62.4054263 28.113499,62.797259 28.113499,63.2806389 C28.113499,63.7640188 28.5053317,64.1558514 28.9887116,64.1558514 L31.7018705,64.1558514 L31.7018705,67.24824 L25.7504251,67.24824 L25.7504251,25.9382072 L31.7018705,25.9382072 L31.7018705,29.0305958 Z" id="Shape" fill="#D62626" fill-rule="nonzero"></path>
        <path d="M67.9356704,59.5463695 L33.4522956,59.5463695 L33.4522956,25.0629947 C33.4522956,24.5796148 33.060463,24.1877821 32.5770831,24.1877821 L24.8752126,24.1877821 C24.3918327,24.1877821 24,24.5796148 24,25.0629947 L24,68.1234525 C24,68.6068324 24.3918327,68.9986651 24.8752126,68.9986651 L51.2191106,68.9986651 C51.7024905,68.9986651 52.0943231,68.6068324 52.0943231,68.1234525 C52.0943231,67.6400726 51.7024905,67.24824 51.2191106,67.24824 L33.4522956,67.24824 L33.4522956,61.2967946 L37.1865651,61.2967946 L37.1865651,64.0099535 C37.1865651,64.4933334 37.5783977,64.8851661 38.0617776,64.8851661 C38.5451575,64.8851661 38.9369902,64.4933334 38.9369902,64.0099535 L38.9369902,61.2967946 L41.3584408,61.2967946 L41.3584408,62.5406467 C41.3584408,63.0240266 41.7502734,63.4158592 42.2336533,63.4158592 C42.7170332,63.4158592 43.1088659,63.0240266 43.1088659,62.5406467 L43.1088659,61.2967946 L45.5302289,61.2967946 L45.5302289,64.0099535 C45.5302289,64.4933334 45.9220616,64.8851661 46.4054415,64.8851661 C46.8888214,64.8851661 47.280654,64.4933334 47.280654,64.0099535 L47.280654,61.2967946 L49.7021046,61.2967946 L49.7021046,62.5406467 C49.7021046,63.0240266 50.0939373,63.4158592 50.5773172,63.4158592 C51.0606971,63.4158592 51.4525298,63.0240266 51.4525298,62.5406467 L51.4525298,61.2967946 L53.8739803,61.2967946 L53.8739803,64.0099535 C53.8739803,64.4933334 54.265813,64.8851661 54.7491929,64.8851661 C55.2325728,64.8851661 55.6244055,64.4933334 55.6244055,64.0099535 L55.6244055,61.2967946 L58.0457685,61.2967946 L58.0457685,62.5406467 C58.0457685,63.0240266 58.4376012,63.4158592 58.9209811,63.4158592 C59.404361,63.4158592 59.7961936,63.0240266 59.7961936,62.5406467 L59.7961936,61.2967946 L62.2176442,61.2967946 L62.2176442,64.0099535 C62.2176442,64.4933334 62.6094769,64.8851661 63.0928568,64.8851661 C63.5762367,64.8851661 63.9680693,64.4933334 63.9680693,64.0099535 L63.9680693,61.2967946 L67.0604579,61.2967946 L67.0604579,67.24824 L51.2191106,67.24824 L51.2191106,68.9986651 L67.9356704,68.9986651 C68.4190503,68.9986651 68.810883,68.6068324 68.810883,68.1234525 L68.810883,60.421582 C68.810883,59.9382021 68.4190503,59.5463695 67.9356704,59.5463695 Z" id="Path" fill="#DA3838"></path>
        <path d="M31.7018705,29.0305958 L28.9887116,29.0305958 C28.5053317,29.0305958 28.113499,29.4224284 28.113499,29.9058083 C28.113499,30.3891882 28.5053317,30.7810209 28.9887116,30.7810209 L31.7018705,30.7810209 L31.7018705,33.2024715 L30.4580184,33.2024715 C29.9746385,33.2024715 29.5828059,33.5943041 29.5828059,34.077684 C29.5828059,34.5610639 29.9746385,34.9528966 30.4580184,34.9528966 L31.7018705,34.9528966 L31.7018705,37.3743472 L28.9887116,37.3743472 C28.5053317,37.3743472 28.113499,37.7661798 28.113499,38.2495597 C28.113499,38.7329396 28.5053317,39.1247723 28.9887116,39.1247723 L31.7018705,39.1247723 L31.7018705,41.5462229 L30.4580184,41.5462229 C29.9746385,41.5462229 29.5828059,41.9380555 29.5828059,42.4214354 C29.5828059,42.9048153 29.9746385,43.296648 30.4580184,43.296648 L31.7018705,43.296648 L31.7018705,45.718011 L28.9887116,45.718011 C28.5053317,45.718011 28.113499,46.1098437 28.113499,46.5932236 C28.113499,47.0766035 28.5053317,47.4684362 28.9887116,47.4684362 L31.7018705,47.4684362 L31.7018705,49.8898867 L30.4580184,49.8898867 C29.9746385,49.8898867 29.5828059,50.2817194 29.5828059,50.7650993 C29.5828059,51.2484792 29.9746385,51.6403119 30.4580184,51.6403119 L31.7018705,51.6403119 L31.7018705,54.0617624 L28.9887116,54.0617624 C28.5053317,54.0617624 28.113499,54.4535951 28.113499,54.936975 C28.113499,55.4203549 28.5053317,55.8121876 28.9887116,55.8121876 L31.7018705,55.8121876 L31.7018705,58.2335506 L30.4580184,58.2335506 C29.9746385,58.2335506 29.5828059,58.6253833 29.5828059,59.1087632 C29.5828059,59.5921431 29.9746385,59.9839757 30.4580184,59.9839757 L31.7018705,59.9839757 L31.7018705,62.4054263 L28.9887116,62.4054263 C28.5053317,62.4054263 28.113499,62.797259 28.113499,63.2806389 C28.113499,63.7640188 28.5053317,64.1558514 28.9887116,64.1558514 L31.7018705,64.1558514 L31.7018705,67.24824 L25.7504251,67.24824 L25.7504251,25.9382072 L31.7018705,25.9382072 L31.7018705,29.0305958 Z" id="Path" fill="#FFFFFF"></path>
        <g id="window" transform="translate(39.225606, 24.216748)" fill="#DA3838" fill-rule="nonzero">
            <path d="M28.9228838,28.3929801 L27.8712714,28.3929801 L27.3454961,28.3929801 L27.3454961,3.06999098 C27.9680097,2.86104871 28.3971084,2.28536379 28.3971084,1.57738778 C28.3971084,0.683514168 27.7135943,0 26.8197207,0 L2.63306688,0 C1.73919327,0 1.0556791,0.683514168 1.0556791,1.57738778 C1.0556791,2.27747685 1.50726797,2.8484789 2.10729149,3.06315152 L2.10729149,28.3929801 L1.5815161,28.3929801 L0.529903709,28.3929801 C0.214426152,28.3929801 0.00412831959,28.603278 0.00412831959,28.9187555 C0.00412831959,29.2342331 0.214426152,29.4445309 0.529903709,29.4445309 L1.0556791,29.4445309 L1.0556791,29.9703063 C1.0556791,30.8641799 1.73919327,31.5476941 2.63306688,31.5476941 L26.819659,31.5476941 C27.7135327,31.5476941 28.3970468,30.8641799 28.3970468,29.9703063 L28.3970468,29.4445309 L28.9228222,29.4445309 C29.2382998,29.4445309 29.4485976,29.2342331 29.4485976,28.9187555 C29.4485976,28.603278 29.2383614,28.3929801 28.9228838,28.3929801 Z M2.63306688,1.0516124 L26.819659,1.0516124 C27.1351366,1.0516124 27.3454344,1.26191023 27.3454344,1.57738778 C27.3454344,1.89286534 27.1351366,2.10316317 26.819659,2.10316317 L2.63306688,2.10316317 C2.31758933,2.10316317 2.10729149,1.84024467 2.10729149,1.57738778 C2.10729149,1.3145309 2.37021,1.0516124 2.63306688,1.0516124 Z M3.15890389,3.15477557 L26.2939453,3.15477557 L26.2939453,28.3929801 L25.2423329,28.3929801 L25.2423329,13.1448777 L25.2423329,4.73216335 C25.2423329,4.4166858 25.032035,4.20638797 24.7165575,4.20638797 L4.73629167,4.20638797 C4.42081412,4.20638797 4.21051628,4.4166858 4.21051628,4.73216335 L4.21051628,13.1448777 L4.21051628,28.3929801 L3.15890389,28.3929801 L3.15890389,3.15477557 Z M24.1907205,6.30955114 L21.0359449,6.30955114 C20.7204674,6.30955114 20.5101695,6.51984897 20.5101695,6.83532653 C20.5101695,7.15080409 20.7204674,7.36110192 21.0359449,7.36110192 L24.1907205,7.36110192 L24.1907205,8.41271431 L22.0875573,8.41271431 C21.7720798,8.41271431 21.5617819,8.62301215 21.5617819,8.9384897 C21.5617819,9.25396726 21.7720798,9.46426509 22.0875573,9.46426509 L24.1907205,9.46426509 L24.1907205,10.5158775 L23.1391081,10.5158775 C22.8236305,10.5158775 22.6133327,10.7261753 22.6133327,11.0416529 C22.6133327,11.3571304 22.8236305,11.5674283 23.1391081,11.5674283 L24.1907205,11.5674283 L24.1907205,12.6191023 L5.26206706,12.6191023 L5.26206706,11.5674899 L8.41684263,11.5674899 C8.73232019,11.5674899 8.94261802,11.3571921 8.94261802,11.0417145 C8.94261802,10.7262369 8.73232019,10.5159391 8.41684263,10.5159391 L5.26206706,10.5159391 L5.26206706,9.46432671 L7.36523024,9.46432671 C7.68070779,9.46432671 7.89100563,9.25402888 7.89100563,8.93855132 C7.89100563,8.62307376 7.68070779,8.41277593 7.36523024,8.41277593 L5.26206706,8.41277593 L5.26206706,7.36116353 L6.31367946,7.36116353 C6.62915702,7.36116353 6.83945485,7.1508657 6.83945485,6.83538815 C6.83945485,6.51991059 6.62915702,6.30961276 6.31367946,6.30961276 L5.26206706,6.30961276 L5.26206706,5.25793874 L24.1907205,5.25793874 L24.1907205,6.30955114 Z M14.7263938,15.7738778 C15.3047898,15.7738778 15.7780062,16.2470942 15.7780062,16.8254902 C15.7780062,17.4038863 15.3047898,17.8771026 14.7263938,17.8771026 C14.1479977,17.8771026 13.6747814,17.4038863 13.6747814,16.8254902 C13.6747814,16.2470942 14.1479977,15.7738778 14.7263938,15.7738778 Z M5.26206706,13.6707147 L14.2006184,13.6707147 L14.2006184,14.7893044 C13.2961467,15.0243106 12.6232306,15.8500977 12.6232306,16.8254902 C12.6232306,17.9822207 13.5696633,18.9286534 14.7263938,18.9286534 C15.8831243,18.9286534 16.8295569,17.9822207 16.8295569,16.8254902 C16.8295569,15.8501593 16.1566409,15.0243106 15.2521692,14.7893044 L15.2521692,13.6707147 L24.1907205,13.6707147 L24.1907205,28.3929801 L5.26206706,28.3929801 L5.26206706,13.6707147 Z M27.3454961,29.9703679 C27.3454961,30.2858455 27.1351982,30.4961433 26.8197207,30.4961433 L2.63306688,30.4961433 C2.31758933,30.4961433 2.10729149,30.2858455 2.10729149,29.9703679 L2.10729149,29.4445925 L2.63306688,29.4445925 L4.73623006,29.4445925 L24.7164959,29.4445925 L26.819659,29.4445925 L27.3454961,29.4445925 L27.3454344,29.9703679 L27.3454961,29.9703679 Z" id="Shape"></path>
        </g>
    </g>
</svg>