<?xml version="1.0" encoding="UTF-8"?>
<svg width="93px" height="93px" viewBox="0 0 93 93" version="1.1" xmlns="http://www.w3.org/2000/svg" xmlns:xlink="http://www.w3.org/1999/xlink">
    <g id="различные-формы-оплаты:-наличный-расчет-или-согласно-выставленному-счету" stroke="none" stroke-width="1" fill="none" fill-rule="evenodd">
        <rect id="Rectangle-59" fill="#FFFFFF" opacity="0" x="0" y="0" width="93" height="93"></rect>
        <g id="wallet-(1)" transform="translate(23.951372, 23.951372)" fill="#DA3838" fill-rule="nonzero">
            <path d="M44.0491646,19.4345355 L42.9010942,19.4345355 L42.9010942,11.6827642 C42.9010942,9.86422076 41.4683023,8.43142892 39.7416045,8.43142892 L38.8782556,8.43142892 L38.8782556,3.25133533 C38.8782556,1.43279184 37.5373093,-2.84217094e-14 35.9116417,-2.84217094e-14 C35.9116417,-2.84217094e-14 35.819796,-2.84217094e-14 35.7187659,-2.84217094e-14 L2.96661388,8.42224435 C2.95742931,8.42224435 2.93906019,8.43142892 2.92987563,8.43142892 C1.31339252,8.5600128 0,9.94688183 0,11.6827642 L0,41.7530238 C0,43.5715673 1.43279184,45.0043591 3.1594897,45.0043591 L39.7416045,45.0043591 C41.560148,45.0043591 42.9929398,43.5715673 42.9929398,41.7530238 L42.9929398,33.7991922 L44.0491646,33.7991922 C44.6277921,33.7991922 45.0043591,33.4134405 45.0043591,32.8439976 L45.0043591,20.3989146 C45.0043591,19.8202871 44.5267619,19.4345355 44.0491646,19.4345355 Z M36.0953329,1.81854349 C36.5729302,1.91038912 37.0505275,2.4890166 37.0505275,3.25133533 L37.0505275,8.42224435 L10.6265395,8.42224435 L36.0953329,1.81854349 Z M41.0825507,41.7530238 C41.0825507,42.5153425 40.5039232,43.1858156 39.7416045,43.1858156 L3.1594897,43.1858156 C2.39717097,43.1858156 1.81854349,42.5153425 1.81854349,41.7530238 L1.81854349,11.6827642 C1.81854349,10.9204455 2.39717097,10.2499724 3.1594897,10.2499724 L39.6405743,10.2499724 C40.402893,10.2499724 40.9815205,10.9204455 40.9815205,11.6827642 L40.9815205,19.4345355 L31.5030514,19.4345355 C27.4802128,19.4345355 24.3207231,22.5940252 24.3207231,26.6168638 C24.3207231,30.6397025 27.5720584,33.7991922 31.5030514,33.7991922 L41.0825507,33.7991922 L41.0825507,41.7530238 Z M43.0847855,31.9806487 L31.5030514,31.9806487 C28.6282831,31.9806487 26.2402967,29.5834777 26.2402967,26.717894 C26.2402967,23.8523103 28.6374677,21.4551394 31.5030514,21.4551394 L43.0847855,21.4551394 L43.0847855,31.9806487 Z" id="Shape"></path>
            <path d="M30.4468266,26.8097397 C30.4468266,27.3883671 30.9244239,27.7649342 31.4020212,27.7649342 L32.2653701,27.7649342 C32.7429674,27.7649342 33.2205647,27.3791826 33.2205647,26.8097397 C33.2205647,26.2311122 32.7429674,25.8545451 32.2653701,25.8545451 L31.4112058,25.8545451 C30.8325783,25.8545451 30.4468266,26.2402967 30.4468266,26.8097397 Z" id="Shape"></path>
        </g>
    </g>
</svg>