<svg viewBox="0 0 342.01 94.91" data-name="Layer 1" xmlns="http://www.w3.org/2000/svg" xmlns:xlink="http://www.w3.org/1999/xlink">
	<defs>
		<style>.cls-1{fill:none;}.cls-2{clip-path:url(#clip-path);}.cls-3{fill:#d92819;}</style>
		<clipPath id="clip-path" transform="translate(0 0)">
			<rect class="cls-1" width="342.02" height="94.9"/>
		</clipPath>
	</defs>
	<title>logo-krauss</title>
	<g class="cls-2">
		<path d="M.75.91h16.7V21.34L35,.91h22.2L37.47,21.3,58,55H37.47L26.09,32.73l-8.64,9V55H.75ZM63.8,55V.91H91.64c5.16,0,9.11.44,11.83,1.34a12.56,12.56,0,0,1,6.61,4.92,14.89,14.89,0,0,1,2.51,8.75,15.14,15.14,0,0,1-1.91,7.77,15.22,15.22,0,0,1-5.27,5.3,20.21,20.21,0,0,1-5.87,2.13,16.79,16.79,0,0,1,4.36,2,17.23,17.23,0,0,1,2.67,2.83,20.69,20.69,0,0,1,2.34,3.36L117,55H98.09L89.17,38.44a12.58,12.58,0,0,0-3-4.16A7,7,0,0,0,82,33H80.57V55ZM80.57,22.81h7A25,25,0,0,0,92,22.08a4.47,4.47,0,0,0,2.72-1.7,5,5,0,0,0,1-3.13,5,5,0,0,0-1.66-4C93,12.29,91,11.83,87.91,11.83H80.57Zm75,23.23h-19L133.92,55H116.85L137.17.91h18.21L175.7,55H158.22Zm-3.5-11.69-6-19.43-5.94,19.43ZM213.63.91H230.3V33.15a27.13,27.13,0,0,1-1.5,9,19.64,19.64,0,0,1-4.68,7.45,18.81,18.81,0,0,1-6.7,4.48,33.89,33.89,0,0,1-11.69,1.8,71.4,71.4,0,0,1-8.61-.56,22.34,22.34,0,0,1-7.79-2.19,19.72,19.72,0,0,1-5.74-4.67A17.07,17.07,0,0,1,180,42.28a32.07,32.07,0,0,1-1.55-9.14V.91h16.67v33a9.43,9.43,0,0,0,2.44,6.91,10.55,10.55,0,0,0,13.58,0c1.62-1.62,2.44-4,2.44-6.95Zm24.82,36.17,15.89-1a12.07,12.07,0,0,0,2.1,5.9,8.8,8.8,0,0,0,7.38,3.27,8.17,8.17,0,0,0,5.51-1.67,5,5,0,0,0,1.92-3.89,4.94,4.94,0,0,0-1.84-3.76c-1.24-1.11-4.08-2.15-8.56-3.13q-11-2.47-15.66-6.56a13.18,13.18,0,0,1-4.72-10.43,14.19,14.19,0,0,1,2.42-7.88,16.1,16.1,0,0,1,7.26-5.83Q255,0,263.44,0q10.37,0,15.81,3.85t6.47,12.26L270,17a8.44,8.44,0,0,0-2.63-5.31,8.5,8.5,0,0,0-5.54-1.65,6.65,6.65,0,0,0-4.39,1.24,3.79,3.79,0,0,0-1.47,3,3,3,0,0,0,1.21,2.32c.79.72,2.66,1.37,5.61,2q10.95,2.36,15.68,4.78a16.42,16.42,0,0,1,6.9,6,15.21,15.21,0,0,1,2.16,8A17.19,17.19,0,0,1,284.61,47a17.9,17.9,0,0,1-8,6.66,32.49,32.49,0,0,1-13,2.27q-13.78,0-19.09-5.31a20.88,20.88,0,0,1-6-13.49m54.53,0,15.89-1A12.13,12.13,0,0,0,311,42a8.81,8.81,0,0,0,7.38,3.27,8.2,8.2,0,0,0,5.52-1.67,5,5,0,0,0,1.92-3.89,4.94,4.94,0,0,0-1.84-3.76c-1.23-1.11-4.07-2.15-8.56-3.13q-11-2.47-15.66-6.56A13.19,13.19,0,0,1,295,15.82a14.19,14.19,0,0,1,2.42-7.88,16.13,16.13,0,0,1,7.26-5.83Q309.53,0,318,0q10.37,0,15.8,3.85t6.47,12.26L324.5,17a8.44,8.44,0,0,0-2.64-5.31,8.48,8.48,0,0,0-5.53-1.65,6.66,6.66,0,0,0-4.4,1.24,3.78,3.78,0,0,0-1.47,3,3,3,0,0,0,1.21,2.32c.79.72,2.65,1.37,5.61,2Q328.22,21,333,23.39a16.42,16.42,0,0,1,6.9,6,15.16,15.16,0,0,1,2.16,8A17.15,17.15,0,0,1,339.13,47a17.9,17.9,0,0,1-8,6.66,32.52,32.52,0,0,1-13,2.27q-13.78,0-19.09-5.31a20.88,20.88,0,0,1-6-13.49" transform="translate(0 0)"/>
		<rect class="cls-3" x="0.74" y="62.96" width="341.27" height="8.94"/>
		<path d="M3.8,94.65H0V79.45H15.06v15.2H11.28V82H3.8ZM19,94.71V79.51h6.12a27.82,27.82,0,0,1,4.47.22,5.18,5.18,0,0,1,2.77,1.5A4.54,4.54,0,0,1,32.53,87a5,5,0,0,1-2.35,1.56,18,18,0,0,1-4.86.45H22.82v5.73Zm3.8-12.63v4.31h2.1a13.49,13.49,0,0,0,2.88-.2A2.5,2.5,0,0,0,29,85.48,1.88,1.88,0,0,0,29,83a2.49,2.49,0,0,0-1.24-.7,17,17,0,0,0-3.12-.18Zm13,5.06A7.68,7.68,0,0,1,37,82.67a7.4,7.4,0,0,1,3.17-2.62,11.78,11.78,0,0,1,4.76-.86,10.24,10.24,0,0,1,6.6,2,7,7,0,0,1,2.55,5.82,7.21,7.21,0,0,1-2.7,6,10,10,0,0,1-6.43,1.89A10.16,10.16,0,0,1,38.48,93a7.11,7.11,0,0,1-2.7-5.89M39.7,87A4.94,4.94,0,0,0,41.2,91a5.49,5.49,0,0,0,3.74,1.31A5.43,5.43,0,0,0,48.65,91a5,5,0,0,0,1.47-4,4.93,4.93,0,0,0-1.43-3.91,5.46,5.46,0,0,0-3.75-1.26,5.53,5.53,0,0,0-3.78,1.27,5,5,0,0,0-1.46,4m28.53-7.59V81q8.25.27,8.25,6t-8.25,6v1.76H64.43V92.88q-8.19-.26-8.18-6t8.18-6v-1.5Zm0,4.07v6.79q4.52,0,4.52-3.44t-4.52-3.35m-3.79,6.79V83.52Q60,83.52,60,86.95t4.47,3.37M79.5,94.65V79.45h3.63V89.58l7.62-10.13h3.81v15.2H90.94V84.74l-7.61,9.91Zm29.71,0V82h-5.65v6.5a23,23,0,0,1-.23,3.76,2.8,2.8,0,0,1-1.11,1.85,5.07,5.07,0,0,1-2.88.63c-.38,0-1.18,0-2.4-.1v-2.4h.83A3.24,3.24,0,0,0,99.39,92c.26-.17.38-.62.38-1.31V79.45H113v15.2Zm7.81,0V79.45h3.8v6h5.4A8,8,0,0,1,131,86.77a4,4,0,0,1,1.76,3.37,4.25,4.25,0,0,1-1.43,3.11q-1.42,1.39-5.08,1.39Zm3.8-6.58v4h4a13.15,13.15,0,0,0,2.27-.14,2.38,2.38,0,0,0,1.23-.66,1.65,1.65,0,0,0,.52-1.19c0-1.35-1.28-2-3.86-2Zm15.09,6.58V79.45h3.8v6h7.47v-6H151v15.2h-3.81V88H139.7v6.65Zm19.08,0V79.45h3.8v6h5.4a8,8,0,0,1,4.78,1.28,4,4,0,0,1,1.77,3.37,4.26,4.26,0,0,1-1.43,3.11q-1.43,1.39-5.08,1.39Zm3.8-6.58v4h4a13.11,13.11,0,0,0,2.26-.14,2.4,2.4,0,0,0,1.23-.66,1.64,1.64,0,0,0,.52-1.19q0-2-3.86-2Zm15-8.62h3.79v15.2h-3.79Zm7.45,15.2V79.45h14V82H185v3.37h9.47v2.56H185v4.14h10.54v2.56Zm36.95-5.59,3.69.94A6.54,6.54,0,0,1,219,93.73,9.67,9.67,0,0,1,214,94.91,9.14,9.14,0,0,1,208,93a7.16,7.16,0,0,1-2.64-5.84,7.47,7.47,0,0,1,2.65-6.09,10.8,10.8,0,0,1,11.5-.48,5.87,5.87,0,0,1,2.23,3l-3.77.73a3.18,3.18,0,0,0-1.43-1.89,4.76,4.76,0,0,0-2.54-.66,4.85,4.85,0,0,0-3.4,1.2,5.15,5.15,0,0,0-1.31,4c0,1.91.43,3.28,1.28,4.09A4.65,4.65,0,0,0,214,92.28a4.41,4.41,0,0,0,2.6-.77,4.32,4.32,0,0,0,1.58-2.45m6.95,5.59V79.45h3.62V89.58l7.63-10.13h3.81v15.2h-3.62V84.74l-7.61,9.91Zm31-5.59,3.69.94a6.56,6.56,0,0,1-2.87,3.73A9.65,9.65,0,0,1,252,94.91,9.12,9.12,0,0,1,246,93a7.16,7.16,0,0,1-2.64-5.84A7.46,7.46,0,0,1,246,81.1a10.79,10.79,0,0,1,11.49-.48,5.85,5.85,0,0,1,2.23,3l-3.76.73a3.18,3.18,0,0,0-1.43-1.89,5.32,5.32,0,0,0-5.93.55,5.14,5.14,0,0,0-1.32,4c0,1.91.43,3.28,1.29,4.09a4.67,4.67,0,0,0,3.34,1.21,4.41,4.41,0,0,0,2.6-.77,4.35,4.35,0,0,0,1.59-2.45m11.18,5.59V82h-5.6V79.45h15V82h-5.58V94.65Zm11.86,0V79.45h14V82h-10.2v3.37h9.48v2.56h-9.48v4.14h10.54v2.56Zm17.51,0V79.45h5.69l3.42,10.37,3.39-10.37h5.71v15.2h-3.52v-12l-3.75,12H303.9l-3.71-12v12Zm22.06,0V79.45h3.8v6h5.4a8,8,0,0,1,4.77,1.28,4,4,0,0,1,1.77,3.37A4.26,4.26,0,0,1,333,93.25c-1,.93-2.64,1.39-5.08,1.39Zm3.8-6.58v4h4a13.12,13.12,0,0,0,2.27-.14,2.4,2.4,0,0,0,1.23-.66,1.64,1.64,0,0,0,.52-1.19q0-2-3.85-2Zm15-8.62h3.79v15.2h-3.79Z" transform="translate(0 0)"/>
	</g>
</svg>