<svg width="900" height="170" viewBox="0 0 900 170" xmlns:svg="http://www.w3.org/2000/svg" xmlns="http://www.w3.org/2000/svg">
	<g id="layer1">
		<g transform="matrix(4.967121,0,0,4.967121,-898.21855,-1991.6364)" id="g2821">
			<path d="M 208.40107,426.98272 C 208.40107,431.27772 206.00357,433.16772 201.48232,433.16772 L 183.20607,433.16772 L 184.33982,429.05272 L 201.35857,429.05272 C 202.84232,429.05272 203.62357,428.64522 203.62357,426.98272 L 203.62357,426.52397 C 203.62357,424.86147 202.84232,424.45522 201.35857,424.45522 L 189.76357,424.45522 C 185.24232,424.45522 182.84607,422.56397 182.84607,418.26897 L 182.84607,418.08022 C 182.84607,413.78522 185.24232,411.89522 189.76357,411.89522 L 207.45732,411.89522 L 206.32482,416.01147 L 189.88732,416.01147 C 188.40482,416.01147 187.62357,416.41897 187.62357,418.08022 L 187.62357,418.26897 C 187.62357,419.93147 188.40482,420.33897 189.88732,420.33897 L 201.48232,420.33897 C 206.00482,420.33897 208.40107,422.22897 208.40107,426.52397 L 208.40107,426.98272" id="path13" style="fill:#19468e;fill-opacity:1;fill-rule:nonzero;stroke:none" />
			<path d="M 236.77482,433.16772 L 220.18232,433.16772 C 215.50107,433.16772 212.89732,431.08897 212.89732,426.61522 L 212.89732,418.44897 C 212.89732,413.97397 215.50107,411.89522 220.18232,411.89522 L 236.65107,411.89522 L 235.51482,416.01147 L 220.30607,416.01147 C 218.78232,416.01147 217.67482,416.69772 217.67482,418.44897 L 217.67482,426.61522 C 217.67482,428.36647 218.78232,429.05272 220.30607,429.05272 L 235.64107,429.05272 L 236.77482,433.16772" id="path15" style="fill:#19468e;fill-opacity:1;fill-rule:nonzero;stroke:none" />
			<path d="M 261.96357,424.16272 L 245.78982,424.16272 L 245.78982,433.16772 L 241.01107,433.16772 L 241.01107,411.89522 L 245.78982,411.89522 L 245.78982,420.12022 L 261.96357,420.12022 L 261.96357,411.89522 L 266.74107,411.89522 L 266.74107,433.16772 L 261.96357,433.16772 L 261.96357,424.16272" id="path17" style="fill:#19468e;fill-opacity:1;fill-rule:nonzero;stroke:none" />
			<path d="M 328.15857,433.16772 L 311.56607,433.16772 C 306.88732,433.16772 304.28107,431.08897 304.28107,426.61522 L 304.28107,418.44897 C 304.28107,413.97397 306.88732,411.89522 311.56607,411.89522 L 328.03732,411.89522 L 326.89982,416.01147 L 311.68982,416.01147 C 310.16857,416.01147 309.05982,416.69772 309.05982,418.44897 L 309.05982,426.61522 C 309.05982,428.36647 310.16857,429.05272 311.68982,429.05272 L 327.02482,429.05272 L 328.15857,433.16772" id="path19" style="fill:#19468e;fill-opacity:1;fill-rule:nonzero;stroke:none" />
			<path d="M 272.32482,426.61522 L 272.32482,411.89522 L 277.10232,411.89522 L 277.10232,426.61522 C 277.10232,428.36647 278.21107,429.05272 279.73482,429.05272 L 291.76357,429.05272 C 293.28607,429.05272 294.39482,428.36647 294.39482,426.61522 L 294.39482,411.89522 L 299.17357,411.89522 L 299.17357,426.61522 C 299.17357,431.08897 296.56982,433.16772 291.88857,433.16772 L 279.61107,433.16772 C 274.92982,433.16772 272.32482,431.08897 272.32482,426.61522" id="path21" style="fill:#19468e;fill-opacity:1;fill-rule:nonzero;stroke:none" />
			<path d="M 355.23232,426.61522 L 355.23232,418.44897 C 355.23232,416.69772 354.12357,416.01147 352.60107,416.01147 L 338.90982,416.01147 C 337.38732,416.01147 336.27857,416.69772 336.27857,418.44897 L 336.27857,426.61522 C 336.27857,428.36647 337.38732,429.05272 338.90982,429.05272 L 352.60107,429.05272 C 354.12357,429.05272 355.23232,428.36647 355.23232,426.61522 z M 352.72482,433.16772 L 338.78607,433.16772 C 334.10607,433.16772 331.50232,431.08897 331.50232,426.61522 L 331.50232,418.44897 C 331.50232,413.97397 334.10607,411.89522 338.78607,411.89522 L 352.72482,411.89522 C 357.40482,411.89522 360.01107,413.97397 360.01107,418.44897 L 360.01107,426.61522 C 360.01107,431.08897 357.40482,433.16772 352.72482,433.16772" id="path23" style="fill:#19468e;fill-opacity:1;fill-rule:nonzero;stroke:none" />
			<path d="M 282.15482,402.98522 L 289.34357,402.98522 L 287.83357,408.84022 L 283.66482,408.84022 L 282.15482,402.98522" id="path25" style="fill:#19468e;fill-opacity:1;fill-rule:nonzero;stroke:none" />
			<path d="M 291.97857,402.98522 L 298.10232,402.98522 L 294.39482,408.84022 L 290.06857,408.84022 L 291.97857,402.98522" id="path27" style="fill:#19468e;fill-opacity:1;fill-rule:nonzero;stroke:none" />
			<path d="M 273.39607,402.98522 L 279.51857,402.98522 L 281.42982,408.84022 L 277.10232,408.84022 L 273.39607,402.98522" id="path29" style="fill:#19468e;fill-opacity:1;fill-rule:nonzero;stroke:none" />
		</g>
	</g>
</svg>