<svg width="360px" height="80px" viewBox="0 0 360 80" xmlns="http://www.w3.org/2000/svg" xmlns:xlink="http://www.w3.org/1999/xlink">
    <g id="Siegenia_AUBI" stroke="none" stroke-width="1" fill="none" fill-rule="evenodd">
        <path d="M336.8615,24.307 C338.9815,24.307 340.6565,22.595 340.6565,20.446 C340.6565,18.299 338.9815,16.586 336.8615,16.586 C334.7415,16.586 333.0665,18.299 333.0665,20.446 C333.0665,22.595 334.7415,24.307 336.8615,24.307 Z M336.8615,23.713 C335.1275,23.713 333.6475,22.268 333.6475,20.446 C333.6475,18.625 335.1275,17.18 336.8615,17.18 C338.5945,17.18 340.0755,18.625 340.0755,20.446 C340.0755,22.268 338.5945,23.713 336.8615,23.713 Z M337.4125,20.585 C338.1495,20.565 338.7195,20.259 338.7195,19.427 C338.7195,18.516 337.9935,18.308 337.2475,18.308 L335.4475,18.308 L335.4475,22.535 L336.0285,22.535 L336.0285,20.585 L336.7255,20.585 L337.9645,22.535 L338.6615,22.535 L337.4125,20.585 Z M336.0285,19.991 L336.0285,18.902 L337.1325,18.902 C337.5775,18.902 338.1395,18.981 338.1395,19.417 C338.1395,20.09 337.2385,19.991 336.7255,19.991 L336.0285,19.991 Z" id="Fill-1" fill="#1A1919"></path>
        <path d="M287.7305,16.741 L287.7305,28.712 C287.7535,29.719 287.6805,30.691 287.5115,31.628 C287.3415,32.565 286.9355,33.339 286.2915,33.948 C285.6485,34.556 284.6265,34.872 283.2295,34.893 C281.8305,34.872 280.8095,34.556 280.1655,33.948 C279.5235,33.339 279.1165,32.565 278.9455,31.628 C278.7775,30.691 278.7035,29.719 278.7275,28.712 L278.7275,16.741 L272.0925,16.741 L272.0925,29.526 C272.0455,31.003 272.1735,32.43 272.4775,33.808 C272.7825,35.186 273.5445,36.433 274.7675,37.548 C275.8665,38.471 277.1705,39.127 278.6805,39.516 C280.1905,39.903 281.7055,40.092 283.2295,40.081 C284.7515,40.092 286.2675,39.903 287.7775,39.516 C289.2865,39.127 290.5915,38.471 291.6905,37.548 C292.9125,36.433 293.6755,35.186 293.9795,33.808 C294.2825,32.43 294.4115,31.003 294.3645,29.526 L294.3645,16.741 L287.7305,16.741" id="Fill-2" fill="#9E9F9E"></path>
        <path d="M287.7305,16.741 L287.7305,28.712 C287.7535,29.719 287.6805,30.691 287.5115,31.628 C287.3415,32.565 286.9355,33.339 286.2915,33.948 C285.6485,34.556 284.6265,34.872 283.2295,34.893 C281.8305,34.872 280.8095,34.556 280.1655,33.948 C279.5235,33.339 279.1165,32.565 278.9455,31.628 C278.7775,30.691 278.7035,29.719 278.7275,28.712 L278.7275,16.741 L272.0925,16.741 L272.0925,29.526 C272.0455,31.003 272.1735,32.43 272.4775,33.808 C272.7825,35.186 273.5445,36.433 274.7675,37.548 C275.8665,38.471 277.1705,39.127 278.6805,39.516 C280.1905,39.903 281.7055,40.092 283.2295,40.081 C284.7515,40.092 286.2675,39.903 287.7775,39.516 C289.2865,39.127 290.5915,38.471 291.6905,37.548 C292.9125,36.433 293.6755,35.186 293.9795,33.808 C294.2825,32.43 294.4115,31.003 294.3645,29.526 L294.3645,16.741 L287.7305,16.741 Z" id="Stroke-3" stroke="#9E9F9E" stroke-width="0.3"></path>
        <polygon id="Fill-4" fill="#9E9F9E" points="322.0795 39.477 328.7135 39.477 328.7135 16.741 322.0795 16.741"></polygon>
        <polygon id="Stroke-5" stroke="#9E9F9E" stroke-width="0.3" points="322.0795 39.477 328.7135 39.477 328.7135 16.741 322.0795 16.741"></polygon>
        <polygon id="Fill-6" fill="#3572AC" points="243.4155 4.517 243.4155 7.118 287.0665 11.096 328.7655 7.118 328.7655 4.517 287.0665 8.802"></polygon>
        <polygon id="Stroke-7" stroke="#3572AC" stroke-width="0.075" points="243.4155 4.517 243.4155 7.118 287.0665 11.096 328.7655 7.118 328.7655 4.517 287.0665 8.802"></polygon>
        <polygon id="Fill-8" fill="#3572AC" points="243.4155 51.794 243.4155 49.192 287.0665 45.215 328.7655 49.192 328.7655 51.794 287.0665 47.51"></polygon>
        <polygon id="Stroke-9" stroke="#3572AC" stroke-width="0.075" points="243.4155 51.794 243.4155 49.192 287.0665 45.215 328.7655 49.192 328.7655 51.794 287.0665 47.51"></polygon>
        <path d="M153.8935,38.827 L131.7835,38.831 C130.1865,38.831 128.8965,37.21 128.8965,35.215 L128.8935,20.461 C128.8935,18.465 130.1585,17.086 131.7975,16.881 C131.7975,16.881 131.8445,16.861 131.9895,16.849 C132.0715,16.843 153.6175,16.845 153.8685,16.845 C154.2335,16.891 154.5105,17.115 154.5605,17.396 L155.4745,21.385 L155.4765,21.428 L155.4395,21.416 L141.2805,21.41 C140.7405,21.41 140.3045,21.958 140.3045,22.635 L140.3015,25.696 L140.2965,25.727 L140.3235,25.72 L154.2175,25.729 L154.2515,25.72 L154.2475,25.755 L154.2465,29.878 L154.2535,29.909 L154.2275,29.902 L140.3305,29.902 L140.2975,29.891 L140.3085,29.926 L140.3105,33.092 C140.3105,33.767 140.7465,34.315 141.2875,34.315 L155.3205,34.309 L155.5115,34.271 L155.4715,34.459 L154.5955,38.279 C154.5445,38.561 154.2585,38.78 153.8935,38.827 Z" id="Fill-10" fill="#3572AC"></path>
        <path d="M153.8935,38.827 L131.7835,38.831 C130.1865,38.831 128.8965,37.21 128.8965,35.215 L128.8935,20.461 C128.8935,18.465 130.1585,17.086 131.7975,16.881 C131.7975,16.881 131.8445,16.861 131.9895,16.849 C132.0715,16.843 153.6175,16.845 153.8685,16.845 C154.2335,16.891 154.5105,17.115 154.5605,17.396 L155.4745,21.385 L155.4765,21.428 L155.4395,21.416 L141.2805,21.41 C140.7405,21.41 140.3045,21.958 140.3045,22.635 L140.3015,25.696 L140.2965,25.727 L140.3235,25.72 L154.2175,25.729 L154.2515,25.72 L154.2475,25.755 L154.2465,29.878 L154.2535,29.909 L154.2275,29.902 L140.3305,29.902 L140.2975,29.891 L140.3085,29.926 L140.3105,33.092 C140.3105,33.767 140.7465,34.315 141.2875,34.315 L155.3205,34.309 L155.5115,34.271 L155.4715,34.459 L154.5955,38.279 C154.5445,38.561 154.2585,38.78 153.8935,38.827 Z" id="Stroke-11" stroke="#3572AC" stroke-width="0.3"></path>
        <polygon id="Fill-12" fill="#3572AC" points="50.4425 16.971 50.4835 16.978 61.8285 16.978 61.8645 16.968 61.8535 17.006 61.8535 39.15 61.8665 39.179 61.8385 39.166 50.4775 39.166 50.4445 39.177 50.4545 39.137 50.4545 17.016"></polygon>
        <polygon id="Stroke-13" stroke="#3572AC" stroke-width="0.3" points="50.4425 16.971 50.4835 16.978 61.8285 16.978 61.8645 16.968 61.8535 17.006 61.8535 39.15 61.8665 39.179 61.8385 39.166 50.4775 39.166 50.4445 39.177 50.4545 39.137 50.4545 17.016"></polygon>
        <polygon id="Fill-14" fill="#3572AC" points="188.7775 16.968 188.8175 16.975 200.1625 16.975 200.1985 16.965 200.1875 17.003 200.1875 39.147 200.1995 39.175 200.1725 39.163 188.8115 39.163 188.7785 39.173 188.7885 39.134 188.7885 17.013"></polygon>
        <polygon id="Stroke-15" stroke="#3572AC" stroke-width="0.3" points="188.7775 16.968 188.8175 16.975 200.1625 16.975 200.1985 16.965 200.1875 17.003 200.1875 39.147 200.1995 39.175 200.1725 39.163 188.8115 39.163 188.7785 39.173 188.7885 39.134 188.7885 17.013"></polygon>
        <path d="M184.8405,37.388 C184.8405,38.203 184.2135,38.86 183.4135,38.86 L171.1355,38.86 L171.1365,38.845 C171.1365,38.845 163.9315,23.627 163.5035,23.223 C163.5305,23.354 163.5365,23.393 163.5605,23.631 L163.5615,38.839 L163.5665,38.865 L163.5435,38.858 L159.1975,38.858 L159.0965,38.893 L159.1195,38.778 L159.1165,18.353 C159.1165,17.538 159.7545,16.867 160.5545,16.867 C160.8085,16.867 172.7525,16.873 172.7525,16.873 C172.7525,16.873 179.9545,32.285 180.3925,32.696 C180.3665,32.566 180.3585,32.527 180.3345,32.29 L180.3355,16.887 L180.3275,16.864 L180.3505,16.872 L184.8245,16.872 L184.8475,16.865 L184.8425,16.89 L184.8405,37.388 Z" id="Fill-16" fill="#3572AC"></path>
        <path d="M184.8405,37.388 C184.8405,38.203 184.2135,38.86 183.4135,38.86 L171.1355,38.86 L171.1365,38.845 C171.1365,38.845 163.9315,23.627 163.5035,23.223 C163.5305,23.354 163.5365,23.393 163.5605,23.631 L163.5615,38.839 L163.5665,38.865 L163.5435,38.858 L159.1975,38.858 L159.0965,38.893 L159.1195,38.778 L159.1165,18.353 C159.1165,17.538 159.7545,16.867 160.5545,16.867 C160.8085,16.867 172.7525,16.873 172.7525,16.873 C172.7525,16.873 179.9545,32.285 180.3925,32.696 C180.3665,32.566 180.3585,32.527 180.3345,32.29 L180.3355,16.887 L180.3275,16.864 L180.3505,16.872 L184.8245,16.872 L184.8475,16.865 L184.8425,16.89 L184.8405,37.388 Z" id="Stroke-17" stroke="#3572AC" stroke-width="0.3"></path>
        <path d="M91.5495,38.943 L69.4395,38.947 C67.8435,38.947 66.5535,37.326 66.5535,35.331 L66.5505,20.577 C66.5505,18.581 67.8155,17.201 69.4535,16.997 C69.4535,16.997 69.5005,16.977 69.6455,16.966 C69.7275,16.959 91.2735,16.96 91.5245,16.96 C91.8895,17.008 92.1665,17.231 92.2175,17.513 L93.1305,21.501 L93.1335,21.544 L93.0955,21.532 L78.9365,21.526 C78.3965,21.526 77.9605,22.074 77.9605,22.751 L77.9585,25.812 L77.9525,25.843 L77.9795,25.836 L91.8735,25.846 L91.9075,25.835 L91.9035,25.871 L91.9025,29.994 L91.9095,30.024 L91.8835,30.018 L77.9865,30.018 L77.9535,30.008 L77.9655,30.042 L77.9665,33.208 C77.9665,33.883 78.4025,34.432 78.9435,34.432 L92.9765,34.426 L93.1685,34.388 L93.1275,34.574 L92.2515,38.395 C92.2005,38.678 91.9145,38.895 91.5495,38.943 Z" id="Fill-18" fill="#3572AC"></path>
        <path d="M91.5495,38.943 L69.4395,38.947 C67.8435,38.947 66.5535,37.326 66.5535,35.331 L66.5505,20.577 C66.5505,18.581 67.8155,17.201 69.4535,16.997 C69.4535,16.997 69.5005,16.977 69.6455,16.966 C69.7275,16.959 91.2735,16.96 91.5245,16.96 C91.8895,17.008 92.1665,17.231 92.2175,17.513 L93.1305,21.501 L93.1335,21.544 L93.0955,21.532 L78.9365,21.526 C78.3965,21.526 77.9605,22.074 77.9605,22.751 L77.9585,25.812 L77.9525,25.843 L77.9795,25.836 L91.8735,25.846 L91.9075,25.835 L91.9035,25.871 L91.9025,29.994 L91.9095,30.024 L91.8835,30.018 L77.9865,30.018 L77.9535,30.008 L77.9655,30.042 L77.9665,33.208 C77.9665,33.883 78.4025,34.432 78.9435,34.432 L92.9765,34.426 L93.1685,34.388 L93.1275,34.574 L92.2515,38.395 C92.2005,38.678 91.9145,38.895 91.5495,38.943 Z" id="Stroke-19" stroke="#3572AC" stroke-width="0.3"></path>
        <path d="M42.1535,38.941 C43.5275,38.606 44.9425,37.399 45.6155,36.582 C46.3325,35.618 47.0795,33.977 47.0795,32.109 C47.0795,30.045 46.3505,28.652 45.5955,27.552 C44.9485,26.709 43.3625,25.848 42.1535,25.707 C39.1785,25.302 31.5225,25.401 31.5225,25.401 L31.5975,25.398 C31.2515,25.365 30.7555,25.123 30.5455,24.868 C30.3215,24.567 30.0885,24.055 30.0885,23.473 C30.0885,22.828 30.3165,22.393 30.5515,22.051 C30.7535,21.788 31.2695,21.468 31.6465,21.424 L31.6165,21.424 C33.4805,21.079 33.6115,21.06 36.4805,21.155 C39.6545,21.262 43.7095,21.644 45.4235,21.759 L46.0325,17.635 C45.9815,17.366 45.9035,17.254 45.3295,17.108 L43.9485,16.861 C40.7475,16.413 37.3915,16.067 33.1165,16.049 C28.5305,16.03 27.4805,16.106 24.5515,16.725 C23.2915,16.872 21.5665,17.942 20.8915,18.822 C20.1035,19.97 19.3435,21.424 19.3435,23.577 C19.3435,25.525 20.1225,27.237 20.8705,28.243 C21.5855,29.111 23.3315,29.826 24.4915,29.915 C27.8365,30.031 35.1415,30.307 35.1415,30.307 L35.2265,30.316 C35.5735,30.35 36.0695,30.592 36.2795,30.847 C36.5035,31.148 36.7365,31.66 36.7365,32.242 C36.7365,32.887 36.5085,33.321 36.2735,33.664 C36.0715,33.928 35.5555,34.248 35.1785,34.292 L35.1135,34.304 C33.3815,34.397 32.1785,34.531 29.3555,34.467 C26.0185,34.389 21.9745,34.058 20.2605,33.944 L19.5385,38.203 C19.5895,38.471 19.8735,38.683 20.2415,38.728 L21.5615,38.912 C26.2115,39.409 28.4665,39.747 33.0745,39.747 C37.2735,39.747 39.9035,39.554 42.1535,38.941" id="Fill-20" fill="#3572AC"></path>
        <path d="M111.0705,21.565 C112.9345,21.221 113.8435,21.19 115.9435,21.19 C119.1185,21.19 121.7955,21.462 123.5095,21.577 L124.1195,17.452 C124.0685,17.184 123.9905,17.072 123.4165,16.927 L122.0345,16.679 C118.8345,16.23 116.6785,15.885 112.4025,15.867 C107.8175,15.848 102.9815,16.347 101.2845,17.102 C98.0595,18.364 96.5885,21.214 96.2605,21.884 C95.4345,23.796 95.1115,26.316 95.0935,27.847 C95.0625,30.371 95.4865,32.493 96.0685,33.794 C97.2685,36.184 98.8435,37.409 100.8675,38.098 C104.3185,39.168 108.2185,39.551 111.9685,39.618 C116.7265,39.703 123.1135,38.78 125.2245,38.527 C125.4585,38.489 125.6765,38.493 125.7725,38.445 C125.7885,38.495 125.7675,29.434 125.7675,25.957 L125.7725,25.805 L125.6045,25.801 L112.2775,25.803 L112.2775,29.475 L114.9425,29.472 C114.9425,29.472 114.9585,33.603 114.9585,34.645 C114.9585,34.655 113.8275,35.141 110.7305,34.769 C109.7745,34.655 108.9485,34.217 108.1155,33.488 C107.7865,33.201 107.4685,32.838 106.9995,32.073 C106.9995,32.073 106.2605,30.516 106.3435,27.923 C106.4055,25.989 106.7935,24.48 107.3835,23.729 C108.1435,22.721 108.7425,22.166 111.0705,21.565 Z" id="Fill-21" fill="#3572AC"></path>
        <path d="M111.0705,21.565 C112.9345,21.221 113.8435,21.19 115.9435,21.19 C119.1185,21.19 121.7955,21.462 123.5095,21.577 L124.1195,17.452 C124.0685,17.184 123.9905,17.072 123.4165,16.927 L122.0345,16.679 C118.8345,16.23 116.6785,15.885 112.4025,15.867 C107.8175,15.848 102.9815,16.347 101.2845,17.102 C98.0595,18.364 96.5885,21.214 96.2605,21.884 C95.4345,23.796 95.1115,26.316 95.0935,27.847 C95.0625,30.371 95.4865,32.493 96.0685,33.794 C97.2685,36.184 98.8435,37.409 100.8675,38.098 C104.3185,39.168 108.2185,39.551 111.9685,39.618 C116.7265,39.703 123.1135,38.78 125.2245,38.527 C125.4585,38.489 125.6765,38.493 125.7725,38.445 C125.7885,38.495 125.7675,29.434 125.7675,25.957 L125.7725,25.805 L125.6045,25.801 L112.2775,25.803 L112.2775,29.475 L114.9425,29.472 C114.9425,29.472 114.9585,33.603 114.9585,34.645 C114.9585,34.655 113.8275,35.141 110.7305,34.769 C109.7745,34.655 108.9485,34.217 108.1155,33.488 C107.7865,33.201 107.4685,32.838 106.9995,32.073 C106.9995,32.073 106.2605,30.516 106.3435,27.923 C106.4055,25.989 106.7935,24.48 107.3835,23.729 C108.1435,22.721 108.7425,22.166 111.0705,21.565 Z" id="Stroke-22" stroke="#3572AC" stroke-width="0.075" stroke-linecap="round" stroke-linejoin="round"></path>
        <path d="M223.8325,16.993 C224.2165,16.993 224.5485,17.193 224.6915,17.479 L234.7845,39.084 L234.7085,39.158 L222.8575,39.159 L222.7385,39.196 L222.7335,39.073 L220.6395,34.614 L209.0625,34.619 L207.1065,39.095 L207.0875,39.196 L206.9815,39.158 L201.9695,39.158 L201.8365,39.196 L201.9115,39.093 L211.3665,17.506 C211.5045,17.209 211.8295,16.991 212.2225,16.991 L223.8325,16.993 Z M218.7475,30.563 C218.7075,30.492 214.7365,21.845 214.7315,21.843 C214.7345,21.846 214.6555,21.653 214.6335,21.554 C214.6165,21.609 214.5735,21.691 214.5255,21.837 C214.5255,21.837 212.0875,27.483 210.7915,30.459 C210.7725,30.504 210.7245,30.563 210.7245,30.563 C210.7245,30.563 210.8705,30.543 210.9115,30.543 C210.9115,30.543 215.8645,30.539 218.6985,30.542 L218.7475,30.563 Z" id="Fill-23" fill="#3572AC"></path>
        <path d="M223.8325,16.993 C224.2165,16.993 224.5485,17.193 224.6915,17.479 L234.7845,39.084 L234.7085,39.158 L222.8575,39.159 L222.7385,39.196 L222.7335,39.073 L220.6395,34.614 L209.0625,34.619 L207.1065,39.095 L207.0875,39.196 L206.9815,39.158 L201.9695,39.158 L201.8365,39.196 L201.9115,39.093 L211.3665,17.506 C211.5045,17.209 211.8295,16.991 212.2225,16.991 L223.8325,16.993 Z M218.7475,30.563 C218.7075,30.492 214.7365,21.845 214.7315,21.843 C214.7345,21.846 214.6555,21.653 214.6335,21.554 C214.6165,21.609 214.5735,21.691 214.5255,21.837 C214.5255,21.837 212.0875,27.483 210.7915,30.459 C210.7725,30.504 210.7245,30.563 210.7245,30.563 C210.7245,30.563 210.8705,30.543 210.9115,30.543 C210.9115,30.543 215.8645,30.539 218.6985,30.542 L218.7475,30.563 Z" id="Stroke-24" stroke="#3572AC" stroke-width="0.075"></path>
        <path d="M223.8325,16.993 C224.2165,16.993 224.5485,17.193 224.6915,17.479 L234.7845,39.084 L234.7085,39.158 L222.8575,39.159 L222.7385,39.196 L222.7335,39.073 L220.6395,34.614 L209.0625,34.619 L207.1065,39.095 L207.0875,39.196 L206.9815,39.158 L201.9695,39.158 L201.8365,39.196 L201.9115,39.093 L211.3665,17.506 C211.5045,17.209 211.8295,16.991 212.2225,16.991 L223.8325,16.993 Z M218.7475,30.563 C218.7075,30.492 214.7365,21.845 214.7315,21.843 C214.7345,21.846 214.6555,21.653 214.6335,21.554 C214.6165,21.609 214.5735,21.691 214.5255,21.837 C214.5255,21.837 212.0875,27.483 210.7915,30.459 C210.7725,30.504 210.7245,30.563 210.7245,30.563 C210.7245,30.563 210.8705,30.543 210.9115,30.543 C210.9115,30.543 215.8645,30.539 218.6985,30.542 L218.7475,30.563 Z" id="Stroke-25" stroke="#3572AC" stroke-width="0.3"></path>
        <path d="M261.4225,35.527 L263.0805,39.477 L270.1555,39.477 L260.5415,16.741 L253.2985,16.741 L243.4835,39.477 L250.5235,39.477 L252.2825,35.527 L261.4225,35.527 Z M259.6285,31.004 L254.1115,31.004 L256.8535,23.766 L256.9205,23.766 L259.6285,31.004 Z" id="Fill-26" fill="#9E9F9E"></path>
        <path d="M261.4225,35.527 L263.0805,39.477 L270.1555,39.477 L260.5415,16.741 L253.2985,16.741 L243.4835,39.477 L250.5235,39.477 L252.2825,35.527 L261.4225,35.527 Z M259.6285,31.004 L254.1115,31.004 L256.8535,23.766 L256.9205,23.766 L259.6285,31.004 Z" id="Stroke-27" stroke="#9E9F9E" stroke-width="0.3"></path>
        <polygon id="Stroke-28" stroke="#9E9F9E" stroke-width="0.3" points="261.4225 35.527 263.0805 39.477 270.1555 39.477 260.5415 16.741 253.2985 16.741 243.4835 39.477 250.5235 39.477 252.2825 35.527"></polygon>
        <path d="M306.0935,30.086 L306.5125,30.086 C307.3065,30.066 307.7715,30.076 308.6555,30.117 C309.5385,30.158 310.2955,30.349 310.9245,30.692 C311.5535,31.035 311.8825,31.648 311.9105,32.534 C311.8805,33.344 311.5515,33.917 310.9235,34.255 C310.2955,34.592 309.5515,34.792 308.6925,34.853 C307.8325,34.916 307.0415,34.939 306.3185,34.922 L306.0935,34.922 L306.0935,30.086 Z M306.0935,21.369 L306.9555,21.369 C307.9575,21.331 308.8755,21.437 309.7115,21.686 C310.5475,21.935 310.9915,22.556 311.0435,23.549 C311.0015,24.475 310.6015,25.077 309.8425,25.354 C309.0835,25.632 308.2165,25.757 307.2425,25.727 L306.0935,25.727 L306.0935,21.369 Z M308.9945,39.4 C310.6735,39.41 312.2525,39.218 313.7315,38.823 C315.2105,38.429 316.4155,37.771 317.3455,36.852 C318.2745,35.934 318.7535,34.693 318.7825,33.132 C318.7945,31.547 318.1915,30.02 317.5215,29.205 C316.9715,28.536 316.0975,27.745 314.1605,27.399 L314.1605,27.34 C315.3875,27.069 316.5345,26.242 316.9925,25.455 C317.4505,24.669 317.6735,23.765 317.6605,22.742 C317.6265,20.618 316.8885,19.105 315.4475,18.205 C314.0045,17.305 312.0665,16.866 309.6285,16.891 L299.0665,16.891 L299.0665,39.4 L308.9945,39.4 Z" id="Fill-29" fill="#9E9F9E"></path>
        <path d="M306.0935,30.086 L306.5125,30.086 C307.3065,30.066 307.7715,30.076 308.6555,30.117 C309.5385,30.158 310.2955,30.349 310.9245,30.692 C311.5535,31.035 311.8825,31.648 311.9105,32.534 C311.8805,33.344 311.5515,33.917 310.9235,34.255 C310.2955,34.592 309.5515,34.792 308.6925,34.853 C307.8325,34.916 307.0415,34.939 306.3185,34.922 L306.0935,34.922 L306.0935,30.086 Z M306.0935,21.369 L306.9555,21.369 C307.9575,21.331 308.8755,21.437 309.7115,21.686 C310.5475,21.935 310.9915,22.556 311.0435,23.549 C311.0015,24.475 310.6015,25.077 309.8425,25.354 C309.0835,25.632 308.2165,25.757 307.2425,25.727 L306.0935,25.727 L306.0935,21.369 Z M308.9945,39.4 C310.6735,39.41 312.2525,39.218 313.7315,38.823 C315.2105,38.429 316.4155,37.771 317.3455,36.852 C318.2745,35.934 318.7535,34.693 318.7825,33.132 C318.7945,31.547 318.1915,30.02 317.5215,29.205 C316.9715,28.536 316.0975,27.745 314.1605,27.399 L314.1605,27.34 C315.3875,27.069 316.5345,26.242 316.9925,25.455 C317.4505,24.669 317.6735,23.765 317.6605,22.742 C317.6265,20.618 316.8885,19.105 315.4475,18.205 C314.0045,17.305 312.0665,16.866 309.6285,16.891 L299.0665,16.891 L299.0665,39.4 L308.9945,39.4 Z" id="Stroke-30" stroke="#9E9F9E" stroke-width="0.3"></path>
        <path d="M308.9945,39.4 C310.6735,39.41 312.2525,39.218 313.7315,38.823 C315.2105,38.429 316.4155,37.771 317.3455,36.852 C318.2745,35.934 318.7535,34.693 318.7825,33.132 C318.7945,31.547 318.1915,30.02 317.5215,29.205 C316.9715,28.536 316.0975,27.745 314.1605,27.399 L314.1605,27.34 C315.3875,27.069 316.5345,26.242 316.9925,25.455 C317.4505,24.669 317.6735,23.765 317.6605,22.742 C317.6265,20.618 316.8885,19.105 315.4475,18.205 C314.0045,17.305 312.0665,16.866 309.6285,16.891 L299.0665,16.891 L299.0665,39.4 L308.9945,39.4 Z" id="Stroke-31" stroke="#9E9F9E" stroke-width="0.31"></path>
        <path d="M25.0595,65.915 C24.6115,65.139 24.0745,64.692 23.1185,64.692 C22.1185,64.692 21.2535,65.408 21.2535,66.438 C21.2535,67.408 22.2535,67.856 23.0145,68.199 L23.7615,68.528 C25.2235,69.169 26.4625,69.901 26.4625,71.692 C26.4625,73.662 24.8805,75.169 22.9255,75.169 C21.1185,75.169 19.7755,74.005 19.4175,72.258 L20.6415,71.915 C20.8055,73.065 21.6865,74.005 22.8955,74.005 C24.1045,74.005 25.2085,73.079 25.2085,71.811 C25.2085,70.497 24.1785,70.049 23.1335,69.572 L22.4475,69.274 C21.1345,68.676 19.9995,68.005 19.9995,66.393 C19.9995,64.647 21.4775,63.528 23.1495,63.528 C24.4025,63.528 25.4625,64.169 26.0595,65.274 L25.0595,65.915" id="Fill-32" fill="#1A1919"></path>
        <path d="M51.4015,69.363 C51.4015,72.602 48.7455,75.169 45.5365,75.169 C42.3275,75.169 39.6705,72.602 39.6705,69.363 C39.6705,66.139 42.3275,63.528 45.5365,63.528 C48.7455,63.528 51.4015,66.139 51.4015,69.363 Z M40.9245,69.348 C40.9245,71.885 42.9845,74.005 45.5365,74.005 C48.0885,74.005 50.1485,71.885 50.1485,69.348 C50.1485,66.796 48.1185,64.692 45.5365,64.692 C42.9545,64.692 40.9245,66.796 40.9245,69.348 Z" id="Fill-33" fill="#1A1919"></path>
        <polyline id="Fill-34" fill="#1A1919" points="66.2975 73.811 69.4015 73.811 69.4015 74.975 65.0435 74.975 65.0435 63.721 66.2975 63.721 66.2975 73.811"></polyline>
        <path d="M83.8035,70.423 C83.8035,71.258 83.7745,72.213 84.2965,72.93 C84.7885,73.617 85.7445,74.005 86.5655,74.005 C87.3705,74.005 88.2515,73.631 88.7745,73.004 C89.3705,72.288 89.3265,71.303 89.3265,70.423 L89.3265,63.721 L90.5795,63.721 L90.5795,70.766 C90.5795,71.99 90.4905,72.96 89.5955,73.885 C88.8185,74.721 87.6995,75.169 86.5655,75.169 C85.5055,75.169 84.4155,74.766 83.6545,74.02 C82.6695,73.079 82.5505,72.049 82.5505,70.766 L82.5505,63.721 L83.8035,63.721 L83.8035,70.423" id="Fill-35" fill="#1A1919"></path>
        <polyline id="Fill-36" fill="#1A1919" points="107.7285 74.975 106.4745 74.975 106.4745 64.886 103.7585 64.886 103.7585 63.721 110.4745 63.721 110.4745 64.886 107.7285 64.886 107.7285 74.975"></polyline>
        <polygon id="Fill-37" fill="#1A1919" points="123.7285 74.975 124.9815 74.975 124.9815 63.721 123.7285 63.721"></polygon>
        <path d="M150.3695,69.363 C150.3695,72.602 147.7125,75.169 144.5035,75.169 C141.2945,75.169 138.6375,72.602 138.6375,69.363 C138.6375,66.139 141.2945,63.528 144.5035,63.528 C147.7125,63.528 150.3695,66.139 150.3695,69.363 Z M139.8915,69.348 C139.8915,71.885 141.9515,74.005 144.5035,74.005 C147.0555,74.005 149.1155,71.885 149.1155,69.348 C149.1155,66.796 147.0855,64.692 144.5035,64.692 C141.9215,64.692 139.8915,66.796 139.8915,69.348 Z" id="Fill-38" fill="#1A1919"></path>
        <polyline id="Fill-39" fill="#1A1919" points="164.0855 63.244 172.8615 72.438 172.8615 63.721 174.1155 63.721 174.1155 75.483 165.3395 66.303 165.3395 74.975 164.0855 74.975 164.0855 63.244"></polyline>
        <path d="M193.5015,65.915 C193.0535,65.139 192.5165,64.692 191.5615,64.692 C190.5615,64.692 189.6955,65.408 189.6955,66.438 C189.6955,67.408 190.6965,67.856 191.4565,68.199 L192.2025,68.528 C193.6655,69.169 194.9045,69.901 194.9045,71.692 C194.9045,73.662 193.3225,75.169 191.3665,75.169 C189.5615,75.169 188.2175,74.005 187.8605,72.258 L189.0835,71.915 C189.2475,73.065 190.1285,74.005 191.3375,74.005 C192.5465,74.005 193.6515,73.079 193.6515,71.811 C193.6515,70.497 192.6205,70.049 191.5755,69.572 L190.8895,69.274 C189.5755,68.676 188.4425,68.005 188.4425,66.393 C188.4425,64.647 189.9195,63.528 191.5905,63.528 C192.8445,63.528 193.9045,64.169 194.5015,65.274 L193.5015,65.915" id="Fill-40" fill="#1A1919"></path>
        <polygon id="Fill-41" fill="#1A1919" points="225.2465 74.975 226.5005 74.975 226.5005 63.721 225.2465 63.721"></polygon>
        <polyline id="Fill-42" fill="#1A1919" points="240.7985 63.244 249.5745 72.438 249.5745 63.721 250.8275 63.721 250.8275 75.483 242.0525 66.303 242.0525 74.975 240.7985 74.975 240.7985 63.244"></polyline>
        <path d="M270.2155,65.915 C269.7685,65.139 269.2305,64.692 268.2755,64.692 C267.2755,64.692 266.4095,65.408 266.4095,66.438 C266.4095,67.408 267.4095,67.856 268.1705,68.199 L268.9165,68.528 C270.3795,69.169 271.6185,69.901 271.6185,71.692 C271.6185,73.662 270.0365,75.169 268.0815,75.169 C266.2755,75.169 264.9325,74.005 264.5745,72.258 L265.7975,71.915 C265.9615,73.065 266.8425,74.005 268.0515,74.005 C269.2605,74.005 270.3645,73.079 270.3645,71.811 C270.3645,70.497 269.3345,70.049 268.2905,69.572 L267.6035,69.274 C266.2905,68.676 265.1555,68.005 265.1555,66.393 C265.1555,64.647 266.6335,63.528 268.3055,63.528 C269.5595,63.528 270.6185,64.169 271.2155,65.274 L270.2155,65.915" id="Fill-43" fill="#1A1919"></path>
        <polygon id="Fill-44" fill="#1A1919" points="285.4245 74.975 286.6775 74.975 286.6775 63.721 285.4245 63.721"></polygon>
        <path d="M300.9015,63.721 L303.0205,63.721 C304.7075,63.721 306.0795,63.946 307.4085,65.079 C308.6925,66.184 309.2745,67.692 309.2745,69.363 C309.2745,71.005 308.6775,72.452 307.4385,73.557 C306.0955,74.751 304.7515,74.975 302.9915,74.975 L300.9015,74.975 L300.9015,63.721 Z M303.0655,73.811 C304.4385,73.811 305.5875,73.617 306.6175,72.647 C307.5425,71.781 308.0205,70.602 308.0205,69.348 C308.0205,68.065 307.5285,66.825 306.5585,65.975 C305.5285,65.065 304.3945,64.886 303.0655,64.886 L302.1555,64.886 L302.1555,73.811 L303.0655,73.811 Z" id="Fill-45" fill="#1A1919"></path>
        <polyline id="Fill-46" fill="#1A1919" points="322.9605 63.721 328.7955 63.721 328.7955 64.886 324.2135 64.886 324.2135 68.229 328.6615 68.229 328.6615 69.393 324.2135 69.393 324.2135 73.811 328.7955 73.811 328.7955 74.975 322.9605 74.975 322.9605 63.721"></polyline>
    </g>
</svg>