<svg width="127px" height="40px" viewBox="0 0 127 40" version="1.1" xmlns="http://www.w3.org/2000/svg" xmlns:xlink="http://www.w3.org/1999/xlink">
    <g id="wds" stroke="none" stroke-width="1" fill="none" fill-rule="evenodd">
        <polyline id="Fill-1" fill="#74B943" points="7.7588918 31.6694586 7.7588918 6.33368233 28 6.33368233 28 0 0 0.00418790467 0 38 28 38 28 31.6694586 7.7588918 31.6694586"></polyline>
        <polygon id="Fill-2" fill="#00A8C8" points="20 31 32 31 32 6 20 6"></polygon>
        <path d="M125.343662,38.4047556 C124.980282,38.4047556 124.500083,38.3180978 124.133223,38.1849406 L124.177962,37.388111 C124.226678,37.4108322 124.711848,37.651255 125.207457,37.651255 C125.698094,37.651255 125.81193,37.388111 125.81193,37.2295905 C125.81193,36.8322325 125.335708,36.7661823 124.959403,36.5949802 C124.507042,36.3915456 124.198343,36.1294584 124.198343,35.5524439 C124.198343,35.1133421 124.449379,34.4095112 125.52908,34.4095112 C125.740845,34.4095112 126.170837,34.4015852 126.699254,34.5722589 L126.616239,35.3088507 C126.479536,35.2560106 126.167854,35.1228534 125.784093,35.1228534 C125.17763,35.1228534 125.141839,35.4287979 125.141839,35.5254954 C125.141839,35.863144 125.493289,35.930251 125.788567,36.0322325 C126.203645,36.1801849 126.768351,36.4449141 126.768351,37.2073976 C126.768351,37.8250991 126.325435,38.4047556 125.343662,38.4047556 Z M122.086661,38.348745 L122.086661,36.1696169 C122.086661,35.8134742 122.089644,35.2406869 121.541342,35.2406869 C121.179453,35.2406869 120.798177,35.5524439 120.798177,36.206605 L120.798177,38.348745 L119.841756,38.348745 L119.841756,36.1696169 C119.841756,35.7040951 119.797514,35.2406869 119.316819,35.2406869 C118.969843,35.2406869 118.564706,35.5122853 118.564706,36.206605 L118.564706,38.348745 L117.60232,38.348745 L117.60232,34.4692206 L118.514499,34.4692206 L118.514499,35.1297226 L118.535377,35.1297226 C118.747142,34.6372523 119.192046,34.4095112 119.657829,34.4095112 C120.312013,34.4095112 120.567026,34.7989432 120.658492,35.1376486 L120.676388,35.1376486 C120.93488,34.6182299 121.40464,34.4095112 121.874896,34.4095112 C122.200994,34.4095112 123.043579,34.4903567 123.043579,35.7627477 L123.043579,38.348745 L122.086661,38.348745 Z M114.812593,35.1133421 C114.389064,35.1133421 114.074399,35.5122853 114.062966,36.0174373 L115.566197,36.0174373 C115.579619,35.3685601 115.164043,35.1133421 114.812593,35.1133421 Z M114.062966,36.7143989 C114.092295,37.2073976 114.431814,37.6755614 115.15261,37.6755614 C115.573654,37.6755614 115.945982,37.5677675 116.294449,37.4060766 L116.294449,38.1685601 C115.917647,38.3180978 115.465286,38.4047556 115.027838,38.4047556 C113.941176,38.4047556 113.06628,37.7764861 113.06628,36.4100396 C113.06628,35.1603699 113.88749,34.4095112 114.863297,34.4095112 C116.519635,34.4095112 116.552444,36.1384412 116.552444,36.4824306 L116.552444,36.7143989 L114.062966,36.7143989 Z M111.526761,38.4047556 C110.472411,38.4047556 110.469428,37.4636724 110.469428,37.2073976 L110.469428,35.2163804 L109.744159,35.2163804 L109.744159,34.4692206 L110.469428,34.4692206 L110.469428,33.6977543 L111.422867,33.3754293 L111.422867,34.4692206 L112.269428,34.4692206 L112.269428,35.2163804 L111.422867,35.2163804 L111.422867,36.9775429 C111.422867,37.3151915 111.422867,37.6586526 111.892626,37.6586526 C112.021872,37.6586526 112.155592,37.6285337 112.269428,37.5941876 L112.269428,38.3080581 C112.211765,38.322325 111.864789,38.4047556 111.526761,38.4047556 Z M107.622038,38.4047556 C107.255675,38.4047556 106.777962,38.3180978 106.409114,38.1849406 L106.451864,37.388111 C106.502568,37.4108322 106.990224,37.651255 107.473902,37.651255 C107.973488,37.651255 108.084341,37.388111 108.084341,37.2295905 C108.084341,36.8322325 107.614582,36.7661823 107.233306,36.5949802 C106.782436,36.3915456 106.46976,36.1294584 106.46976,35.5524439 C106.46976,35.1133421 106.724772,34.4095112 107.804474,34.4095112 C108.016736,34.4095112 108.44971,34.4015852 108.972659,34.5722589 L108.887158,35.3088507 C108.75493,35.2560106 108.446727,35.1228534 108.059486,35.1228534 C107.453024,35.1228534 107.417233,35.4287979 107.417233,35.5254954 C107.417233,35.863144 107.771665,35.930251 108.062469,36.0322325 C108.48053,36.1801849 109.041259,36.4449141 109.041259,37.2073976 C109.041259,37.8250991 108.600829,38.4047556 107.622038,38.4047556 Z M104.347639,38.8200793 C104.12792,39.4409511 103.884838,40 102.85435,40 C102.658492,40 102.482022,39.9672391 102.298094,39.8964333 L102.366197,39.1392338 C102.482022,39.184148 102.600829,39.2190225 102.740017,39.2190225 C103.066611,39.2190225 103.281359,39.1286658 103.407125,38.7878468 L103.485667,38.5648613 L102.05203,34.4692206 L103.106379,34.4692206 L103.791881,36.6134742 L103.991715,37.3521797 L104.03198,37.3521797 L104.254184,36.5807133 L104.916819,34.4692206 L105.892626,34.4692206 L104.347639,38.8200793 Z M99.9741508,38.4047556 C99.6053024,38.4047556 99.1290804,38.3180978 98.7627175,38.1849406 L98.8054681,37.388111 C98.8561723,37.4108322 99.3368683,37.651255 99.8319801,37.651255 C100.330572,37.651255 100.437448,37.388111 100.437448,37.2295905 C100.437448,36.8322325 99.9637117,36.7661823 99.5874068,36.5949802 C99.1350456,36.3915456 98.8233637,36.1294584 98.8233637,35.5524439 C98.8233637,35.1133421 99.0818558,34.4095112 100.153604,34.4095112 C100.368848,34.4095112 100.803314,34.4015852 101.327258,34.5722589 L101.240762,35.3088507 C101.112013,35.2560106 100.800331,35.1228534 100.412096,35.1228534 C99.806628,35.1228534 99.76686,35.4287979 99.76686,35.5254954 C99.76686,35.863144 100.121292,35.930251 100.41657,36.0322325 C100.835626,36.1801849 101.394863,36.4449141 101.394863,37.2073976 C101.394863,37.8250991 100.95493,38.4047556 99.9741508,38.4047556 Z M95.958575,35.1957728 C95.8934548,35.189432 95.7492958,35.1730515 95.6503728,35.1730515 C95.3043911,35.1730515 94.7630489,35.3976222 94.7630489,36.4824306 L94.7630489,38.348745 L93.8021541,38.348745 L93.8021541,34.4692206 L94.6775476,34.4692206 L94.6775476,35.3088507 L94.69942,35.3088507 C94.7854184,34.8369881 95.1144988,34.4095112 95.6782104,34.4095112 C95.7716653,34.4095112 95.8934548,34.4322325 95.9968517,34.4523118 L95.958575,35.1957728 Z M90.8647887,35.1392338 C90.444739,35.1392338 89.9864126,35.5122853 89.9864126,36.4100396 C89.9864126,37.3046235 90.444739,37.6755614 90.8647887,37.6755614 C91.2913007,37.6755614 91.7466446,37.3046235 91.7466446,36.4100396 C91.7466446,35.5122853 91.2913007,35.1392338 90.8647887,35.1392338 Z M90.8647887,38.4047556 C89.785087,38.4047556 88.9882353,37.7019815 88.9882353,36.4100396 C88.9882353,35.1133421 89.785087,34.4095112 90.8647887,34.4095112 C91.9514499,34.4095112 92.7478045,35.1133421 92.7478045,36.4100396 C92.7478045,37.7019815 91.9514499,38.4047556 90.8647887,38.4047556 Z M86.2626346,35.1392338 C85.843082,35.1392338 85.3802817,35.5122853 85.3802817,36.4100396 C85.3802817,37.3046235 85.843082,37.6755614 86.2626346,37.6755614 C86.6866611,37.6755614 87.142005,37.3046235 87.142005,36.4100396 C87.142005,35.5122853 86.6866611,35.1392338 86.2626346,35.1392338 Z M86.2626346,38.4047556 C85.18343,38.4047556 84.3840928,37.7019815 84.3840928,36.4100396 C84.3840928,35.1133421 85.18343,34.4095112 86.2626346,34.4095112 C87.3483016,34.4095112 88.1431649,35.1133421 88.1431649,36.4100396 C88.1431649,37.7019815 87.3483016,38.4047556 86.2626346,38.4047556 Z M81.5794532,35.2163804 C81.1927092,35.2163804 80.7681856,35.5862616 80.7681856,36.4100396 C80.7681856,37.2295905 81.1927092,37.597358 81.5794532,37.597358 C81.9681856,37.597358 82.3892295,37.2295905 82.3892295,36.4100396 C82.3892295,35.5862616 81.9681856,35.2163804 81.5794532,35.2163804 Z M82.5080365,38.348745 L82.5080365,37.6755614 L82.4975973,37.6755614 C82.3330572,37.994716 81.9995029,38.4047556 81.3020713,38.4047556 C80.3739851,38.4047556 79.7700083,37.6343461 79.7700083,36.4100396 C79.7700083,34.9939234 80.6111019,34.4095112 81.3468103,34.4095112 C81.8732394,34.4095112 82.2102734,34.678996 82.396686,34.9939234 L82.4130903,34.9939234 L82.3892295,34.3582563 L82.3892295,32.7318362 L83.3476388,32.7318362 L83.3476388,38.348745 L82.5080365,38.348745 Z M75.910522,38.348745 L74.7771334,38.348745 L74.1070423,35.938177 L73.9688484,35.2945839 L73.9464789,35.2945839 L73.8177299,35.930251 L73.1859155,38.348745 L72.053024,38.348745 L70.8500414,34.4692206 L71.8705882,34.4692206 L72.4770505,36.6177015 L72.6550124,37.4108322 L72.6714167,37.4108322 L72.8419221,36.5949802 L73.4409279,34.4692206 L74.5738194,34.4692206 L75.1907208,36.6177015 L75.3776305,37.4214003 L75.3910522,37.4214003 L75.5660315,36.6134742 L76.1426678,34.4692206 L77.1070423,34.4692206 L75.910522,38.348745 Z M68.2979287,35.1392338 C67.8783761,35.1392338 67.4190555,35.5122853 67.4190555,36.4100396 C67.4190555,37.3046235 67.8783761,37.6755614 68.2979287,37.6755614 C68.7179785,37.6755614 69.1807788,37.3046235 69.1807788,36.4100396 C69.1807788,35.5122853 68.7179785,35.1392338 68.2979287,35.1392338 Z M68.2979287,38.4047556 C67.2112676,38.4047556 66.4223695,37.7019815 66.4223695,36.4100396 C66.4223695,35.1133421 67.2112676,34.4095112 68.2979287,34.4095112 C69.385087,34.4095112 70.178459,35.1133421 70.178459,36.4100396 C70.178459,37.7019815 69.385087,38.4047556 68.2979287,38.4047556 Z M63.613256,35.2163804 C63.226512,35.2163804 62.8064623,35.5862616 62.8064623,36.4100396 C62.8064623,37.2295905 63.226512,37.597358 63.613256,37.597358 C64.0004971,37.597358 64.4245236,37.2295905 64.4245236,36.4100396 C64.4245236,35.5862616 64.0004971,35.2163804 63.613256,35.2163804 Z M64.5458161,38.348745 L64.5458161,37.6755614 L64.5314002,37.6755614 C64.36686,37.994716 64.0407622,38.4047556 63.3408451,38.4047556 C62.4117647,38.4047556 61.8057995,37.6343461 61.8057995,36.4100396 C61.8057995,34.9939234 62.6449047,34.4095112 63.3845899,34.4095112 C63.9115162,34.4095112 64.2450704,34.678996 64.4319801,34.9939234 L64.4483844,34.9939234 L64.4245236,34.3582563 L64.4245236,32.7318362 L65.3854184,32.7318362 L65.3854184,38.348745 L64.5458161,38.348745 Z M59.7920464,38.348745 L59.7920464,36.0073976 C59.7920464,35.6332893 59.6255178,35.2406869 59.1736537,35.2406869 C58.5830986,35.2406869 58.3131732,35.8398943 58.3131732,36.2594452 L58.3131732,38.348745 L57.3582436,38.348745 L57.3582436,34.4692206 L58.2793703,34.4692206 L58.2793703,35.076354 L58.2982601,35.076354 C58.6526926,34.5093791 59.1736537,34.4095112 59.4535211,34.4095112 C60.2101077,34.4095112 60.7514499,34.8523118 60.7514499,35.6332893 L60.7514499,38.348745 L59.7920464,38.348745 Z M55.1178128,38.3471598 L56.0767191,38.3471598 L56.0767191,34.4692206 L55.1178128,34.4692206 L55.1178128,38.3471598 Z M55.1024027,33.8916777 L56.0876553,33.8916777 L56.0876553,32.8475561 L55.1024027,32.8475561 L55.1024027,33.8916777 Z M53.026512,38.348745 L51.8931234,38.348745 L51.2220381,35.938177 L51.0818558,35.2945839 L51.0599834,35.2945839 L50.9342171,35.930251 L50.3009114,38.348745 L49.1665286,38.348745 L47.9620547,34.4692206 L48.9840928,34.4692206 L49.590058,36.6177015 L49.7729909,37.4108322 L49.7864126,37.4108322 L49.9539354,36.5949802 L50.5529412,34.4692206 L51.6888152,34.4692206 L52.3057167,36.6177015 L52.4876553,37.4214003 L52.5030655,37.4214003 L52.6825186,36.6134742 L53.2561723,34.4692206 L54.2250207,34.4692206 L53.026512,38.348745 Z M111.552113,23.2285337 C111.688318,24.3175694 112.90174,24.9722589 114.967191,24.9722589 C116.982436,24.9722589 118.029329,24.4840159 118.029329,23.4885073 C118.029329,22.5981506 117.111185,22.0575958 115.318641,21.8298547 L109.675559,21.0842801 C105.001326,20.4856011 102.639105,18.4047556 102.639105,14.9167768 C102.639105,10.1775429 106.239602,8.27107001 113.86512,8.27107001 C121.788898,8.27107001 125.791052,10.2071334 126.114664,14.8375165 L117.333886,14.8375165 C117.14449,13.546103 115.885336,12.8702774 113.543496,12.8702774 C111.746479,12.8702774 110.802983,13.4414795 110.802983,14.2367239 C110.802983,15.1529723 111.746479,15.4071334 113.708036,15.6871863 L120.580447,16.7471598 C124.880862,17.4029062 127,19.3749009 127,22.7984148 C127,27.9968296 122.703563,30.1643329 113.761226,30.1643329 C106.34797,30.1643329 102.482022,27.5978864 102.424358,23.2285337 L111.552113,23.2285337 Z M84.3557581,24.0285337 L88.1108534,24.0285337 C91.8391052,24.0285337 93.5898923,22.717041 93.5898923,18.9801849 C93.5898923,15.2929987 91.872908,13.9191546 88.1108534,13.9191546 L84.3557581,13.9191546 L84.3557581,24.0285337 Z M89.289478,8.78414795 C97.4608119,8.77939234 101.70058,12.4665786 101.70058,19.1746367 C101.70058,25.8821664 97.481193,29.5397622 89.289478,29.5397622 L76.8057995,29.5397622 L76.8057995,8.78414336 L89.289478,8.78414795 Z M37,0 L45.1176471,0 L51.4516984,23.2850727 L55.044739,8.81215324 L61.3077051,8.81215324 L64.9305717,23.2850727 L68.1259321,8.81215324 L76.2674399,8.81215324 L69.5774648,29.5397622 L61.3907208,29.5397622 L58.0830157,16.1157199 L54.7256007,29.5397622 L46.6154101,29.5397622 L37,0 Z" id="Fill-3" fill="#4D4DFF"></path>
    </g>
</svg>