<?xml version="1.0" encoding="UTF-8"?>
<svg width="904px" height="170px" viewBox="0 0 904 170" version="1.1" xmlns="http://www.w3.org/2000/svg" xmlns:xlink="http://www.w3.org/1999/xlink">
    <!-- Generator: Sketch 50.2 (55047) - http://www.bohemiancoding.com/sketch -->
    <title>Artboard Copy 2</title>
    <desc>Created with Sketch.</desc>
    <defs></defs>
    <g id="Artboard-Copy-2" stroke="none" stroke-width="1" fill="none" fill-rule="evenodd">
        <g id="Group">
            <text id="Сумма-оборота" font-family="ProximaNova-Semibold, Proxima Nova" font-size="14" font-weight="500" fill="#4A4A4A">
                <tspan x="791" y="166">Сумма оборота</tspan>
            </text>
            <text id="Скидка%" transform="translate(8.500000, 55.000000) rotate(-90.000000) translate(-8.500000, -55.000000) " font-family="ProximaNova-Bold, Proxima Nova" font-size="14" font-weight="bold" fill="#4A4A4A">
                <tspan x="-21.5" y="59.5">Скидка%</tspan>
            </text>
            <text id="200-000" font-family="ProximaNova-Semibold, Proxima Nova" font-size="14" font-weight="500" fill="#4A4A4A">
                <tspan x="742" y="130">200 000</tspan>
            </text>
            <text id="250-000" font-family="ProximaNova-Semibold, Proxima Nova" font-size="14" font-weight="500" fill="#4A4A4A">
                <tspan x="843" y="130">250 000</tspan>
            </text>
            <text id="2%" font-family="ProximaNova-Bold, Proxima Nova" font-size="14" font-weight="bold" fill="#4A4A4A">
                <tspan x="61" y="93">2%</tspan>
            </text>
            <text id="3%" font-family="ProximaNova-Bold, Proxima Nova" font-size="14" font-weight="bold" fill="#4A4A4A">
                <tspan x="161" y="83">3%</tspan>
            </text>
            <text id="100-000" font-family="ProximaNova-Semibold, Proxima Nova" font-size="14" font-weight="500" fill="#4A4A4A">
                <tspan x="544" y="130">100 000</tspan>
            </text>
            <text id="150-000" font-family="ProximaNova-Semibold, Proxima Nova" font-size="14" font-weight="500" fill="#4A4A4A">
                <tspan x="644" y="130">150 000</tspan>
            </text>
            <text id="75-000" font-family="ProximaNova-Semibold, Proxima Nova" font-size="14" font-weight="500" fill="#4A4A4A">
                <tspan x="447" y="130">75 000</tspan>
            </text>
            <text id="25-000" font-family="ProximaNova-Semibold, Proxima Nova" font-size="14" font-weight="500" fill="#4A4A4A">
                <tspan x="247" y="130">25 000</tspan>
            </text>
            <text id="4%" font-family="ProximaNova-Bold, Proxima Nova" font-size="14" font-weight="bold" fill="#4A4A4A">
                <tspan x="261" y="73">4%</tspan>
            </text>
            <text id="500" font-family="ProximaNova-Semibold, Proxima Nova" font-size="14" font-weight="500" fill="#4A4A4A">
                <tspan x="57" y="130">500</tspan>
            </text>
            <text id="15-000" font-family="ProximaNova-Semibold, Proxima Nova" font-size="14" font-weight="500" fill="#4A4A4A">
                <tspan x="148" y="130">15 000</tspan>
            </text>
            <text id="50-000" font-family="ProximaNova-Semibold, Proxima Nova" font-size="14" font-weight="500" fill="#4A4A4A">
                <tspan x="347" y="130">50 000</tspan>
            </text>
            <text id="5%" font-family="ProximaNova-Bold, Proxima Nova" font-size="14" font-weight="bold" fill="#4A4A4A">
                <tspan x="360" y="63">5%</tspan>
            </text>
            <text id="6%" font-family="ProximaNova-Bold, Proxima Nova" font-size="14" font-weight="bold" fill="#4A4A4A">
                <tspan x="460" y="53">6%</tspan>
            </text>
            <text id="7%" font-family="ProximaNova-Bold, Proxima Nova" font-size="14" font-weight="bold" fill="#4A4A4A">
                <tspan x="561" y="43">7%</tspan>
            </text>
            <text id="8%" font-family="ProximaNova-Bold, Proxima Nova" font-size="14" font-weight="bold" fill="#4A4A4A">
                <tspan x="660" y="33">8%</tspan>
            </text>
            <text id="9%" font-family="ProximaNova-Bold, Proxima Nova" font-size="14" font-weight="bold" fill="#4A4A4A">
                <tspan x="760" y="23">9%</tspan>
            </text>
            <text id="10%" font-family="ProximaNova-Bold, Proxima Nova" font-size="14" font-weight="bold" fill="#4A4A4A">
                <tspan x="857" y="13">10%</tspan>
            </text>
            <rect id="Rectangle-36" fill="#D62626" x="36" y="97" width="68" height="20"></rect>
            <rect id="Rectangle-37" fill="#D62626" x="136" y="87" width="68" height="30"></rect>
            <rect id="Rectangle-38" fill="#D62626" x="236" y="77" width="68" height="40"></rect>
            <rect id="Rectangle-38-Copy" fill="#D62626" x="336" y="67" width="68" height="50"></rect>
            <rect id="Rectangle-38-Copy-2" fill="#D62626" x="436" y="57" width="68" height="60"></rect>
            <rect id="Rectangle-38-Copy-3" fill="#D62626" x="536" y="47" width="68" height="70"></rect>
            <rect id="Rectangle-38-Copy-4" fill="#D62626" x="636" y="37" width="68" height="80"></rect>
            <rect id="Rectangle-38-Copy-5" fill="#D62626" x="736" y="27" width="68" height="90"></rect>
            <rect id="Rectangle-38-Copy-6" fill="#D62626" x="836" y="17" width="68" height="100"></rect>
            <path d="M894,161.420409 L894.983853,161.420409 L894.983853,157 L897.519698,157 C897.990842,157 898.420407,157.053118 898.808407,157.159356 C899.196407,157.265595 899.528974,157.427259 899.806117,157.644354 C900.08326,157.86145 900.300352,158.136279 900.4574,158.468851 C900.614447,158.801422 900.69297,159.198654 900.69297,159.660559 C900.69297,160.122464 900.609828,160.524316 900.443542,160.866125 C900.277257,161.207935 900.050927,161.492002 899.764545,161.718336 C899.478164,161.944669 899.140979,162.113262 898.752979,162.224119 C898.364978,162.334977 897.944651,162.390404 897.491984,162.390404 L896.092419,162.390404 L896.092419,163.789969 L898.323409,163.789969 L898.323409,164.704537 L896.092419,164.704537 L896.092419,166.658385 L894.983853,166.658385 L894.983853,164.704537 L894,164.704537 L894,163.789969 L894.983853,163.789969 L894.983853,162.390404 L894,162.390404 L894,161.420409 Z M897.519698,161.420409 C898.157127,161.420409 898.658287,161.274911 899.023192,160.983911 C899.388097,160.69291 899.570546,160.251798 899.570546,159.660559 C899.570546,159.069321 899.388097,158.639756 899.023192,158.371851 C898.658287,158.103946 898.157127,157.969996 897.519698,157.969996 L896.092419,157.969996 L896.092419,161.420409 L897.519698,161.420409 Z" id="₽" fill="#4A4A4A"></path>
            <rect id="Rectangle-39" fill="#F7F7F7" x="26" y="144" width="878" height="5"></rect>
            <rect id="Rectangle-40" fill="#F7F7F7" x="21" y="26" width="5" height="123"></rect>
        </g>
        <rect id="Rectangle-78" fill="#FFFFFF" opacity="0" x="0" y="0" width="904" height="170"></rect>
    </g>
</svg>