<svg width="1170px" height="252px" viewBox="0 0 1170 252" version="1.1" xmlns="http://www.w3.org/2000/svg" xmlns:xlink="http://www.w3.org/1999/xlink">
    <g id="3-причины" stroke="none" stroke-width="1" fill="none" fill-rule="evenodd">
        <g id="Ресурс-7" transform="translate(-375.000000, 0.000000)">
            <rect id="Rectangle-path" fill="#FFFFFF" fill-rule="nonzero" opacity="0" x="0" y="0" width="1920.11163" height="251.38"></rect>
            <rect id="Rectangle-path" fill="#FFFFFF" fill-rule="nonzero" x="693.8" y="24.34" width="1.8" height="203.2"></rect>
            <path d="M409.19,129.86 C402.369474,129.978781 395.616956,128.488499 389.48,125.51 C384.090474,122.963993 379.447896,119.072218 376,114.21 L387.59,102.03 C390.060879,105.281174 393.232822,107.933575 396.87,109.79 C400.404704,111.636178 404.332211,112.603477 408.32,112.61 C413.24,112.61 416.933333,111.453333 419.4,109.14 C421.927858,106.676367 423.27546,103.245446 423.1,99.72 C423.1,91.6 417.883333,87.54 407.45,87.54 C404.446897,87.4552323 401.441416,87.5520756 398.45,87.83 L398.45,70.29 C399.423333,70.39 402.273333,70.44 407,70.44 C411.54,70.44 415.14,69.4966667 417.8,67.61 C420.46,65.7233333 421.793333,62.9466667 421.8,59.28 C421.8,55.32 420.52,52.32 417.96,50.28 C415.4,48.24 411.943333,47.24 407.59,47.28 C399.863333,47.28 393.44,50.5166667 388.32,56.99 L377.32,45.69 C384.713333,35.23 395.336667,30 409.19,30 C418.95,30 426.68,32.27 432.38,36.81 C438.08,41.35 440.93,47.8266667 440.93,56.24 C440.986042,61.4861394 439.102129,66.568074 435.64,70.51 C432.313359,74.4975794 427.728675,77.2342832 422.64,78.27 C427.997932,79.066481 432.900898,81.7340625 436.48,85.8 C440.382241,90.0547716 442.479672,95.6586775 442.33,101.43 C442.33,109.943333 439.31,116.806667 433.27,122.02 C427.23,127.233333 419.203333,129.846667 409.19,129.86 Z" id="Shape" fill="#FFFFFF"></path>
            <path d="M392.17,184.011241 L387.72,184.011241 L387.72,165.871241 L380.43,165.871241 L380.43,184.011241 L376,184.011241 L376,162.011241 L392.17,162.011241 L392.17,184.011241 Z M400.49,184.011241 L396.07,184.011241 L396.07,162.011241 L404.19,162.011241 C406.071518,161.898957 407.904958,162.632333 409.19,164.011241 C411.530003,166.933903 411.530003,171.088578 409.19,174.011241 C407.902534,175.386605 406.07083,176.119287 404.19,176.011241 L400.49,176.011241 L400.49,184.011241 Z M403.66,172.171241 C404.419591,172.18691 405.148846,171.87333 405.66,171.311241 C406.198954,170.677766 406.474531,169.86177 406.43,169.031241 C406.471477,168.201133 406.196269,167.386233 405.66,166.751241 C405.14781,166.191751 404.418279,165.8817 403.66,165.901241 L400.49,165.901241 L400.49,172.171241 L403.66,172.171241 Z M417.88,184.011241 L413.66,184.011241 L413.66,162.011241 L418.08,162.011241 L418.08,175.011241 L425.27,162.011241 L429.8,162.011241 L429.8,184.011241 L425.33,184.011241 L425.33,170.451241 L417.88,184.011241 Z M437.62,162.011241 L437.62,168.581241 C437.62,171.021241 438.72,172.241241 440.92,172.241241 C441.905989,172.256687 442.887189,172.101048 443.82,171.781241 L443.82,162.011241 L448.24,162.011241 L448.24,184.011241 L443.82,184.011241 L443.82,175.631241 C442.672093,175.960235 441.484119,176.128504 440.29,176.131241 C438.294023,176.266916 436.343263,175.495429 434.98,174.031241 C433.721228,172.497703 433.073105,170.553334 433.16,168.571241 L433.16,162.011241 L437.62,162.011241 Z M456.33,184.011241 L452.11,184.011241 L452.11,162.011241 L456.53,162.011241 L456.53,175.011241 L463.75,162.011241 L468.27,162.011241 L468.27,184.011241 L463.82,184.011241 L463.82,170.451241 L456.33,184.011241 Z M488.33,184.011241 L483.88,184.011241 L483.88,174.611241 L476.59,174.611241 L476.59,184.011241 L472.13,184.011241 L472.13,162.011241 L476.56,162.011241 L476.56,170.761241 L483.85,170.761241 L483.85,162.011241 L488.33,162.011241 L488.33,184.011241 Z M492.23,162.011241 L496.65,162.011241 L496.65,170.011241 L500.33,170.011241 C502.21083,169.903195 504.042534,170.635877 505.33,172.011241 C507.670003,174.933903 507.670003,179.088578 505.33,182.011241 C504.042534,183.386605 502.21083,184.119287 500.33,184.011241 L492.21,184.011241 L492.23,162.011241 Z M499.82,173.861241 L496.65,173.861241 L496.65,180.131241 L499.82,180.131241 C500.580108,180.149572 501.310422,179.835537 501.82,179.271241 C502.845218,177.927828 502.845218,176.064654 501.82,174.721241 C501.311057,174.133996 500.566907,173.804077 499.79,173.821241 L499.82,173.861241 Z M513.33,184.011241 L508.83,184.011241 L508.83,162.011241 L513.33,162.011241 L513.33,184.011241 Z" id="Shape" fill="#FFFFFF"></path>
            <path d="M392.17,220.336688 L387.71,220.336688 L387.71,202.196688 L380.42,202.196688 L380.42,220.336688 L376,220.336688 L376,198.336688 L392.17,198.336688 L392.17,220.336688 Z M404.34,220.736688 C401.722311,220.829855 399.222966,219.643598 397.64,217.556688 C394.345885,212.582629 394.345885,206.120747 397.64,201.146688 C399.290573,199.133568 401.756725,197.96647 404.36,197.96647 C406.963275,197.96647 409.429427,199.133568 411.08,201.146688 C414.374115,206.120747 414.374115,212.582629 411.08,217.556688 C409.484247,219.629891 406.984429,220.803426 404.37,220.706688 L404.34,220.736688 Z M404.34,216.806688 C405.793415,216.821097 407.129741,216.011554 407.79,214.716688 C409.443,211.327499 409.443,207.365877 407.79,203.976688 C407.128755,202.684035 405.791843,201.878013 404.34,201.896688 C402.903503,201.887639 401.586028,202.693624 400.94,203.976688 C399.313565,207.371961 399.313565,211.321415 400.94,214.716688 C401.598209,216.000082 402.927829,216.798629 404.37,216.776688 L404.34,216.806688 Z M432.86,220.336688 L427.64,220.336688 L422.56,211.726688 L421.01,214.166688 L421.01,220.336688 L416.59,220.336688 L416.59,198.336688 L421.01,198.336688 L421.01,208.336688 L427.21,198.336688 L432.37,198.336688 L425.37,208.696688 L432.86,220.336688 Z M437.01,220.736688 C435.526284,220.792082 434.066297,220.352327 432.86,219.486688 L434.24,215.886688 C434.87827,216.450913 435.698154,216.766799 436.55,216.776688 C437.088473,216.802913 437.618091,216.632298 438.04,216.296688 C438.474421,215.872003 438.815068,215.361032 439.04,214.796688 L439.37,213.936688 L432.76,198.336688 L437.61,198.336688 L441.77,209.066688 L445.92,198.336688 L450.77,198.336688 L443.22,216.256688 C442.728321,217.570702 441.904964,218.735115 440.83,219.636688 C439.711777,220.409706 438.367067,220.786366 437.01,220.706688 L437.01,220.736688 Z M468.76,220.336688 L464.3,220.336688 L464.3,202.196688 L457.01,202.196688 L457.01,220.336688 L452.59,220.336688 L452.59,198.336688 L468.76,198.336688 L468.76,220.336688 Z M489.05,220.336688 L484.24,220.336688 L483.24,216.446688 L476.48,216.446688 L475.48,220.336688 L470.69,220.336688 L477.22,198.336688 L482.57,198.336688 L489.05,220.336688 Z M482.37,212.526688 L479.86,202.956688 L477.37,212.526688 L482.37,212.526688 Z M497.47,220.336688 L493.05,220.336688 L493.05,202.196688 L488.16,202.196688 L488.16,198.336688 L502.37,198.336688 L502.37,202.236688 L497.47,202.236688 L497.47,220.336688 Z M504.99,198.336688 L509.42,198.336688 L509.42,206.336688 L513.11,206.336688 C514.990601,206.230044 516.821733,206.962497 518.11,208.336688 C520.450003,211.25935 520.450003,215.414025 518.11,218.336688 C516.821733,219.710879 514.990601,220.443332 513.11,220.336688 L504.99,220.336688 L504.99,198.336688 Z M512.58,210.186688 L509.42,210.186688 L509.42,216.456688 L512.58,216.456688 C513.340368,216.476369 514.071223,216.162101 514.58,215.596688 C515.619187,214.258028 515.619187,212.385348 514.58,211.046688 C514.078673,210.466433 513.346767,210.137075 512.58,210.146688 L512.58,210.186688 Z M531.69,220.746688 C530.203191,220.802032 528.740053,220.362387 527.53,219.496688 L528.92,215.896688 C529.556359,216.464052 530.377465,216.780409 531.23,216.786688 C531.765331,216.812301 532.291602,216.641619 532.71,216.306688 C533.147488,215.884556 533.488604,215.372882 533.71,214.806688 L534.04,213.946688 L527.43,198.336688 L532.29,198.336688 L536.44,209.066688 L540.6,198.336688 L545.45,198.336688 L537.9,216.256688 C537.408371,217.573331 536.581006,218.738537 535.5,219.636688 C534.385859,220.410377 533.044039,220.787214 531.69,220.706688 L531.69,220.746688 Z M570.37,220.336688 L565.91,220.336688 L565.91,210.936688 L558.62,210.936688 L558.62,220.336688 L554.2,220.336688 L554.2,198.336688 L558.62,198.336688 L558.62,207.086688 L565.91,207.086688 L565.91,198.336688 L570.37,198.336688 L570.37,220.336688 Z M590.66,220.336688 L585.84,220.336688 L584.84,216.446688 L578.08,216.446688 L577.08,220.336688 L572.3,220.336688 L578.83,198.336688 L584.18,198.336688 L590.66,220.336688 Z M583.96,212.556688 L581.46,202.986688 L578.95,212.556688 L583.96,212.556688 Z M600.27,220.736688 C597.636272,220.823333 595.119962,219.64509 593.5,217.566688 C590.112011,212.613993 590.112011,206.089383 593.5,201.136688 C595.119962,199.058286 597.636272,197.880043 600.27,197.966688 C603.603333,197.966688 606.053333,199.726688 607.62,203.246688 L603.96,204.866688 C603.659852,204.034315 603.154194,203.291307 602.49,202.706688 C601.875852,202.171069 601.084777,201.882434 600.27,201.896688 C598.816655,201.891235 597.480205,202.692335 596.8,203.976688 C595.079524,207.353507 595.079524,211.349869 596.8,214.726688 C597.480205,216.011041 598.816655,216.812141 600.27,216.806688 C601.110537,216.820214 601.923807,216.508519 602.54,215.936688 C603.218423,215.299899 603.718327,214.496604 603.99,213.606688 L607.66,215.196688 C606.133333,218.870021 603.67,220.706688 600.27,220.706688 L600.27,220.736688 Z" id="Shape" fill="#FFFFFF"></path>
            <g id="Group-15" transform="translate(741.000000, 34.000000)">
                <g id="Group-8" transform="translate(27.500000, 0.680584)">
                    <path d="M9.3523225,24.5297222 L101.331463,0.556163153 C107.714257,-1.11673906 114.257954,2.64393185 116.025879,9.00106156 L127.33209,51.2255536 C128.125237,54.2854715 127.668233,57.5352305 126.061923,60.2577197 C124.455613,62.980209 121.832028,64.9516529 118.770105,65.7370211 L26.8056004,89.7398519 C20.4209922,91.413141 13.8751055,87.6530846 12.1038665,81.2949535 L0.790337112,39.0411898 C-0.00280941615,35.9812719 0.45419486,32.7315129 2.0605047,30.0090236 C3.66681453,27.2865344 6.29039898,25.3150905 9.3523225,24.5297222" id="Shape" stroke="#FFFFFF" stroke-width="10"></path>
                    <path d="M80.9949182,16.4434027 L58.3971311,71.4450114 L46.7689304,74.474637 L69.3667175,19.4730283 L80.9949182,16.4434027 Z M101.229012,45.5468351 C103.668324,54.7332843 100.253287,60.5364078 90.9839011,62.9562054 C81.7145152,65.3760029 75.8357731,61.9975557 73.3476748,52.8208637 C70.9083627,43.6344144 74.3233996,37.831291 83.5927855,35.4114934 C92.8621714,32.9916958 98.7409135,36.370143 101.229012,45.5468351 Z M91.9205969,47.969072 C91.0473232,44.9248105 89.0617232,43.8051663 85.9637969,44.6101392 C82.8658705,45.4151122 81.7511049,47.3446081 82.6195,50.3986268 C83.4391089,53.4575241 85.3734833,54.5893649 88.4226234,53.7941492 C91.4717635,52.9989335 92.6377547,51.0572411 91.9205969,47.969072 Z M54.4454455,38.097176 C56.8847576,47.2787466 53.4697207,53.0818701 44.2003348,55.5065463 C34.9309489,57.9312225 29.0424496,54.5527753 26.5348368,45.3712046 C24.0955247,36.189634 27.5105616,30.3865105 36.7799475,27.9618343 C46.0493334,25.5371581 51.9378327,28.9156053 54.4454455,38.097176 Z M45.1443486,40.5194129 C44.2710749,37.4751514 42.2854748,36.3555072 39.1875485,37.1604802 C36.0896222,37.9654531 34.9797352,39.894949 35.8578875,42.9489677 C36.6774964,46.0078651 38.6118708,47.1397059 41.6610109,46.3444901 C44.710151,45.5492744 45.8712636,43.607582 45.1443486,40.5194129 Z" id="Shape" fill="#FFFFFF"></path>
                </g>
                <g id="Group-14" transform="translate(0.000000, 146.000000)" fill="#FFFFFF">
                    <path d="M31.94,15.15 L26.08,15.15 L26.08,1.43 L31.76,1.43 C32.7217736,1.34779552 33.6720795,1.68570901 34.366041,2.3566662 C35.0600024,3.02762339 35.4297477,3.96600249 35.38,4.93 C35.4090417,5.67131614 35.1948172,6.40178672 34.77,7.01 C34.3831298,7.54139254 33.8193124,7.91727084 33.18,8.07 C33.892481,8.18685138 34.5215661,8.60139299 34.91,9.21 C35.3740711,9.86344654 35.6159538,10.6486886 35.6,11.45 C35.6418697,12.4260375 35.309179,13.3811818 34.67,14.12 C33.9540711,14.8455184 32.9567479,15.2217978 31.94,15.15 Z M31.1,7 C31.5075927,7.02825883 31.906755,6.87445315 32.19,6.58 C32.4540421,6.25320117 32.586053,5.83932917 32.56,5.42 C32.5839191,5.00705567 32.4518661,4.60018948 32.19,4.28 C31.906755,3.98554685 31.5075927,3.83174117 31.1,3.86 L28.84,3.86 L28.84,7 L31.1,7 Z M31.2,12.76 C31.6356416,12.7919227 32.0633492,12.6310754 32.37,12.32 C32.6679834,11.9781913 32.8189306,11.5325376 32.79,11.08 C32.8084898,10.6349736 32.6585162,10.1993358 32.37,9.86 C32.0704006,9.53553696 31.6408004,9.36296252 31.2,9.39 L28.84,9.39 L28.84,12.76 L31.2,12.76 Z M37.56,1.45 L40.31,1.45 L40.31,6.45 L42.62,6.45 C43.7930946,6.38831346 44.9340039,6.84540854 45.74,7.7 C47.2025017,9.526664 47.2025017,12.123336 45.74,13.95 C44.9406557,14.8152989 43.7960664,15.2775368 42.62,15.21 L37.56,15.21 L37.56,1.45 Z M42.29,8.83 L40.29,8.83 L40.29,12.74 L42.29,12.74 C42.767368,12.7564809 43.2279423,12.5627473 43.55,12.21 C44.1901434,11.3715508 44.1901434,10.2084492 43.55,9.37 C43.2352281,9.0038296 42.7727262,8.79827321 42.29,8.81 L42.29,8.83 Z M50.7,15.17 L47.92,15.17 L47.92,1.43 L50.7,1.43 L50.7,15.17 Z M55.88,15.17 L53.12,15.17 L53.12,1.43 L61,1.43 L61,3.86 L55.9,3.86 L55.88,15.17 Z M67.66,15.42 C66.0266792,15.4748736 64.4696239,14.7280845 63.49,13.42 C61.4372114,10.3225756 61.4372114,6.29742442 63.49,3.2 C64.5175497,1.94568173 66.0535276,1.21839248 67.675,1.21839248 C69.2964724,1.21839248 70.8324503,1.94568173 71.86,3.2 C73.9127886,6.29742442 73.9127886,10.3225756 71.86,13.42 C70.8644214,14.7226575 69.2984084,15.4609208 67.66,15.4 L67.66,15.42 Z M67.66,12.97 C68.5672154,12.9767953 69.4000589,12.4693419 69.81,11.66 C70.8367563,9.54818705 70.8367563,7.08181295 69.81,4.97 C69.3955134,4.16619038 68.5643608,3.66363298 67.66,3.67 C66.7667583,3.66710579 65.9491054,4.17087298 65.55,4.97 C64.5364924,7.0848433 64.5364924,9.5451567 65.55,11.66 C65.9358807,12.4763609 66.7570358,12.9978527 67.66,13 L67.66,12.97 Z M74.06,17.7 L74.06,13 C74.3276245,12.9606995 74.5874407,12.8797178 74.83,12.76 C75.0665215,12.6110353 75.2650998,12.4090331 75.41,12.17 C75.6502111,11.7634498 75.8129617,11.3158858 75.89,10.85 C76.0385795,10.0867513 76.1420919,9.3154167 76.2,8.54 L76.86,1.48 L84.94,1.48 L84.94,12.77 L86.09,12.77 L86.09,17.77 L83.34,17.77 L83.34,15.24 L76.84,15.24 L76.84,17.77 L74.06,17.7 Z M78.95,8.55 C78.9216582,10.0631855 78.4178646,11.5290849 77.51,12.74 L82.18,12.74 L82.18,3.88 L79.37,3.88 L78.95,8.55 Z M97.67,15.17 L94.89,15.17 L94.89,9.33 L90.35,9.33 L90.35,15.17 L87.59,15.17 L87.59,1.43 L90.35,1.43 L90.35,6.88 L94.89,6.88 L94.89,1.43 L97.67,1.43 L97.67,15.17 Z M110.32,15.17 L107.32,15.17 L106.69,12.74 L102.47,12.74 L101.83,15.17 L98.83,15.17 L102.9,1.45 L106.23,1.45 L110.32,15.17 Z M106.14,10.32 L104.58,4.32 L103.02,10.32 L106.14,10.32 Z M114.06,15.17 L111,15.17 L113.49,9.72 C112.807431,9.46824168 112.222591,9.00597251 111.82,8.4 C110.744727,6.58807228 110.920693,4.29651496 112.26,2.67 C113.043294,1.85859331 114.132727,1.41555737 115.26,1.45 L120.38,1.45 L120.38,15.17 L117.63,15.17 L117.63,10.17 L116.15,10.17 L114.06,15.17 Z M115.68,7.79 L117.68,7.79 L117.68,3.88 L115.68,3.88 C115.196481,3.86167253 114.729032,4.05522578 114.4,4.41 C113.759857,5.24844918 113.759857,6.41155082 114.4,7.25 C114.728475,7.6045257 115.197342,7.79500267 115.68,7.77 L115.68,7.79 Z M31.33,40.46 C29.6835029,40.5110135 28.1130255,39.7667114 27.11,38.46 C25.0045405,35.3713463 25.0045405,31.3086537 27.11,28.22 C28.1130255,26.9132886 29.6835029,26.1689865 31.33,26.22 C33.41,26.22 34.94,27.31 35.91,29.51 L33.63,30.51 C33.4398539,29.9936137 33.123594,29.5329743 32.71,29.17 C32.3315061,28.8308386 31.8380901,28.6484892 31.33,28.66 C30.4233178,28.6544739 29.5896125,29.156241 29.17,29.96 C28.089591,32.0626673 28.089591,34.5573327 29.17,36.66 C29.5930299,37.4605347 30.4245669,37.9609967 31.33,37.96 C31.8539001,37.9684435 32.3601912,37.770954 32.74,37.41 C33.1630855,37.0130521 33.476532,36.5136044 33.65,35.96 L35.93,36.96 C35,39.29 33.45,40.44 31.33,40.44 L31.33,40.46 Z M40.19,40.22 L37.56,40.22 L37.56,26.48 L40.31,26.48 L40.31,34.62 L44.8,26.48 L47.61,26.48 L47.61,40.2 L44.84,40.2 L44.84,31.77 L40.19,40.22 Z M55.26,40.46 C53.6166389,40.5094206 52.0498762,39.7651152 51.05,38.46 C48.9189727,35.3792798 48.9189727,31.3007202 51.05,28.22 C52.0498762,26.9148848 53.6166389,26.1705794 55.26,26.22 C57.35,26.22 58.88,27.31 59.85,29.51 L57.57,30.51 C57.3798539,29.9936137 57.063594,29.5329743 56.65,29.17 C56.2689705,28.8284409 55.7715153,28.6459214 55.26,28.66 C54.3551856,28.6612305 53.5247084,29.1610548 53.1,29.96 C52.0326777,32.0658135 52.0326777,34.5541865 53.1,36.66 C53.5280065,37.4558104 54.3564115,37.9543875 55.26,37.96 C55.7873402,37.9710864 56.2977104,37.7734079 56.68,37.41 C57.1030855,37.0130521 57.416532,36.5136044 57.59,35.96 L59.87,36.96 C58.92,39.29 57.39,40.44 55.26,40.44 L55.26,40.46 Z M66.53,40.22 L63.78,40.22 L63.78,28.91 L60.78,28.91 L60.78,26.48 L69.63,26.48 L69.63,28.91 L66.58,28.91 L66.53,40.22 Z M79.08,40.22 L71.22,40.22 L71.22,26.48 L79.08,26.48 L79.08,28.91 L74,28.91 L74,32 L78.95,32 L78.95,34.43 L74,34.43 L74,37.76 L79.1,37.76 L79.08,40.22 Z M93.82,40.22 L91.07,40.22 L91.07,31.37 L88,40.2 L86.91,40.2 L83.91,31.35 L83.91,40.2 L81.15,40.2 L81.15,26.48 L84.86,26.48 L87.51,34.13 L90.18,26.48 L93.86,26.48 L93.82,40.22 Z M106.45,40.22 L103.45,40.22 L102.81,37.79 L98.59,37.79 L98,40.2 L95,40.2 L99.08,26.48 L102.41,26.48 L106.45,40.22 Z M102.28,35.36 L100.71,29.36 L99.15,35.36 L102.28,35.36 Z M117.19,40.46 C115.543156,40.5126778 113.971957,39.7680338 112.97,38.46 C110.864541,35.3713463 110.864541,31.3086537 112.97,28.22 C113.971957,26.9119662 115.543156,26.1673222 117.19,26.22 C119.27,26.22 120.8,27.31 121.77,29.51 L119.49,30.51 C119.299854,29.9936137 118.983594,29.5329743 118.57,29.17 C118.191506,28.8308386 117.69809,28.6484892 117.19,28.66 C116.2637,28.6506989 115.413364,29.1709952 115,30 C113.919591,32.1026673 113.919591,34.5973327 115,36.7 C115.42303,37.5005347 116.254567,38.0009967 117.16,38 C117.6839,38.0084435 118.190191,37.810954 118.57,37.45 C118.993086,37.0530521 119.306532,36.5536044 119.48,36 L121.76,37 C120.85,39.29 119.31,40.44 117.19,40.44 L117.19,40.46 Z M133.55,40.22 L130.31,40.22 L127.14,34.85 L126.14,36.37 L126.14,40.22 L123.39,40.22 L123.39,26.48 L126.14,26.48 L126.14,32.71 L130.01,26.48 L133.22,26.48 L128.84,32.94 L133.55,40.22 Z M137.42,40.22 L134.79,40.22 L134.79,26.48 L137.54,26.48 L137.54,34.62 L142.03,26.48 L144.85,26.48 L144.85,40.2 L142.07,40.2 L142.07,31.77 L137.42,40.22 Z M146.42,42.75 L146.42,38 C146.687624,37.9606995 146.947441,37.8797178 147.19,37.76 C147.428888,37.6096972 147.627879,37.4038447 147.77,37.16 C148.012069,36.7579354 148.174996,36.3132791 148.25,35.85 C148.39778,35.0832582 148.501285,34.3086427 148.56,33.53 L149.22,26.48 L157.3,26.48 L157.3,37.77 L158.45,37.77 L158.45,42.77 L155.69,42.77 L155.69,40.2 L149.2,40.2 L149.2,42.73 L146.42,42.75 Z M151.31,33.6 C151.281658,35.1131855 150.777865,36.5790849 149.87,37.79 L154.54,37.79 L154.54,28.93 L151.73,28.93 L151.31,33.6 Z M165.11,40.46 C163.476679,40.5148736 161.919624,39.7680845 160.94,38.46 C158.887211,35.3625756 158.887211,31.3374244 160.94,28.24 C161.96755,26.9856817 163.503528,26.2583925 165.125,26.2583925 C166.746472,26.2583925 168.28245,26.9856817 169.31,28.24 C171.362789,31.3374244 171.362789,35.3625756 169.31,38.46 C168.326078,39.7605538 166.769723,40.4995422 165.14,40.44 L165.11,40.46 Z M165.11,38.02 C166.017215,38.0267953 166.850059,37.5193419 167.26,36.71 C168.286756,34.5981871 168.286756,32.1318129 167.26,30.02 C166.848998,29.2195575 166.024795,28.716255 165.125,28.716255 C164.225205,28.716255 163.401002,29.2195575 162.99,30.02 C161.976492,32.1348433 161.976492,34.5951567 162.99,36.71 C163.400092,37.5166233 164.235289,38.017742 165.14,38 L165.11,38.02 Z M182.88,40.22 L179.63,40.22 L176.46,34.85 L175.46,36.37 L175.46,40.22 L172.7,40.22 L172.7,26.48 L175.46,26.48 L175.46,32.71 L179.32,26.48 L182.53,26.48 L178.15,32.94 L182.88,40.22 Z" id="Shape"></path>
                    <polygon id="Shape" points="18.76 40.1 10.69 40.1 10.69 10.55 4.64 16.83 0.04 11.98 11.76 0.2 18.76 0.2"></polygon>
                </g>
            </g>
            <g id="Group-16" transform="translate(1025.500000, 29.000000)" fill="#FFFFFF">
                <g id="Group-13" transform="translate(23.500000, 0.932853)">
                    <path d="M107.550185,32.0259234 L107.550185,15.6819316 C107.550185,14.3874558 109.29921,13.7945662 110.741908,13.7945662 L125.494979,13.7945662 C129.447577,13.7945662 130.089874,16.4625697 133.805316,21.6503542 C134.902162,23.1721044 140.524732,30.4053583 140.524732,31.719597 C140.598623,32.3300353 140.384171,32.9400876 139.944561,33.370015 C139.504951,33.7999423 138.890274,34.0007553 138.281633,33.9132888 L110.099611,33.9132888 C108.933594,33.9132888 107.550185,33.0535988 107.550185,32.0259234 Z M163.825296,73.2218735 L163.825296,80.6132313 C163.58814,81.9175886 162.99525,82.6587007 161.592078,82.6587007 L143.360721,82.6587007 C142.125534,82.6587007 142.263875,80.9590836 141.878497,79.6942523 C140.524616,75.5737259 137.79216,72.0456115 134.141286,69.7040615 C133.202389,69.1061134 132.209976,68.5966747 131.176838,68.1823114 C124.450261,65.3433835 116.687884,66.6615228 111.275508,71.5617824 C107.955326,74.4669418 106.443458,77.7377164 105.277441,82.6488192 L67.2534509,82.6488192 C66.7297317,76.4333592 61.8680364,72.5005244 60.860124,71.0084188 L96.6706597,71.0084188 L96.6706597,5.92889664 C96.6180906,4.64771327 97.1102773,3.40414251 98.0254069,2.50595978 C98.9405364,1.60777705 100.193089,1.13891862 101.473066,1.21542381 L122.530531,1.21542381 C125.300818,1.18300617 128.051562,1.68283638 130.633356,2.68776648 C137.194668,5.41505893 140.119591,11.2649036 144.091951,17.1246298 C150.465515,26.4725235 156.127612,31.798649 156.127612,42.0951661 L156.127612,71.0183003 C160.68298,71.0183003 163.825296,70.2574252 163.825296,73.2218735 Z" id="Shape"></path>
                    <path d="M0.098814944,40.514127 L0.098814944,62.8463044 C0.098814944,64.9016552 2.38144015,66.6210352 4.57513191,66.6210352 L85.8010159,66.6210352 C87.0769774,66.6794666 88.3194769,66.202994 89.2292046,65.3063963 C90.1389323,64.4097987 90.633417,63.174357 90.5935407,61.8976809 L90.5935407,41.7789583 C90.7233714,39.1619918 88.7315785,36.9239729 86.1172237,36.7492777 L4.9407472,36.7492777 C2.6482405,36.7492777 0.098814944,38.4291317 0.098814944,40.514127 Z" id="Shape"></path>
                    <path d="M0.098814944,4.35773903 L0.098814944,26.3737086 C0.098814944,28.221548 2.00594336,30.1484394 4.57513191,30.1484394 L37.8362421,30.1484394 C40.1386303,30.1484394 41.9864697,27.8559327 41.9864697,25.4250851 L41.9864697,5.30636249 C42.032129,3.94413967 41.5061815,2.62486479 40.5358571,1.66767818 C39.5655326,0.71049157 38.239211,0.202576407 36.8777371,0.266800349 L4.9407472,0.266800349 C2.42096613,0.266800349 0.098814944,2.09487681 0.098814944,4.35773903 Z" id="Shape"></path>
                    <path d="M48.7058859,4.35773903 L48.7058859,26.3737086 C48.7058859,28.221548 50.6130143,30.1484394 53.1822029,30.1484394 L86.443313,30.1484394 C88.7457012,30.1484394 90.5935407,27.8559327 90.5935407,25.4250851 L90.5935407,5.30636249 C90.6392,3.94413967 90.1132525,2.62486479 89.142928,1.66767818 C88.1726036,0.71049157 86.8462819,0.202576407 85.4848081,0.266800349 L53.4984107,0.266800349 C51.0280371,0.266800349 48.7058859,2.09487681 48.7058859,4.35773903 Z" id="Shape"></path>
                    <path d="M49.0220937,92.0856463 C41.5912099,92.0856463 39.654437,84.3780807 43.7651387,80.3167865 C45.9394553,78.1146724 49.3118949,77.6247432 52.0229296,79.1171407 C54.7339643,80.6095381 56.1238347,83.7210715 55.426181,86.7360737 C54.7285272,89.7510759 52.1131307,91.9358141 49.0220937,92.0856463 Z M33.9923407,85.1686002 C33.9923407,95.7319177 45.0003255,102.303112 54.2494043,98.4789732 C55.8612313,97.7444059 57.3615003,96.7863627 58.7059582,95.6331028 C59.2820988,95.0440892 59.813858,94.4132445 60.2968788,93.7457374 C60.8815778,93.0233175 61.3606766,92.2214925 61.719814,91.3642972 C66.6012723,81.0084911 58.0537796,71.0183003 49.6643909,71.0183003 C44.7236437,71.0183003 41.5220395,71.7692938 38.0635164,75.3365133 C35.5543516,78.0087035 34.1067213,81.5048009 33.9923407,85.1686002 Z" id="Shape"></path>
                    <path d="M123.854651,78.2515542 C125.694698,78.3307862 127.446328,79.0629678 128.795398,80.3167865 C128.795398,80.3167865 128.904094,80.4254829 128.953502,80.4748904 C132.9061,84.6053551 130.811223,92.0856463 123.538443,92.0856463 C119.871392,91.8498948 116.997243,88.8425639 116.927723,85.1686002 C117.107174,81.4214829 120.107281,78.4256556 123.854651,78.2515542 Z M109.467195,84.8622739 C109.31994,88.3651743 110.526543,91.790369 112.836785,94.4275605 C114.232632,96.1622838 116.039627,97.5209266 118.09374,98.3801582 C125.397925,101.503745 133.865994,98.31351 137.293483,91.1469043 C141.582052,81.4333954 133.993064,71.0183003 125.129364,71.0183003 C119.941579,71.0183003 117.224168,71.7297679 113.538371,75.3463948 C110.888315,77.794003 109.407454,81.2553342 109.467195,84.8622739 Z" id="Shape"></path>
                    <path d="M1.38340922,73.5380813 C1.38340922,78.0539243 0.49407472,82.6587007 3.93283477,82.6587007 L29.199816,82.6587007 C30.7610921,82.6587007 29.7630611,80.366194 32.0852123,76.3740702 C33.3401621,74.2100229 34.9014382,72.9847176 36.23544,71.0183003 L3.62650844,71.0183003 C2.98663713,71.0319083 2.38130459,71.3112456 1.95575213,71.7892891 C1.53019968,72.2673326 1.32283384,72.9009384 1.38340922,73.5380813 Z" id="Shape"></path>
                </g>
                <g id="Group-12" transform="translate(0.000000, 150.000000)">
                    <path d="M36.37,2.43 L44.8,2.43 L44.8,4.86 L39.13,4.86 L39.13,7.45 L41.45,7.45 C42.6215275,7.38574714 43.7621918,7.83908806 44.57,8.69 C46.0375414,10.499894 46.0375414,13.090106 44.57,14.9 C43.7640039,15.7545915 42.6230946,16.2116865 41.45,16.15 L36.37,16.15 L36.37,2.43 Z M41.12,9.88 L39.12,9.88 L39.12,13.72 L41.12,13.72 C41.5937685,13.7389342 42.052786,13.5531414 42.38,13.21 C42.7095306,12.8203805 42.8776709,12.3195372 42.85,11.81 C42.8752247,11.2977551 42.7075267,10.7946611 42.38,10.4 C42.0569074,10.0498069 41.5960337,9.85960503 41.12,9.88 Z M47.33,2.43 L50.09,2.43 L50.09,7.43 L52.39,7.43 C53.5665165,7.36532204 54.7117001,7.82266374 55.52,8.68 C56.9825017,10.506664 56.9825017,13.103336 55.52,14.93 C54.713523,15.7910183 53.5680912,16.2521187 52.39,16.19 L47.33,16.19 L47.33,2.43 Z M52.06,9.81 L50.06,9.81 L50.06,13.72 L52.06,13.72 C52.5398316,13.7340737 53.0025157,13.5409851 53.33,13.19 C53.9701434,12.3515508 53.9701434,11.1884492 53.33,10.35 C53.0066893,9.99197734 52.5421498,9.7944566 52.06,9.81 Z M60.47,16.15 L57.7,16.15 L57.7,2.43 L60.47,2.43 L60.47,16.15 Z M68.14,16.4 C66.4966389,16.4494206 64.9298762,15.7051152 63.93,14.4 C61.7989727,11.3192798 61.7989727,7.24072025 63.93,4.16 C64.9298762,2.85488475 66.4966389,2.11057942 68.14,2.16 C70.23,2.16 71.76,3.25 72.73,5.45 L70.45,6.45 C70.2598539,5.93361367 69.943594,5.47297435 69.53,5.11 C69.1489705,4.76844087 68.6515153,4.58592135 68.14,4.6 C67.2218056,4.63233995 66.3974376,5.17164615 66,6 C64.9326777,8.10581354 64.9326777,10.5941865 66,12.7 C66.4247084,13.4989452 67.2551856,13.9987695 68.16,14 C68.6873402,14.0110864 69.1977104,13.8134079 69.58,13.45 C70.0030855,13.0530521 70.316532,12.5536044 70.49,12 L72.77,13 C71.8,15.24 70.27,16.4 68.14,16.4 Z M79.41,16.15 L76.66,16.15 L76.66,4.86 L73.66,4.86 L73.66,2.43 L82.51,2.43 L82.51,4.86 L79.46,4.86 L79.41,16.15 Z M86.86,16.15 L84.1,16.15 L84.1,2.43 L89.16,2.43 C90.3380912,2.36788133 91.483523,2.82898167 92.29,3.69 C93.7525017,5.516664 93.7525017,8.113336 92.29,9.94 C91.4817001,10.7973363 90.3365165,11.254678 89.16,11.19 L86.86,11.19 L86.86,16.15 Z M88.86,8.77 C89.3421498,8.7855434 89.8066893,8.58802266 90.13,8.23 C90.7701434,7.39155082 90.7701434,6.22844918 90.13,5.39 C89.8025157,5.03901491 89.3398316,4.84592626 88.86,4.86 L86.86,4.86 L86.86,8.77 L88.86,8.77 Z M104.27,16.15 L101.27,16.15 L100.64,13.72 L96.42,13.72 L95.78,16.15 L92.78,16.15 L96.85,2.43 L100.18,2.43 L104.27,16.15 Z M100.09,11.3 L98.53,5.3 L96.96,11.3 L100.09,11.3 Z M108.01,16.15 L104.94,16.15 L107.43,10.7 C106.747431,10.4482417 106.162591,9.98597251 105.76,9.38 C104.684727,7.56807228 104.860693,5.27651496 106.2,3.65 C106.983294,2.83859331 108.072727,2.39555737 109.2,2.43 L114.32,2.43 L114.32,16.15 L111.57,16.15 L111.57,11.15 L110.09,11.15 L108.01,16.15 Z M109.63,8.77 L111.63,8.77 L111.63,4.86 L109.63,4.86 C109.146481,4.84167253 108.679032,5.03522578 108.35,5.39 C107.695746,6.22362563 107.695746,7.39637437 108.35,8.23 C108.667927,8.5837498 109.124505,8.78099127 109.6,8.77 L109.63,8.77 Z M35.63,43.77 L35.63,39 C35.8972351,38.9590028 36.156797,38.8781004 36.4,38.76 C36.6365072,38.6067842 36.8348871,38.4015636 36.98,38.16 C37.2134873,37.7538794 37.3758257,37.3108307 37.46,36.85 C37.6028302,36.0824593 37.7062988,35.3081139 37.77,34.53 L38.42,27.48 L46.51,27.48 L46.51,38.77 L47.66,38.77 L47.66,43.77 L44.9,43.77 L44.9,41.2 L38.4,41.2 L38.4,43.73 L35.63,43.77 Z M40.52,34.62 C40.4817515,36.1314183 39.9789646,37.5943886 39.08,38.81 L43.75,38.81 L43.75,29.95 L40.93,29.95 L40.52,34.62 Z M54.32,41.48 C52.6866792,41.5348736 51.1296239,40.7880845 50.15,39.48 C48.0838039,36.3866283 48.0838039,32.3533717 50.15,29.26 C51.1775497,28.0056817 52.7135276,27.2783925 54.335,27.2783925 C55.9564724,27.2783925 57.4924503,28.0056817 58.52,29.26 C60.5727886,32.3574244 60.5727886,36.3825756 58.52,39.48 C57.5134018,40.7999865 55.9173187,41.5343346 54.26,41.44 L54.32,41.48 Z M54.32,39.04 C55.2272154,39.0467953 56.0600589,38.5393419 56.47,37.73 C57.4967563,35.6181871 57.4967563,33.1518129 56.47,31.04 C56.0589981,30.2395575 55.2347949,29.736255 54.335,29.736255 C53.4352051,29.736255 52.6110019,30.2395575 52.2,31.04 C51.1864924,33.1548433 51.1864924,35.6151567 52.2,37.73 C52.6008412,38.4999748 53.3920227,38.987742 54.26,39 L54.32,39.04 Z M67.2,41.48 C65.5535029,41.5310135 63.9830255,40.7867114 62.98,39.48 C60.8745405,36.3913463 60.8745405,32.3286537 62.98,29.24 C63.9830255,27.9332886 65.5535029,27.1889865 67.2,27.24 C69.28,27.24 70.81,28.33 71.78,30.53 L69.5,31.53 C69.3098539,31.0136137 68.993594,30.5529743 68.58,30.19 C68.2015061,29.8508386 67.7080901,29.6684892 67.2,29.68 C66.2745785,29.6630785 65.4205618,30.1754886 65,31 C63.919591,33.1026673 63.919591,35.5973327 65,37.7 C65.4230299,38.5005347 66.2545669,39.0009967 67.16,39 C67.6839001,39.0084435 68.1901912,38.810954 68.57,38.45 C68.9930855,38.0530521 69.306532,37.5536044 69.48,37 L71.76,38 C70.8,40.29 69.26,41.44 67.14,41.44 L67.2,41.48 Z M78.46,41.24 L75.71,41.24 L75.71,29.91 L72.71,29.91 L72.71,27.48 L81.55,27.48 L81.55,29.91 L78.4,29.91 L78.46,41.24 Z M92.46,41.24 L89.46,41.24 L88.82,38.81 L84.6,38.81 L83.96,41.24 L80.96,41.24 L85.03,27.52 L88.37,27.52 L92.46,41.24 Z M88.28,36.38 L86.72,30.38 L85.16,36.38 L88.28,36.38 Z M99.49,41.24 L93.63,41.24 L93.63,27.48 L99.31,27.48 C100.30537,27.4138045 101.281287,27.7779526 101.99,28.48 C102.618667,29.1580582 102.956187,30.0557166 102.93,30.98 C102.956118,31.7178418 102.742061,32.4442302 102.32,33.05 C101.934821,33.5851366 101.370794,33.9647025 100.73,34.12 C101.43801,34.2415001 102.0642,34.6505147 102.46,35.25 C102.922302,35.9080867 103.163892,36.6958803 103.15,37.5 C103.190852,38.4758874 102.858289,39.4306673 102.22,40.17 C101.474712,40.920315 100.432995,41.2981206 99.38,41.2 L99.49,41.24 Z M98.65,33.07 C99.0575927,33.0982588 99.456755,32.9444531 99.74,32.65 C99.9998227,32.3209432 100.131305,31.908727 100.11,31.49 C100.129153,31.0776829 99.9976401,30.6724807 99.74,30.35 C99.456755,30.0555469 99.0575927,29.9017412 98.65,29.93 L96.39,29.93 L96.39,33 L98.65,33.07 Z M98.75,38.83 C99.1850521,38.8579014 99.6111428,38.6976622 99.92,38.39 C100.483928,37.6669556 100.483928,36.6530444 99.92,35.93 C99.6204006,35.605537 99.1908004,35.4329625 98.75,35.46 L96.39,35.46 L96.39,38.83 L98.75,38.83 Z M115.24,41.24 L111.99,41.24 L108.83,35.87 L107.83,37.39 L107.83,41.24 L105,41.24 L105,27.48 L107.75,27.48 L107.75,33.71 L111.62,27.48 L114.83,27.48 L110.45,33.94 L115.24,41.24 Z M126.7,41.24 L123.7,41.24 L123.06,38.81 L118.84,38.81 L118.21,41.24 L115.21,41.24 L119.29,27.52 L122.62,27.52 L126.7,41.24 Z M122.52,36.38 L120.96,30.38 L119.4,36.38 L122.52,36.38 Z M137.23,41.24 L134.47,41.24 L134.47,29.91 L131.47,29.91 L131.47,27.48 L140.31,27.48 L140.31,29.91 L137.31,29.91 L137.23,41.24 Z M146.73,41.48 C145.093196,41.5381874 143.531669,40.7910453 142.55,39.48 C140.497211,36.3825756 140.497211,32.3574244 142.55,29.26 C143.57755,28.0056817 145.113528,27.2783925 146.735,27.2783925 C148.356472,27.2783925 149.89245,28.0056817 150.92,29.26 C152.986196,32.3533717 152.986196,36.3866283 150.92,39.48 C149.905327,40.8121887 148.291117,41.5479681 146.62,41.44 L146.73,41.48 Z M146.73,39.04 C147.636566,39.0444517 148.468274,38.5376897 148.88,37.73 C149.906756,35.6181871 149.906756,33.1518129 148.88,31.04 C148.467282,30.23454 147.635001,29.7313003 146.73,29.74 C145.832496,29.730889 145.008865,30.2359457 144.61,31.04 C143.596492,33.1548433 143.596492,35.6151567 144.61,37.73 C145.000629,38.4860428 145.769472,38.9718291 146.62,39 L146.73,39.04 Z M160.22,41.24 L154.36,41.24 L154.36,27.48 L160.03,27.48 C160.992602,27.3943769 161.944921,27.7311561 162.639689,28.4028931 C163.334457,29.0746302 163.703136,30.0150596 163.65,30.98 C163.679041,31.71672 163.468523,32.4430088 163.05,33.05 C162.662977,33.5877638 162.094816,33.9677216 161.45,34.12 C162.161669,34.2389125 162.791921,34.6482137 163.19,35.25 C164.194353,36.7674424 164.092994,38.7621789 162.94,40.17 C162.199368,40.9211449 161.160182,41.2993645 160.11,41.2 L160.22,41.24 Z M159.38,33.07 C159.787593,33.0982588 160.186755,32.9444531 160.47,32.65 C160.729823,32.3209432 160.861305,31.908727 160.84,31.49 C160.859153,31.0776829 160.72764,30.6724807 160.47,30.35 C160.186755,30.0555469 159.787593,29.9017412 159.38,29.93 L157,29.93 L157,33 L159.38,33.07 Z M159.48,38.83 C159.915052,38.8579014 160.341143,38.6976622 160.65,38.39 C161.213928,37.6669556 161.213928,36.6530444 160.65,35.93 C160.350401,35.605537 159.9208,35.4329625 159.48,35.46 L157,35.46 L157,38.83 L159.48,38.83 Z M176.05,41.24 L173.05,41.24 L172.41,38.81 L168.2,38.81 L167.56,41.24 L164.56,41.24 L168.63,27.52 L171.96,27.52 L176.05,41.24 Z M171.88,36.38 L170.32,30.38 L168.75,36.38 L171.88,36.38 Z M179.98,41.24 L177.23,41.24 L177.23,27.48 L182.29,27.48 C183.463095,27.4183135 184.604004,27.8754085 185.41,28.73 C186.877846,30.558531 186.877846,33.161469 185.41,34.99 C184.604004,35.8445915 183.463095,36.3016865 182.29,36.24 L179.98,36.24 L179.98,41.24 Z M181.98,33.85 C182.458127,33.8706624 182.9204,33.6762144 183.24,33.32 C183.880143,32.4815508 183.880143,31.3184492 183.24,30.48 C182.917942,30.1272527 182.457368,29.9335191 181.98,29.95 L179.98,29.95 L179.98,33.85 L181.98,33.85 Z M193.37,41.48 C191.736679,41.5348736 190.179624,40.7880845 189.2,39.48 C187.133804,36.3866283 187.133804,32.3533717 189.2,29.26 C190.179624,27.9519155 191.736679,27.2051264 193.37,27.26 C195.013764,27.1951562 196.584253,27.9430078 197.57,29.26 C199.622789,32.3574244 199.622789,36.3825756 197.57,39.48 C196.549313,40.8214308 194.921441,41.5582965 193.24,41.44 L193.37,41.48 Z M193.37,39.04 C194.276566,39.0444517 195.108274,38.5376897 195.52,37.73 C196.546756,35.6181871 196.546756,33.1518129 195.52,31.04 C195.107282,30.23454 194.275001,29.7313003 193.37,29.74 C192.472496,29.730889 191.648865,30.2359457 191.25,31.04 C190.236492,33.1548433 190.236492,35.6151567 191.25,37.73 C191.637145,38.4799718 192.396735,38.9647359 193.24,39 L193.37,39.04 Z M206.86,41.24 L201,41.24 L201,27.48 L206.68,27.48 C207.67537,27.4138045 208.651287,27.7779526 209.36,28.48 C209.985963,29.159061 210.319971,30.0569317 210.29,30.98 C210.319041,31.71672 210.108523,32.4430088 209.69,33.05 C209.302977,33.5877638 208.734816,33.9677216 208.09,34.12 C208.801669,34.2389125 209.431921,34.6482137 209.83,35.25 C210.292302,35.9080867 210.533892,36.6958803 210.52,37.5 C210.560852,38.4758874 210.228289,39.4306673 209.59,40.17 C208.840102,40.9260082 207.789726,41.3042905 206.73,41.2 L206.86,41.24 Z M206.02,33.07 C206.427593,33.0982588 206.826755,32.9444531 207.11,32.65 C207.369823,32.3209432 207.501305,31.908727 207.48,31.49 C207.499153,31.0776829 207.36764,30.6724807 207.11,30.35 C206.826755,30.0555469 206.427593,29.9017412 206.02,29.93 L203.76,29.93 L203.76,33 L206.02,33.07 Z M206.12,38.83 C206.555052,38.8579014 206.981143,38.6976622 207.29,38.39 C207.853928,37.6669556 207.853928,36.6530444 207.29,35.93 C206.990401,35.605537 206.5608,35.4329625 206.12,35.46 L203.76,35.46 L203.76,38.83 L206.12,38.83 Z" id="Shape"></path>
                    <path d="M27.64,41.1 L1.64,41.1 L1.64,34.64 C9.3,27.18 14.1566667,22.2133333 16.21,19.74 C18.2633333,17.2666667 19.29,14.9333333 19.29,12.74 C19.3448508,11.3569429 18.7846635,10.0205484 17.76,9.09 C16.7134708,8.16700205 15.3547445,7.67714546 13.96,7.72 C10.559357,7.70152566 7.37407078,9.38233627 5.47,12.2 L0.68,7.2 C3.77655601,2.91719669 8.79769922,0.451590549 14.08,0.62 C17.5788428,0.47747544 21.0040671,1.65132837 23.68,3.91 C26.1893523,6.12541159 27.5637945,9.35571823 27.42,12.7 C27.3335053,15.860101 26.2871283,18.9190097 24.42,21.47 C21.1216596,25.9266755 17.4770305,30.1163271 13.52,34 L27.64,34 L27.64,41.1 Z" id="Shape"></path>
                </g>
            </g>
            <g id="Group-17" transform="translate(1338.000000, 29.000000)" fill="#FFFFFF">
                <g id="Group-10" transform="translate(58.500000, 0.966311)">
                    <path d="M48.7965194,96.0748918 C61.5370473,94.1623243 70.8691863,88.7222975 77.0757285,81.8534264 C94.832095,62.1919342 89.0274153,40.5136879 83.981809,49.2802427 C83.5576209,50.0244325 82.9176177,56.6626047 82.4934296,58.4188924 C78.7590748,74.3771305 65.1281315,86.0848739 48.7890775,87.3678722 L47.6355835,84.778092 C47.3230238,84.0339023 47.2858143,83.2897126 45.7676673,83.7957616 C42.4411393,84.8599529 37.1127409,88.6329947 35.014126,90.9325409 C34.143424,91.8032429 34.4038904,92.5846421 35.1704058,93.2544128 C37.4625101,95.6507037 42.6123029,98.9028127 45.8420863,99.8404918 C46.2545654,99.9826403 46.7078793,99.944119 47.0904586,99.7344089 C47.4730379,99.5246987 47.7493534,99.163275 47.8513985,98.739091 L48.7965194,96.0748918 Z" id="Shape"></path>
                    <path d="M40.7890381,4.71072088 C27.8773466,6.68282362 17.8531112,12.6065737 11.7656393,19.7880044 C7.56840937,24.7517498 -3.58699441,42.9992816 1.5479146,52.7258411 C11.1033105,53.4700308 0.684654535,44.3834744 14.7870496,26.8057134 C21.3130709,19.049475 30.6705525,14.2260309 40.7741543,13.4102986 C40.9307937,13.5724808 41.0368156,13.7767669 41.0792721,13.9982085 C41.2208027,14.4016745 41.4107157,14.7864983 41.6448563,15.1442606 C41.8064436,15.5083661 41.94805,15.8810145 42.0690444,16.2605452 C42.5230002,17.6000867 42.8132341,17.3321784 44.1751013,16.855897 C47.8960499,15.5014717 53.4402632,10.9023793 55.1295739,9.12376587 C55.2783516,8.89139102 55.2571813,8.58895752 55.0774806,8.37957616 C53.0830522,5.97584339 46.727672,1.68186875 43.1034681,0.736747815 C42.0764863,0.468839519 41.9797417,0.840934375 41.9350903,1.33954148 C41.882096,2.54951305 41.484471,3.71915008 40.7890381,4.71072088 Z" id="Shape"></path>
                    <path d="M29.3582841,71.0031404 C26.6516766,71.0503864 23.9720539,70.4588808 21.5368503,69.2766203 C19.3993086,68.2726149 17.5565025,66.7348073 16.1861262,64.811482 L20.7926606,59.9816908 C21.7719864,61.2709457 23.0283255,62.3238291 24.4689577,63.0626362 C25.8734351,63.7932939 27.4327925,64.1761148 29.0159569,64.1789208 C30.9731758,64.1789208 32.4392296,63.7249651 33.4141181,62.8021698 C34.4207509,61.8325915 34.9627638,60.4775592 34.9024975,59.0812212 C34.9024975,55.8563992 32.8336501,54.2439881 28.6959553,54.2439881 C27.5039308,54.2073526 26.3107836,54.2471242 25.1238447,54.3630585 L25.1238447,47.3602333 C25.5108233,47.3602333 26.6122241,47.4197685 28.5173498,47.4197685 C30.0285688,47.5028621 31.5277856,47.1098383 32.8038825,46.296042 C33.8664637,45.5414845 34.4654781,44.2928347 34.3890066,42.9918397 C34.4903794,41.6320013 33.9375738,40.3052677 32.9006272,39.4197291 C31.7058803,38.5615032 30.2542388,38.1362484 28.7852581,38.2141417 C25.7632127,38.19229 22.9155896,39.6271818 21.1349878,42.0690444 L16.7665942,37.6039062 C19.7433531,33.4612501 23.9604281,31.3899221 29.4178193,31.3899221 C33.2975284,31.3899221 36.3660706,32.2928722 38.6234461,34.0987726 C40.8808215,35.904673 42.0119899,38.4721275 42.0169511,41.8011361 C42.0411397,43.8855822 41.2936673,45.9053482 39.9183362,47.4718617 C38.6017736,49.0528509 36.7850261,50.1371237 34.7685434,50.5453652 C36.8941366,50.8618471 38.8408142,51.9155291 40.2681053,53.5221241 C41.8199372,55.2136605 42.6549668,57.4412954 42.5974191,59.7361082 C42.7125811,62.8721853 41.3854659,65.8883562 38.9955409,67.922195 C36.5595599,69.9761586 33.347141,71.0031404 29.3582841,71.0031404 Z M59.966807,71.0031404 C57.1039558,71.0717009 54.3309624,70.0010471 52.2570016,68.0263816 C50.1388327,66.0178419 48.5817439,63.4910997 47.73977,60.6961129 C46.8133231,57.6069229 46.3591979,54.3954297 46.3927867,51.1704846 C46.3614014,47.9554515 46.8155117,44.7540994 47.73977,41.6746239 C48.5785755,38.8846489 50.1364305,36.3643629 52.2570016,34.3666809 C54.3349383,32.3983005 57.1052353,31.3286878 59.966807,31.3899221 C62.1253657,31.3517248 64.2500397,31.9300079 66.0914883,33.056907 C67.8749079,34.1719653 69.3409513,35.7277142 70.3482535,37.5741386 C71.4351269,39.5533029 72.239232,41.675038 72.7371025,43.8774254 C73.2835344,46.2721453 73.5532086,48.7216859 73.5408274,51.1779265 C73.554869,53.6268816 73.285163,56.0692195 72.7371025,58.4561019 C72.2328174,60.6522372 71.439543,62.7718061 70.3780211,64.7593888 C69.3836225,66.6289144 67.915757,68.2045603 66.1212559,69.3287136 C64.2723526,70.4644807 62.136278,71.0456377 59.966807,71.0031404 Z M59.966807,64.1565951 C63.8018647,64.1565951 65.7193935,59.8229303 65.7193935,51.1556008 C65.7193935,42.4882713 63.8018647,38.1744516 59.966807,38.2141417 C56.1714395,38.2141417 54.2737557,42.5279614 54.2737557,51.1556008 C54.2737557,59.7832402 56.1714395,64.116905 59.966807,64.1565951 Z" id="Shape"></path>
                </g>
                <g id="Group-11" transform="translate(0.000000, 150.000000)">
                    <path d="M42.4,16.15 L36.54,16.15 L36.54,2.43 L42.22,2.43 C43.2153705,2.3638045 44.1912873,2.7279526 44.9,3.43 C45.5286674,4.10805816 45.8661869,5.00571662 45.84,5.93 C45.8646988,6.67077258 45.6508686,7.39989863 45.23,8.01 C44.8394134,8.54206997 44.2722576,8.91781071 43.63,9.07 C44.3442804,9.18898125 44.9756806,9.60265724 45.37,10.21 C45.8340711,10.8634465 46.0759538,11.6486886 46.06,12.45 C46.1018697,13.4260375 45.769179,14.3811818 45.13,15.12 C44.412583,15.8432259 43.4163508,16.2190937 42.4,16.15 Z M41.56,7.98 C41.9675927,8.00825883 42.366755,7.85445315 42.65,7.56 C42.9098227,7.23094316 43.0413054,6.81872702 43.02,6.4 C43.0391531,5.98768287 42.9076401,5.58248075 42.65,5.26 C42.366755,4.96554685 41.9675927,4.81174117 41.56,4.84 L39.3,4.84 L39.3,8 L41.56,7.98 Z M41.66,13.74 C42.0956416,13.7719227 42.5233492,13.6110754 42.83,13.3 C43.12438,12.9566469 43.2716773,12.5111624 43.24,12.06 C43.2612671,11.6162925 43.1149163,11.1808098 42.83,10.84 C42.5304006,10.515537 42.1008004,10.3429625 41.66,10.37 L39.3,10.37 L39.3,13.74 L41.66,13.74 Z M53.18,16.4 C51.5431959,16.4581874 49.9816689,15.7110453 49,14.4 C46.9472114,11.3025756 46.9472114,7.27742442 49,4.18 C50.0275497,2.92568173 51.5635276,2.19839248 53.185,2.19839248 C54.8064724,2.19839248 56.3424503,2.92568173 57.37,4.18 C59.4227886,7.27742442 59.4227886,11.3025756 57.37,14.4 C56.38629,15.7140145 54.8202853,16.4615108 53.18,16.4 Z M53.18,13.95 C54.0865655,13.9544517 54.9182741,13.4476897 55.33,12.64 C56.3567563,10.5281871 56.3567563,8.06181295 55.33,5.95 C54.9137665,5.14782492 54.0837249,4.64593932 53.18,4.65 C52.2838226,4.64565878 51.4625146,5.14929105 51.06,5.95 C50.0464924,8.0648433 50.0464924,10.5251567 51.06,12.64 C51.4435469,13.4657347 52.2695458,13.9956207 53.18,14 L53.18,13.95 Z M64.84,16.4 C63.8486716,16.4138837 62.8671961,16.2018577 61.97,15.78 C61.1757238,15.4293586 60.4864424,14.8779335 59.97,14.18 L61.62,12.45 C61.9803466,12.9161737 62.4465435,13.2898168 62.98,13.54 C63.5016643,13.8022934 64.0761549,13.9424964 64.66,13.95 C65.2528386,13.9924989 65.8404726,13.814428 66.31,13.45 C66.6847648,13.1124656 66.8869104,12.6236408 66.86,12.12 C66.86,10.97 66.08,10.39 64.5,10.39 L62.34,10.39 L62.34,8 L64.42,8 C64.9909394,8.03084603 65.5581986,7.8916413 66.05,7.6 C66.452464,7.34656468 66.6859498,6.89490347 66.66,6.42 C66.690559,5.92416907 66.4686248,5.44644636 66.07,5.15 C65.6147768,4.83900435 65.0707264,4.68456423 64.52,4.71 C63.418923,4.69238189 62.3767259,5.2060362 61.72,6.09 L60.16,4.49 C60.6712896,3.77738221 61.3610335,3.21179222 62.16,2.85 C63.0014591,2.45629668 63.9210694,2.25801641 64.85,2.27 C66.0534246,2.21814232 67.2396386,2.57013461 68.22,3.27 C69.0693566,3.92240104 69.5440915,4.95037022 69.49,6.02 C69.4960998,6.76016375 69.2208789,7.47502305 68.72,8.02 C68.2200443,8.60003651 67.53444,8.98878122 66.78,9.12 C67.5471544,9.23760144 68.2519976,9.61116838 68.78,10.18 C69.349569,10.7801184 69.6556079,11.5830205 69.63,12.41 C69.6617781,13.5359322 69.1661908,14.6121703 68.29,15.32 C67.3049346,16.0786436 66.0818162,16.4615328 64.84,16.4 Z M77.46,16.15 L71.6,16.15 L71.6,2.43 L77.28,2.43 C78.2417736,2.34779552 79.1920795,2.68570901 79.886041,3.3566662 C80.5800024,4.02762339 80.9497477,4.96600249 80.9,5.93 C80.9290417,6.67131614 80.7148172,7.40178672 80.29,8.01 C79.9050088,8.5433468 79.3403936,8.91975693 78.7,9.07 C79.4142804,9.18898125 80.0456806,9.60265724 80.44,10.21 C81.432919,11.7269833 81.3318636,13.7117123 80.19,15.12 C79.4740711,15.8455184 78.4767479,16.2217978 77.46,16.15 Z M76.62,7.98 C77.0275927,8.00825883 77.426755,7.85445315 77.71,7.56 C77.9740421,7.23320117 78.106053,6.81932917 78.08,6.4 C78.1039191,5.98705567 77.9718661,5.58018948 77.71,5.26 C77.426755,4.96554685 77.0275927,4.81174117 76.62,4.84 L74.36,4.84 L74.36,8 L76.62,7.98 Z M76.72,13.74 C77.1584496,13.7708399 77.5887836,13.6103764 77.9,13.3 C78.1897378,12.9540432 78.336398,12.5104855 78.31,12.06 C78.3264856,11.6169704 78.1806959,11.1831572 77.9,10.84 C77.5948889,10.5174783 77.1633017,10.345575 76.72,10.37 L74.36,10.37 L74.36,13.74 L76.72,13.74 Z M85.83,16.15 L83.08,16.15 L83.08,2.43 L88.14,2.43 C89.3160664,2.36246318 90.4606557,2.82470114 91.26,3.69 C92.7225017,5.516664 92.7225017,8.113336 91.26,9.94 C90.4540039,10.7945915 89.3130946,11.2516865 88.14,11.19 L85.83,11.19 L85.83,16.15 Z M87.83,8.77 C88.3094793,8.78672756 88.7714377,8.58874542 89.09,8.23 C89.7442543,7.39637437 89.7442543,6.22362563 89.09,5.39 C88.7679423,5.03725268 88.307368,4.84351906 87.83,4.86 L85.83,4.86 L85.83,8.77 L87.83,8.77 Z M103.23,16.15 L100.23,16.15 L99.59,13.72 L95.38,13.72 L94.74,16.15 L91.74,16.15 L95.81,2.43 L99.14,2.43 L103.23,16.15 Z M99,11.3 L97.43,5.3 L95.87,11.3 L99,11.3 Z M108.42,16.15 L105.66,16.15 L105.66,4.86 L102.66,4.86 L102.66,2.43 L111.5,2.43 L111.5,4.86 L108.5,4.86 L108.42,16.15 Z M122.42,16.15 L119.67,16.15 L119.67,4.86 L116.67,4.86 L116.67,2.43 L125.51,2.43 L125.51,4.86 L122.51,4.86 L122.42,16.15 Z M131.92,16.4 C130.286679,16.4548736 128.729624,15.7080845 127.75,14.4 C125.697211,11.3025756 125.697211,7.27742442 127.75,4.18 C128.77755,2.92568173 130.313528,2.19839248 131.935,2.19839248 C133.556472,2.19839248 135.09245,2.92568173 136.12,4.18 C138.172789,7.27742442 138.172789,11.3025756 136.12,14.4 C135.145281,15.6868704 133.614064,16.43018 132,16.4 L131.92,16.4 Z M131.92,13.95 C132.827215,13.9567953 133.660059,13.4493419 134.07,12.64 C135.096756,10.5281871 135.096756,8.06181295 134.07,5.95 C133.658998,5.1495575 132.834795,4.64625499 131.935,4.64625499 C131.035205,4.64625499 130.211002,5.1495575 129.8,5.95 C128.786492,8.0648433 128.786492,10.5251567 129.8,12.64 C130.197515,13.4905953 131.061425,14.024649 132,14 L131.92,13.95 Z M145.41,16.15 L139.55,16.15 L139.55,2.42986644 L145.23,2.43 C146.558866,2.41854935 147.784734,3.14413609 148.414022,4.31461195 C149.04331,5.4850878 148.97246,6.90783405 148.23,8.01 C147.84313,8.54139254 147.279312,8.91727084 146.64,9.07 C147.352481,9.18685138 147.981566,9.60139299 148.37,10.21 C148.834071,10.8634465 149.075954,11.6486886 149.06,12.45 C149.10187,13.4260375 148.769179,14.3811818 148.13,15.12 C147.435262,15.8212322 146.476063,16.1954649 145.49,16.15 L145.41,16.15 Z M144.57,7.98 C144.977593,8.00825883 145.376755,7.85445315 145.66,7.56 C145.924042,7.23320117 146.056053,6.81932917 146.03,6.4 C146.053919,5.98705567 145.921866,5.58018948 145.66,5.26 C145.376755,4.96554685 144.977593,4.81174117 144.57,4.84 L142.31,4.84 L142.31,8 L144.57,7.98 Z M144.67,13.74 C145.105642,13.7719227 145.533349,13.6110754 145.84,13.3 C146.137983,12.9581913 146.288931,12.5125376 146.26,12.06 C146.27849,11.6149736 146.128516,11.1793358 145.84,10.84 C145.540401,10.515537 145.1108,10.3429625 144.67,10.37 L142.31,10.37 L142.31,13.74 L144.67,13.74 Z M161.25,16.15 L158.25,16.15 L157.61,13.72 L153.39,13.72 L152.75,16.15 L149.75,16.15 L153.82,2.43 L157.16,2.43 L161.25,16.15 Z M157.07,11.3 L155.51,5.3 L153.95,11.3 L157.07,11.3 Z M165.18,16.15 L162.42,16.15 L162.42,2.43 L167.48,2.43 C168.656066,2.36246318 169.800656,2.82470114 170.6,3.69 C172.093197,5.50577673 172.093197,8.12422327 170.6,9.94 C169.794004,10.7945915 168.653095,11.2516865 167.48,11.19 L165.18,11.19 L165.18,16.15 Z M167.18,8.77 C167.659479,8.78672756 168.121438,8.58874542 168.44,8.23 C169.094254,7.39637437 169.094254,6.22362563 168.44,5.39 C168.117942,5.03725268 167.657368,4.84351906 167.18,4.86 L165.18,4.86 L165.18,8.77 L167.18,8.77 Z M178.57,16.4 C176.936679,16.4548736 175.379624,15.7080845 174.4,14.4 C172.347211,11.3025756 172.347211,7.27742442 174.4,4.18 C175.42755,2.92568173 176.963528,2.19839248 178.585,2.19839248 C180.206472,2.19839248 181.74245,2.92568173 182.77,4.18 C184.822789,7.27742442 184.822789,11.3025756 182.77,14.4 C181.78903,15.6955498 180.244549,16.439878 178.62,16.4 L178.57,16.4 Z M178.57,13.95 C179.477215,13.9567953 180.310059,13.4493419 180.72,12.64 C181.746756,10.5281871 181.746756,8.06181295 180.72,5.95 C180.308998,5.1495575 179.484795,4.64625499 178.585,4.64625499 C177.685205,4.64625499 176.861002,5.1495575 176.45,5.95 C175.436492,8.0648433 175.436492,10.5251567 176.45,12.64 C176.843083,13.4805035 177.692207,14.0126737 178.62,14 L178.57,13.95 Z M192.06,16.15 L186.2,16.15 L186.2,2.43 L191.88,2.43 C192.841774,2.34779552 193.79208,2.68570901 194.486041,3.3566662 C195.180002,4.02762339 195.549748,4.96600249 195.5,5.93 C195.529042,6.67131614 195.314817,7.40178672 194.89,8.01 C194.505009,8.5433468 193.940394,8.91975693 193.3,9.07 C194.01428,9.18898125 194.645681,9.60265724 195.04,10.21 C196.032919,11.7269833 195.931864,13.7117123 194.79,15.12 C194.085799,15.8319093 193.10973,16.2070403 192.11,16.15 L192.06,16.15 Z M191.22,7.98 C191.627593,8.00825883 192.026755,7.85445315 192.31,7.56 C192.574042,7.23320117 192.706053,6.81932917 192.68,6.4 C192.703919,5.98705567 192.571866,5.58018948 192.31,5.26 C192.026755,4.96554685 191.627593,4.81174117 191.22,4.84 L189,4.84 L189,8 L191.22,7.98 Z M191.32,13.74 C191.75845,13.7708399 192.188784,13.6103764 192.5,13.3 C192.789738,12.9540432 192.936398,12.5104855 192.91,12.06 C192.926486,11.6169704 192.780696,11.1831572 192.5,10.84 C192.194889,10.5174783 191.763302,10.345575 191.32,10.37 L189,10.37 L189,13.74 L191.32,13.74 Z M42.32,41.2 L36.46,41.2 L36.46,27.48 L42.14,27.48 C43.1353705,27.4138045 44.1112873,27.7779526 44.82,28.48 C45.4486674,29.1580582 45.7861869,30.0557166 45.76,30.98 C45.7861175,31.7178418 45.5720611,32.4442302 45.15,33.05 C44.7629773,33.5877638 44.1948161,33.9677216 43.55,34.12 C44.2616695,34.2389125 44.891921,34.6482137 45.29,35.25 C45.7523023,35.9080867 45.9938923,36.6958803 45.98,37.5 C46.0208524,38.4758874 45.6882886,39.4306673 45.05,40.17 C44.349407,40.8685559 43.3884544,41.2420583 42.4,41.2 L42.32,41.2 Z M41.48,33.03 C41.8875927,33.0582588 42.286755,32.9044531 42.57,32.61 C42.8298227,32.2809432 42.9613054,31.868727 42.94,31.45 C42.9591531,31.0376829 42.8276401,30.6324807 42.57,30.31 C42.286755,30.0155469 41.8875927,29.8617412 41.48,29.89 L39.22,29.89 L39.22,33 L41.48,33.03 Z M41.58,38.79 C42.0150521,38.8179014 42.4411428,38.6576622 42.75,38.35 C43.3139277,37.6269556 43.3139277,36.6130444 42.75,35.89 C42.4504006,35.565537 42.0208004,35.3929625 41.58,35.42 L39.22,35.42 L39.22,38.79 L41.58,38.79 Z M57.29,41.2 L54.54,41.2 L54.54,29.91 L51.54,29.91 L51.54,27.48 L60.39,27.48 L60.39,29.91 L57.34,29.91 L57.29,41.2 Z M69.84,41.2 L61.98,41.2 L61.98,27.48 L69.84,27.48 L69.84,29.91 L64.74,29.91 L64.74,33 L69.74,33 L69.74,35.43 L64.74,35.43 L64.74,38.76 L69.84,38.76 L69.84,41.2 Z M74.34,27.48 L74.34,31.57 C74.34,33.09 75.03,33.86 76.4,33.86 C77.015437,33.8669958 77.6275553,33.7689216 78.21,33.57 L78.21,27.48 L81,27.48 L81,41.2 L78.25,41.2 L78.25,36 C77.5349309,36.2064507 76.7942749,36.3108159 76.05,36.31 C74.8043106,36.3969159 73.585465,35.9196571 72.73,35.01 C71.9439092,34.0525654 71.5412307,32.8374029 71.6,31.6 L71.6,27.51 L74.34,27.48 Z M91.31,40.9183925 L83.46,40.9183925 L83.46,27.1983925 L91.31,27.1983925 L91.31,29.6283925 L86.21,29.6283925 L86.21,32.7183925 L91.21,32.7183925 L91.21,35.1483925 L86.21,35.1483925 L86.21,38.4783925 L91.31,38.4783925 L91.31,40.9183925 Z M125.61,41.1923208 L117.76,41.1923208 L117.76,27.4723208 L125.61,27.4723208 L125.61,29.9023208 L120.51,29.9023208 L120.51,32.9923208 L125.51,32.9923208 L125.51,35.4223208 L120.51,35.4223208 L120.51,38.7523208 L125.61,38.7523208 L125.61,41.1923208 Z M103.36,41.2 L100.58,41.2 L100.58,35.36 L96.04,35.36 L96.04,41.2 L93.28,41.2 L93.28,27.48 L96.04,27.48 L96.04,32.93 L100.58,32.93 L100.58,27.48 L103.36,27.48 L103.36,41.2 Z M108.42,41.2 L105.78,41.2 L105.78,27.48 L108.54,27.48 L108.54,35.62 L113.02,27.48 L115.84,27.48 L115.84,41.2 L113.06,41.2 L113.06,32.77 L108.42,41.2 Z M138.94,41.44 C137.971728,41.4592332 137.012525,41.250264 136.14,40.83 C135.375426,40.4665899 134.717554,39.912049 134.23,39.22 L135.87,37.5 C136.225122,37.9579573 136.675512,38.3332823 137.19,38.6 C137.691088,38.8587221 138.246078,38.9957568 138.81,39 C139.378468,39.0440652 139.941709,38.8646891 140.38,38.5 C140.741553,38.1547547 140.935009,37.6692888 140.91,37.17 C140.91,36.01 140.17,35.44 138.69,35.44 C138.263756,35.4131496 137.836244,35.4131496 137.41,35.44 L137.41,33 C137.55,33 137.96,33 138.63,33 C139.169229,33.0294349 139.704173,32.8895803 140.16,32.6 C140.537184,32.329154 140.748696,31.8834672 140.72,31.42 C140.751991,30.9320393 140.551835,30.4575966 140.18,30.14 C139.75211,29.8358247 139.234363,29.6843749 138.71,29.71 C137.627712,29.7018493 136.607764,30.2155453 135.97,31.09 L134.41,29.49 C136.292656,27.1007895 139.692181,26.5530399 142.23,28.23 C143.04773,28.9064116 143.496599,29.9302773 143.44,30.99 C143.443838,31.7261032 143.176904,32.4379251 142.69,32.99 C142.220842,33.5566854 141.571265,33.9450194 140.85,34.09 C141.623255,34.1957649 142.332907,34.5754288 142.85,35.16 C143.404208,35.7642914 143.701831,36.5603424 143.68,37.38 C143.723456,38.4980762 143.251681,39.5743123 142.4,40.3 C141.443837,41.0823216 140.234499,41.4878056 139,41.44 L138.94,41.44 Z M149.88,41.44 C148.855781,41.4669682 147.86286,41.085629 147.12,40.38 C146.363372,39.658568 145.808376,38.7519591 145.51,37.75 C144.854344,35.5307471 144.854344,33.1692529 145.51,30.95 C145.809952,29.9516333 146.364844,29.0486419 147.12,28.33 C147.865224,27.6281239 148.856536,27.2474023 149.88,27.27 C150.652633,27.2542487 151.413286,27.462647 152.07,27.87 C152.704913,28.2734929 153.227724,28.8306991 153.59,29.49 C153.97721,30.1965364 154.263334,30.9539246 154.44,31.74 C154.826501,33.4551624 154.826501,35.2348376 154.44,36.95 C154.263301,37.734614 153.980712,38.4915509 153.6,39.2 C153.244513,39.8695053 152.720617,40.4347617 152.08,40.84 C151.452941,41.2227345 150.734566,41.4299582 150,41.44 L149.88,41.44 Z M149.88,39 C151.246667,39 151.913333,37.45 151.88,34.35 C151.846667,31.25 151.18,29.7066667 149.88,29.72 C148.546667,29.72 147.88,31.2633333 147.88,34.35 C147.88,37.4366667 148.586667,38.9866667 150,39 L149.88,39 Z M160.14,43.73 L160.14,39 C160.407235,38.9590028 160.666797,38.8781004 160.91,38.76 C161.14549,38.6087526 161.34102,38.4029313 161.48,38.16 C161.721742,37.7568147 161.887801,37.3128616 161.97,36.85 C162.11283,36.0824593 162.216299,35.3081139 162.28,34.53 L162.93,27.48 L171.02,27.48 L171.02,38.77 L172.17,38.77 L172.17,43.77 L169.41,43.77 L169.41,41.2 L163,41.2 L163,43.73 L160.14,43.73 Z M165.03,34.58 C164.991751,36.0914183 164.488965,37.5543886 163.59,38.77 L168.26,38.77 L168.26,29.91 L165.44,29.91 L165.03,34.58 Z M183.75,41.2 L180.97,41.2 L180.97,35.36 L176.43,35.36 L176.43,41.2 L173.67,41.2 L173.67,27.48 L176.43,27.48 L176.43,32.93 L180.97,32.93 L180.97,27.48 L183.75,27.48 L183.75,41.2 Z M194.03,41.2 L186.17,41.2 L186.17,27.48 L194.03,27.48 L194.03,29.91 L189,29.91 L189,33 L194,33 L194,35.43 L189,35.43 L189,38.76 L194.1,38.76 L194.03,41.2 Z M198.7,41.2 L196.07,41.2 L196.07,27.48 L198.82,27.48 L198.82,35.62 L203.3,27.48 L206.12,27.48 L206.12,41.2 L203.35,41.2 L203.35,32.77 L198.7,41.2 Z M204.17,25.2 C203.440821,26.1696213 202.298205,26.7400054 201.085,26.7400054 C199.871795,26.7400054 198.729179,26.1696213 198,25.2 L199.13,24.29 C199.571882,24.9348168 200.303304,25.3202705 201.085,25.3202705 C201.866696,25.3202705 202.598118,24.9348168 203.04,24.29 L204.17,25.2 Z" id="Shape"></path>
                    <path d="M14.48,41.81 C11.6636575,41.8617497 8.87481802,41.2484791 6.34,40.02 C4.11623345,38.9668593 2.20134278,37.3584889 0.78,35.35 L5.56,30.35 C6.58122262,31.6897343 7.8900357,32.7832596 9.39,33.55 C10.8491366,34.3160173 12.4720147,34.717448 14.12,34.72 C15.7720847,34.8477502 17.4095826,34.3317772 18.69,33.28 C19.7345681,32.2629547 20.2918241,30.8461404 20.22,29.39 C20.22,26.0566667 18.0666667,24.39 13.76,24.39 C12.5220436,24.3544664 11.2830725,24.3945409 10.05,24.51 L10.05,17.27 C10.45,17.27 11.63,17.33 13.58,17.33 C15.1520927,17.4126026 16.7109002,17.0036778 18.04,16.16 C19.1328724,15.3641606 19.7497924,14.0701331 19.68,12.72 C19.7743633,11.299383 19.1878557,9.91849173 18.1,9 C16.8554092,8.11199917 15.346885,7.67142549 13.82,7.75 C10.6629784,7.70939144 7.68172608,9.20001762 5.82,11.75 L1.28,7.08 C4.34666667,2.76666667 8.73333333,0.613333333 14.44,0.62 C18.44,0.62 21.63,1.55666667 24.01,3.43 C26.3953267,5.38098018 27.7067026,8.35293687 27.54,11.43 C27.5626006,13.5964449 26.7824797,15.6945782 25.35,17.32 C23.9804829,18.9617186 22.0942449,20.0899357 20,20.52 C22.2104432,20.8511264 24.232804,21.9526224 25.71,23.63 C27.3303812,25.384701 28.2022006,27.7023773 28.14,30.09 C28.2504058,33.3445765 26.8740772,36.472596 24.4,38.59 C21.9266667,40.7433333 18.62,41.8166667 14.48,41.81 Z" id="Shape"></path>
                </g>
            </g>
        </g>
    </g>
</svg>