<?xml version="1.0" encoding="UTF-8"?>
<svg width="20px" height="20px" viewBox="0 0 20 20" version="1.1" xmlns="http://www.w3.org/2000/svg" xmlns:xlink="http://www.w3.org/1999/xlink">
    <!-- Generator: sketchtool 50.2 (55047) - http://www.bohemiancoding.com/sketch -->
    <title>F2B7166A-B54E-4638-8790-967181AA80D2</title>
    <desc>Created with sketchtool.</desc>
    <defs></defs>
    <g id="Page-3" stroke="none" stroke-width="1" fill="none" fill-rule="evenodd">
        <g id="Vs-Главная-Вечная-стройка-" transform="translate(-1524.000000, -200.000000)">
            <g id="facebook" transform="translate(1524.000000, 200.000000)">
                <g id="Layer_1">
                    <g id="Group">
                        <path d="M9.97664384,0 C15.4869178,0 19.9533562,4.46705479 19.9533562,9.97671233 C19.9533562,15.4869863 15.4869178,19.9533562 9.97664384,19.9533562 C4.46636986,19.9533562 0,15.4869178 0,9.97671233 C0,4.46705479 4.46643836,0 9.97664384,0 L9.97664384,0 Z" id="Shape" fill="#3B5998"></path>
                        <path d="M11.1913699,6.86828767 L12.4771233,6.86828767 L12.4771233,4.9689726 L10.9656849,4.9689726 L10.9656849,4.97582192 C9.13431507,5.04068493 8.7589726,6.07013699 8.72589041,7.15136986 L8.72212329,7.15136986 L8.72212329,8.09979452 L7.47506849,8.09979452 L7.47506849,9.95979452 L8.72212329,9.95979452 L8.72212329,14.9456164 L10.6015068,14.9456164 L10.6015068,9.95979452 L12.1410274,9.95979452 L12.4384247,8.09979452 L10.6021233,8.09979452 L10.6021233,7.52678082 C10.6021233,7.16136986 10.845274,6.86828767 11.1913699,6.86828767 L11.1913699,6.86828767 Z" id="Shape" fill="#FFFFFF"></path>
                    </g>
                </g>
            </g>
        </g>
    </g>
</svg>