<svg xmlns="http://www.w3.org/2000/svg" width="24" height="25" viewBox="0 0 24 25">
    <g fill="none" fill-rule="evenodd">
        <path fill="gray" fill-rule="nonzero" d="M20.944 20.584a11.97 11.97 0 0 1-8.944 4c-6.627 0-12-5.373-12-12 0-6.628 5.373-12 12-12s12 5.372 12 12c0 3.034-1.127 5.806-2.984 7.92l.037.08h-.109zm-2.41-.43c-1.461-2.176-3.812-3.57-6.816-3.57-3.016 0-5.043 1.405-6.221 3.597A9.96 9.96 0 0 0 12 22.584c2.497 0 4.78-.916 6.533-2.43zM4.08 18.69c1.56-2.51 4.103-4.105 7.638-4.105 3.529 0 6.378 1.59 8.213 4.091A9.956 9.956 0 0 0 22 12.584c0-5.523-4.477-10-10-10s-10 4.477-10 10c0 2.299.776 4.416 2.08 6.105zM12 13.584a4 4 0 1 1 0-8 4 4 0 0 1 0 8zm0-2a2 2 0 1 0 0-4 2 2 0 0 0 0 4z"/>
    </g>
</svg>
