<?xml version="1.0" encoding="UTF-8"?>
<svg width="20px" height="20px" viewBox="0 0 20 20" version="1.1" xmlns="http://www.w3.org/2000/svg" xmlns:xlink="http://www.w3.org/1999/xlink">
    <!-- Generator: sketchtool 50.2 (55047) - http://www.bohemiancoding.com/sketch -->
    <title>2E478F09-1375-4311-99AC-646F36633E79</title>
    <desc>Created with sketchtool.</desc>
    <defs></defs>
    <g id="Page-3" stroke="none" stroke-width="1" fill="none" fill-rule="evenodd">
        <g id="Vs-Главная-Вечная-стройка-" transform="translate(-1418.000000, -200.000000)" fill-rule="nonzero">
            <g id="youtube" transform="translate(1418.000000, 200.000000)">
                <circle id="Oval" fill="#D42428" cx="10" cy="10" r="10"></circle>
                <path d="M17.0833109,3 C20.9720616,6.88910127 20.9723978,13.1942619 17.0833109,17.0833632 C13.1945603,20.9721282 6.88908684,20.9722963 3,17.0833632 L17.0833109,3 Z" id="Shape" fill="#CC202D"></path>
                <path d="M15,7.99523685 C15,7.16937687 14.3309609,6.5 13.5055646,6.5 L6.4941444,6.5 C5.6689144,6.5 5,7.16954317 5,7.99523685 L5,12.0047631 C5,12.8306231 5.66903912,13.5 6.4941444,13.5 L13.5054399,13.5 C14.3310025,13.5 14.9998753,12.8304568 14.9998753,12.0047631 L14.9998753,7.99523685 L15,7.99523685 Z M9,12 L9,8 L12,10.0000883 L9,12 Z" id="Shape" fill="#FFFFFF"></path>
            </g>
        </g>
    </g>
</svg>