<?xml version="1.0" encoding="UTF-8"?>
<svg width="93px" height="93px" viewBox="0 0 93 93" version="1.1" xmlns="http://www.w3.org/2000/svg" xmlns:xlink="http://www.w3.org/1999/xlink">
    <!-- Generator: Sketch 50.2 (55047) - http://www.bohemiancoding.com/sketch -->
    <title>экономичность и оптимизация складских запасов</title>
    <desc>Created with Sketch.</desc>
    <defs></defs>
    <g id="экономичность-и-оптимизация-складских-запасов" stroke="none" stroke-width="1" fill="none" fill-rule="evenodd">
        <rect id="Rectangle-59" fill="#FFFFFF" opacity="0" x="0" y="0" width="93" height="93"></rect>
        <g id="color" transform="translate(32.500000, 24.000000)" fill="#DA3838" fill-rule="nonzero">
            <path d="M27.412674,16.1152127 C27.2196387,15.1902695 25.8980977,14.6115806 22.9928754,14.1547375 C20.5128101,13.7648104 17.2240189,13.5499909 13.7323947,13.5499909 C10.2407705,13.5499909 6.9519792,13.7648104 4.47191393,14.1548417 C1.56669165,14.6116848 0.245046375,15.1903737 0.0520111191,16.1153169 C0.0356468992,16.1783765 0.0260576749,16.2440418 0.0260576749,16.3122087 L0.0260576749,42.1614222 C0.0260576749,43.2341646 1.31403643,43.8743495 4.47191393,44.3708003 C6.9519792,44.7608316 10.2407705,44.9756511 13.7323947,44.9756511 C17.2240189,44.9756511 20.5128101,44.7609358 22.9928754,44.3708003 C26.1507529,43.8742453 27.4387317,43.2341646 27.4387317,42.1614222 L27.4387317,16.3122087 C27.4387317,16.2440418 27.4291424,16.1782723 27.412674,16.1152127 Z M5.34693066,15.6064626 C7.66450026,15.288559 10.6425798,15.1134514 13.7323947,15.1134514 C16.8222095,15.1134514 19.8002891,15.288559 22.1178587,15.6064626 C24.0499832,15.8715213 25.0313152,16.1653477 25.5135906,16.3642198 C25.0313152,16.563092 24.0499832,16.8569183 22.1178587,17.121977 C19.8002891,17.4398806 16.8222095,17.6149882 13.7323947,17.6149882 C10.6425798,17.6149882 7.66450026,17.4398806 5.34693066,17.121977 C3.41480618,16.8569183 2.43347414,16.563092 1.9511987,16.3642198 C2.43347414,16.1653477 3.41480618,15.8715213 5.34693066,15.6064626 Z M25.7647866,17.9468588 C24.9639822,23.8720614 19.8736675,28.454981 13.7323947,28.454981 C7.59112185,28.454981 2.50080717,23.8720614 1.70000271,17.9468588 C2.38657033,18.1853386 3.30036087,18.3894223 4.47201816,18.5737022 C6.95208343,18.9637335 10.2408747,19.1785529 13.7324989,19.1785529 C17.2241231,19.1785529 20.5129144,18.9637335 22.9929796,18.5737022 C24.1645327,18.3894223 25.078219,18.1853386 25.7647866,17.9468588 Z M22.1178587,42.9191794 C19.8002891,43.237083 16.8222095,43.4120864 13.7323947,43.4120864 C10.6425798,43.4120864 7.66450026,43.2369788 5.34693066,42.9191794 C2.66642976,42.5515577 1.8164284,42.1284853 1.58951817,41.9803735 L1.58951817,22.6635064 C3.88363587,27.031815 8.46540896,30.0184415 13.7323947,30.0184415 C18.9993804,30.0184415 23.5811535,27.031815 25.8752712,22.6635064 L25.8752712,41.9803735 C25.6483609,42.1284853 24.7983596,42.5514535 22.1178587,42.9191794 Z" id="Shape"></path>
            <path d="M13.7323947,10.8399928 C15.9451082,10.8399928 17.7452766,9.03982434 17.7452766,6.82711082 C17.7452766,4.87841366 14.9213543,1.05585699 14.3552773,0.309356716 C14.2074782,0.114549539 13.9770241,0 13.7323947,0 C13.4877652,0 13.2573111,0.114549539 13.109512,0.309356716 C12.5434351,1.05585699 9.71951273,4.87841366 9.71951273,6.82711082 C9.71951273,9.03982434 11.5196811,10.8399928 13.7323947,10.8399928 Z M13.7324989,2.11015051 C14.8996743,3.77523594 16.1818161,5.94042026 16.1818161,6.82711082 C16.1818161,8.17773223 15.0830161,9.27653226 13.7323947,9.27653226 C12.3817733,9.27653226 11.2829732,8.17773223 11.2829732,6.82711082 C11.2829732,5.94167103 12.5653235,3.77596555 13.7324989,2.11015051 Z" id="Shape"></path>
        </g>
    </g>
</svg>