<?xml version="1.0" encoding="UTF-8"?>
<svg width="93px" height="93px" viewBox="0 0 93 93" version="1.1" xmlns="http://www.w3.org/2000/svg" xmlns:xlink="http://www.w3.org/1999/xlink">
    <!-- Generator: Sketch 50.2 (55047) - http://www.bohemiancoding.com/sketch -->
    <title>колеровка любого объема краски</title>
    <desc>Created with Sketch.</desc>
    <defs></defs>
    <g id="колеровка-любого-объема-краски" stroke="none" stroke-width="1" fill="none" fill-rule="evenodd">
        <rect id="Rectangle-59" fill="#FFFFFF" opacity="0" x="0" y="0" width="93" height="93"></rect>
        <g id="paint-bucket" transform="translate(28.000000, 24.000000)" fill="#D62626" fill-rule="nonzero">
            <path d="M9.67817936,19.3563587 C10.1638067,19.3563587 10.5580139,18.9621516 10.5580139,18.4765242 C10.5580139,17.9908969 10.1638067,17.5966898 9.67817936,17.5966898 C9.19255199,17.5966898 8.79834488,17.9908969 8.79834488,18.4765242 C8.79834488,18.9621516 9.19255199,19.3563587 9.67817936,19.3563587 Z" id="Shape"></path>
            <path d="M36.9530485,13.1975173 C36.9530485,7.13834461 32.2167207,2.16521768 26.2520615,1.78407066 C25.8956598,0.747171988 24.9116887,0 23.7555312,0 L13.1975173,0 C12.0169581,0 11.0474218,0.767105694 10.6999559,1.78407066 C4.73564041,2.1659051 0,7.13868836 0,13.1975173 L0,16.7168553 C0,18.1723627 1.183996,19.3563587 2.63950346,19.3563587 L3.51933795,19.3563587 L3.51933795,42.4080223 C3.51933795,43.8635298 4.70333395,45.0475258 6.15884141,45.0475258 L30.7942071,45.0475258 C32.2497145,45.0475258 33.4337105,43.8635298 33.4337105,42.4080223 L33.4337105,19.3563587 L34.313545,19.3563587 C35.7690525,19.3563587 36.9530485,18.1723627 36.9530485,16.7168553 L36.9530485,13.1975173 Z M13.1975173,1.75966898 L23.7555312,1.75966898 C24.2408149,1.75966898 24.6353657,2.15421975 24.6353657,2.63950346 C24.6353657,3.12513084 24.2411585,3.51933795 23.7555312,3.51933795 L13.1975173,3.51933795 C12.7122336,3.51933795 12.3176828,3.12478717 12.3176828,2.63950346 C12.3176828,2.15387609 12.7118899,1.75966898 13.1975173,1.75966898 Z M31.6740416,21.1160277 L30.7942071,21.1160277 C29.3386996,21.1160277 28.1547036,22.3000237 28.1547036,23.7555312 L28.1547036,27.2748691 C28.1547036,27.7604965 27.7604965,28.1547036 27.2748691,28.1547036 C26.7895854,28.1547036 26.3950346,27.7601528 26.3950346,27.2748691 L26.3950346,24.6353657 C26.3950346,22.6911377 24.8202683,21.1160277 22.8756967,21.1160277 C20.9352492,21.1160277 19.3563587,22.6949181 19.3563587,24.6353657 L19.3563587,30.7942071 C19.3563587,31.2798344 18.9621516,31.6740416 18.4765242,31.6740416 C17.9912405,31.6740416 17.5966898,31.2794908 17.5966898,30.7942071 L17.5966898,24.6353657 C17.5966898,22.6911377 16.0219234,21.1160277 14.0773518,21.1160277 C12.1369043,21.1160277 10.5580139,22.6949181 10.5580139,24.6353657 L10.5580139,25.5152001 C10.5580139,26.0008275 10.1638067,26.3950346 9.67817936,26.3950346 C9.19289565,26.3950346 8.79834488,26.0004838 8.79834488,25.5152001 L8.79834488,23.7555312 C8.79834488,22.3000237 7.61434888,21.1160277 6.15884141,21.1160277 L5.27900693,21.1160277 L5.27900693,15.8370208 L31.6740416,15.8370208 L31.6740416,21.1160277 Z M30.7942071,43.2878568 L6.15884141,43.2878568 C5.6735577,43.2878568 5.27900693,42.893306 5.27900693,42.4080223 L5.27900693,22.8756967 L6.15884141,22.8756967 C6.64412512,22.8756967 7.0386759,23.2702475 7.0386759,23.7555312 L7.0386759,25.5152001 C7.0386759,26.9707076 8.2226719,28.1547036 9.67817936,28.1547036 C11.1364363,28.1547036 12.3176828,26.9734571 12.3176828,25.5152001 L12.3176828,24.6353657 C12.3176828,23.6651419 13.107128,22.8756967 14.0773518,22.8756967 C15.049294,22.8756967 15.8370208,23.6634235 15.8370208,24.6353657 L15.8370208,30.7942071 C15.8370208,32.2497145 17.0210168,33.4337105 18.4765242,33.4337105 C19.9347812,33.4337105 21.1160277,32.252464 21.1160277,30.7942071 L21.1160277,24.6353657 C21.1160277,23.6651419 21.9054729,22.8756967 22.8756967,22.8756967 C23.8476388,22.8756967 24.6353657,23.6634235 24.6353657,24.6353657 L24.6353657,27.2748691 C24.6353657,28.7303766 25.8193616,29.9143726 27.2748691,29.9143726 C28.7331261,29.9143726 29.9143726,28.7331261 29.9143726,27.2748691 L29.9143726,23.7555312 C29.9143726,23.2702475 30.3089234,22.8756967 30.7942071,22.8756967 L31.6740416,22.8756967 L31.6740416,42.4080223 C31.6740416,42.893306 31.2794908,43.2878568 30.7942071,43.2878568 Z M35.1933795,16.7168553 C35.1933795,17.202139 34.7988287,17.5966898 34.313545,17.5966898 L33.4337105,17.5966898 L33.4337105,14.9571863 C33.4337105,14.4712152 33.0398472,14.0773518 32.553876,14.0773518 L4.39917244,14.0773518 C3.91320131,14.0773518 3.51933795,14.4712152 3.51933795,14.9571863 L3.51933795,17.5966898 L2.63950346,17.5966898 C2.15421975,17.5966898 1.75966898,17.202139 1.75966898,16.7168553 L1.75966898,13.1975173 C1.75966898,8.1030694 5.71651835,3.91526347 10.7185149,3.54614545 C11.0890077,4.55623662 12.0602625,5.27900693 13.1975173,5.27900693 L23.7555312,5.27900693 C24.9175313,5.27900693 25.8743513,4.53527183 26.2355646,3.54614545 C31.2368738,3.9159508 35.1933795,8.1030694 35.1933795,13.1975173 L35.1933795,16.7168553 Z" id="Shape"></path>
            <path d="M13.1975173,19.3563587 L27.2748691,19.3563587 C27.7608402,19.3563587 28.1547036,18.9624954 28.1547036,18.4765242 C28.1547036,17.9905531 27.7608402,17.5966898 27.2748691,17.5966898 L13.1975173,17.5966898 C12.7115462,17.5966898 12.3176828,17.9905531 12.3176828,18.4765242 C12.3176828,18.9624954 12.7115462,19.3563587 13.1975173,19.3563587 Z" id="Shape"></path>
        </g>
    </g>
</svg>