<?xml version="1.0" encoding="UTF-8"?>
<svg width="93px" height="93px" viewBox="0 0 93 93" version="1.1" xmlns="http://www.w3.org/2000/svg" xmlns:xlink="http://www.w3.org/1999/xlink">
    <!-- Generator: Sketch 50.2 (55047) - http://www.bohemiancoding.com/sketch -->
    <title>сохранение свойств и характеристик материалов после колеровки</title>
    <desc>Created with Sketch.</desc>
    <defs></defs>
    <g id="сохранение-свойств-и-характеристик-материалов-после-колеровки" stroke="none" stroke-width="1" fill="none" fill-rule="evenodd">
        <rect id="Rectangle-59" fill="#FFFFFF" opacity="0" x="0" y="0" width="93" height="93"></rect>
        <g id="droplet-2" transform="translate(32.500000, 24.005819)" fill="#DA3838" fill-rule="nonzero">
            <path d="M14.2272554,9.43143178 C13.9255458,9.08222897 13.3252796,9.08222897 13.0235699,9.43143178 C12.4956273,10.0413543 0.0894684391,24.4528674 0.0894684391,31.6134956 C0.0894684391,38.9875474 6.16149828,44.9868595 13.6254127,44.9868595 C21.0893271,44.9868595 27.1613569,38.9875474 27.1613569,31.6134956 C27.1611598,24.4528674 14.755001,10.0415514 14.2272554,9.43143178 Z M13.6252156,43.3945578 C7.0392349,43.3945578 1.68177017,38.1098108 1.68177017,31.6136927 C1.68177017,25.8853478 11.122267,14.1872508 13.6252156,11.1865109 C16.1281642,14.1868567 25.568661,25.882983 25.568661,31.6136927 C25.5688581,38.1098108 20.2113934,43.3945578 13.6252156,43.3945578 Z" id="Shape"></path>
            <path d="M13.6252156,40.2095602 C8.79569349,40.2095602 4.86676778,36.2804374 4.86676778,31.4511124 C4.86676778,31.0114558 4.51066763,30.6549615 4.07061691,30.6549615 C3.6305662,30.6549615 3.27446604,31.0114558 3.27446604,31.4511124 C3.27446604,37.1589623 7.91815393,41.802059 13.6254127,41.802059 C14.0654634,41.802059 14.4215635,41.4455647 14.4215635,41.0059081 C14.4215635,40.5662515 14.0654634,40.2095602 13.6252156,40.2095602 Z" id="Shape"></path>
            <path d="M13.6252156,7.96229695 C14.0652663,7.96229695 14.4213665,7.60580266 14.4213665,7.16614608 L14.4213665,0.796150868 C14.4213665,0.356494287 14.0652663,0 13.6252156,0 C13.1851649,0 12.8290647,0.356494287 12.8290647,0.796150868 L12.8290647,7.16594901 C12.8290647,7.60580266 13.1851649,7.96229695 13.6252156,7.96229695 Z" id="Shape"></path>
            <path d="M19.8817002,22.2827651 C19.6554672,21.9055788 19.1663468,21.782806 18.7891605,22.0098272 C18.4119742,22.2360602 18.2899897,22.7251806 18.5162226,23.1023669 L19.710646,25.0929412 C19.8600228,25.3416398 20.1235015,25.4793896 20.3942716,25.4793896 C20.5334009,25.4793896 20.6748951,25.4429322 20.8033828,25.365879 C21.1805691,25.1396461 21.3025536,24.6505256 21.0763206,24.2733393 L19.8817002,22.2827651 Z" id="Shape"></path>
            <path d="M16.6967026,17.5054657 C16.4712579,17.1286735 15.9821375,17.0062949 15.6041629,17.2325279 C15.2269766,17.4587609 15.104992,17.9478813 15.331225,18.3250676 L16.5256484,20.3156418 C16.6750252,20.5643404 16.9385038,20.7020903 17.209274,20.7020903 C17.3484033,20.7020903 17.4898974,20.6656329 17.6183852,20.5885797 C17.9955715,20.3623467 18.117556,19.8732263 17.891323,19.49604 L16.6967026,17.5054657 Z" id="Shape"></path>
        </g>
    </g>
</svg>