<?xml version="1.0" encoding="UTF-8"?>
<svg width="93px" height="93px" viewBox="0 0 93 93" version="1.1" xmlns="http://www.w3.org/2000/svg" xmlns:xlink="http://www.w3.org/1999/xlink">
    <!-- Generator: Sketch 50.2 (55047) - http://www.bohemiancoding.com/sketch -->
    <title>колеровка в непосредственной близости от конечного потребителя за считанные минуты</title>
    <desc>Created with Sketch.</desc>
    <defs></defs>
    <g id="колеровка-в-непосредственной-близости-от-конечного-потребителя-за-считанные-минуты" stroke="none" stroke-width="1" fill="none" fill-rule="evenodd">
        <rect id="Rectangle-59" fill="#FFFFFF" opacity="0" x="0" y="0" width="93" height="93"></rect>
        <g id="droplet" transform="translate(20.000000, 24.000798)" fill="#D62626" fill-rule="nonzero">
            <path d="M25.3015449,34.5589483 C25.1081612,33.0592204 24.0045794,31.1693756 22.7895675,30.2564977 L17.4188176,26.217549 C16.6280885,25.6237765 15.7790763,25.4844331 15.087942,25.8343547 C14.4689358,26.1498871 14.0984699,26.8019427 14.0522454,27.6433625 C14.0104871,27.7632782 13.9821271,27.9050779 13.9852534,28.0698783 C13.9932924,28.4716071 14.1853362,28.8532383 14.5544622,29.2002569 C14.7889343,29.4293696 15.644869,30.7430831 16.3536445,31.904278 L10.6695952,29.9782575 C9.59816954,29.616054 8.05355694,28.5993385 7.29677046,27.7597053 L2.95568778,22.9347169 C2.01735293,21.8923211 1.25297402,22.0068775 0.879381872,22.1672117 C0.50757618,22.3284392 -0.0995947981,22.8069855 0.0140683235,24.1718362 C0.0299231008,24.4960775 0.0951286637,25.5920669 0.278463483,26.1172843 C1.12524257,28.5377059 3.13723614,31.2444067 3.20266501,31.3308264 C3.99830686,32.4824191 5.5507352,33.9696419 6.73761042,34.7168262 L14.6058228,39.669546 C15.4852047,40.2229 16.4715504,41.5922169 16.7305862,42.653817 C16.9362517,43.4970232 17.457003,44.1903906 18.1963716,44.606411 C18.6559368,44.8654468 19.1628431,44.9958579 19.680468,44.9958579 C19.9997967,44.9958579 20.3231448,44.9465071 20.6418035,44.8451259 L23.4617208,43.9516757 C25.1059282,43.4300312 26.2213453,41.6846658 26.0011648,39.9779326 L25.3015449,34.5589483 Z M22.9161825,42.231544 L20.0967118,43.1249942 C19.7429939,43.2350844 19.3834701,43.2033749 19.0813361,43.0332151 C18.7818818,42.8648419 18.5697404,42.5785627 18.4705922,42.1723677 C18.1146413,40.7132816 16.8393366,38.942236 15.5669349,38.1412348 L7.69872256,33.188515 C6.72108573,32.5735283 5.34216672,31.252669 4.6673338,30.2772652 C4.64835273,30.2518083 2.7372938,27.6824411 1.98162385,25.5219486 C1.93271968,25.3828285 1.87198025,24.9016025 1.83446472,24.3862106 L5.95536698,28.9662315 C6.91536258,30.0322978 8.73218607,31.227212 10.0907842,31.6870006 L15.9537022,33.6737605 C17.275008,34.1221604 17.8969173,33.6498667 18.150817,33.3291982 C18.4042701,33.009423 18.7204724,32.2972979 17.9940557,31.1289571 C17.5293544,30.3614519 16.4389477,28.5939792 15.8480781,27.9419235 C15.8507578,27.9111072 15.8520976,27.8793977 15.851651,27.8485813 C15.8476315,27.57972 15.9070311,27.4504255 15.8847004,27.4504255 C15.9275753,27.4414932 16.0852298,27.4725328 16.3344401,27.6592172 L21.7047435,31.6972727 C22.5352212,32.3220849 23.3797672,33.7668794 23.5119648,34.7891776 L24.2115848,40.2079385 C24.3198885,41.0482417 23.7267859,41.9742947 22.9161825,42.231544 Z" id="Shape"></path>
            <path d="M51.3442447,22.1669884 C50.9715458,22.0066542 50.2062737,21.8920978 49.2679388,22.9344936 L44.9268562,27.759482 C44.1700697,28.5991152 42.6254571,29.616054 41.5535848,29.9780342 L35.8699821,31.9040547 C36.5747381,30.748889 37.434469,29.4298162 37.6669313,29.2018201 C38.0378438,28.853015 38.2298875,28.472277 38.2379266,28.069655 C38.2414995,27.9048546 38.2133629,27.7630549 38.1713812,27.6440324 C38.1251567,26.8017194 37.7546908,26.1496638 37.1356846,25.8341314 C36.4445503,25.4844331 35.5955381,25.6235532 34.8043624,26.218219 L29.4340591,30.2562744 C28.2190472,31.1691523 27.1154654,33.0589971 26.9220817,34.558725 L26.2224618,39.977486 C26.0022814,41.6842192 27.1176984,43.4295846 28.7619058,43.9512291 L31.5818231,44.8446793 C31.8998119,44.9460605 32.2236066,44.9954113 32.5431586,44.9954113 C33.0607835,44.9954113 33.5679131,44.8650002 34.027255,44.6059644 C34.7668469,44.1901673 35.2871516,43.4965766 35.5062155,42.6004467 C35.7520762,41.5915469 36.738422,40.2224534 37.6178038,39.6690994 L45.4860162,34.7163796 C46.6728914,33.9691953 48.2253197,32.4819725 49.0010873,31.3576232 C49.0866138,31.24396 51.0986073,28.5372593 51.9449398,26.1168377 C52.1287213,25.5916203 52.1939268,24.4956309 52.2075485,24.2030991 C52.3232214,22.8067622 51.7160504,22.3282159 51.3442447,22.1669884 Z M50.2413328,25.521502 C49.4876726,27.6775284 47.574604,30.2522549 47.5359719,30.3049553 C46.88079,31.2531156 45.501871,32.5737516 44.5244574,33.1887383 L36.6562451,38.1414581 C35.3838434,38.9424593 34.1085387,40.7135049 33.7394127,42.2252914 C33.6534396,42.5785627 33.4415215,42.8650652 33.1425138,43.0332151 C32.8399332,43.204938 32.4781763,43.2357543 32.1266915,43.1249942 L29.3072208,42.231544 C28.4966174,41.9742947 27.9035148,41.0482417 28.0120419,40.2086084 L28.7116618,34.7898475 C28.8438594,33.7677726 29.6884054,32.3227548 30.5188831,31.6979426 L35.8887399,27.6607804 C36.13929,27.4723095 36.3020806,27.445736 36.2953814,27.4272016 C36.3165956,27.4510954 36.3759951,27.58039 36.3719756,27.8492513 C36.371529,27.8800676 36.3728688,27.9117771 36.3755485,27.9425935 C35.8474281,28.4941611 34.7076706,30.3400144 34.2353769,31.1198015 C33.5031542,32.2979678 33.8195798,33.0096463 34.0728096,33.3296448 C34.326486,33.6503133 34.950405,34.1217138 36.2699244,33.6742071 L42.1323958,31.6874472 C43.4914405,31.2274354 45.308264,30.0327444 46.2682596,28.9666781 L50.3891619,24.3866572 C50.3525396,24.8904372 50.2909069,25.3803721 50.2413328,25.521502 Z" id="Shape"></path>
            <path d="M26.2925801,27.1328833 C31.8651994,27.1328833 36.3983258,22.5651443 36.3983258,16.9500968 C36.3983258,11.5558996 27.3653456,0.838293435 26.9805881,0.384534176 C26.6378123,-0.0207675252 25.9471246,-0.0207675252 25.6043488,0.384534176 C25.2198146,0.838293435 16.1866111,11.5558996 16.1866111,16.9500968 C16.1868344,22.5653676 20.7201841,27.1328833 26.2925801,27.1328833 Z M26.2925801,2.3817895 C29.1236627,5.86403453 34.5940075,13.3392271 34.5940075,16.9498734 C34.5940075,21.5694196 30.8701446,25.3283417 26.2925801,25.3283417 C21.7150156,25.3283417 17.9911527,21.5696429 17.9911527,16.9498734 C17.9915993,13.3410135 23.4621674,5.86492775 26.2925801,2.3817895 Z" id="Shape"></path>
            <path d="M27.0140841,24.2589258 C27.5122814,24.2589258 27.9162433,23.8554105 27.9162433,23.3567666 C27.9162433,22.8581227 27.5122814,22.4546075 27.0140841,22.4546075 C23.7055717,22.4546075 21.0138325,19.6967694 21.0138325,16.3063035 C21.0138325,15.8076596 20.6098706,15.4041443 20.1116733,15.4041443 C19.613476,15.4041443 19.2095142,15.8076596 19.2095142,16.3063035 C19.2092909,20.6911543 22.7102937,24.2589258 27.0140841,24.2589258 Z" id="Shape"></path>
        </g>
    </g>
</svg>