<?xml version="1.0" encoding="UTF-8"?>
<svg width="93px" height="93px" viewBox="0 0 93 93" version="1.1" xmlns="http://www.w3.org/2000/svg" xmlns:xlink="http://www.w3.org/1999/xlink">
    <!-- Generator: Sketch 50.2 (55047) - http://www.bohemiancoding.com/sketch -->
    <title>повторное воспроизведение нужного оттенка в будущем</title>
    <desc>Created with Sketch.</desc>
    <defs></defs>
    <g id="повторное-воспроизведение-нужного-оттенка-в-будущем" stroke="none" stroke-width="1" fill="none" fill-rule="evenodd">
        <rect id="Rectangle-59" fill="#FFFFFF" opacity="0" x="0" y="0" width="93" height="93"></rect>
        <g id="eyedropper" transform="translate(27.000000, 23.920644)" fill="#D62626" fill-rule="nonzero">
            <path d="M36.6151108,1.85830916 L36.1583337,1.40167069 C35.2543476,0.497823288 34.0524996,0 32.7739673,0 C31.4952964,0 30.2934484,0.497823288 29.3894623,1.40167069 L21.1362733,9.65499839 L20.6258311,9.14469486 C20.1773741,8.69623789 19.5808182,8.44899028 18.9462668,8.44885161 C18.9461282,8.44885161 18.9459895,8.44885161 18.9458508,8.44885161 C18.3110221,8.44885161 17.7143275,8.69609922 17.2653159,9.14524954 L17.087403,9.32357843 C16.1609525,10.2498903 16.1609525,11.7573658 17.0872643,12.683539 L17.9370307,13.5333053 L4.49566323,26.9749501 C4.39970398,27.0709093 4.32856655,27.1890557 4.28876842,27.3188503 L1.93069461,34.9973931 C1.84028213,35.291927 1.91987839,35.6122534 2.13772808,35.8301031 C2.29608858,35.9884636 2.50866883,36.0737453 2.72610251,36.0737453 C2.80764014,36.0737453 2.89000979,36.0616811 2.97029939,36.0369979 L10.6482876,33.6782308 C10.7782209,33.6384326 10.8962285,33.5672952 10.9921878,33.4711973 L24.4335552,20.0299685 L25.3335199,20.9299332 C25.7821155,21.3785288 26.3786715,21.6257764 27.0135002,21.6256378 C27.6483289,21.6256378 28.2450235,21.3785288 28.6934804,20.9297945 L28.871948,20.7514656 C29.7981212,19.8244604 29.7979825,18.3169849 28.8718093,17.3910891 L28.3619218,16.8810629 L36.6152495,8.62787386 C36.6210736,8.62204974 36.6266204,8.61622562 36.6321672,8.61040151 C37.5251984,7.70863414 38.0167815,6.51371958 38.0167815,5.24309151 C38.0169202,3.96414327 37.5190969,2.76215657 36.6151108,1.85830916 Z M9.96201253,32.1482908 L3.98217029,33.9853836 L5.81870835,28.005264 L8.01342957,25.8105428 L16.2998993,25.8105428 L9.96201253,32.1482908 Z M17.9639325,24.1465095 L9.67732417,24.1465095 L19.1136409,14.7101928 L23.2570837,18.853497 L17.9639325,24.1465095 Z M35.4389166,7.45057031 C35.4336472,7.45570108 35.4286551,7.46097052 35.4235243,7.46623996 L26.5973532,16.2922724 C26.272312,16.6173136 26.272312,17.1439801 26.5972145,17.4688826 L27.6953378,18.5674219 C27.972954,18.8448995 27.9728153,19.2969619 27.6953378,19.5748554 L27.5170089,19.7530456 C27.3826382,19.8874163 27.2037546,19.9614658 27.0135002,19.9614658 C26.8233844,19.9614658 26.6446395,19.887555 26.5102688,19.7531843 L18.2638745,11.5070674 C17.986397,11.2294512 17.986397,10.7776662 18.2644292,10.499634 L18.4424808,10.3211664 C18.5769901,10.1867957 18.7555964,10.1127462 18.9458508,10.1127462 L18.9459895,10.1127462 C19.136244,10.1128849 19.3148502,10.1867957 19.4492209,10.3211664 L20.5481762,11.4197057 C20.8732174,11.7444695 21.3998839,11.7446082 21.7247864,11.419567 L30.5660725,2.57800355 C31.1558337,1.98838109 31.9398707,1.66375594 32.7739673,1.66375594 C33.608064,1.66375594 34.392101,1.98838109 34.9817235,2.57814222 L35.4386393,3.03491935 C36.0282618,3.62440314 36.3531643,4.40844015 36.3531643,5.2426755 C36.3530256,6.07704952 36.0282618,6.8612252 35.4389166,7.45057031 Z" id="Shape"></path>
            <path d="M2.72596384,38.7324545 C1.46629065,38.7324545 0.116898337,41.0515622 0.116898337,42.6837015 C0.116898337,43.3666485 0.336134721,43.9483668 0.750895015,44.3663165 C1.21252558,44.8314138 1.8771682,45.0674292 2.72610251,45.0674292 C3.57489815,45.0674292 4.2394021,44.8315525 4.700894,44.3663165 C5.11551562,43.9483668 5.33461334,43.3666485 5.33461334,42.6838402 C5.33475201,41.0517009 3.98549836,38.7324545 2.72596384,38.7324545 Z M3.64215283,42.9545229 C3.60693079,43.1002645 3.533852,43.4033959 2.72624118,43.4033959 L2.72610251,43.4033959 C1.91793702,43.4033959 1.84485822,43.0999872 1.80963619,42.9542456 C1.6235418,42.1826888 2.30621145,40.9024926 2.72610251,40.4855135 C3.14571624,40.9026312 3.82810855,42.1828275 3.64215283,42.9545229 Z" id="Shape"></path>
        </g>
    </g>
</svg>