<?xml version="1.0" encoding="UTF-8"?>
<svg width="93px" height="93px" viewBox="0 0 93 93" version="1.1" xmlns="http://www.w3.org/2000/svg" xmlns:xlink="http://www.w3.org/1999/xlink">
    <!-- Generator: Sketch 50.2 (55047) - http://www.bohemiancoding.com/sketch -->
    <title>получение практически любого оттенка в соответствии с колористической линейкой</title>
    <desc>Created with Sketch.</desc>
    <defs></defs>
    <g id="получение-практически-любого-оттенка-в-соответствии-с-колористической-линейкой" stroke="none" stroke-width="1" fill="none" fill-rule="evenodd">
        <rect id="Rectangle-59" fill="#FFFFFF" opacity="0" x="0" y="0" width="93" height="93"></rect>
        <g id="color-palette" transform="translate(24.000000, 24.000000)" fill="#D62626" fill-rule="nonzero">
            <path d="M39.6304987,13.2516691 L38.693855,12.3150254 L43.6508509,7.35802954 C44.4651083,6.5437721 44.913622,5.46139682 44.913622,4.31040032 C44.913622,1.93341932 42.9802026,0 40.6032216,0 C39.4522251,0 38.3698499,0.448513677 37.5555924,1.26277111 L32.5985966,6.21976695 L31.6619529,5.28312325 C31.3786253,4.99979563 30.9209149,4.99979563 30.6375873,5.28312325 L28.4643475,7.45636302 C28.1810199,7.73969065 28.1810199,8.19740102 28.4643475,8.48072864 L29.4009912,9.41737235 L23.7340846,15.0846328 C21.3599333,13.7507644 18.6798164,13.0394386 15.9370917,13.0394386 C7.14933631,13.0394386 -2.84217094e-14,20.1887749 -2.84217094e-14,28.9765303 C-2.84217094e-14,37.7642857 7.14933631,44.913622 15.9370917,44.913622 C24.724847,44.913622 31.8741833,37.7642857 31.8741833,28.9765303 C31.8741833,26.2338055 31.1628576,23.5536887 29.8289892,21.1795374 L35.4962496,15.5126308 L36.4328933,16.4492745 C36.5740266,16.5904077 36.7597282,16.6615049 36.9450761,16.6615049 C37.1304241,16.6615049 37.3161257,16.5904077 37.4572589,16.4492745 L39.6304987,14.2760347 C39.9138263,13.9927071 39.9138263,13.5349967 39.6304987,13.2516691 Z M38.5799581,2.28713673 C39.1204383,1.74665653 39.839192,1.44882652 40.6032216,1.44882652 C42.181155,1.44882652 43.4647955,2.73246698 43.4647955,4.31040032 C43.4647955,5.07442993 43.1669654,5.79318371 42.6264852,6.33366391 L37.6694894,11.2906598 L33.6229622,7.24413258 L38.5799581,2.28713673 Z M34.471884,14.4882652 L31.2010591,14.4882652 C30.0398049,14.4882652 28.9489403,14.940316 28.1276085,15.7609404 L28.0759658,15.8125831 C27.5291187,16.3601377 26.8011682,16.6615049 26.0275883,16.6615049 L24.2055899,16.6615049 L30.4253568,10.441738 L34.471884,14.4882652 Z M26.0420907,29.7009436 L30.3885702,29.7009436 C30.2166635,33.1482734 28.8403491,36.2765503 26.6642796,38.68006 L23.5918901,35.6076706 C24.9880128,33.9996712 25.8818567,31.9523549 26.0420907,29.7009436 Z M15.2126784,18.8715313 C12.9612671,19.0317653 10.9139507,19.9256092 9.30595134,21.3210244 L6.23356196,18.248635 C8.63707169,16.0725655 11.7646411,14.696251 15.2126784,14.5243444 L15.2126784,18.8715313 Z M8.28158572,22.34539 C6.88617056,23.9533894 5.99232664,26.0014131 5.83209267,28.252117 L1.48561313,28.252117 C1.65751983,24.8047872 3.03383421,21.6765103 5.20990372,19.2730006 L8.28158572,22.34539 Z M5.83209267,29.7009436 C5.99232664,31.9523549 6.88617056,33.9996712 8.28158572,35.6076706 L5.20919633,38.68006 C3.03312682,36.2765503 1.65751983,33.1482734 1.48561313,29.7009436 L5.83209267,29.7009436 Z M9.30595134,36.6320362 C10.9139507,38.0274514 12.9619745,38.9212953 15.2126784,39.0815293 L15.2126784,43.4280088 C11.7653486,43.2561021 8.63707169,41.8797878 6.23356196,39.7037182 L9.30595134,36.6320362 Z M16.6615049,39.0815293 C18.9129162,38.9212953 20.9602326,38.0274514 22.568232,36.6320362 L25.6406214,39.7044256 C23.2371116,41.8804951 20.1095422,43.2568096 16.6615049,43.4287162 L16.6615049,39.0815293 Z M15.9370917,37.6694894 C11.1435133,37.6694894 7.24413258,33.7701087 7.24413258,28.9765303 C7.24413258,24.1829519 11.1435133,20.2835712 15.9370917,20.2835712 C17.4764698,20.2835712 18.9571309,20.6857479 20.2711911,21.4448255 L18.7724904,22.9435261 C18.3459072,23.3704631 18.1103314,23.9381795 18.1103314,24.5423288 C18.1103314,25.7891827 19.1244393,26.8032905 20.3712931,26.8032905 C20.9754425,26.8032905 21.5431589,26.5677148 21.9700958,26.1411315 L23.4687965,24.6424309 C24.2278741,25.9564911 24.6300508,27.4371521 24.6300508,28.9765303 C24.6300508,33.7701087 20.73067,37.6694894 15.9370917,37.6694894 Z M20.9457302,25.1167659 C20.7922169,25.2695718 20.5884757,25.354464 20.3712931,25.354464 C19.9234869,25.354464 19.559158,24.990135 19.559158,24.5423288 C19.559158,24.3251463 19.6440501,24.1214051 19.7968561,23.9678918 L23.6934071,20.0713408 C23.8875979,19.8771499 23.9548042,19.5902851 23.8688509,19.3303028 L23.4617221,18.1103314 L26.0268808,18.1103314 C27.1877814,18.1103314 28.2789996,17.6582805 29.1003314,16.8376561 L29.1519741,16.7860135 C29.6995287,16.2384589 30.4274792,15.9370917 31.2010591,15.9370917 L33.0230575,15.9370917 L27.3320981,21.6280511 L25.5833192,21.0447711 C25.3233369,20.9581103 25.036472,21.0260241 24.8422812,21.2202149 L20.9457302,25.1167659 Z M21.9446282,16.8737354 C21.7504373,17.0679262 21.683231,17.354791 21.7691843,17.6147734 L22.3524643,19.3635522 L21.3259764,20.3900401 C19.9164125,19.5018558 18.326099,18.9797688 16.6615049,18.8623347 L16.6615049,14.5130254 C18.7657698,14.6180795 20.8159159,15.1720009 22.6704563,16.1471998 L21.9446282,16.8737354 Z M30.4005966,28.252117 L26.0512873,28.252117 C25.9345606,26.587523 25.4124737,24.9972095 24.5242892,23.5876455 L25.5507772,22.5611576 L27.2995561,23.1444376 C27.5609533,23.2318059 27.8471106,23.1631846 28.040594,22.9689938 L28.7671296,22.2424582 C29.7416211,24.0977061 30.2955425,26.1478522 30.4005966,28.252117 Z M36.9450761,14.912726 L30.0008959,7.96854583 L31.1497701,6.81967168 L38.0939503,13.7638519 L36.9450761,14.912726 Z" id="Shape"></path>
            <path d="M44.1892087,37.6694894 L38.3939027,37.6694894 C37.994202,37.6694894 37.6694894,37.994202 37.6694894,38.3939027 L37.6694894,44.1892087 C37.6694894,44.5889093 37.994202,44.913622 38.3939027,44.913622 L44.1892087,44.913622 C44.5889093,44.913622 44.913622,44.5889093 44.913622,44.1892087 L44.913622,38.3939027 C44.913622,37.994202 44.5889093,37.6694894 44.1892087,37.6694894 Z M43.4647955,43.4647955 L39.1183159,43.4647955 L39.1183159,39.1183159 L43.4647955,39.1183159 L43.4647955,43.4647955 Z" id="Shape"></path>
            <path d="M44.1892087,28.9765303 L38.3939027,28.9765303 C37.994202,28.9765303 37.6694894,29.3012429 37.6694894,29.7009436 L37.6694894,35.4962496 C37.6694894,35.8959502 37.994202,36.2206629 38.3939027,36.2206629 L44.1892087,36.2206629 C44.5889093,36.2206629 44.913622,35.8959502 44.913622,35.4962496 L44.913622,29.7009436 C44.913622,29.3012429 44.5889093,28.9765303 44.1892087,28.9765303 Z M43.4647955,34.7718364 L39.1183159,34.7718364 L39.1183159,30.4253568 L43.4647955,30.4253568 L43.4647955,34.7718364 Z" id="Shape"></path>
            <path d="M44.1892087,20.2835712 L38.3939027,20.2835712 C37.994202,20.2835712 37.6694894,20.6082838 37.6694894,21.0079845 L37.6694894,26.8032905 C37.6694894,27.2029912 37.994202,27.5277038 38.3939027,27.5277038 L44.1892087,27.5277038 C44.5889093,27.5277038 44.913622,27.2029912 44.913622,26.8032905 L44.913622,21.0079845 C44.913622,20.6082838 44.5889093,20.2835712 44.1892087,20.2835712 Z M43.4647955,26.0788773 L39.1183159,26.0788773 L39.1183159,21.7323977 L43.4647955,21.7323977 L43.4647955,26.0788773 Z" id="Shape"></path>
        </g>
    </g>
</svg>