<?xml version="1.0" encoding="UTF-8"?>
<svg width="93px" height="93px" viewBox="0 0 93 93" version="1.1" xmlns="http://www.w3.org/2000/svg" xmlns:xlink="http://www.w3.org/1999/xlink">
    <!-- Generator: Sketch 50.2 (55047) - http://www.bohemiancoding.com/sketch -->
    <title>в нашем ассортименте доступно 5 тыс. цветов.</title>
    <desc>Created with Sketch.</desc>
    <defs></defs>
    <g id="в-нашем-ассортименте-доступно-5-тыс.-цветов." stroke="none" stroke-width="1" fill="none" fill-rule="evenodd">
        <rect id="Rectangle-59" fill="#FFFFFF" opacity="0" x="0" y="0" width="93" height="93"></rect>
        <g id="pantone" transform="translate(23.500000, 24.000000)" fill="#D62626" fill-rule="nonzero">
            <path d="M42.9856267,31.4973974 L32.6097981,31.4973974 L41.477348,26.5477872 C42.1560599,26.1727937 42.6085345,25.5729114 42.8347718,24.8229244 C43.0610091,24.0730268 42.9856267,23.3230398 42.6085345,22.6481052 L38.6870281,15.748654 C38.3099359,15.1486823 37.7066964,14.6987259 37.0278946,14.4737477 C36.3491827,14.2487694 35.5949984,14.3237324 34.9917589,14.6987259 L27.1032828,19.0979525 L31.9752016,11.5490308 C32.8047683,10.1991615 32.4276762,8.39933575 31.0702524,7.57438583 L24.7355181,3.52468854 C23.3026219,2.62477567 21.417341,2.99976915 20.5123918,4.42460142 L15.0826067,12.798473 L15.0826067,2.24978219 C15.0826067,0.899912875 14.1776575,0 12.8202336,0 L3.77065167,0 C2.41322785,0 1.50827864,0.899912875 1.50827864,2.24978219 L1.50827864,31.6182852 C0.615369058,31.9162607 0,32.7373687 0,33.7471796 L0,42.7463977 C0,44.021304 0.980331697,44.9961799 2.26237303,44.9961799 L42.9856267,44.9961799 C44.267668,44.9961799 45.2479997,44.021304 45.2479997,42.7463977 L45.2479997,33.7471796 C45.2480895,32.4722732 44.267668,31.4973974 42.9856267,31.4973974 Z M35.6705606,15.8986693 C35.9721804,15.748654 36.2738901,15.748654 36.5755098,15.8237063 C36.952602,15.8986693 37.1788393,16.0486845 37.3296042,16.3486257 L41.2511107,23.2480769 C41.477348,23.5480181 41.477348,23.8480486 41.4019655,24.2229527 C41.3265831,24.5979462 41.1003458,24.8978874 40.7986361,25.0479026 L29.260354,31.4973974 L7.91839545,31.4973974 L11.9655095,29.2225978 L25.1879927,21.8231553 C25.3124322,21.8231553 25.3853888,21.7213879 25.4495402,21.6435658 L35.6705606,15.8986693 Z M21.7944331,5.24955134 C22.2469077,4.57461668 23.2273293,4.34963846 23.9814237,4.7995949 L30.316158,8.84929219 C30.9948699,9.22428567 31.1457247,10.1241985 30.7686326,10.7241702 L24.3585158,20.6233012 L4.8264557,31.4973974 L21.7944331,5.24955134 Z M3.77065167,1.49988457 L12.8202336,1.49988457 C13.3480907,1.49988457 13.574328,1.72486279 13.574328,2.24978219 L13.574328,15.1245584 L3.01655727,31.4071559 L3.01655727,2.24978219 C3.01655727,1.72486279 3.24279458,1.49988457 3.77065167,1.49988457 Z M43.7398109,42.7463977 C43.7398109,43.1963541 43.4381911,43.4962953 42.9857165,43.4962953 L2.26237303,43.4962953 C1.80989842,43.4962953 1.50827864,43.1963541 1.50827864,42.7463977 L1.50827864,33.7471796 C1.50827864,33.2972231 1.80989842,32.9972819 2.26237303,32.9972819 L3.39355955,32.9972819 L3.46894203,32.9972819 L4.97722067,32.9972819 L29.4865913,32.9972819 C29.5619738,32.9972819 29.7128286,32.9972819 29.7882111,33.0722449 L29.9225338,32.9972819 L42.9855368,32.9972819 C43.4380114,32.9972819 43.7396312,33.3722754 43.7396312,33.7471796 L43.7396312,42.7463977 L43.7398109,42.7463977 Z" id="Shape"></path>
            <path d="M19.6074426,34.4970772 L13.574328,34.4970772 C13.1218534,34.4970772 12.8202336,34.7970184 12.8202336,35.2469748 L12.8202336,41.2465131 C12.8202336,41.6964695 13.1218534,41.9964107 13.574328,41.9964107 L19.6074426,41.9964107 C20.0599172,41.9964107 20.361537,41.6964695 20.361537,41.2465131 L20.361537,35.2469748 C20.3616268,34.7971077 20.060007,34.4970772 19.6074426,34.4970772 Z M18.8533482,40.4966155 L14.3285123,40.4966155 L14.3285123,35.9969618 L18.8533482,35.9969618 L18.8533482,40.4966155 Z" id="Shape"></path>
            <path d="M29.4112088,34.4970772 L23.3780942,34.4970772 C22.9256196,34.4970772 22.6239998,34.7970184 22.6239998,35.2469748 L22.6239998,41.2465131 C22.6239998,41.6964695 22.9256196,41.9964107 23.3780942,41.9964107 L29.4112088,41.9964107 C29.8636834,41.9964107 30.1653032,41.6964695 30.1653032,41.2465131 L30.1653032,35.2469748 C30.165393,34.7971077 29.8636834,34.4970772 29.4112088,34.4970772 Z M28.6571144,40.4966155 L24.1322785,40.4966155 L24.1322785,35.9969618 L28.6571144,35.9969618 L28.6571144,40.4966155 Z" id="Shape"></path>
            <path d="M39.214975,34.4970772 L33.1818604,34.4970772 C32.7293858,34.4970772 32.4277661,34.7970184 32.4277661,35.2469748 L32.4277661,41.2465131 C32.4277661,41.6964695 32.7293858,41.9964107 33.1818604,41.9964107 L39.214975,41.9964107 C39.6674496,41.9964107 39.9690694,41.6964695 39.9690694,41.2465131 L39.9690694,35.2469748 C39.9690694,34.7971077 39.6674496,34.4970772 39.214975,34.4970772 Z M38.4608806,40.4966155 L33.9360447,40.4966155 L33.9360447,35.9969618 L38.4608806,35.9969618 L38.4608806,40.4966155 Z" id="Shape"></path>
            <path d="M6.78720894,34.4970772 C4.67560088,34.4970772 3.01655727,36.146977 3.01655727,38.2467439 C3.01655727,40.3465109 4.67569073,41.9964107 6.78720894,41.9964107 C8.89872715,41.9964107 10.5578606,40.3465109 10.5578606,38.2467439 C10.5578606,36.146977 8.898817,34.4970772 6.78720894,34.4970772 Z M6.78720894,40.4966155 C5.50516761,40.4966155 4.52483591,39.5217396 4.52483591,38.2468333 C4.52483591,36.9719269 5.50516761,35.9970511 6.78720894,35.9970511 C8.06925027,35.9970511 9.04958197,36.9719269 9.04958197,38.2468333 C9.04958197,39.5217396 8.06925027,40.4966155 6.78720894,40.4966155 Z" id="Shape"></path>
        </g>
    </g>
</svg>